#N canvas 469 338 450 300 10;
#X obj 39 130 dac~;
#X obj 40 31 tgl 15 0 empty empty empty 17 7 0 10 -262144 -1 -1 0 1
;
#X obj 39 65 _02_click_synth;
#X obj 39 96 _01_base_delay;
#X connect 1 0 2 0;
#X connect 2 0 3 0;
#X connect 3 0 0 0;
#X connect 3 1 0 1;
