#N canvas 332 84 450 300 36;
#X obj 47 98 cursor-xy;
#X obj 47 71 tgl 15 0 empty empty empty 17 7 0 10 -262144 -1 -1 0 1
;
#X obj 47 198 osc~;
#X obj 47 257 dac~;
#X connect 0 0 2 0;
#X connect 1 0 0 0;
#X connect 2 0 3 0;
#X connect 2 0 3 1;
