#N canvas 39 32 800 445 36;
#X obj 62 290 osc~;
#X obj 62 358 dac~;
#X obj 62 78 hradio 15 1 0 16 empty empty empty 0 -8 0 10 -262144 -1
-1 0;
#X obj 62 176 * 100;
#X floatatom 185 236 5 0 0 0 - - -;
#X obj 62 105 + 1;
#X floatatom 62 18 5 0 16 0 - - -;
#X obj 352 149 pow 2;
#X floatatom 352 358 5 0 0 0 - - -;
#X obj 355 26 hsl 128 15 0 1 0 0 empty empty empty -2 -8 0 10 -262144
-1 -1 0 1;
#X floatatom 385 67 5 0 0 0 - - -;
#X obj 355 290 hsl 128 15 0 1 0 0 empty empty empty -2 -8 0 10 -262144
-1 -1 0 1;
#X obj 515 151 *;
#X floatatom 515 30 5 0 0 0 - - -;
#X floatatom 515 221 5 0 0 0 - - -;
#X obj 515 88 t f f;
#X connect 0 0 1 0;
#X connect 0 0 1 1;
#X connect 2 0 5 0;
#X connect 3 0 0 0;
#X connect 3 0 4 0;
#X connect 5 0 3 0;
#X connect 6 0 2 0;
#X connect 7 0 11 0;
#X connect 9 0 7 0;
#X connect 9 0 10 0;
#X connect 11 0 8 0;
#X connect 12 0 14 0;
#X connect 13 0 15 0;
#X connect 15 0 12 0;
#X connect 15 1 12 1;
