#N canvas 28 51 733 481 36;
#X obj 15 -749 mtof;
#X obj 15 -853 hradio 30 1 0 13 empty empty empty 0 -8 0 10 -262144
-1 -1 0;
#X obj 15 -808 + 60;
#X floatatom 15 -684 5 0 0 0 - - -;
#X text 18 -912 C;
#X text 77 -913 D;
#X text 137 -913 E;
#X text 167 -913 F;
#X text 227 -913 G;
#X text 289 -912 A;
#X text 351 -914 B;
#X obj 15 -625 osc~;
#X obj 15 -555 dac~;
#X obj 183 -629 rmstodb;
#X floatatom 183 -697 5 0 0 0 - - -;
#X text 183 -757 Root Mean Square;
#X floatatom 183 -555 5 0 0 0 - - -;
#X obj 370 -629 dbtorms;
#X floatatom 370 -700 5 0 0 0 - - -;
#X floatatom 370 -554 5 0 0 0 - - -;
#X connect 0 0 3 0;
#X connect 1 0 2 0;
#X connect 2 0 0 0;
#X connect 3 0 11 0;
#X connect 11 0 12 0;
#X connect 11 0 12 1;
#X connect 13 0 16 0;
#X connect 14 0 13 0;
#X connect 17 0 19 0;
#X connect 18 0 17 0;
