#N canvas 34 69 710 451 36;
#X obj 71 248 -;
#X floatatom 71 337 5 0 0 0 - - -;
#X floatatom 71 61 5 0 0 0 - - -;
#X obj 71 172 swap 1000;
#X obj 333 173 - 1000;
#X obj 333 252 * -1;
#X floatatom 333 335 5 0 0 0 - - -;
#X connect 0 0 1 0;
#X connect 2 0 3 0;
#X connect 2 0 4 0;
#X connect 3 0 0 0;
#X connect 3 1 0 1;
#X connect 4 0 5 0;
#X connect 5 0 6 0;
