#N canvas 673 245 578 427 10;
#X obj 90 99 borax ---------------;
#X obj 90 66 notein;
#X obj 120 147 > 0;
#X obj 63 248 osc~ 440;
#X obj 63 281 *~;
#X obj 63 314 dac~;
#X obj 192 151 hsl 128 15 0 500 0 0 empty empty empty -2 -8 0 10 -262144
-1 -1 0 1;
#X obj 216 175 hsl 128 15 0 500 0 0 empty empty empty -2 -8 0 10 -262144
-1 -1 0 1;
#X obj 235 196 hsl 128 15 0 1 0 0 empty empty empty -2 -8 0 10 -262144
-1 -1 0 1;
#X obj 247 225 hsl 128 15 0 500 0 0 empty empty empty -2 -8 0 10 -262144
-1 -1 0 1;
#X obj 128 247 adsr2;
#X connect 0 2 2 0;
#X connect 1 0 0 0;
#X connect 1 1 0 1;
#X connect 2 0 10 0;
#X connect 3 0 4 0;
#X connect 4 0 5 0;
#X connect 4 0 5 1;
#X connect 6 0 10 1;
#X connect 7 0 10 2;
#X connect 8 0 10 3;
#X connect 9 0 10 4;
#X connect 10 0 4 1;
