#N canvas 512 184 612 439 10;
#X obj 66 115 pan~;
#X obj 67 183 freeverb~;
#X msg 117 119 freeze \$1;
#X obj 67 343 *~;
#X obj 118 344 *~;
#X obj 133 300 line~;
#X obj 66 390 outlet~;
#X obj 118 389 outlet~;
#X obj 66 23 inlet~;
#X msg 331 63 roomsize 0.968 \, damping 0.4 \, dry 0.8;
#X obj 331 27 loadbang;
#X obj 143 22 inlet freeze;
#X obj 144 44 tgl 15 0 empty empty empty 17 7 0 10 -262144 -1 -1 0
1;
#X obj 285 128 inlet control;
#X obj 208 70 sel 1 0;
#X obj 412 127 inlet ar_time;
#X obj 190 219 zl reg;
#X obj 510 127 loadbang;
#X msg 510 152 500 500;
#X msg 190 249 0 \$2;
#X obj 133 219 zl reg;
#X msg 133 249 1 \$1;
#X msg 117 94 1;
#X msg 176 95 0;
#X msg 237 250 \$2;
#X obj 203 286 del 500;
#X connect 0 0 1 0;
#X connect 0 1 1 1;
#X connect 1 0 3 0;
#X connect 1 1 4 0;
#X connect 2 0 1 0;
#X connect 3 0 6 0;
#X connect 4 0 7 0;
#X connect 5 0 3 1;
#X connect 5 0 4 1;
#X connect 8 0 0 0;
#X connect 9 0 1 0;
#X connect 10 0 9 0;
#X connect 11 0 12 0;
#X connect 12 0 14 0;
#X connect 13 0 1 0;
#X connect 14 0 20 0;
#X connect 14 0 22 0;
#X connect 14 1 16 0;
#X connect 14 1 25 0;
#X connect 15 0 16 1;
#X connect 15 0 20 1;
#X connect 16 0 19 0;
#X connect 16 0 24 0;
#X connect 17 0 18 0;
#X connect 18 0 16 1;
#X connect 18 0 20 1;
#X connect 19 0 5 0;
#X connect 20 0 21 0;
#X connect 21 0 5 0;
#X connect 22 0 2 0;
#X connect 23 0 2 0;
#X connect 24 0 25 1;
#X connect 25 0 23 0;
