#N canvas 50 76 450 300 10;
#X obj 201 43 vsl 15 128 0 1 0 0 empty empty empty 0 -9 0 10 -262144
-1 -1 4400 1;
#X obj 151 195 *~;
#X floatatom 201 186 5 0 0 0 - - -;
#X obj 112 134 osc~ 440;
#X obj 151 242 dac~;
#X connect 0 0 2 0;
#X connect 0 0 1 1;
#X connect 1 0 4 0;
#X connect 1 0 4 1;
#X connect 3 0 1 0;
