#N canvas 105 181 683 390 10;
#X obj 100 250 dac~;
#X obj 68 87 osc~;
#X obj 109 117 osc~;
#X floatatom 68 42 5 0 0 0 - - -;
#X floatatom 132 44 5 0 0 0 - - -;
#X connect 1 0 0 0;
#X connect 2 0 0 0;
#X connect 3 0 1 0;
#X connect 4 0 2 0;
