#N canvas 0 23 791 546 12;
#X obj 138 261 osc~;
#X floatatom 79 187 5 0 0 0 - - -, f 5;
#X obj 80 228 sig~;
#X obj 139 197 *~;
#X floatatom 355 131 5 0 0 0 - - -, f 5;
#X obj 57 354 dac~;
#X obj 377 374 ui.scope~ @size 150 100 @fontname "Helvetica" @fontweight
"normal" @fontslant "roman" @fontsize 11 @receive "(null)" @send "(null)"
@pinned 0 @background_color 0.93 0.93 0.93 1 @border_color 0.6 0.6
0.6 1 @yscale 1;
#X obj 563 361 ui.spectroscope~ @size 150 100 @fontname "Helvetica"
@fontweight "normal" @fontslant "roman" @fontsize 11 @receive "(null)"
@send "(null)" @pinned 0 @background_color 0.93 0.93 0.93 1 @border_color
0.6 0.6 0.6 1 @fgcolor 0 0.75 1 1;
#X obj 135 350 delwrite~ d1 100;
#X obj 134 121 delread~ d1 50;
#X connect 0 0 5 0;
#X connect 0 0 5 1;
#X connect 0 0 6 0;
#X connect 0 0 7 0;
#X connect 0 0 8 0;
#X connect 1 0 2 0;
#X connect 2 0 0 0;
#X connect 3 0 0 0;
#X connect 4 0 3 1;
#X connect 9 0 3 0;
