#N canvas 0 23 800 522 12;
#X obj 70 81 phasor~;
#X obj 72 240 cos~;
#X obj 77 355 dac~;
#X floatatom 59 36 5 0 0 0 - - -, f 5;
#X obj 424 148 ui.scope~ @size 150 100 @fontname "Helvetica" @fontweight
"normal" @fontslant "roman" @fontsize 11 @receive "(null)" @send "(null)"
@pinned 0 @background_color 0.93 0.93 0.93 1 @border_color 0.6 0.6
0.6 1 @yscale 1;
#X obj 337 349 ui.scope~ @size 150 100 @fontname "Helvetica" @fontweight
"normal" @fontslant "roman" @fontsize 11 @receive "(null)" @send "(null)"
@pinned 0 @background_color 0.93 0.93 0.93 1 @border_color 0.6 0.6
0.6 1 @yscale 1;
#X obj 71 184 wrap~;
#X obj 71 141 *~;
#X obj 162 80 osc~;
#X floatatom 161 49 5 0 0 0 - - -, f 5;
#X obj 584 353 ui.spectroscope~ @size 150 100 @fontname "Helvetica"
@fontweight "normal" @fontslant "roman" @fontsize 11 @receive "(null)"
@send "(null)" @pinned 0 @background_color 0.93 0.93 0.93 1 @border_color
0.6 0.6 0.6 1 @fgcolor 0 0.75 1 1;
#X obj 167 242 ui.scope~ @size 150 100 @fontname "Helvetica" @fontweight
"normal" @fontslant "roman" @fontsize 11 @receive "(null)" @send "(null)"
@pinned 0 @background_color 0.93 0.93 0.93 1 @border_color 0.6 0.6
0.6 1 @yscale 1;
#X obj 161 112 *~;
#X floatatom 213 77 5 0 0 0 - - -, f 5;
#X connect 0 0 4 0;
#X connect 0 0 7 0;
#X connect 1 0 2 0;
#X connect 1 0 2 1;
#X connect 1 0 5 0;
#X connect 1 0 10 0;
#X connect 3 0 0 0;
#X connect 6 0 1 0;
#X connect 6 0 11 0;
#X connect 7 0 6 0;
#X connect 8 0 12 0;
#X connect 9 0 8 0;
#X connect 12 0 7 1;
#X connect 13 0 12 1;
