#N canvas 0 23 800 551 12;
#X obj 40 393 +~;
#X obj 45 485 dac~;
#X obj 41 319 operator;
#X obj 52 239 operator;
#X obj 54 141 operator;
#X obj 134 317 operator;
#X obj 157 5 ui.keyboard @size 433 60 @fontname "Helvetica" @fontweight
"normal" @fontslant "roman" @fontsize 11 @receive "(null)" @send "(null)"
@pinned 0 @background_color 0.93 0.93 0.93 1 @border_color 0.6 0.6
0.6 1 @shift 36 @keys 61;
#X obj 152 74 unpack 0 0;
#X obj 228 105 / 127;
#X obj 152 100 mtof;
#X obj 153 129 sig~;
#X obj 47 441 *~ 0.5;
#X obj 41 352 *~;
#X obj 138 351 *~;
#X obj 234 141 > 0;
#X obj 190 169 tgl 15 0 empty empty empty 17 7 0 10 -262144 -1 -1 0
1;
#X obj 187 194 s _trigger;
#X obj 369 381 env;
#X obj 34 202 *~;
#X obj 36 97 *~;
#X obj 437 79 envX;
#X obj 424 220 envX;
#X obj 578 384 env;
#X obj 635 247 envF;
#X obj 266 220 envF;
#X obj 276 78 envF;
#X obj 441 194 expr~ floor($v1);
#X obj 415 337 expr~ floor($v1);
#X obj 626 78 envF;
#X connect 0 0 11 0;
#X connect 2 0 12 0;
#X connect 3 0 2 1;
#X connect 4 0 3 1;
#X connect 5 0 13 0;
#X connect 6 0 7 0;
#X connect 7 0 9 0;
#X connect 7 1 8 0;
#X connect 8 0 14 0;
#X connect 9 0 10 0;
#X connect 10 0 2 0;
#X connect 10 0 5 0;
#X connect 10 0 18 0;
#X connect 10 0 19 0;
#X connect 11 0 1 0;
#X connect 11 0 1 1;
#X connect 12 0 0 0;
#X connect 13 0 0 1;
#X connect 14 0 15 0;
#X connect 15 0 16 0;
#X connect 17 0 12 1;
#X connect 18 0 3 0;
#X connect 19 0 4 0;
#X connect 20 0 26 0;
#X connect 21 0 27 0;
#X connect 22 0 13 1;
#X connect 23 0 5 3;
#X connect 24 0 2 2;
#X connect 25 0 3 2;
#X connect 26 0 19 1;
#X connect 27 0 18 1;
#X connect 28 0 4 3;
