#N canvas 0 23 800 551 12;
#X obj 1 1 ui.sliders @size 148 98 @fontname "Helvetica" @fontweight
"normal" @fontslant "roman" @fontsize 11 @receive "(null)" @send "(null)"
@pinned 0 @presetname "(null)" @background_color 0.762799 0.810227
0.912987 1 @border_color 0.6 0.6 0.6 1 @fgcolor 0.75 0.75 0.75 1 @count
4 @shift 0 @range 1 @auto_range 0 @show_range 1;
#X obj 499 149 unpack 0 0 0 0;
#X obj 536 223 lin->lin 0 1 0 500;
#X obj 499 193 lin->lin 0 1 0 2000;
#X obj 607 298 lin->lin 0 1 0 5000;
#X obj 573 266 lin->lin 0 1 0 100;
#X msg 384 342 attack \$1;
#X msg 471 342 decay \$1;
#X msg 554 343 sustain \$1;
#X msg 650 343 release \$1;
#X obj 471 441 outlet~;
#X obj 396 216 r _trigger;
#X msg 396 244 trigger \$1;
#X obj 337 280 sig~ 5000;
#X obj 471 395 env.adsr~ 500 500 100 500;
#X connect 0 0 1 0;
#X connect 1 0 3 0;
#X connect 1 1 2 0;
#X connect 1 2 5 0;
#X connect 1 3 4 0;
#X connect 2 0 7 0;
#X connect 3 0 6 0;
#X connect 4 0 9 0;
#X connect 5 0 8 0;
#X connect 6 0 14 0;
#X connect 7 0 14 0;
#X connect 8 0 14 0;
#X connect 9 0 14 0;
#X connect 11 0 12 0;
#X connect 12 0 14 0;
#X connect 13 0 14 0;
#X connect 14 0 10 0;
#X coords 0 -1 1 1 153 103 1 0 0;
