#N canvas 283 39 700 500 12;
#X obj 29 202 osc~;
#X obj 297 130 *~;
#X obj 29 57 inlet~;
#X obj 97 55 inlet~;
#X obj 164 54 inlet~;
#X obj 97 98 *~;
#X obj 230 55 inlet~;
#X obj 30 248 outlet~;
#X text 23 12 freq;
#X text 96 12 mod in;
#X text 165 12 mod idx;
#X text 239 12 feedback;
#X obj 297 93 delread~ d-\$0-d 0;
#X obj 264 281 delwrite~ d-\$0-d 1;
#X connect 0 0 7 0;
#X connect 0 0 13 0;
#X connect 1 0 0 0;
#X connect 2 0 0 0;
#X connect 3 0 5 0;
#X connect 4 0 5 1;
#X connect 5 0 0 0;
#X connect 6 0 1 1;
#X connect 12 0 1 0;
