#N canvas 127 124 655 469 10;
#X obj 397 76 gparam;
#X obj 163 381 output~;
#X obj 163 340 *~;
#X obj 178 296 sig~;
#X obj 178 317 lop~ 5;
#X obj 181 236 hsl 128 15 0 1 0 0 empty empty empty -2 -8 0 10 -262144
-1 -1 1100 1;
#X obj 209 265 zparam volume;
#X obj 86 272 osc~;
#X obj 98 179 hsl 128 15 0 127 0 0 empty empty empty -2 -8 0 10 -262144
-1 -1 10300 1;
#X floatatom 86 215 5 0 0 0 - - -;
#X obj 95 146 zparam freq;
#X obj 86 245 mtof;
#X connect 2 0 1 0;
#X connect 2 0 1 1;
#X connect 3 0 4 0;
#X connect 4 0 2 1;
#X connect 5 0 3 0;
#X connect 5 0 6 0;
#X connect 6 0 5 0;
#X connect 7 0 2 0;
#X connect 8 0 9 0;
#X connect 8 0 10 0;
#X connect 9 0 11 0;
#X connect 10 0 8 0;
#X connect 11 0 7 0;
