#N canvas 314 184 450 300 10;
#X obj 130 103 adsr1;
#X obj 130 138 delay1;
#X obj 127 183 dac~;
#X obj 131 63 tgl 15 0 empty empty empty 17 7 0 10 -262144 -1 -1 0
1;
#X connect 0 0 1 0;
#X connect 1 0 2 0;
#X connect 1 1 2 1;
#X connect 3 0 0 0;
