#N canvas 151 23 964 703 10;
#N canvas 0 22 450 278 (subpatch) 0;
#X array array1 84672 float 2;
#X coords 0 1 84672 -1 200 140 1;
#X restore 41 26 graph;
#X obj 726 60 bng 15 250 50 0 empty empty empty 17 7 0 10 -262144 -1
-1;
#X obj 726 82 openpanel;
#X msg 726 107 read -resize \$1 array1;
#X obj 726 132 soundfiler;
#X floatatom 726 158 10 0 0 0 - - -, f 10;
#X obj 411 141 tgl 15 0 empty empty empty 17 7 0 10 -262144 -1 -1 0
1;
#X obj 726 181 s \$0-fsize;
#X obj 570 63 test_args;
#X obj 570 96 test_args 100;
#X obj 571 131 test_args 1 2 3;
#X obj 807 133 bng 15 250 50 0 empty empty empty 17 7 0 10 -262144
-1 -1;
#X obj 44 184 hsl 200 15 0 1 0 0 empty empty start -2 -8 0 10 -262144
-1 -1 0 1;
#X obj 44 244 hsl 200 15 0 1 0 0 empty empty start_randomness -2 -8
0 10 -262144 -1 -1 0 1;
#X floatatom 257 243 5 0 0 0 - - -, f 5;
#X obj 44 304 hsl 200 15 10 1000 0 0 empty empty length_(ms) -2 -8
0 10 -262144 -1 -1 0 1;
#X obj 411 191 s \$0-grain-bang;
#X obj 411 164 metro 100;
#X obj 378 194 bng 15 250 50 0 empty empty empty 17 7 0 10 -262144
-1 -1;
#X floatatom 258 303 5 0 0 0 - - -, f 5;
#X obj 44 364 hsl 200 15 0 1 0 0 empty empty length_randomness -2 -8
0 10 -262144 -1 -1 0 1;
#X floatatom 259 363 5 0 0 0 - - -, f 5;
#X obj 44 424 hsl 200 15 0.1 10 0 0 empty empty speed -2 -8 0 10 -262144
-1 -1 0 1;
#X floatatom 259 423 5 0 0 0 - - -, f 5;
#X obj 44 484 hsl 200 15 0 1 0 0 empty empty speed_randomness -2 -8
0 10 -262144 -1 -1 0 1;
#X floatatom 259 483 5 0 0 0 - - -, f 5;
#X obj 41 204 s \$0-grain-start;
#X obj 41 266 s \$0-grain-start-r;
#X obj 41 324 s \$0-grain-length;
#X obj 41 384 s \$0-grain-length-r;
#X obj 41 446 s \$0-grain-speed;
#X obj 41 510 s \$0-grain-r;
#N canvas 526 431 560 304 grain~ 0;
#X obj 23 220 l2_gr_w;
#X obj 23 254 outlet~;
#X obj 23 17 r \$0-grain-bang;
#N canvas 288 188 492 428 grain-start 0;
#X obj 47 25 inlet constant;
#X obj 175 24 inlet deviation;
#X obj 47 146 *;
#X obj 62 118 r \$0-fsize;
#X obj 47 338 +;
#X obj 62 310 t b f;
#X obj 47 376 outlet;
#X obj 297 23 inlet bang;
#X obj 160 173 *;
#X obj 160 144 random;
#X obj 193 117 r \$0-fsize;
#X obj 160 207 / 2;
#X obj 160 270 -;
#X obj 177 238 t b f;
#X connect 0 0 2 0;
#X connect 1 0 8 1;
#X connect 2 0 4 0;
#X connect 3 0 2 1;
#X connect 4 0 6 0;
#X connect 5 0 4 0;
#X connect 5 1 4 1;
#X connect 7 0 9 0;
#X connect 8 0 11 0;
#X connect 8 0 13 0;
#X connect 9 0 8 0;
#X connect 10 0 9 1;
#X connect 11 0 12 0;
#X connect 12 0 5 0;
#X connect 13 0 12 0;
#X connect 13 1 12 1;
#X restore 51 107 pd grain-start;
#N canvas 350 335 502 444 grain-length 0;
#X obj 47 25 inlet constant;
#X obj 175 24 inlet deviation;
#X obj 47 338 +;
#X obj 62 310 t b f;
#X obj 47 376 outlet;
#X obj 297 23 inlet bang;
#X obj 175 84 random 1000;
#X obj 175 107 / 1000;
#X obj 175 133 - 0.5;
#X obj 175 159 *;
#X obj 160 205 *;
#X obj 47 65 * 44.1;
#X connect 0 0 11 0;
#X connect 1 0 9 1;
#X connect 2 0 4 0;
#X connect 3 0 2 0;
#X connect 3 1 2 1;
#X connect 5 0 6 0;
#X connect 5 0 10 0;
#X connect 6 0 7 0;
#X connect 7 0 8 0;
#X connect 8 0 9 0;
#X connect 9 0 10 1;
#X connect 10 0 3 0;
#X connect 11 0 10 0;
#X connect 11 0 2 0;
#X restore 177 103 pd grain-length;
#N canvas 350 335 502 444 grain-speed 0;
#X obj 47 25 inlet constant;
#X obj 175 24 inlet deviation;
#X obj 47 338 +;
#X obj 62 310 t b f;
#X obj 47 376 outlet;
#X obj 297 23 inlet bang;
#X obj 175 84 random 1000;
#X obj 175 107 / 1000;
#X obj 175 133 - 0.5;
#X obj 175 159 *;
#X obj 160 205 *;
#X connect 0 0 2 0;
#X connect 0 0 10 0;
#X connect 1 0 9 1;
#X connect 2 0 4 0;
#X connect 3 0 2 0;
#X connect 3 1 2 1;
#X connect 5 0 6 0;
#X connect 5 0 10 0;
#X connect 6 0 7 0;
#X connect 7 0 8 0;
#X connect 8 0 9 0;
#X connect 9 0 10 1;
#X connect 10 0 3 0;
#X restore 297 103 pd grain-speed;
#X obj 137 17 r \$0-grain-start;
#X obj 137 47 r \$0-grain-start-r;
#X obj 267 17 r \$0-grain-length;
#X obj 267 47 r \$0-grain-length-r;
#X floatatom 131 223 10 0 0 0 - - -, f 10;
#X floatatom 204 206 10 0 0 0 - - -, f 10;
#X floatatom 293 201 10 0 0 0 - - -, f 10;
#X obj 407 17 r \$0-grain-speed;
#X obj 407 47 r \$0-grain-speed-r;
#X connect 0 0 1 0;
#X connect 2 0 0 0;
#X connect 2 0 3 2;
#X connect 2 0 4 2;
#X connect 2 0 5 2;
#X connect 3 0 0 1;
#X connect 3 0 10 0;
#X connect 4 0 0 2;
#X connect 4 0 11 0;
#X connect 5 0 0 3;
#X connect 5 0 12 0;
#X connect 6 0 3 0;
#X connect 7 0 3 1;
#X connect 8 0 4 0;
#X connect 9 0 4 1;
#X connect 13 0 5 0;
#X connect 14 0 5 1;
#X restore 361 478 pd grain~;
#N canvas 526 431 560 304 grain~ 0;
#X obj 23 220 l2_gr_w;
#X obj 23 254 outlet~;
#X obj 23 17 r \$0-grain-bang;
#N canvas 288 188 492 428 grain-start 0;
#X obj 47 25 inlet constant;
#X obj 175 24 inlet deviation;
#X obj 47 146 *;
#X obj 62 118 r \$0-fsize;
#X obj 47 338 +;
#X obj 62 310 t b f;
#X obj 47 376 outlet;
#X obj 297 23 inlet bang;
#X obj 160 173 *;
#X obj 160 144 random;
#X obj 193 117 r \$0-fsize;
#X obj 160 207 / 2;
#X obj 160 270 -;
#X obj 177 238 t b f;
#X connect 0 0 2 0;
#X connect 1 0 8 1;
#X connect 2 0 4 0;
#X connect 3 0 2 1;
#X connect 4 0 6 0;
#X connect 5 0 4 0;
#X connect 5 1 4 1;
#X connect 7 0 9 0;
#X connect 8 0 11 0;
#X connect 8 0 13 0;
#X connect 9 0 8 0;
#X connect 10 0 9 1;
#X connect 11 0 12 0;
#X connect 12 0 5 0;
#X connect 13 0 12 0;
#X connect 13 1 12 1;
#X restore 51 107 pd grain-start;
#N canvas 350 335 502 444 grain-length 0;
#X obj 47 25 inlet constant;
#X obj 175 24 inlet deviation;
#X obj 47 338 +;
#X obj 62 310 t b f;
#X obj 47 376 outlet;
#X obj 297 23 inlet bang;
#X obj 175 84 random 1000;
#X obj 175 107 / 1000;
#X obj 175 133 - 0.5;
#X obj 175 159 *;
#X obj 160 205 *;
#X obj 47 65 * 44.1;
#X connect 0 0 11 0;
#X connect 1 0 9 1;
#X connect 2 0 4 0;
#X connect 3 0 2 0;
#X connect 3 1 2 1;
#X connect 5 0 6 0;
#X connect 5 0 10 0;
#X connect 6 0 7 0;
#X connect 7 0 8 0;
#X connect 8 0 9 0;
#X connect 9 0 10 1;
#X connect 10 0 3 0;
#X connect 11 0 10 0;
#X connect 11 0 2 0;
#X restore 177 103 pd grain-length;
#N canvas 350 335 502 444 grain-speed 0;
#X obj 47 25 inlet constant;
#X obj 175 24 inlet deviation;
#X obj 47 338 +;
#X obj 62 310 t b f;
#X obj 47 376 outlet;
#X obj 297 23 inlet bang;
#X obj 175 84 random 1000;
#X obj 175 107 / 1000;
#X obj 175 133 - 0.5;
#X obj 175 159 *;
#X obj 160 205 *;
#X connect 0 0 2 0;
#X connect 0 0 10 0;
#X connect 1 0 9 1;
#X connect 2 0 4 0;
#X connect 3 0 2 0;
#X connect 3 1 2 1;
#X connect 5 0 6 0;
#X connect 5 0 10 0;
#X connect 6 0 7 0;
#X connect 7 0 8 0;
#X connect 8 0 9 0;
#X connect 9 0 10 1;
#X connect 10 0 3 0;
#X restore 297 103 pd grain-speed;
#X obj 137 17 r \$0-grain-start;
#X obj 137 47 r \$0-grain-start-r;
#X obj 267 17 r \$0-grain-length;
#X obj 267 47 r \$0-grain-length-r;
#X floatatom 131 223 10 0 0 0 - - -, f 10;
#X floatatom 204 206 10 0 0 0 - - -, f 10;
#X floatatom 293 201 10 0 0 0 - - -, f 10;
#X obj 407 17 r \$0-grain-speed;
#X obj 407 47 r \$0-grain-speed-r;
#X connect 0 0 1 0;
#X connect 2 0 0 0;
#X connect 2 0 3 2;
#X connect 2 0 4 2;
#X connect 2 0 5 2;
#X connect 3 0 0 1;
#X connect 3 0 10 0;
#X connect 4 0 0 2;
#X connect 4 0 11 0;
#X connect 5 0 0 3;
#X connect 5 0 12 0;
#X connect 6 0 3 0;
#X connect 7 0 3 1;
#X connect 8 0 4 0;
#X connect 9 0 4 1;
#X connect 13 0 5 0;
#X connect 14 0 5 1;
#X restore 431 468 pd grain~;
#N canvas 526 431 560 304 grain~ 0;
#X obj 23 220 l2_gr_w;
#X obj 23 254 outlet~;
#X obj 23 17 r \$0-grain-bang;
#N canvas 288 188 492 428 grain-start 0;
#X obj 47 25 inlet constant;
#X obj 175 24 inlet deviation;
#X obj 47 146 *;
#X obj 62 118 r \$0-fsize;
#X obj 47 338 +;
#X obj 62 310 t b f;
#X obj 47 376 outlet;
#X obj 297 23 inlet bang;
#X obj 160 173 *;
#X obj 160 144 random;
#X obj 193 117 r \$0-fsize;
#X obj 160 207 / 2;
#X obj 160 270 -;
#X obj 177 238 t b f;
#X connect 0 0 2 0;
#X connect 1 0 8 1;
#X connect 2 0 4 0;
#X connect 3 0 2 1;
#X connect 4 0 6 0;
#X connect 5 0 4 0;
#X connect 5 1 4 1;
#X connect 7 0 9 0;
#X connect 8 0 11 0;
#X connect 8 0 13 0;
#X connect 9 0 8 0;
#X connect 10 0 9 1;
#X connect 11 0 12 0;
#X connect 12 0 5 0;
#X connect 13 0 12 0;
#X connect 13 1 12 1;
#X restore 51 107 pd grain-start;
#N canvas 350 335 502 444 grain-length 0;
#X obj 47 25 inlet constant;
#X obj 175 24 inlet deviation;
#X obj 47 338 +;
#X obj 62 310 t b f;
#X obj 47 376 outlet;
#X obj 297 23 inlet bang;
#X obj 175 84 random 1000;
#X obj 175 107 / 1000;
#X obj 175 133 - 0.5;
#X obj 175 159 *;
#X obj 160 205 *;
#X obj 47 65 * 44.1;
#X connect 0 0 11 0;
#X connect 1 0 9 1;
#X connect 2 0 4 0;
#X connect 3 0 2 0;
#X connect 3 1 2 1;
#X connect 5 0 6 0;
#X connect 5 0 10 0;
#X connect 6 0 7 0;
#X connect 7 0 8 0;
#X connect 8 0 9 0;
#X connect 9 0 10 1;
#X connect 10 0 3 0;
#X connect 11 0 10 0;
#X connect 11 0 2 0;
#X restore 177 103 pd grain-length;
#N canvas 350 335 502 444 grain-speed 0;
#X obj 47 25 inlet constant;
#X obj 175 24 inlet deviation;
#X obj 47 338 +;
#X obj 62 310 t b f;
#X obj 47 376 outlet;
#X obj 297 23 inlet bang;
#X obj 175 84 random 1000;
#X obj 175 107 / 1000;
#X obj 175 133 - 0.5;
#X obj 175 159 *;
#X obj 160 205 *;
#X connect 0 0 2 0;
#X connect 0 0 10 0;
#X connect 1 0 9 1;
#X connect 2 0 4 0;
#X connect 3 0 2 0;
#X connect 3 1 2 1;
#X connect 5 0 6 0;
#X connect 5 0 10 0;
#X connect 6 0 7 0;
#X connect 7 0 8 0;
#X connect 8 0 9 0;
#X connect 9 0 10 1;
#X connect 10 0 3 0;
#X restore 297 103 pd grain-speed;
#X obj 137 17 r \$0-grain-start;
#X obj 137 47 r \$0-grain-start-r;
#X obj 267 17 r \$0-grain-length;
#X obj 267 47 r \$0-grain-length-r;
#X floatatom 131 223 10 0 0 0 - - -, f 10;
#X floatatom 204 206 10 0 0 0 - - -, f 10;
#X floatatom 293 201 10 0 0 0 - - -, f 10;
#X obj 407 17 r \$0-grain-speed;
#X obj 407 47 r \$0-grain-speed-r;
#X connect 0 0 1 0;
#X connect 2 0 0 0;
#X connect 2 0 3 2;
#X connect 2 0 4 2;
#X connect 2 0 5 2;
#X connect 3 0 0 1;
#X connect 3 0 10 0;
#X connect 4 0 0 2;
#X connect 4 0 11 0;
#X connect 5 0 0 3;
#X connect 5 0 12 0;
#X connect 6 0 3 0;
#X connect 7 0 3 1;
#X connect 8 0 4 0;
#X connect 9 0 4 1;
#X connect 13 0 5 0;
#X connect 14 0 5 1;
#X restore 521 468 pd grain~;
#N canvas 526 431 560 304 grain~ 0;
#X obj 23 220 l2_gr_w;
#X obj 23 254 outlet~;
#X obj 23 17 r \$0-grain-bang;
#N canvas 288 188 492 428 grain-start 0;
#X obj 47 25 inlet constant;
#X obj 175 24 inlet deviation;
#X obj 47 146 *;
#X obj 62 118 r \$0-fsize;
#X obj 47 338 +;
#X obj 62 310 t b f;
#X obj 47 376 outlet;
#X obj 297 23 inlet bang;
#X obj 160 173 *;
#X obj 160 144 random;
#X obj 193 117 r \$0-fsize;
#X obj 160 207 / 2;
#X obj 160 270 -;
#X obj 177 238 t b f;
#X connect 0 0 2 0;
#X connect 1 0 8 1;
#X connect 2 0 4 0;
#X connect 3 0 2 1;
#X connect 4 0 6 0;
#X connect 5 0 4 0;
#X connect 5 1 4 1;
#X connect 7 0 9 0;
#X connect 8 0 11 0;
#X connect 8 0 13 0;
#X connect 9 0 8 0;
#X connect 10 0 9 1;
#X connect 11 0 12 0;
#X connect 12 0 5 0;
#X connect 13 0 12 0;
#X connect 13 1 12 1;
#X restore 51 107 pd grain-start;
#N canvas 350 335 502 444 grain-length 0;
#X obj 47 25 inlet constant;
#X obj 175 24 inlet deviation;
#X obj 47 338 +;
#X obj 62 310 t b f;
#X obj 47 376 outlet;
#X obj 297 23 inlet bang;
#X obj 175 84 random 1000;
#X obj 175 107 / 1000;
#X obj 175 133 - 0.5;
#X obj 175 159 *;
#X obj 160 205 *;
#X obj 47 65 * 44.1;
#X connect 0 0 11 0;
#X connect 1 0 9 1;
#X connect 2 0 4 0;
#X connect 3 0 2 0;
#X connect 3 1 2 1;
#X connect 5 0 6 0;
#X connect 5 0 10 0;
#X connect 6 0 7 0;
#X connect 7 0 8 0;
#X connect 8 0 9 0;
#X connect 9 0 10 1;
#X connect 10 0 3 0;
#X connect 11 0 10 0;
#X connect 11 0 2 0;
#X restore 177 103 pd grain-length;
#N canvas 350 335 502 444 grain-speed 0;
#X obj 47 25 inlet constant;
#X obj 175 24 inlet deviation;
#X obj 47 338 +;
#X obj 62 310 t b f;
#X obj 47 376 outlet;
#X obj 297 23 inlet bang;
#X obj 175 84 random 1000;
#X obj 175 107 / 1000;
#X obj 175 133 - 0.5;
#X obj 175 159 *;
#X obj 160 205 *;
#X connect 0 0 2 0;
#X connect 0 0 10 0;
#X connect 1 0 9 1;
#X connect 2 0 4 0;
#X connect 3 0 2 0;
#X connect 3 1 2 1;
#X connect 5 0 6 0;
#X connect 5 0 10 0;
#X connect 6 0 7 0;
#X connect 7 0 8 0;
#X connect 8 0 9 0;
#X connect 9 0 10 1;
#X connect 10 0 3 0;
#X restore 297 103 pd grain-speed;
#X obj 137 17 r \$0-grain-start;
#X obj 137 47 r \$0-grain-start-r;
#X obj 267 17 r \$0-grain-length;
#X obj 267 47 r \$0-grain-length-r;
#X floatatom 131 223 10 0 0 0 - - -, f 10;
#X floatatom 204 206 10 0 0 0 - - -, f 10;
#X floatatom 293 201 10 0 0 0 - - -, f 10;
#X obj 407 17 r \$0-grain-speed;
#X obj 407 47 r \$0-grain-speed-r;
#X connect 0 0 1 0;
#X connect 2 0 0 0;
#X connect 2 0 3 2;
#X connect 2 0 4 2;
#X connect 2 0 5 2;
#X connect 3 0 0 1;
#X connect 3 0 10 0;
#X connect 4 0 0 2;
#X connect 4 0 11 0;
#X connect 5 0 0 3;
#X connect 5 0 12 0;
#X connect 6 0 3 0;
#X connect 7 0 3 1;
#X connect 8 0 4 0;
#X connect 9 0 4 1;
#X connect 13 0 5 0;
#X connect 14 0 5 1;
#X restore 371 428 pd grain~;
#N canvas 526 431 560 304 grain~ 0;
#X obj 23 220 l2_gr_w;
#X obj 23 254 outlet~;
#X obj 23 17 r \$0-grain-bang;
#N canvas 288 188 492 428 grain-start 0;
#X obj 47 25 inlet constant;
#X obj 175 24 inlet deviation;
#X obj 47 146 *;
#X obj 62 118 r \$0-fsize;
#X obj 47 338 +;
#X obj 62 310 t b f;
#X obj 47 376 outlet;
#X obj 297 23 inlet bang;
#X obj 160 173 *;
#X obj 160 144 random;
#X obj 193 117 r \$0-fsize;
#X obj 160 207 / 2;
#X obj 160 270 -;
#X obj 177 238 t b f;
#X connect 0 0 2 0;
#X connect 1 0 8 1;
#X connect 2 0 4 0;
#X connect 3 0 2 1;
#X connect 4 0 6 0;
#X connect 5 0 4 0;
#X connect 5 1 4 1;
#X connect 7 0 9 0;
#X connect 8 0 11 0;
#X connect 8 0 13 0;
#X connect 9 0 8 0;
#X connect 10 0 9 1;
#X connect 11 0 12 0;
#X connect 12 0 5 0;
#X connect 13 0 12 0;
#X connect 13 1 12 1;
#X restore 51 107 pd grain-start;
#N canvas 350 335 502 444 grain-length 0;
#X obj 47 25 inlet constant;
#X obj 175 24 inlet deviation;
#X obj 47 338 +;
#X obj 62 310 t b f;
#X obj 47 376 outlet;
#X obj 297 23 inlet bang;
#X obj 175 84 random 1000;
#X obj 175 107 / 1000;
#X obj 175 133 - 0.5;
#X obj 175 159 *;
#X obj 160 205 *;
#X obj 47 65 * 44.1;
#X connect 0 0 11 0;
#X connect 1 0 9 1;
#X connect 2 0 4 0;
#X connect 3 0 2 0;
#X connect 3 1 2 1;
#X connect 5 0 6 0;
#X connect 5 0 10 0;
#X connect 6 0 7 0;
#X connect 7 0 8 0;
#X connect 8 0 9 0;
#X connect 9 0 10 1;
#X connect 10 0 3 0;
#X connect 11 0 10 0;
#X connect 11 0 2 0;
#X restore 177 103 pd grain-length;
#N canvas 350 335 502 444 grain-speed 0;
#X obj 47 25 inlet constant;
#X obj 175 24 inlet deviation;
#X obj 47 338 +;
#X obj 62 310 t b f;
#X obj 47 376 outlet;
#X obj 297 23 inlet bang;
#X obj 175 84 random 1000;
#X obj 175 107 / 1000;
#X obj 175 133 - 0.5;
#X obj 175 159 *;
#X obj 160 205 *;
#X connect 0 0 2 0;
#X connect 0 0 10 0;
#X connect 1 0 9 1;
#X connect 2 0 4 0;
#X connect 3 0 2 0;
#X connect 3 1 2 1;
#X connect 5 0 6 0;
#X connect 5 0 10 0;
#X connect 6 0 7 0;
#X connect 7 0 8 0;
#X connect 8 0 9 0;
#X connect 9 0 10 1;
#X connect 10 0 3 0;
#X restore 297 103 pd grain-speed;
#X obj 137 17 r \$0-grain-start;
#X obj 137 47 r \$0-grain-start-r;
#X obj 267 17 r \$0-grain-length;
#X obj 267 47 r \$0-grain-length-r;
#X floatatom 131 223 10 0 0 0 - - -, f 10;
#X floatatom 204 206 10 0 0 0 - - -, f 10;
#X floatatom 293 201 10 0 0 0 - - -, f 10;
#X obj 407 17 r \$0-grain-speed;
#X obj 407 47 r \$0-grain-speed-r;
#X connect 0 0 1 0;
#X connect 2 0 0 0;
#X connect 2 0 3 2;
#X connect 2 0 4 2;
#X connect 2 0 5 2;
#X connect 3 0 0 1;
#X connect 3 0 10 0;
#X connect 4 0 0 2;
#X connect 4 0 11 0;
#X connect 5 0 0 3;
#X connect 5 0 12 0;
#X connect 6 0 3 0;
#X connect 7 0 3 1;
#X connect 8 0 4 0;
#X connect 9 0 4 1;
#X connect 13 0 5 0;
#X connect 14 0 5 1;
#X restore 392 384 pd grain~;
#N canvas 526 431 560 304 grain~ 0;
#X obj 23 220 l2_gr_w;
#X obj 23 254 outlet~;
#X obj 23 17 r \$0-grain-bang;
#N canvas 288 188 492 428 grain-start 0;
#X obj 47 25 inlet constant;
#X obj 175 24 inlet deviation;
#X obj 47 146 *;
#X obj 62 118 r \$0-fsize;
#X obj 47 338 +;
#X obj 62 310 t b f;
#X obj 47 376 outlet;
#X obj 297 23 inlet bang;
#X obj 160 173 *;
#X obj 160 144 random;
#X obj 193 117 r \$0-fsize;
#X obj 160 207 / 2;
#X obj 160 270 -;
#X obj 177 238 t b f;
#X connect 0 0 2 0;
#X connect 1 0 8 1;
#X connect 2 0 4 0;
#X connect 3 0 2 1;
#X connect 4 0 6 0;
#X connect 5 0 4 0;
#X connect 5 1 4 1;
#X connect 7 0 9 0;
#X connect 8 0 11 0;
#X connect 8 0 13 0;
#X connect 9 0 8 0;
#X connect 10 0 9 1;
#X connect 11 0 12 0;
#X connect 12 0 5 0;
#X connect 13 0 12 0;
#X connect 13 1 12 1;
#X restore 51 107 pd grain-start;
#N canvas 350 335 502 444 grain-length 0;
#X obj 47 25 inlet constant;
#X obj 175 24 inlet deviation;
#X obj 47 338 +;
#X obj 62 310 t b f;
#X obj 47 376 outlet;
#X obj 297 23 inlet bang;
#X obj 175 84 random 1000;
#X obj 175 107 / 1000;
#X obj 175 133 - 0.5;
#X obj 175 159 *;
#X obj 160 205 *;
#X obj 47 65 * 44.1;
#X connect 0 0 11 0;
#X connect 1 0 9 1;
#X connect 2 0 4 0;
#X connect 3 0 2 0;
#X connect 3 1 2 1;
#X connect 5 0 6 0;
#X connect 5 0 10 0;
#X connect 6 0 7 0;
#X connect 7 0 8 0;
#X connect 8 0 9 0;
#X connect 9 0 10 1;
#X connect 10 0 3 0;
#X connect 11 0 10 0;
#X connect 11 0 2 0;
#X restore 177 103 pd grain-length;
#N canvas 350 335 502 444 grain-speed 0;
#X obj 47 25 inlet constant;
#X obj 175 24 inlet deviation;
#X obj 47 338 +;
#X obj 62 310 t b f;
#X obj 47 376 outlet;
#X obj 297 23 inlet bang;
#X obj 175 84 random 1000;
#X obj 175 107 / 1000;
#X obj 175 133 - 0.5;
#X obj 175 159 *;
#X obj 160 205 *;
#X connect 0 0 2 0;
#X connect 0 0 10 0;
#X connect 1 0 9 1;
#X connect 2 0 4 0;
#X connect 3 0 2 0;
#X connect 3 1 2 1;
#X connect 5 0 6 0;
#X connect 5 0 10 0;
#X connect 6 0 7 0;
#X connect 7 0 8 0;
#X connect 8 0 9 0;
#X connect 9 0 10 1;
#X connect 10 0 3 0;
#X restore 297 103 pd grain-speed;
#X obj 137 17 r \$0-grain-start;
#X obj 137 47 r \$0-grain-start-r;
#X obj 267 17 r \$0-grain-length;
#X obj 267 47 r \$0-grain-length-r;
#X floatatom 131 223 10 0 0 0 - - -, f 10;
#X floatatom 204 206 10 0 0 0 - - -, f 10;
#X floatatom 293 201 10 0 0 0 - - -, f 10;
#X obj 407 17 r \$0-grain-speed;
#X obj 407 47 r \$0-grain-speed-r;
#X connect 0 0 1 0;
#X connect 2 0 0 0;
#X connect 2 0 3 2;
#X connect 2 0 4 2;
#X connect 2 0 5 2;
#X connect 3 0 0 1;
#X connect 3 0 10 0;
#X connect 4 0 0 2;
#X connect 4 0 11 0;
#X connect 5 0 0 3;
#X connect 5 0 12 0;
#X connect 6 0 3 0;
#X connect 7 0 3 1;
#X connect 8 0 4 0;
#X connect 9 0 4 1;
#X connect 13 0 5 0;
#X connect 14 0 5 1;
#X restore 531 418 pd grain~;
#X obj 362 570 output~;
#X connect 1 0 2 0;
#X connect 2 0 3 0;
#X connect 3 0 4 0;
#X connect 4 0 5 0;
#X connect 5 0 7 0;
#X connect 6 0 17 0;
#X connect 11 0 5 0;
#X connect 12 0 26 0;
#X connect 13 0 14 0;
#X connect 13 0 27 0;
#X connect 15 0 19 0;
#X connect 15 0 28 0;
#X connect 17 0 16 0;
#X connect 17 0 18 0;
#X connect 20 0 21 0;
#X connect 20 0 29 0;
#X connect 22 0 23 0;
#X connect 22 0 30 0;
#X connect 24 0 25 0;
#X connect 24 0 31 0;
#X connect 32 0 38 0;
#X connect 33 0 38 1;
#X connect 34 0 38 1;
#X connect 35 0 38 0;
#X connect 36 0 38 0;
#X connect 37 0 38 1;
