#N canvas 12 55 1024 669 10;
#X obj 219 356 osc~;
#X obj 220 330 *~;
#X floatatom 273 282 5 0 0 0 - - -;
#X obj 273 330 sig~;
#X floatatom 327 282 5 0 0 0 - - -;
#X obj 222 244 osc~;
#X obj 222 216 *~;
#X floatatom 275 168 5 0 0 0 - - -;
#X obj 275 216 sig~;
#X floatatom 329 168 5 0 0 0 - - -;
#X obj 222 121 osc~;
#X obj 279 101 sig~;
#X floatatom 326 53 5 0 0 0 - - -;
#X obj 220 467 osc~;
#X obj 221 436 *~;
#X floatatom 274 388 5 0 0 0 - - -;
#X obj 274 436 sig~;
#X floatatom 327 389 5 0 0 0 - - -;
#X obj 87 497 send~ fb1;
#X obj 77 409 receive~ fb1;
#X obj 174 433 *~;
#X floatatom 227 389 5 0 0 0 - - -;
#X obj 171 327 *~;
#X floatatom 224 283 5 0 0 0 - - -;
#X obj 169 209 *~;
#X floatatom 232 168 5 0 0 0 - - -;
#X obj 172 85 *~;
#X floatatom 225 41 5 0 0 0 - - -;
#X obj 75 53 receive~ fb4;
#X obj 74 149 send~ fb4;
#X obj 72 177 receive~ fb3;
#X obj 78 263 send~ fb3;
#X obj 74 295 receive~ fb2;
#X obj 76 379 send~ fb2;
#X obj 224 2 receive _fb4;
#X obj 326 3 receive _f4;
#X obj 233 140 receive _fb3;
#X obj 247 252 receive _fb2;
#X obj 255 360 receive _fb1;
#X obj 333 134 receive _f3;
#X obj 331 244 receive _f2;
#X obj 342 351 receive _f1;
#X obj 327 99 receive _i4;
#X obj 332 213 receive _i3;
#X obj 329 330 receive _i2;
#X obj 223 559 dac~;
#X obj 693 31 print test:;
#X msg 504 480 \; _clock1 bang;
#X obj 502 441 metro 100;
#X obj 504 405 tgl 15 0 empty empty empty 17 7 0 10 -262144 -1 -1 0
1;
#X obj 693 3 receive _send1;
#X msg 580 5 \; _send1 test;
#N canvas 121 151 824 463 logic1 0;
#X msg 83 91 \; _fb4 \$1;
#X obj 223 32 r _clock1;
#X obj 82 63 random 1000;
#X obj 82 31 r _clock1;
#X obj 223 165 random 1000;
#X obj 223 133 r _clock1;
#X obj 82 164 random 1000;
#X obj 82 132 r _clock1;
#X obj 226 270 random 1000;
#X obj 226 238 r _clock1;
#X obj 85 269 random 1000;
#X obj 85 237 r _clock1;
#X obj 226 339 r _clock1;
#X obj 85 370 random 1000;
#X obj 85 338 r _clock1;
#X obj 350 194 random 1000;
#X obj 350 162 r _clock1;
#X obj 340 59 random 1000;
#X obj 340 27 r _clock1;
#X obj 339 297 random 1000;
#X obj 339 265 r _clock1;
#X msg 82 192 \; _fb3 \$1;
#X msg 85 292 \; _fb2 \$1;
#X msg 83 408 \; _fb1 \$1;
#X obj 226 95 s _f4;
#X obj 226 196 s _f3;
#X obj 229 301 s _f2;
#X obj 229 402 s _f1;
#X msg 338 97 \; _i4 \$1;
#X obj 353 225 s _i3;
#X obj 342 328 s _i2;
#X obj 223 64 random 2000;
#X obj 226 371 random 5000;
#X connect 1 0 31 0;
#X connect 2 0 0 0;
#X connect 3 0 2 0;
#X connect 4 0 25 0;
#X connect 5 0 4 0;
#X connect 6 0 21 0;
#X connect 7 0 6 0;
#X connect 8 0 26 0;
#X connect 9 0 8 0;
#X connect 10 0 22 0;
#X connect 11 0 10 0;
#X connect 12 0 32 0;
#X connect 13 0 23 0;
#X connect 14 0 13 0;
#X connect 15 0 29 0;
#X connect 16 0 15 0;
#X connect 17 0 28 0;
#X connect 18 0 17 0;
#X connect 19 0 30 0;
#X connect 20 0 19 0;
#X connect 31 0 24 0;
#X connect 32 0 27 0;
#X restore 468 1 pd logic1;
#X msg 696 499 \; _logic2 \$1;
#X obj 696 471 tgl 15 0 empty empty empty 17 7 0 10 -262144 -1 -1 0
1;
#N canvas 296 199 464 458 logic2 0;
#X msg 71 126 \; _f4 8162 \; _f3 253 \; _f2 186 \; _f1 815;
#X msg 244 127 \; _f4 200 \; _f3 300 \; _f2 400 \; _f1 400;
#X msg 90 300 \; _i4 400 \; _i3 400 \; _i2 400;
#X msg 103 224 \; _fb4 0 \; _fb3 0 \; _fb2 0 \; _fb1 0;
#X obj 79 94 bng 15 250 50 0 empty empty empty 17 7 0 10 -262144 -1
-1;
#X msg 267 223 \; _fb4 0 \; _fb3 0 \; _fb2 0 \; _fb1 0;
#X msg 254 299 \; _i4 50 \; _i3 50 \; _i2 50;
#X obj 255 98 bng 15 250 50 0 empty empty empty 17 7 0 10 -262144 -1
-1;
#X obj 76 67 select 0 1;
#X obj 79 40 r _logic2;
#X connect 4 0 0 0;
#X connect 4 0 3 0;
#X connect 4 0 2 0;
#X connect 7 0 1 0;
#X connect 7 0 5 0;
#X connect 7 0 6 0;
#X connect 8 0 4 0;
#X connect 8 1 7 0;
#X connect 9 0 8 0;
#X restore 468 29 pd logic2;
#X obj 561 97 tgl 60 0 empty empty empty 17 7 0 10 -260097 -1 -1 1
1;
#X obj 561 178 select 1;
#X obj 612 218 delay 10000;
#X obj 696 246 delay 5000;
#X obj 774 278 delay 3000;
#X obj 799 310 delay 1000;
#X msg 502 356 1;
#X msg 530 356 0;
#X msg 612 358 1;
#X msg 640 358 0;
#X obj 223 516 spigot~;
#X obj 313 476 r out_;
#X msg 797 576 \; out_ 1;
#X msg 505 565 \; out_ 0;
#X obj 690 401 tgl 15 0 empty empty empty 17 7 0 10 -262144 -1 -1 0
1;
#X obj 690 431 metro 700;
#X msg 758 430 1;
#X obj 487 299 bng 15 250 50 0 empty empty empty 17 7 0 10 -262144
-1 -1;
#X obj 592 298 bng 15 250 50 0 empty empty empty 17 7 0 10 -262144
-1 -1;
#X obj 688 297 bng 15 250 50 0 empty empty empty 17 7 0 10 -262144
-1 -1;
#X obj 763 315 bng 15 250 50 0 empty empty empty 17 7 0 10 -262144
-1 -1;
#X obj 806 350 bng 15 250 50 0 empty empty empty 17 7 0 10 -262144
-1 -1;
#X connect 0 0 14 0;
#X connect 0 0 33 0;
#X connect 1 0 0 0;
#X connect 2 0 1 1;
#X connect 3 0 0 0;
#X connect 4 0 3 0;
#X connect 5 0 1 0;
#X connect 5 0 31 0;
#X connect 6 0 5 0;
#X connect 7 0 6 1;
#X connect 8 0 5 0;
#X connect 9 0 8 0;
#X connect 10 0 6 0;
#X connect 10 0 29 0;
#X connect 11 0 10 0;
#X connect 12 0 11 0;
#X connect 13 0 18 0;
#X connect 13 0 66 0;
#X connect 14 0 13 0;
#X connect 15 0 14 1;
#X connect 16 0 13 0;
#X connect 17 0 16 0;
#X connect 19 0 20 0;
#X connect 20 0 13 0;
#X connect 21 0 20 1;
#X connect 22 0 0 0;
#X connect 23 0 22 1;
#X connect 24 0 5 0;
#X connect 25 0 24 1;
#X connect 26 0 10 0;
#X connect 27 0 26 1;
#X connect 28 0 26 0;
#X connect 30 0 24 0;
#X connect 32 0 22 0;
#X connect 34 0 27 0;
#X connect 35 0 12 0;
#X connect 36 0 25 0;
#X connect 37 0 23 0;
#X connect 38 0 21 0;
#X connect 39 0 9 0;
#X connect 40 0 4 0;
#X connect 41 0 17 0;
#X connect 42 0 7 0;
#X connect 43 0 2 0;
#X connect 44 0 15 0;
#X connect 48 0 47 0;
#X connect 49 0 48 0;
#X connect 50 0 46 0;
#X connect 54 0 53 0;
#X connect 56 0 57 0;
#X connect 57 0 62 0;
#X connect 57 0 58 0;
#X connect 57 0 69 0;
#X connect 57 0 65 0;
#X connect 57 0 73 0;
#X connect 58 0 63 0;
#X connect 58 0 59 0;
#X connect 58 0 72 0;
#X connect 58 0 74 0;
#X connect 59 0 64 0;
#X connect 59 0 60 0;
#X connect 59 0 75 0;
#X connect 60 0 65 0;
#X connect 60 0 62 0;
#X connect 60 0 61 0;
#X connect 60 0 76 0;
#X connect 61 0 63 0;
#X connect 61 0 68 0;
#X connect 61 0 77 0;
#X connect 62 0 49 0;
#X connect 63 0 49 0;
#X connect 64 0 70 0;
#X connect 65 0 70 0;
#X connect 66 0 45 1;
#X connect 66 0 45 0;
#X connect 67 0 66 1;
#X connect 70 0 71 0;
#X connect 71 0 54 0;
#X connect 72 0 54 0;
