#N canvas 141 105 1028 686 12;
#X obj 75 134 osc~;
#X obj 128 340 osc~;
#X obj 124 430 dac~;
#X obj 238 175 sig~ 440;
#X obj 663 341 ui.number~ @size 53 16 @fontname "Helvetica" @fontweight
"normal" @fontslant "roman" @fontsize 11 @receive "(null)" @send "(null)"
@pinned 0 @interval 50 @decimal 6 @border_color 0.6 0.6 0.6 1 @background_color
0.93 0.93 0.93 1 @text_color 0 0 0 1;
#X text 659 311 ui.number~;
#X obj 335 212 ui.number~ @size 90 16 @fontname "Helvetica" @fontweight
"normal" @fontslant "roman" @fontsize 11 @receive "(null)" @send "(null)"
@pinned 0 @interval 50 @decimal 6 @border_color 0.6 0.6 0.6 1 @background_color
0.93 0.93 0.93 1 @text_color 0 0 0 1;
#X floatatom 462 92 5 0 0 0 - - -, f 5;
#X floatatom 463 146 5 0 0 0 - - -, f 5;
#X floatatom 240 136 5 0 0 0 - - -, f 5;
#X obj 74 205 *~;
#X floatatom 152 137 5 0 0 0 - - -, f 5;
#X floatatom 347 123 5 0 0 0 - - -, f 5;
#X floatatom 77 77 5 0 0 0 - - -, f 5;
#X obj 275 413 ui.spectroscope~ @size 256 166 @fontname "Helvetica"
@fontweight "normal" @fontslant "roman" @fontsize 11 @receive "(null)"
@send "(null)" @pinned 0 @background_color 0.93 0.93 0.93 1 @border_color
0.6 0.6 0.6 1;
#X text 362 359 ui.spectroscope~;
#X obj 719 418 ui.scope~ @size 150 100 @fontname "Helvetica" @fontweight
"normal" @fontslant "roman" @fontsize 11 @receive "(null)" @send "(null)"
@pinned 0 @background_color 0.93 0.93 0.93 1 @border_color 0.6 0.6
0.6 1 @yscale 0.6;
#X obj 262 315 osc.sinfb~;
#X msg 272 288 feedback \$1;
#X floatatom 273 261 5 0 0 0 - - -, f 5;
#X floatatom 207 271 5 0 0 0 - - -, f 5;
#X connect 0 0 10 0;
#X connect 3 0 6 0;
#X connect 3 0 1 0;
#X connect 7 0 8 0;
#X connect 9 0 3 0;
#X connect 10 0 1 0;
#X connect 11 0 10 1;
#X connect 13 0 0 0;
#X connect 17 0 14 0;
#X connect 17 0 2 1;
#X connect 17 0 2 0;
#X connect 18 0 17 0;
#X connect 19 0 18 0;
#X connect 20 0 17 0;
