#N canvas 1022 235 633 400 12;
#X obj 27 70 inlet~;
#X floatatom 78 288 5 0 0 0 - - -;
#X msg 219 120 10;
#X floatatom 361 112 5 0 0 0 - - -;
#X obj 78 250 expr (($f1 - $f3) / $f2) - $f1 + $f3;
#X floatatom 219 154 5 0 0 0 - - -;
#X obj 219 95 loadbang;
#X obj 43 151 env~ 1024;
#X floatatom 78 226 5 0 0 0 - - -;
#X obj 43 202 moses;
#X floatatom 43 177 5 0 0 0 - - -;
#X text 27 19 3.9.1.1. Limiter 1;
#X text 25 45 signal to be limited;
#X text 364 85 threshold / reference;
#X text 266 144 limit factor;
#X text 125 287 value by which the signal must be reduced;
#X text 236 351 www.pd-tutorial.com;
#X text 245 325 Johannes Kreidler;
#X connect 0 0 7 0;
#X connect 2 0 5 0;
#X connect 3 0 4 2;
#X connect 3 0 9 1;
#X connect 4 0 1 0;
#X connect 5 0 4 1;
#X connect 6 0 2 0;
#X connect 7 0 10 0;
#X connect 8 0 4 0;
#X connect 9 1 8 0;
#X connect 10 0 9 0;
