#N canvas 1126 503 460 401 12;
#X obj 37 72 random;
#X obj 37 103 trigger bang float bang float;
#X floatatom 80 44 5 0 0 0 - - -;
#X obj 37 42 bng 15 250 50 0 empty empty empty 0 -6 0 8 -262144 -1
-1;
#X obj 37 209 f;
#X obj 134 150 f;
#X obj 37 277 f;
#X obj 37 238 sel 0;
#X obj 140 243 sel 1;
#X obj 134 177 ==;
#X floatatom 37 309 5 0 0 0 - - -;
#X obj 113 307 print;
#X text 261 314 www.pd-tutorial.com;
#X text 279 280 Johannes Kreidler;
#X connect 0 0 1 0;
#X connect 1 0 4 0;
#X connect 1 1 5 1;
#X connect 1 2 5 0;
#X connect 1 3 6 1;
#X connect 1 3 9 1;
#X connect 2 0 0 1;
#X connect 2 0 5 1;
#X connect 3 0 0 0;
#X connect 4 0 7 0;
#X connect 4 0 8 0;
#X connect 5 0 9 0;
#X connect 6 0 10 0;
#X connect 6 0 11 0;
#X connect 7 0 6 0;
#X connect 8 0 0 0;
#X connect 9 0 4 1;
