#N canvas 538 186 617 395 10;
#X obj 130 222 iemlib/unsig~ 10;
#X floatatom 130 255 5 0 0 0 - - -, f 5;
#X obj 282 282 dac~;
#X obj 129 146 ezline~;
#X obj 282 192 *~ 1000;
#X obj 283 224 osc~;
#X msg 52 62 0 0 1 1000 0 1000 1 500 0 2500;
#X msg 272 61 2 30 0 1000;
#X msg 282 108 0 0 0.08 100 0.24 100 0.56 100 1.2 100;
#X connect 0 0 1 0;
#X connect 3 0 0 0;
#X connect 3 0 4 0;
#X connect 4 0 5 0;
#X connect 5 0 2 0;
#X connect 5 0 2 1;
#X connect 6 0 3 0;
#X connect 7 0 3 0;
#X connect 8 0 3 0;
