#N canvas 502 224 798 493 10;
#X obj 297 309 +, f 2;
#X msg 297 275 \$2;
#X msg 305 236 0;
#X obj 339 310 + 0;
#X obj 314 100 cyclone/zl len;
#X obj 317 137 expr $f1 - $f1 % 2;
#X obj 229 173 cyclone/zl slice;
#X obj 231 207 cyclone/zl group 2;
#X obj 227 79 t l b;
#X obj 231 235 t l b;
#X obj 258 347 i;
#X obj 227 38 inlet;
#X obj 162 416 vline~;
#X obj 162 451 outlet~;
#X obj 161 375 pack 0 0 0;
#X connect 0 0 3 0;
#X connect 0 0 10 1;
#X connect 1 0 0 0;
#X connect 2 0 0 1;
#X connect 2 0 10 1;
#X connect 3 0 0 1;
#X connect 4 0 5 0;
#X connect 5 0 6 1;
#X connect 6 0 7 0;
#X connect 7 0 9 0;
#X connect 7 0 14 0;
#X connect 8 0 4 0;
#X connect 8 0 6 0;
#X connect 8 1 2 0;
#X connect 9 0 1 0;
#X connect 9 1 10 0;
#X connect 10 0 14 2;
#X connect 11 0 8 0;
#X connect 12 0 13 0;
#X connect 14 0 12 0;
