#N canvas 93 99 886 776 10;
#X floatatom 69 141 5 0 0 0 - - -, f 5;
#X floatatom 167 138 5 0 0 0 - - -, f 5;
#X obj 73 244 *~;
#X obj 76 306 dac~;
#X obj 72 182 osc~ 440;
#X obj 161 181 osc~;
#X connect 0 0 4 0;
#X connect 1 0 5 0;
#X connect 2 0 3 0;
#X connect 2 0 3 1;
#X connect 4 0 2 0;
#X connect 5 0 2 1;
