#N canvas 168 75 945 812 24;
#X obj 67 488 osc~;
#X floatatom 57 419 5 0 0 0 - - -, f 5;
#X obj 211 490 osc~;
#X floatatom 204 421 5 0 0 0 - - -, f 5;
#X obj 67 561 *~;
#X floatatom 56 130 5 0 0 0 - - -, f 5;
#X obj 68 639 dac~;
#X obj 58 359 * 4;
#X floatatom 162 136 5 1 100 0 - - -, f 5;
#X obj 72 305 t b f;
#X obj 279 105 hsl 128 15 0 127 0 0 empty empty empty -2 -8 0 10 -262144
-1 -1 0 1;
#X floatatom 281 175 5 0 0 0 - - -, f 5;
#X obj 212 273 +;
#X obj 212 224 t b f;
#X obj 280 130 / 1;
#X obj 553 22 notein;
#X obj 788 66 ctlin;
#X obj 52 75 r p1;
#X obj 151 52 r p2;
#X obj 266 66 r p3;
#X obj 620 145 select 40 41 42 43;
#X obj 544 503 s p1;
#X obj 613 502 s p2;
#X obj 686 498 s p3;
#X msg 627 285 735;
#X msg 699 287 53;
#X msg 779 285 651;
#X msg 565 334 10;
#X msg 635 337 2;
#X msg 707 331 8;
#X msg 566 392 0;
#X msg 647 396 1;
#X msg 783 401 100;
#X msg 712 395 50;
#X msg 777 336 16;
#X obj 431 286 random 200;
#X obj 429 326 + 100;
#X obj 551 79 stripnote;
#X connect 0 0 4 0;
#X connect 1 0 0 0;
#X connect 2 0 4 1;
#X connect 3 0 2 0;
#X connect 4 0 6 0;
#X connect 4 0 6 1;
#X connect 5 0 7 0;
#X connect 5 0 12 0;
#X connect 7 0 1 0;
#X connect 8 0 9 0;
#X connect 9 0 7 0;
#X connect 9 1 7 1;
#X connect 10 0 14 0;
#X connect 12 0 3 0;
#X connect 13 0 12 0;
#X connect 13 1 12 1;
#X connect 14 0 11 0;
#X connect 14 0 13 0;
#X connect 15 0 37 0;
#X connect 15 1 37 1;
#X connect 17 0 5 0;
#X connect 18 0 8 0;
#X connect 19 0 10 0;
#X connect 20 0 27 0;
#X connect 20 0 30 0;
#X connect 20 0 35 0;
#X connect 20 1 24 0;
#X connect 20 1 28 0;
#X connect 20 1 31 0;
#X connect 20 2 25 0;
#X connect 20 2 29 0;
#X connect 20 2 33 0;
#X connect 20 3 26 0;
#X connect 20 3 34 0;
#X connect 20 3 32 0;
#X connect 24 0 21 0;
#X connect 25 0 21 0;
#X connect 26 0 21 0;
#X connect 27 0 22 0;
#X connect 28 0 22 0;
#X connect 29 0 22 0;
#X connect 30 0 23 0;
#X connect 31 0 23 0;
#X connect 32 0 23 0;
#X connect 33 0 23 0;
#X connect 34 0 22 0;
#X connect 35 0 36 0;
#X connect 36 0 21 0;
#X connect 37 0 20 0;
