#N canvas 682 86 438 551 10;
#X obj 90 345 phasor~;
#X obj 90 317 * 1;
#X obj 335 53 inlet speed;
#X obj 340 300 t b f;
#X obj 109 53 inlet start;
#X obj 211 52 inlet stop;
#X obj 109 105 t b f;
#X obj 90 143 -;
#X obj 90 170 expr 1 / $f1;
#X obj 90 247 t b f;
#X obj 90 281 *;
#X obj 18 53 inlet bufsize;
#X obj 90 376 *~;
#X obj 90 404 +~;
#X obj 90 436 *~;
#X obj 90 469 tabread4~ \$1;
#X obj 90 497 outlet~;
#X floatatom 214 246 5 0 0 0 - - -;
#X floatatom 167 260 5 0 0 0 - - -;
#X obj 18 215 expr 44100 / $f1;
#X connect 0 0 12 0;
#X connect 1 0 0 0;
#X connect 2 0 3 0;
#X connect 3 0 1 0;
#X connect 3 1 1 1;
#X connect 4 0 6 0;
#X connect 4 0 13 1;
#X connect 5 0 7 0;
#X connect 6 0 7 0;
#X connect 6 1 7 1;
#X connect 7 0 8 0;
#X connect 7 0 12 1;
#X connect 7 0 17 0;
#X connect 8 0 9 0;
#X connect 9 0 10 0;
#X connect 9 1 10 1;
#X connect 9 1 18 0;
#X connect 10 0 1 0;
#X connect 11 0 14 1;
#X connect 11 0 19 0;
#X connect 12 0 13 0;
#X connect 13 0 14 0;
#X connect 14 0 15 0;
#X connect 15 0 16 0;
#X connect 19 0 10 0;
