#N canvas 79 90 845 443 10;
#X obj 106 177 output~;
#X obj 97 15 bng 15 250 50 0 empty empty empty 17 7 0 10 -262144 -1
-1;
#X obj 145 67 hsl 128 15 0 1 0 0 empty empty empty -2 -8 0 10 -262144
-1 -1 0 1;
#X obj 165 90 hsl 128 15 0 1 0 0 empty empty empty -2 -8 0 10 -262144
-1 -1 0 1;
#X obj 215 110 hsl 128 15 0 1 0 0 empty empty empty -2 -8 0 10 -262144
-1 -1 0 1;
#N canvas 0 22 450 278 (subpatch) 0;
#X array \$0-array1 93071 float 2;
#X coords 0 1 93071 -1 200 140 1;
#X restore 318 192 graph;
#X obj 106 141 simple-grain \$0-array1;
#X obj 97 36 arraysize \$0-array1;
#X obj 63 253 bng 15 250 50 0 empty empty empty 17 7 0 10 -262144 -1
-1;
#X obj 63 275 openpanel;
#X obj 63 355 soundfiler;
#X floatatom 63 381 10 0 0 0 - - -;
#X msg 63 330 read -resize \$1 \$2-array1;
#X obj 63 300 pack s \$0;
#X obj 367 25 bng 15 250 50 0 empty empty empty 17 7 0 10 -262144 -1
-1;
#X obj 415 77 hsl 128 15 0 1 0 0 empty empty empty -2 -8 0 10 -262144
-1 -1 0 1;
#X obj 435 100 hsl 128 15 0 1 0 0 empty empty empty -2 -8 0 10 -262144
-1 -1 0 1;
#X obj 485 120 hsl 128 15 0 1 0 0 empty empty empty -2 -8 0 10 -262144
-1 -1 0 1;
#X obj 376 151 simple-grain \$0-array1;
#X obj 367 46 arraysize \$0-array1;
#X floatatom 575 166 5 0 0 0 - - -;
#X floatatom 59 70 5 0 0 0 - - -;
#X connect 1 0 7 0;
#X connect 2 0 6 1;
#X connect 3 0 6 2;
#X connect 4 0 6 3;
#X connect 6 0 0 0;
#X connect 6 0 0 1;
#X connect 7 0 6 0;
#X connect 7 0 21 0;
#X connect 8 0 9 0;
#X connect 9 0 13 0;
#X connect 10 0 11 0;
#X connect 11 0 6 0;
#X connect 11 0 18 0;
#X connect 12 0 10 0;
#X connect 13 0 12 0;
#X connect 14 0 19 0;
#X connect 15 0 18 1;
#X connect 16 0 18 2;
#X connect 17 0 18 3;
#X connect 17 0 20 0;
#X connect 18 0 0 1;
#X connect 19 0 18 0;
