#N canvas 0 22 762 644 10;
#X obj 213 360 osc~ 44;
#X obj 320 360 osc~ 176;
#X obj 107 125 osc~ 5.2;
#X obj 213 125 osc~ 2.3;
#X obj 160 172 *~;
#X obj 427 125 osc~ 9.8;
#X obj 533 125 osc~ 5.8;
#X obj 480 172 *~;
#X obj 320 219 *~;
#X obj 320 266 *~ 86;
#X obj 320 313 +~ 176;
#X obj 267 407 +~;
#X obj 267 454 *~ 0.5;
#X obj 267 490 output~;
#X connect 0 0 11 0;
#X connect 1 0 11 1;
#X connect 2 0 4 0;
#X connect 3 0 4 1;
#X connect 4 0 8 0;
#X connect 5 0 7 0;
#X connect 6 0 7 1;
#X connect 7 0 8 1;
#X connect 8 0 9 0;
#X connect 9 0 10 0;
#X connect 10 0 1 0;
#X connect 11 0 12 0;
#X connect 12 0 13 0;
#X connect 12 0 13 1;
