#N canvas 95 120 1139 665 36;
#X msg 311 115 3;
#X obj 330 434 print;
#X msg 211 298 v1 \$1;
#X msg 338 299 v2 \$1;
#X msg 464 297 v3 \$1;
#X obj 736 424 print;
#X msg 617 288 v1 \$1;
#X msg 744 289 v2 \$1;
#X msg 870 287 v3 \$1;
#X msg 693 125 3;
#X floatatom 25 39 5 0 0 0 - - -, f 5;
#X floatatom 179 56 5 0 0 0 - - -, f 5;
#X floatatom 128 427 5 0 0 0 - - -, f 5;
#X obj 36 311 + 3;
#X obj 324 216 t f f f;
#X obj 46 218 t b f;
#X connect 0 0 14 0;
#X connect 2 0 1 0;
#X connect 3 0 1 0;
#X connect 4 0 1 0;
#X connect 6 0 5 0;
#X connect 7 0 5 0;
#X connect 8 0 5 0;
#X connect 9 0 6 0;
#X connect 9 0 7 0;
#X connect 9 0 8 0;
#X connect 10 0 13 0;
#X connect 11 0 15 0;
#X connect 13 0 12 0;
#X connect 14 0 2 0;
#X connect 14 1 3 0;
#X connect 14 2 4 0;
#X connect 15 0 13 0;
#X connect 15 1 13 1;
