#N canvas 502 55 677 641 24;
#X obj 83 399 osc~;
#X floatatom 81 340 5 0 0 0 - - -, f 5;
#X obj 227 401 osc~;
#X floatatom 228 342 5 0 0 0 - - -, f 5;
#X obj 83 472 *~;
#X floatatom 80 19 5 0 0 0 - - -, f 5;
#X obj 84 550 dac~;
#X obj 82 280 * 4;
#X floatatom 186 33 5 1 100 0 - - -, f 5;
#X obj 96 226 t b f;
#X obj 367 44 hsl 128 15 0 127 0 0 empty empty empty -2 -8 0 10 -262144
-1 -1 0 1;
#X floatatom 378 114 5 0 0 0 - - -, f 5;
#X obj 236 194 +;
#X obj 236 145 t b f;
#X obj 377 69 / 1;
#X connect 0 0 4 0;
#X connect 1 0 0 0;
#X connect 2 0 4 1;
#X connect 3 0 2 0;
#X connect 4 0 6 0;
#X connect 4 0 6 1;
#X connect 5 0 7 0;
#X connect 5 0 12 0;
#X connect 7 0 1 0;
#X connect 8 0 9 0;
#X connect 9 0 7 0;
#X connect 9 1 7 1;
#X connect 10 0 14 0;
#X connect 12 0 3 0;
#X connect 13 0 12 0;
#X connect 13 1 12 1;
#X connect 14 0 11 0;
#X connect 14 0 13 0;
