#N canvas 513 91 743 703 36;
#X floatatom 33 330 5 0 0 0 - - -, f 5;
#X floatatom 254 325 5 0 0 0 - - -, f 5;
#X obj 65 546 *~;
#X obj 62 637 dac~;
#X obj 20 430 osc~ 440;
#X obj 256 431 osc~;
#X floatatom 28 124 5 0 0 0 - - -, f 5;
#X obj 247 230 * 0.25;
#X obj 476 231 /;
#X msg 467 168 1;
#X floatatom 471 11 5 0 0 0 - - -, f 5;
#X obj 469 304 t b f;
#X obj 570 390 nbx 5 40 -1e+37 1e+37 0 0 empty empty empty 0 -8 0 20
-262144 -1 -1 0.1 256;
#X obj 458 81 t b f;
#X connect 0 0 4 0;
#X connect 1 0 5 0;
#X connect 2 0 3 0;
#X connect 2 0 3 1;
#X connect 4 0 2 0;
#X connect 5 0 2 1;
#X connect 6 0 0 0;
#X connect 6 0 7 0;
#X connect 7 0 1 0;
#X connect 8 0 11 0;
#X connect 9 0 8 0;
#X connect 10 0 13 0;
#X connect 11 0 7 0;
#X connect 11 1 7 1;
#X connect 11 1 12 0;
#X connect 13 0 9 0;
#X connect 13 1 8 1;
