#N canvas 68 28 1373 746 36;
#X obj 134 227 pan~;
#X obj 130 654 output~;
#X obj 134 101 phasor~ 220;
#X obj 134 297 throw~ outl;
#X obj 219 359 throw~ outr;
#X obj 130 527 catch~ outl;
#X obj 188 588 catch~ outr;
#X obj 219 161 init -20;
#X obj 474 226 pan~;
#X obj 474 296 throw~ outl;
#X obj 559 358 throw~ outr;
#X obj 474 100 phasor~ 160;
#X obj 559 160 init 45;
#X obj 317 228 r pan;
#X obj 919 312 line;
#X obj 1010 91 del 1000;
#X obj 919 76 bng 15 250 50 0 empty empty empty 17 7 0 10 -262144 -1
-1;
#X msg 1010 155 -45 1000;
#X msg 919 252 45 1000;
#X obj 919 420 s pan;
#X obj 1093 333 metro 2000;
#X obj 1093 306 tgl 15 0 empty empty empty 17 7 0 10 -262144 -1 -1
0 1;
#X obj 684 545 random 90;
#X obj 684 451 tgl 15 0 empty empty empty 17 7 0 10 -262144 -1 -1 1
1;
#X obj 684 479 metro 100;
#X obj 684 601 - 45;
#X obj 684 664 s pan;
#X connect 0 0 3 0;
#X connect 0 1 4 0;
#X connect 2 0 0 0;
#X connect 5 0 1 0;
#X connect 6 0 1 1;
#X connect 7 0 0 1;
#X connect 11 0 8 0;
#X connect 12 0 8 1;
#X connect 13 0 0 1;
#X connect 14 0 19 0;
#X connect 15 0 17 0;
#X connect 16 0 15 0;
#X connect 16 0 18 0;
#X connect 17 0 14 0;
#X connect 18 0 14 0;
#X connect 20 0 16 0;
#X connect 21 0 20 0;
#X connect 22 0 25 0;
#X connect 23 0 24 0;
#X connect 24 0 22 0;
#X connect 25 0 26 0;
