#N canvas 468 99 861 542 36;
#X obj 133 349 timer;
#X floatatom 133 434 5 0 0 0 - - -;
#X obj 132 38 bng 15 250 50 0 empty empty empty 17 7 0 10 -262144 -1
-1;
#X obj 132 158 demux . . .;
#X obj 371 93 hradio 15 1 0 8 empty empty empty 0 -8 0 10 -262144 -1
-1 0;
#X floatatom 404 143 5 0 0 0 - - -;
#X obj 306 53 tgl 15 0 empty empty empty 17 7 0 10 -262144 -1 -1 0
1;
#X obj 358 380 bonk~;
#X obj 358 458 bng 15 250 50 0 empty empty empty 17 7 0 10 -262144
-1 -1;
#X obj 358 246 adc~;
#X msg 492 246 thresh 10 30;
#X connect 0 0 1 0;
#X connect 2 0 3 0;
#X connect 2 0 6 0;
#X connect 3 0 0 0;
#X connect 3 1 0 1;
#X connect 4 0 3 1;
#X connect 4 0 5 0;
#X connect 6 0 4 0;
#X connect 7 0 8 0;
#X connect 7 0 2 0;
#X connect 9 0 7 0;
#X connect 10 0 7 0;
