#N canvas 360 60 1119 732 10;
#N canvas 0 22 450 278 (subpatch) 0;
#X array array1 162831 float 2;
#X coords 0 1 162831 -1 200 140 1;
#X restore 41 26 graph;
#X obj 726 60 bng 15 250 50 0 empty empty empty 17 7 0 10 -262144 -1
-1;
#X obj 726 82 openpanel;
#X msg 726 107 read -resize \$1 array1;
#X obj 726 132 soundfiler;
#X floatatom 726 158 10 0 0 0 - - -, f 10;
#X obj 411 141 tgl 15 0 empty empty empty 17 7 0 10 -262144 -1 -1 1
1;
#X obj 726 181 s \$0-fsize;
#X obj 807 133 bng 15 250 50 0 empty empty empty 17 7 0 10 -262144
-1 -1;
#X obj 44 184 hsl 200 15 0 1 0 0 \$0-grain-start \$0-grain-start-in
start -2 -8 0 10 -262144 -1 -1 12707 1;
#X obj 44 244 hsl 200 15 0 1 0 0 \$0-grain-start-r \$0-grain-start-rin
start_randomness -2 -8 0 10 -262144 -1 -1 0 1;
#X floatatom 41 263 5 0 0 0 - - -, f 5;
#X obj 44 304 hsl 200 15 10 1000 0 0 \$0-grain-length \$0-length-in
length_(ms) -2 -8 0 10 -262144 -1 -1 709 1;
#X obj 411 164 metro 100;
#X floatatom 41 323 5 0 0 0 - - -, f 5;
#X obj 44 364 hsl 200 15 0 1 0 0 \$0-grain-length-r \$0-length-rin
length_randomness -2 -8 0 10 -262144 -1 -1 0 1;
#X floatatom 41 383 5 0 0 0 - - -, f 5;
#X obj 44 424 hsl 200 15 0.1 10 0 0 \$0-grain-speed \$0-speed-in speed
-2 -8 0 10 -262144 -1 -1 1900 1;
#X floatatom 41 443 5 0 0 0 - - -, f 5;
#X obj 44 484 hsl 200 15 0 1 0 0 \$0-grain-speed-r \$0-speed-rin speed_randomness
-2 -8 0 10 -262144 -1 -1 0 1;
#X floatatom 41 503 5 0 0 0 - - -, f 5;
#N canvas 459 167 450 300 init 0;
#X obj 94 45 loadbang;
#X obj 94 73 f \$0;
#X obj 159 46 bng 15 250 50 0 empty empty empty 17 7 0 10 -262144 -1
-1;
#X msg 94 105 \; \$1-grain-start-in 0.1 \; \$1-grain-start-rin 0.05
\; \$1-length-in 100 \; \$1-length-rin 0.2 \; \$1-speed-in 1 \; \$1-speed-rin
0.2;
#X obj 160 20 inlet;
#X connect 0 0 1 0;
#X connect 1 0 3 0;
#X connect 2 0 1 0;
#X connect 4 0 2 0;
#X restore 284 78 pd init;
#X floatatom 41 203 5 0 0 0 - - -, f 5;
#N canvas 711 312 774 464 grain~ 0;
#X obj 23 384 outlet~;
#X obj 23 17 r \$0-grain-bang;
#N canvas 288 188 492 428 grain-start 0;
#X obj 47 25 inlet constant;
#X obj 175 24 inlet deviation;
#X obj 47 146 *;
#X obj 62 118 r \$0-fsize;
#X obj 47 338 +;
#X obj 62 310 t b f;
#X obj 47 376 outlet;
#X obj 297 23 inlet bang;
#X obj 160 173 *;
#X obj 160 144 random;
#X obj 193 117 r \$0-fsize;
#X obj 177 238 t b f;
#X obj 160 270 -;
#X obj 175 60 clip 0 1;
#X obj 243 173 *;
#X obj 258 147 r \$0-fsize;
#X obj 243 196 * 0.5;
#X connect 0 0 2 0;
#X connect 1 0 13 0;
#X connect 2 0 4 0;
#X connect 3 0 2 1;
#X connect 4 0 6 0;
#X connect 5 0 4 0;
#X connect 5 1 4 1;
#X connect 7 0 9 0;
#X connect 8 0 12 0;
#X connect 9 0 8 0;
#X connect 10 0 9 1;
#X connect 11 0 12 0;
#X connect 11 1 12 1;
#X connect 12 0 5 0;
#X connect 13 0 8 1;
#X connect 13 0 14 0;
#X connect 14 0 16 0;
#X connect 15 0 14 1;
#X connect 16 0 11 0;
#X restore 51 227 pd grain-start;
#N canvas 350 335 502 444 grain-length 0;
#X obj 47 25 inlet constant;
#X obj 175 24 inlet deviation;
#X obj 47 338 +;
#X obj 62 310 t b f;
#X obj 47 376 outlet;
#X obj 297 23 inlet bang;
#X obj 175 84 random 1000;
#X obj 175 107 / 1000;
#X obj 175 133 - 0.5;
#X obj 175 159 *;
#X obj 160 205 *;
#X obj 47 65 * 44.1;
#X connect 0 0 11 0;
#X connect 1 0 9 1;
#X connect 2 0 4 0;
#X connect 3 0 2 0;
#X connect 3 1 2 1;
#X connect 5 0 6 0;
#X connect 5 0 10 0;
#X connect 6 0 7 0;
#X connect 7 0 8 0;
#X connect 8 0 9 0;
#X connect 9 0 10 1;
#X connect 10 0 3 0;
#X connect 11 0 10 0;
#X connect 11 0 2 0;
#X restore 177 223 pd grain-length;
#N canvas 350 335 502 444 grain-speed 0;
#X obj 47 25 inlet constant;
#X obj 175 24 inlet deviation;
#X obj 47 338 +;
#X obj 62 310 t b f;
#X obj 47 376 outlet;
#X obj 297 23 inlet bang;
#X obj 175 84 random 1000;
#X obj 175 107 / 1000;
#X obj 175 133 - 0.5;
#X obj 175 159 *;
#X obj 160 205 *;
#X connect 0 0 2 0;
#X connect 0 0 10 0;
#X connect 1 0 9 1;
#X connect 2 0 4 0;
#X connect 3 0 2 0;
#X connect 3 1 2 1;
#X connect 5 0 6 0;
#X connect 5 0 10 0;
#X connect 6 0 7 0;
#X connect 7 0 8 0;
#X connect 8 0 9 0;
#X connect 9 0 10 1;
#X connect 10 0 3 0;
#X restore 297 223 pd grain-speed;
#X obj 137 137 r \$0-grain-start;
#X obj 137 167 r \$0-grain-start-r;
#X obj 267 137 r \$0-grain-length;
#X obj 267 167 r \$0-grain-length-r;
#X floatatom 131 353 10 0 0 0 - - -, f 10;
#X floatatom 204 336 10 0 0 0 - - -, f 10;
#X floatatom 293 331 10 0 0 0 - - -, f 10;
#X obj 407 137 r \$0-grain-speed;
#X obj 407 167 r \$0-grain-speed-r;
#X msg 23 48 1;
#X obj 23 131 bang;
#X obj 74 45 r \$0-new-random;
#X obj 137 19 bng 15 250 50 0 empty empty empty 17 7 0 10 -262144 -1
-1;
#X floatatom 100 102 5 0 0 0 - - -, f 5;
#X obj 189 44 r \$0-random-max;
#X obj 74 73 random 90;
#X obj 23 100 pipe 90;
#X obj 53 174 bng 15 250 50 0 empty empty empty 17 7 0 10 -262144 -1
-1;
#X obj 23 350 l4_gr_w;
#X obj 354 19 inlet control;
#X obj 354 85 switch~;
#X obj 467 20 loadbang;
#X msg 467 42 1;
#X connect 1 0 14 0;
#X connect 2 0 9 0;
#X connect 2 0 23 1;
#X connect 3 0 10 0;
#X connect 3 0 23 2;
#X connect 4 0 11 0;
#X connect 4 0 23 3;
#X connect 5 0 2 0;
#X connect 6 0 2 1;
#X connect 7 0 3 0;
#X connect 8 0 3 1;
#X connect 12 0 4 0;
#X connect 13 0 4 1;
#X connect 14 0 21 0;
#X connect 15 0 2 2;
#X connect 15 0 3 2;
#X connect 15 0 4 2;
#X connect 15 0 22 0;
#X connect 15 0 23 0;
#X connect 16 0 20 0;
#X connect 17 0 20 0;
#X connect 19 0 20 1;
#X connect 20 0 18 0;
#X connect 20 0 21 1;
#X connect 21 0 15 0;
#X connect 23 0 0 0;
#X connect 24 0 25 0;
#X connect 26 0 27 0;
#X connect 27 0 25 0;
#X restore 362 504 pd grain~;
#X obj 362 220 s \$0-new-random;
#X obj 464 141 nbx 5 14 -1e+37 1e+37 0 0 empty empty empty 0 -8 0 10
-262144 -1 -1 183 256;
#X obj 411 191 s \$0-grain-bang;
#X obj 44 541 hsl 200 15 0 1000 0 0 \$0-random-max empty random-max
-2 -8 0 10 -262144 -1 -1 0 1;
#X floatatom 41 564 5 0 0 0 - - -, f 5;
#X obj 362 482 tgl 15 0 empty empty empty 17 7 0 10 -262144 -1 -1 0
1;
#N canvas 339 285 774 464 grain~ 0;
#X obj 23 384 outlet~;
#X obj 23 17 r \$0-grain-bang;
#N canvas 288 188 492 428 grain-start 0;
#X obj 47 25 inlet constant;
#X obj 175 24 inlet deviation;
#X obj 47 146 *;
#X obj 62 118 r \$0-fsize;
#X obj 47 338 +;
#X obj 62 310 t b f;
#X obj 47 376 outlet;
#X obj 297 23 inlet bang;
#X obj 160 173 *;
#X obj 160 144 random;
#X obj 193 117 r \$0-fsize;
#X obj 177 238 t b f;
#X obj 160 270 -;
#X obj 175 60 clip 0 1;
#X obj 243 173 *;
#X obj 258 147 r \$0-fsize;
#X obj 243 196 * 0.5;
#X connect 0 0 2 0;
#X connect 1 0 13 0;
#X connect 2 0 4 0;
#X connect 3 0 2 1;
#X connect 4 0 6 0;
#X connect 5 0 4 0;
#X connect 5 1 4 1;
#X connect 7 0 9 0;
#X connect 8 0 12 0;
#X connect 9 0 8 0;
#X connect 10 0 9 1;
#X connect 11 0 12 0;
#X connect 11 1 12 1;
#X connect 12 0 5 0;
#X connect 13 0 8 1;
#X connect 13 0 14 0;
#X connect 14 0 16 0;
#X connect 15 0 14 1;
#X connect 16 0 11 0;
#X restore 51 227 pd grain-start;
#N canvas 350 335 502 444 grain-length 0;
#X obj 47 25 inlet constant;
#X obj 175 24 inlet deviation;
#X obj 47 338 +;
#X obj 62 310 t b f;
#X obj 47 376 outlet;
#X obj 297 23 inlet bang;
#X obj 175 84 random 1000;
#X obj 175 107 / 1000;
#X obj 175 133 - 0.5;
#X obj 175 159 *;
#X obj 160 205 *;
#X obj 47 65 * 44.1;
#X connect 0 0 11 0;
#X connect 1 0 9 1;
#X connect 2 0 4 0;
#X connect 3 0 2 0;
#X connect 3 1 2 1;
#X connect 5 0 6 0;
#X connect 5 0 10 0;
#X connect 6 0 7 0;
#X connect 7 0 8 0;
#X connect 8 0 9 0;
#X connect 9 0 10 1;
#X connect 10 0 3 0;
#X connect 11 0 10 0;
#X connect 11 0 2 0;
#X restore 177 223 pd grain-length;
#N canvas 350 335 502 444 grain-speed 0;
#X obj 47 25 inlet constant;
#X obj 175 24 inlet deviation;
#X obj 47 338 +;
#X obj 62 310 t b f;
#X obj 47 376 outlet;
#X obj 297 23 inlet bang;
#X obj 175 84 random 1000;
#X obj 175 107 / 1000;
#X obj 175 133 - 0.5;
#X obj 175 159 *;
#X obj 160 205 *;
#X connect 0 0 2 0;
#X connect 0 0 10 0;
#X connect 1 0 9 1;
#X connect 2 0 4 0;
#X connect 3 0 2 0;
#X connect 3 1 2 1;
#X connect 5 0 6 0;
#X connect 5 0 10 0;
#X connect 6 0 7 0;
#X connect 7 0 8 0;
#X connect 8 0 9 0;
#X connect 9 0 10 1;
#X connect 10 0 3 0;
#X restore 297 223 pd grain-speed;
#X obj 137 137 r \$0-grain-start;
#X obj 137 167 r \$0-grain-start-r;
#X obj 267 137 r \$0-grain-length;
#X obj 267 167 r \$0-grain-length-r;
#X floatatom 131 353 10 0 0 0 - - -, f 10;
#X floatatom 204 336 10 0 0 0 - - -, f 10;
#X floatatom 293 331 10 0 0 0 - - -, f 10;
#X obj 407 137 r \$0-grain-speed;
#X obj 407 167 r \$0-grain-speed-r;
#X msg 23 48 1;
#X obj 23 131 bang;
#X obj 74 45 r \$0-new-random;
#X obj 137 19 bng 15 250 50 0 empty empty empty 17 7 0 10 -262144 -1
-1;
#X floatatom 100 102 5 0 0 0 - - -, f 5;
#X obj 189 44 r \$0-random-max;
#X obj 74 73 random 90;
#X obj 23 100 pipe 90;
#X obj 53 174 bng 15 250 50 0 empty empty empty 17 7 0 10 -262144 -1
-1;
#X obj 354 19 inlet control;
#X obj 354 85 switch~;
#X obj 467 20 loadbang;
#X msg 467 42 1;
#X obj 23 350 l4_gr_w;
#X connect 1 0 14 0;
#X connect 2 0 9 0;
#X connect 2 0 27 1;
#X connect 3 0 10 0;
#X connect 3 0 27 2;
#X connect 4 0 11 0;
#X connect 4 0 27 3;
#X connect 5 0 2 0;
#X connect 6 0 2 1;
#X connect 7 0 3 0;
#X connect 8 0 3 1;
#X connect 12 0 4 0;
#X connect 13 0 4 1;
#X connect 14 0 21 0;
#X connect 15 0 2 2;
#X connect 15 0 3 2;
#X connect 15 0 4 2;
#X connect 15 0 22 0;
#X connect 15 0 27 0;
#X connect 16 0 20 0;
#X connect 17 0 20 0;
#X connect 19 0 20 1;
#X connect 20 0 18 0;
#X connect 20 0 21 1;
#X connect 21 0 15 0;
#X connect 23 0 24 0;
#X connect 25 0 26 0;
#X connect 26 0 24 0;
#X connect 27 0 0 0;
#X restore 432 504 pd grain~;
#X obj 432 482 tgl 15 0 empty empty empty 17 7 0 10 -262144 -1 -1 0
1;
#N canvas 339 285 774 464 grain~ 0;
#X obj 23 384 outlet~;
#X obj 23 17 r \$0-grain-bang;
#N canvas 288 188 492 428 grain-start 0;
#X obj 47 25 inlet constant;
#X obj 175 24 inlet deviation;
#X obj 47 146 *;
#X obj 62 118 r \$0-fsize;
#X obj 47 338 +;
#X obj 62 310 t b f;
#X obj 47 376 outlet;
#X obj 297 23 inlet bang;
#X obj 160 173 *;
#X obj 160 144 random;
#X obj 193 117 r \$0-fsize;
#X obj 177 238 t b f;
#X obj 160 270 -;
#X obj 175 60 clip 0 1;
#X obj 243 173 *;
#X obj 258 147 r \$0-fsize;
#X obj 243 196 * 0.5;
#X connect 0 0 2 0;
#X connect 1 0 13 0;
#X connect 2 0 4 0;
#X connect 3 0 2 1;
#X connect 4 0 6 0;
#X connect 5 0 4 0;
#X connect 5 1 4 1;
#X connect 7 0 9 0;
#X connect 8 0 12 0;
#X connect 9 0 8 0;
#X connect 10 0 9 1;
#X connect 11 0 12 0;
#X connect 11 1 12 1;
#X connect 12 0 5 0;
#X connect 13 0 8 1;
#X connect 13 0 14 0;
#X connect 14 0 16 0;
#X connect 15 0 14 1;
#X connect 16 0 11 0;
#X restore 51 227 pd grain-start;
#N canvas 350 335 502 444 grain-length 0;
#X obj 47 25 inlet constant;
#X obj 175 24 inlet deviation;
#X obj 47 338 +;
#X obj 62 310 t b f;
#X obj 47 376 outlet;
#X obj 297 23 inlet bang;
#X obj 175 84 random 1000;
#X obj 175 107 / 1000;
#X obj 175 133 - 0.5;
#X obj 175 159 *;
#X obj 160 205 *;
#X obj 47 65 * 44.1;
#X connect 0 0 11 0;
#X connect 1 0 9 1;
#X connect 2 0 4 0;
#X connect 3 0 2 0;
#X connect 3 1 2 1;
#X connect 5 0 6 0;
#X connect 5 0 10 0;
#X connect 6 0 7 0;
#X connect 7 0 8 0;
#X connect 8 0 9 0;
#X connect 9 0 10 1;
#X connect 10 0 3 0;
#X connect 11 0 10 0;
#X connect 11 0 2 0;
#X restore 177 223 pd grain-length;
#N canvas 350 335 502 444 grain-speed 0;
#X obj 47 25 inlet constant;
#X obj 175 24 inlet deviation;
#X obj 47 338 +;
#X obj 62 310 t b f;
#X obj 47 376 outlet;
#X obj 297 23 inlet bang;
#X obj 175 84 random 1000;
#X obj 175 107 / 1000;
#X obj 175 133 - 0.5;
#X obj 175 159 *;
#X obj 160 205 *;
#X connect 0 0 2 0;
#X connect 0 0 10 0;
#X connect 1 0 9 1;
#X connect 2 0 4 0;
#X connect 3 0 2 0;
#X connect 3 1 2 1;
#X connect 5 0 6 0;
#X connect 5 0 10 0;
#X connect 6 0 7 0;
#X connect 7 0 8 0;
#X connect 8 0 9 0;
#X connect 9 0 10 1;
#X connect 10 0 3 0;
#X restore 297 223 pd grain-speed;
#X obj 137 137 r \$0-grain-start;
#X obj 137 167 r \$0-grain-start-r;
#X obj 267 137 r \$0-grain-length;
#X obj 267 167 r \$0-grain-length-r;
#X floatatom 131 353 10 0 0 0 - - -, f 10;
#X floatatom 204 336 10 0 0 0 - - -, f 10;
#X floatatom 293 331 10 0 0 0 - - -, f 10;
#X obj 407 137 r \$0-grain-speed;
#X obj 407 167 r \$0-grain-speed-r;
#X msg 23 48 1;
#X obj 23 131 bang;
#X obj 74 45 r \$0-new-random;
#X obj 137 19 bng 15 250 50 0 empty empty empty 17 7 0 10 -262144 -1
-1;
#X floatatom 100 102 5 0 0 0 - - -, f 5;
#X obj 189 44 r \$0-random-max;
#X obj 74 73 random 90;
#X obj 23 100 pipe 90;
#X obj 53 174 bng 15 250 50 0 empty empty empty 17 7 0 10 -262144 -1
-1;
#X obj 354 19 inlet control;
#X obj 354 85 switch~;
#X obj 467 20 loadbang;
#X msg 467 42 1;
#X obj 23 350 l4_gr_w;
#X connect 1 0 14 0;
#X connect 2 0 9 0;
#X connect 2 0 27 1;
#X connect 3 0 10 0;
#X connect 3 0 27 2;
#X connect 4 0 11 0;
#X connect 4 0 27 3;
#X connect 5 0 2 0;
#X connect 6 0 2 1;
#X connect 7 0 3 0;
#X connect 8 0 3 1;
#X connect 12 0 4 0;
#X connect 13 0 4 1;
#X connect 14 0 21 0;
#X connect 15 0 2 2;
#X connect 15 0 3 2;
#X connect 15 0 4 2;
#X connect 15 0 22 0;
#X connect 15 0 27 0;
#X connect 16 0 20 0;
#X connect 17 0 20 0;
#X connect 19 0 20 1;
#X connect 20 0 18 0;
#X connect 20 0 21 1;
#X connect 21 0 15 0;
#X connect 23 0 24 0;
#X connect 25 0 26 0;
#X connect 26 0 24 0;
#X connect 27 0 0 0;
#X restore 392 554 pd grain~;
#X obj 392 532 tgl 15 0 empty empty empty 17 7 0 10 -262144 -1 -1 0
1;
#N canvas 339 285 774 464 grain~ 0;
#X obj 23 384 outlet~;
#X obj 23 17 r \$0-grain-bang;
#N canvas 288 188 492 428 grain-start 0;
#X obj 47 25 inlet constant;
#X obj 175 24 inlet deviation;
#X obj 47 146 *;
#X obj 62 118 r \$0-fsize;
#X obj 47 338 +;
#X obj 62 310 t b f;
#X obj 47 376 outlet;
#X obj 297 23 inlet bang;
#X obj 160 173 *;
#X obj 160 144 random;
#X obj 193 117 r \$0-fsize;
#X obj 177 238 t b f;
#X obj 160 270 -;
#X obj 175 60 clip 0 1;
#X obj 243 173 *;
#X obj 258 147 r \$0-fsize;
#X obj 243 196 * 0.5;
#X connect 0 0 2 0;
#X connect 1 0 13 0;
#X connect 2 0 4 0;
#X connect 3 0 2 1;
#X connect 4 0 6 0;
#X connect 5 0 4 0;
#X connect 5 1 4 1;
#X connect 7 0 9 0;
#X connect 8 0 12 0;
#X connect 9 0 8 0;
#X connect 10 0 9 1;
#X connect 11 0 12 0;
#X connect 11 1 12 1;
#X connect 12 0 5 0;
#X connect 13 0 8 1;
#X connect 13 0 14 0;
#X connect 14 0 16 0;
#X connect 15 0 14 1;
#X connect 16 0 11 0;
#X restore 51 227 pd grain-start;
#N canvas 350 335 502 444 grain-length 0;
#X obj 47 25 inlet constant;
#X obj 175 24 inlet deviation;
#X obj 47 338 +;
#X obj 62 310 t b f;
#X obj 47 376 outlet;
#X obj 297 23 inlet bang;
#X obj 175 84 random 1000;
#X obj 175 107 / 1000;
#X obj 175 133 - 0.5;
#X obj 175 159 *;
#X obj 160 205 *;
#X obj 47 65 * 44.1;
#X connect 0 0 11 0;
#X connect 1 0 9 1;
#X connect 2 0 4 0;
#X connect 3 0 2 0;
#X connect 3 1 2 1;
#X connect 5 0 6 0;
#X connect 5 0 10 0;
#X connect 6 0 7 0;
#X connect 7 0 8 0;
#X connect 8 0 9 0;
#X connect 9 0 10 1;
#X connect 10 0 3 0;
#X connect 11 0 10 0;
#X connect 11 0 2 0;
#X restore 177 223 pd grain-length;
#N canvas 350 335 502 444 grain-speed 0;
#X obj 47 25 inlet constant;
#X obj 175 24 inlet deviation;
#X obj 47 338 +;
#X obj 62 310 t b f;
#X obj 47 376 outlet;
#X obj 297 23 inlet bang;
#X obj 175 84 random 1000;
#X obj 175 107 / 1000;
#X obj 175 133 - 0.5;
#X obj 175 159 *;
#X obj 160 205 *;
#X connect 0 0 2 0;
#X connect 0 0 10 0;
#X connect 1 0 9 1;
#X connect 2 0 4 0;
#X connect 3 0 2 0;
#X connect 3 1 2 1;
#X connect 5 0 6 0;
#X connect 5 0 10 0;
#X connect 6 0 7 0;
#X connect 7 0 8 0;
#X connect 8 0 9 0;
#X connect 9 0 10 1;
#X connect 10 0 3 0;
#X restore 297 223 pd grain-speed;
#X obj 137 137 r \$0-grain-start;
#X obj 137 167 r \$0-grain-start-r;
#X obj 267 137 r \$0-grain-length;
#X obj 267 167 r \$0-grain-length-r;
#X floatatom 131 353 10 0 0 0 - - -, f 10;
#X floatatom 204 336 10 0 0 0 - - -, f 10;
#X floatatom 293 331 10 0 0 0 - - -, f 10;
#X obj 407 137 r \$0-grain-speed;
#X obj 407 167 r \$0-grain-speed-r;
#X msg 23 48 1;
#X obj 23 131 bang;
#X obj 74 45 r \$0-new-random;
#X obj 137 19 bng 15 250 50 0 empty empty empty 17 7 0 10 -262144 -1
-1;
#X floatatom 100 102 5 0 0 0 - - -, f 5;
#X obj 189 44 r \$0-random-max;
#X obj 74 73 random 90;
#X obj 23 100 pipe 90;
#X obj 53 174 bng 15 250 50 0 empty empty empty 17 7 0 10 -262144 -1
-1;
#X obj 354 19 inlet control;
#X obj 354 85 switch~;
#X obj 467 20 loadbang;
#X msg 467 42 1;
#X obj 23 350 l4_gr_w;
#X connect 1 0 14 0;
#X connect 2 0 9 0;
#X connect 2 0 27 1;
#X connect 3 0 10 0;
#X connect 3 0 27 2;
#X connect 4 0 11 0;
#X connect 4 0 27 3;
#X connect 5 0 2 0;
#X connect 6 0 2 1;
#X connect 7 0 3 0;
#X connect 8 0 3 1;
#X connect 12 0 4 0;
#X connect 13 0 4 1;
#X connect 14 0 21 0;
#X connect 15 0 2 2;
#X connect 15 0 3 2;
#X connect 15 0 4 2;
#X connect 15 0 22 0;
#X connect 15 0 27 0;
#X connect 16 0 20 0;
#X connect 17 0 20 0;
#X connect 19 0 20 1;
#X connect 20 0 18 0;
#X connect 20 0 21 1;
#X connect 21 0 15 0;
#X connect 23 0 24 0;
#X connect 25 0 26 0;
#X connect 26 0 24 0;
#X connect 27 0 0 0;
#X restore 462 554 pd grain~;
#X obj 462 532 tgl 15 0 empty empty empty 17 7 0 10 -262144 -1 -1 0
1;
#N canvas 339 285 774 464 grain~ 0;
#X obj 23 384 outlet~;
#X obj 23 17 r \$0-grain-bang;
#N canvas 288 188 492 428 grain-start 0;
#X obj 47 25 inlet constant;
#X obj 175 24 inlet deviation;
#X obj 47 146 *;
#X obj 62 118 r \$0-fsize;
#X obj 47 338 +;
#X obj 62 310 t b f;
#X obj 47 376 outlet;
#X obj 297 23 inlet bang;
#X obj 160 173 *;
#X obj 160 144 random;
#X obj 193 117 r \$0-fsize;
#X obj 177 238 t b f;
#X obj 160 270 -;
#X obj 175 60 clip 0 1;
#X obj 243 173 *;
#X obj 258 147 r \$0-fsize;
#X obj 243 196 * 0.5;
#X connect 0 0 2 0;
#X connect 1 0 13 0;
#X connect 2 0 4 0;
#X connect 3 0 2 1;
#X connect 4 0 6 0;
#X connect 5 0 4 0;
#X connect 5 1 4 1;
#X connect 7 0 9 0;
#X connect 8 0 12 0;
#X connect 9 0 8 0;
#X connect 10 0 9 1;
#X connect 11 0 12 0;
#X connect 11 1 12 1;
#X connect 12 0 5 0;
#X connect 13 0 8 1;
#X connect 13 0 14 0;
#X connect 14 0 16 0;
#X connect 15 0 14 1;
#X connect 16 0 11 0;
#X restore 51 227 pd grain-start;
#N canvas 350 335 502 444 grain-length 0;
#X obj 47 25 inlet constant;
#X obj 175 24 inlet deviation;
#X obj 47 338 +;
#X obj 62 310 t b f;
#X obj 47 376 outlet;
#X obj 297 23 inlet bang;
#X obj 175 84 random 1000;
#X obj 175 107 / 1000;
#X obj 175 133 - 0.5;
#X obj 175 159 *;
#X obj 160 205 *;
#X obj 47 65 * 44.1;
#X connect 0 0 11 0;
#X connect 1 0 9 1;
#X connect 2 0 4 0;
#X connect 3 0 2 0;
#X connect 3 1 2 1;
#X connect 5 0 6 0;
#X connect 5 0 10 0;
#X connect 6 0 7 0;
#X connect 7 0 8 0;
#X connect 8 0 9 0;
#X connect 9 0 10 1;
#X connect 10 0 3 0;
#X connect 11 0 10 0;
#X connect 11 0 2 0;
#X restore 177 223 pd grain-length;
#N canvas 350 335 502 444 grain-speed 0;
#X obj 47 25 inlet constant;
#X obj 175 24 inlet deviation;
#X obj 47 338 +;
#X obj 62 310 t b f;
#X obj 47 376 outlet;
#X obj 297 23 inlet bang;
#X obj 175 84 random 1000;
#X obj 175 107 / 1000;
#X obj 175 133 - 0.5;
#X obj 175 159 *;
#X obj 160 205 *;
#X connect 0 0 2 0;
#X connect 0 0 10 0;
#X connect 1 0 9 1;
#X connect 2 0 4 0;
#X connect 3 0 2 0;
#X connect 3 1 2 1;
#X connect 5 0 6 0;
#X connect 5 0 10 0;
#X connect 6 0 7 0;
#X connect 7 0 8 0;
#X connect 8 0 9 0;
#X connect 9 0 10 1;
#X connect 10 0 3 0;
#X restore 297 223 pd grain-speed;
#X obj 137 137 r \$0-grain-start;
#X obj 137 167 r \$0-grain-start-r;
#X obj 267 137 r \$0-grain-length;
#X obj 267 167 r \$0-grain-length-r;
#X floatatom 131 353 10 0 0 0 - - -, f 10;
#X floatatom 204 336 10 0 0 0 - - -, f 10;
#X floatatom 293 331 10 0 0 0 - - -, f 10;
#X obj 407 137 r \$0-grain-speed;
#X obj 407 167 r \$0-grain-speed-r;
#X msg 23 48 1;
#X obj 23 131 bang;
#X obj 74 45 r \$0-new-random;
#X obj 137 19 bng 15 250 50 0 empty empty empty 17 7 0 10 -262144 -1
-1;
#X floatatom 100 102 5 0 0 0 - - -, f 5;
#X obj 189 44 r \$0-random-max;
#X obj 74 73 random 90;
#X obj 23 100 pipe 90;
#X obj 53 174 bng 15 250 50 0 empty empty empty 17 7 0 10 -262144 -1
-1;
#X obj 354 19 inlet control;
#X obj 354 85 switch~;
#X obj 467 20 loadbang;
#X msg 467 42 1;
#X obj 23 350 l4_gr_w;
#X connect 1 0 14 0;
#X connect 2 0 9 0;
#X connect 2 0 27 1;
#X connect 3 0 10 0;
#X connect 3 0 27 2;
#X connect 4 0 11 0;
#X connect 4 0 27 3;
#X connect 5 0 2 0;
#X connect 6 0 2 1;
#X connect 7 0 3 0;
#X connect 8 0 3 1;
#X connect 12 0 4 0;
#X connect 13 0 4 1;
#X connect 14 0 21 0;
#X connect 15 0 2 2;
#X connect 15 0 3 2;
#X connect 15 0 4 2;
#X connect 15 0 22 0;
#X connect 15 0 27 0;
#X connect 16 0 20 0;
#X connect 17 0 20 0;
#X connect 19 0 20 1;
#X connect 20 0 18 0;
#X connect 20 0 21 1;
#X connect 21 0 15 0;
#X connect 23 0 24 0;
#X connect 25 0 26 0;
#X connect 26 0 24 0;
#X connect 27 0 0 0;
#X restore 542 504 pd grain~;
#X obj 542 482 tgl 15 0 empty empty empty 17 7 0 10 -262144 -1 -1 0
1;
#N canvas 339 285 774 464 grain~ 0;
#X obj 23 384 outlet~;
#X obj 23 17 r \$0-grain-bang;
#N canvas 288 188 492 428 grain-start 0;
#X obj 47 25 inlet constant;
#X obj 175 24 inlet deviation;
#X obj 47 146 *;
#X obj 62 118 r \$0-fsize;
#X obj 47 338 +;
#X obj 62 310 t b f;
#X obj 47 376 outlet;
#X obj 297 23 inlet bang;
#X obj 160 173 *;
#X obj 160 144 random;
#X obj 193 117 r \$0-fsize;
#X obj 177 238 t b f;
#X obj 160 270 -;
#X obj 175 60 clip 0 1;
#X obj 243 173 *;
#X obj 258 147 r \$0-fsize;
#X obj 243 196 * 0.5;
#X connect 0 0 2 0;
#X connect 1 0 13 0;
#X connect 2 0 4 0;
#X connect 3 0 2 1;
#X connect 4 0 6 0;
#X connect 5 0 4 0;
#X connect 5 1 4 1;
#X connect 7 0 9 0;
#X connect 8 0 12 0;
#X connect 9 0 8 0;
#X connect 10 0 9 1;
#X connect 11 0 12 0;
#X connect 11 1 12 1;
#X connect 12 0 5 0;
#X connect 13 0 8 1;
#X connect 13 0 14 0;
#X connect 14 0 16 0;
#X connect 15 0 14 1;
#X connect 16 0 11 0;
#X restore 51 227 pd grain-start;
#N canvas 350 335 502 444 grain-length 0;
#X obj 47 25 inlet constant;
#X obj 175 24 inlet deviation;
#X obj 47 338 +;
#X obj 62 310 t b f;
#X obj 47 376 outlet;
#X obj 297 23 inlet bang;
#X obj 175 84 random 1000;
#X obj 175 107 / 1000;
#X obj 175 133 - 0.5;
#X obj 175 159 *;
#X obj 160 205 *;
#X obj 47 65 * 44.1;
#X connect 0 0 11 0;
#X connect 1 0 9 1;
#X connect 2 0 4 0;
#X connect 3 0 2 0;
#X connect 3 1 2 1;
#X connect 5 0 6 0;
#X connect 5 0 10 0;
#X connect 6 0 7 0;
#X connect 7 0 8 0;
#X connect 8 0 9 0;
#X connect 9 0 10 1;
#X connect 10 0 3 0;
#X connect 11 0 10 0;
#X connect 11 0 2 0;
#X restore 177 223 pd grain-length;
#N canvas 350 335 502 444 grain-speed 0;
#X obj 47 25 inlet constant;
#X obj 175 24 inlet deviation;
#X obj 47 338 +;
#X obj 62 310 t b f;
#X obj 47 376 outlet;
#X obj 297 23 inlet bang;
#X obj 175 84 random 1000;
#X obj 175 107 / 1000;
#X obj 175 133 - 0.5;
#X obj 175 159 *;
#X obj 160 205 *;
#X connect 0 0 2 0;
#X connect 0 0 10 0;
#X connect 1 0 9 1;
#X connect 2 0 4 0;
#X connect 3 0 2 0;
#X connect 3 1 2 1;
#X connect 5 0 6 0;
#X connect 5 0 10 0;
#X connect 6 0 7 0;
#X connect 7 0 8 0;
#X connect 8 0 9 0;
#X connect 9 0 10 1;
#X connect 10 0 3 0;
#X restore 297 223 pd grain-speed;
#X obj 137 137 r \$0-grain-start;
#X obj 137 167 r \$0-grain-start-r;
#X obj 267 137 r \$0-grain-length;
#X obj 267 167 r \$0-grain-length-r;
#X floatatom 131 353 10 0 0 0 - - -, f 10;
#X floatatom 204 336 10 0 0 0 - - -, f 10;
#X floatatom 293 331 10 0 0 0 - - -, f 10;
#X obj 407 137 r \$0-grain-speed;
#X obj 407 167 r \$0-grain-speed-r;
#X msg 23 48 1;
#X obj 23 131 bang;
#X obj 74 45 r \$0-new-random;
#X obj 137 19 bng 15 250 50 0 empty empty empty 17 7 0 10 -262144 -1
-1;
#X floatatom 100 102 5 0 0 0 - - -, f 5;
#X obj 189 44 r \$0-random-max;
#X obj 74 73 random 90;
#X obj 23 100 pipe 90;
#X obj 53 174 bng 15 250 50 0 empty empty empty 17 7 0 10 -262144 -1
-1;
#X obj 354 19 inlet control;
#X obj 354 85 switch~;
#X obj 467 20 loadbang;
#X msg 467 42 1;
#X obj 23 350 l4_gr_w;
#X connect 1 0 14 0;
#X connect 2 0 9 0;
#X connect 2 0 27 1;
#X connect 3 0 10 0;
#X connect 3 0 27 2;
#X connect 4 0 11 0;
#X connect 4 0 27 3;
#X connect 5 0 2 0;
#X connect 6 0 2 1;
#X connect 7 0 3 0;
#X connect 8 0 3 1;
#X connect 12 0 4 0;
#X connect 13 0 4 1;
#X connect 14 0 21 0;
#X connect 15 0 2 2;
#X connect 15 0 3 2;
#X connect 15 0 4 2;
#X connect 15 0 22 0;
#X connect 15 0 27 0;
#X connect 16 0 20 0;
#X connect 17 0 20 0;
#X connect 19 0 20 1;
#X connect 20 0 18 0;
#X connect 20 0 21 1;
#X connect 21 0 15 0;
#X connect 23 0 24 0;
#X connect 25 0 26 0;
#X connect 26 0 24 0;
#X connect 27 0 0 0;
#X restore 612 504 pd grain~;
#X obj 612 482 tgl 15 0 empty empty empty 17 7 0 10 -262144 -1 -1 0
1;
#N canvas 339 285 774 464 grain~ 0;
#X obj 23 384 outlet~;
#X obj 23 17 r \$0-grain-bang;
#N canvas 288 188 492 428 grain-start 0;
#X obj 47 25 inlet constant;
#X obj 175 24 inlet deviation;
#X obj 47 146 *;
#X obj 62 118 r \$0-fsize;
#X obj 47 338 +;
#X obj 62 310 t b f;
#X obj 47 376 outlet;
#X obj 297 23 inlet bang;
#X obj 160 173 *;
#X obj 160 144 random;
#X obj 193 117 r \$0-fsize;
#X obj 177 238 t b f;
#X obj 160 270 -;
#X obj 175 60 clip 0 1;
#X obj 243 173 *;
#X obj 258 147 r \$0-fsize;
#X obj 243 196 * 0.5;
#X connect 0 0 2 0;
#X connect 1 0 13 0;
#X connect 2 0 4 0;
#X connect 3 0 2 1;
#X connect 4 0 6 0;
#X connect 5 0 4 0;
#X connect 5 1 4 1;
#X connect 7 0 9 0;
#X connect 8 0 12 0;
#X connect 9 0 8 0;
#X connect 10 0 9 1;
#X connect 11 0 12 0;
#X connect 11 1 12 1;
#X connect 12 0 5 0;
#X connect 13 0 8 1;
#X connect 13 0 14 0;
#X connect 14 0 16 0;
#X connect 15 0 14 1;
#X connect 16 0 11 0;
#X restore 51 227 pd grain-start;
#N canvas 350 335 502 444 grain-length 0;
#X obj 47 25 inlet constant;
#X obj 175 24 inlet deviation;
#X obj 47 338 +;
#X obj 62 310 t b f;
#X obj 47 376 outlet;
#X obj 297 23 inlet bang;
#X obj 175 84 random 1000;
#X obj 175 107 / 1000;
#X obj 175 133 - 0.5;
#X obj 175 159 *;
#X obj 160 205 *;
#X obj 47 65 * 44.1;
#X connect 0 0 11 0;
#X connect 1 0 9 1;
#X connect 2 0 4 0;
#X connect 3 0 2 0;
#X connect 3 1 2 1;
#X connect 5 0 6 0;
#X connect 5 0 10 0;
#X connect 6 0 7 0;
#X connect 7 0 8 0;
#X connect 8 0 9 0;
#X connect 9 0 10 1;
#X connect 10 0 3 0;
#X connect 11 0 10 0;
#X connect 11 0 2 0;
#X restore 177 223 pd grain-length;
#N canvas 350 335 502 444 grain-speed 0;
#X obj 47 25 inlet constant;
#X obj 175 24 inlet deviation;
#X obj 47 338 +;
#X obj 62 310 t b f;
#X obj 47 376 outlet;
#X obj 297 23 inlet bang;
#X obj 175 84 random 1000;
#X obj 175 107 / 1000;
#X obj 175 133 - 0.5;
#X obj 175 159 *;
#X obj 160 205 *;
#X connect 0 0 2 0;
#X connect 0 0 10 0;
#X connect 1 0 9 1;
#X connect 2 0 4 0;
#X connect 3 0 2 0;
#X connect 3 1 2 1;
#X connect 5 0 6 0;
#X connect 5 0 10 0;
#X connect 6 0 7 0;
#X connect 7 0 8 0;
#X connect 8 0 9 0;
#X connect 9 0 10 1;
#X connect 10 0 3 0;
#X restore 297 223 pd grain-speed;
#X obj 137 137 r \$0-grain-start;
#X obj 137 167 r \$0-grain-start-r;
#X obj 267 137 r \$0-grain-length;
#X obj 267 167 r \$0-grain-length-r;
#X floatatom 131 353 10 0 0 0 - - -, f 10;
#X floatatom 204 336 10 0 0 0 - - -, f 10;
#X floatatom 293 331 10 0 0 0 - - -, f 10;
#X obj 407 137 r \$0-grain-speed;
#X obj 407 167 r \$0-grain-speed-r;
#X msg 23 48 1;
#X obj 23 131 bang;
#X obj 74 45 r \$0-new-random;
#X obj 137 19 bng 15 250 50 0 empty empty empty 17 7 0 10 -262144 -1
-1;
#X floatatom 100 102 5 0 0 0 - - -, f 5;
#X obj 189 44 r \$0-random-max;
#X obj 74 73 random 90;
#X obj 23 100 pipe 90;
#X obj 53 174 bng 15 250 50 0 empty empty empty 17 7 0 10 -262144 -1
-1;
#X obj 354 19 inlet control;
#X obj 354 85 switch~;
#X obj 467 20 loadbang;
#X msg 467 42 1;
#X obj 23 350 l4_gr_w;
#X connect 1 0 14 0;
#X connect 2 0 9 0;
#X connect 2 0 27 1;
#X connect 3 0 10 0;
#X connect 3 0 27 2;
#X connect 4 0 11 0;
#X connect 4 0 27 3;
#X connect 5 0 2 0;
#X connect 6 0 2 1;
#X connect 7 0 3 0;
#X connect 8 0 3 1;
#X connect 12 0 4 0;
#X connect 13 0 4 1;
#X connect 14 0 21 0;
#X connect 15 0 2 2;
#X connect 15 0 3 2;
#X connect 15 0 4 2;
#X connect 15 0 22 0;
#X connect 15 0 27 0;
#X connect 16 0 20 0;
#X connect 17 0 20 0;
#X connect 19 0 20 1;
#X connect 20 0 18 0;
#X connect 20 0 21 1;
#X connect 21 0 15 0;
#X connect 23 0 24 0;
#X connect 25 0 26 0;
#X connect 26 0 24 0;
#X connect 27 0 0 0;
#X restore 572 554 pd grain~;
#X obj 572 532 tgl 15 0 empty empty empty 17 7 0 10 -262144 -1 -1 0
1;
#N canvas 339 285 774 464 grain~ 0;
#X obj 23 384 outlet~;
#X obj 23 17 r \$0-grain-bang;
#N canvas 288 188 492 428 grain-start 0;
#X obj 47 25 inlet constant;
#X obj 175 24 inlet deviation;
#X obj 47 146 *;
#X obj 62 118 r \$0-fsize;
#X obj 47 338 +;
#X obj 62 310 t b f;
#X obj 47 376 outlet;
#X obj 297 23 inlet bang;
#X obj 160 173 *;
#X obj 160 144 random;
#X obj 193 117 r \$0-fsize;
#X obj 177 238 t b f;
#X obj 160 270 -;
#X obj 175 60 clip 0 1;
#X obj 243 173 *;
#X obj 258 147 r \$0-fsize;
#X obj 243 196 * 0.5;
#X connect 0 0 2 0;
#X connect 1 0 13 0;
#X connect 2 0 4 0;
#X connect 3 0 2 1;
#X connect 4 0 6 0;
#X connect 5 0 4 0;
#X connect 5 1 4 1;
#X connect 7 0 9 0;
#X connect 8 0 12 0;
#X connect 9 0 8 0;
#X connect 10 0 9 1;
#X connect 11 0 12 0;
#X connect 11 1 12 1;
#X connect 12 0 5 0;
#X connect 13 0 8 1;
#X connect 13 0 14 0;
#X connect 14 0 16 0;
#X connect 15 0 14 1;
#X connect 16 0 11 0;
#X restore 51 227 pd grain-start;
#N canvas 350 335 502 444 grain-length 0;
#X obj 47 25 inlet constant;
#X obj 175 24 inlet deviation;
#X obj 47 338 +;
#X obj 62 310 t b f;
#X obj 47 376 outlet;
#X obj 297 23 inlet bang;
#X obj 175 84 random 1000;
#X obj 175 107 / 1000;
#X obj 175 133 - 0.5;
#X obj 175 159 *;
#X obj 160 205 *;
#X obj 47 65 * 44.1;
#X connect 0 0 11 0;
#X connect 1 0 9 1;
#X connect 2 0 4 0;
#X connect 3 0 2 0;
#X connect 3 1 2 1;
#X connect 5 0 6 0;
#X connect 5 0 10 0;
#X connect 6 0 7 0;
#X connect 7 0 8 0;
#X connect 8 0 9 0;
#X connect 9 0 10 1;
#X connect 10 0 3 0;
#X connect 11 0 10 0;
#X connect 11 0 2 0;
#X restore 177 223 pd grain-length;
#N canvas 350 335 502 444 grain-speed 0;
#X obj 47 25 inlet constant;
#X obj 175 24 inlet deviation;
#X obj 47 338 +;
#X obj 62 310 t b f;
#X obj 47 376 outlet;
#X obj 297 23 inlet bang;
#X obj 175 84 random 1000;
#X obj 175 107 / 1000;
#X obj 175 133 - 0.5;
#X obj 175 159 *;
#X obj 160 205 *;
#X connect 0 0 2 0;
#X connect 0 0 10 0;
#X connect 1 0 9 1;
#X connect 2 0 4 0;
#X connect 3 0 2 0;
#X connect 3 1 2 1;
#X connect 5 0 6 0;
#X connect 5 0 10 0;
#X connect 6 0 7 0;
#X connect 7 0 8 0;
#X connect 8 0 9 0;
#X connect 9 0 10 1;
#X connect 10 0 3 0;
#X restore 297 223 pd grain-speed;
#X obj 137 137 r \$0-grain-start;
#X obj 137 167 r \$0-grain-start-r;
#X obj 267 137 r \$0-grain-length;
#X obj 267 167 r \$0-grain-length-r;
#X floatatom 131 353 10 0 0 0 - - -, f 10;
#X floatatom 204 336 10 0 0 0 - - -, f 10;
#X floatatom 293 331 10 0 0 0 - - -, f 10;
#X obj 407 137 r \$0-grain-speed;
#X obj 407 167 r \$0-grain-speed-r;
#X msg 23 48 1;
#X obj 23 131 bang;
#X obj 74 45 r \$0-new-random;
#X obj 137 19 bng 15 250 50 0 empty empty empty 17 7 0 10 -262144 -1
-1;
#X floatatom 100 102 5 0 0 0 - - -, f 5;
#X obj 189 44 r \$0-random-max;
#X obj 74 73 random 90;
#X obj 23 100 pipe 90;
#X obj 53 174 bng 15 250 50 0 empty empty empty 17 7 0 10 -262144 -1
-1;
#X obj 354 19 inlet control;
#X obj 354 85 switch~;
#X obj 467 20 loadbang;
#X msg 467 42 1;
#X obj 23 350 l4_gr_w;
#X connect 1 0 14 0;
#X connect 2 0 9 0;
#X connect 2 0 27 1;
#X connect 3 0 10 0;
#X connect 3 0 27 2;
#X connect 4 0 11 0;
#X connect 4 0 27 3;
#X connect 5 0 2 0;
#X connect 6 0 2 1;
#X connect 7 0 3 0;
#X connect 8 0 3 1;
#X connect 12 0 4 0;
#X connect 13 0 4 1;
#X connect 14 0 21 0;
#X connect 15 0 2 2;
#X connect 15 0 3 2;
#X connect 15 0 4 2;
#X connect 15 0 22 0;
#X connect 15 0 27 0;
#X connect 16 0 20 0;
#X connect 17 0 20 0;
#X connect 19 0 20 1;
#X connect 20 0 18 0;
#X connect 20 0 21 1;
#X connect 21 0 15 0;
#X connect 23 0 24 0;
#X connect 25 0 26 0;
#X connect 26 0 24 0;
#X connect 27 0 0 0;
#X restore 642 554 pd grain~;
#X obj 642 532 tgl 15 0 empty empty empty 17 7 0 10 -262144 -1 -1 0
1;
#X obj 284 54 bng 15 250 50 0 empty empty empty 17 7 0 10 -262144 -1
-1;
#X obj 347 288 hradio 15 1 0 10 empty empty empty 0 -8 0 10 -262144
-1 -1 3;
#X msg 512 365 \$1 0;
#X obj 347 368 t b f;
#X floatatom 347 342 5 0 0 0 - - -, f 5;
#X msg 362 411 \$1 1;
#X obj 347 317 t f b;
#X obj 362 437 route 1 2 3 4 5 6 7 8;
#X floatatom 347 261 5 0 0 0 - - -, f 5;
#X msg 254 392 1.5;
#X obj 588 296 hradio 15 1 0 8 empty empty empty 0 -8 0 10 -262144
-1 -1 0;
#X obj 588 317 sel 0 1 2 3 4 5;
#X msg 588 341 1;
#X msg 602 368 1.5;
#X msg 617 395 1.33;
#X msg 637 349 2;
#X floatatom 588 272 5 0 0 0 - - -, f 5;
#X obj 780 341 mtof;
#X floatatom 780 370 5 0 0 0 - - -, f 5;
#X obj 830 341 mtof;
#X floatatom 830 370 5 0 0 0 - - -, f 5;
#X obj 809 421 /;
#X obj 829 397 t b f;
#X floatatom 814 452 10 0 0 0 - - -, f 10;
#X msg 780 312 70;
#X msg 830 312 69;
#X obj 362 640 dac~;
#X obj 347 389 cyclone/uzi;
#X obj 445 334 cyclone/Uzi 10;
#X obj 604 143 phasor~ 0.25;
#X obj 588 182 snapshot~;
#X obj 560 78 metro 33;
#X obj 550 52 tgl 15 0 empty empty empty 17 7 0 10 -262144 -1 -1 1
1;
#X obj 717 241 s \$0-grain-start;
#X obj 533 228 s \$0-grain-start-in;
#X connect 1 0 2 0;
#X connect 2 0 3 0;
#X connect 3 0 4 0;
#X connect 4 0 5 0;
#X connect 5 0 7 0;
#X connect 6 0 13 0;
#X connect 8 0 5 0;
#X connect 9 0 22 0;
#X connect 10 0 11 0;
#X connect 12 0 14 0;
#X connect 13 0 26 0;
#X connect 13 0 24 0;
#X connect 15 0 16 0;
#X connect 17 0 18 0;
#X connect 19 0 20 0;
#X connect 23 0 70 0;
#X connect 25 0 13 1;
#X connect 27 0 28 0;
#X connect 29 0 23 0;
#X connect 30 0 70 0;
#X connect 31 0 30 0;
#X connect 32 0 70 0;
#X connect 33 0 32 0;
#X connect 34 0 70 0;
#X connect 35 0 34 0;
#X connect 36 0 70 1;
#X connect 37 0 36 0;
#X connect 38 0 70 1;
#X connect 39 0 38 0;
#X connect 40 0 70 1;
#X connect 41 0 40 0;
#X connect 42 0 70 1;
#X connect 43 0 42 0;
#X connect 44 0 21 0;
#X connect 45 0 50 0;
#X connect 46 0 51 0;
#X connect 47 0 71 0;
#X connect 47 1 71 1;
#X connect 48 0 47 0;
#X connect 49 0 51 0;
#X connect 50 0 48 0;
#X connect 50 1 72 0;
#X connect 51 0 29 0;
#X connect 51 1 33 0;
#X connect 51 2 31 0;
#X connect 51 3 35 0;
#X connect 51 4 37 0;
#X connect 51 5 41 0;
#X connect 51 6 39 0;
#X connect 51 7 43 0;
#X connect 52 0 45 0;
#X connect 53 0 17 0;
#X connect 54 0 55 0;
#X connect 55 0 56 0;
#X connect 55 1 57 0;
#X connect 55 2 58 0;
#X connect 55 3 59 0;
#X connect 56 0 17 0;
#X connect 57 0 17 0;
#X connect 58 0 17 0;
#X connect 59 0 17 0;
#X connect 60 0 54 0;
#X connect 61 0 62 0;
#X connect 62 0 65 0;
#X connect 63 0 64 0;
#X connect 64 0 66 0;
#X connect 65 0 67 0;
#X connect 66 0 65 0;
#X connect 66 1 65 1;
#X connect 68 0 61 0;
#X connect 69 0 63 0;
#X connect 71 2 49 0;
#X connect 72 2 46 0;
#X connect 73 0 74 0;
#X connect 74 0 78 0;
#X connect 75 0 74 0;
#X connect 76 0 75 0;
