#N canvas 360 60 1119 732 10;
#N canvas 0 22 450 278 (subpatch) 0;
#X array array1 162831 float 2;
#X coords 0 1 162831 -1 200 140 1;
#X restore 41 26 graph;
#X obj 726 60 bng 15 250 50 0 empty empty empty 17 7 0 10 -262144 -1
-1;
#X obj 726 82 openpanel;
#X msg 726 107 read -resize \$1 array1;
#X obj 726 132 soundfiler;
#X floatatom 726 158 10 0 0 0 - - -;
#X obj 411 141 tgl 15 0 empty empty empty 17 7 0 10 -262144 -1 -1 1
1;
#X obj 725 212 s \$0-fsize;
#X obj 807 133 bng 15 250 50 0 empty empty empty 17 7 0 10 -262144
-1 -1;
#X obj 44 184 hsl 200 15 0 1 0 0 \$0-grain-start \$0-grain-start-in
start -2 -8 0 10 -262144 -1 -1 13741 1;
#X obj 44 244 hsl 200 15 0 1 0 0 \$0-grain-start-r \$0-grain-start-rin
start_randomness -2 -8 0 10 -262144 -1 -1 995 1;
#X floatatom 41 263 5 0 0 0 - - -;
#X obj 44 304 hsl 200 15 10 1000 0 0 \$0-grain-length \$0-length-in
length_(ms) -2 -8 0 10 -262144 -1 -1 5709 1;
#X obj 411 164 metro 100;
#X floatatom 41 323 5 0 0 0 - - -;
#X obj 44 364 hsl 200 15 0 1 0 0 \$0-grain-length-r \$0-length-rin
length_randomness -2 -8 0 10 -262144 -1 -1 0 1;
#X floatatom 41 383 5 0 0 0 - - -;
#X obj 44 424 hsl 200 15 0.1 10 0 0 \$0-grain-speed \$0-speed-in speed
-2 -8 0 10 -262144 -1 -1 1809 1;
#X floatatom 41 443 5 0 0 0 - - -;
#X obj 44 484 hsl 200 15 0 1 0 0 \$0-grain-speed-r \$0-speed-rin speed_randomness
-2 -8 0 10 -262144 -1 -1 0 1;
#X floatatom 41 503 5 0 0 0 - - -;
#N canvas 459 167 450 300 init 0;
#X obj 94 45 loadbang;
#X obj 94 73 f \$0;
#X obj 159 46 bng 15 250 50 0 empty empty empty 17 7 0 10 -262144 -1
-1;
#X msg 94 105 \; \$1-grain-start-in 0.1 \; \$1-grain-start-rin 0.05
\; \$1-length-in 100 \; \$1-length-rin 0.2 \; \$1-speed-in 1 \; \$1-speed-rin
0.2;
#X obj 160 20 inlet;
#X connect 0 0 1 0;
#X connect 1 0 3 0;
#X connect 2 0 1 0;
#X connect 4 0 2 0;
#X restore 284 78 pd init;
#X floatatom 41 203 5 0 0 0 - - -;
#N canvas 462 23 784 703 grain~ 0;
#X obj 17 602 outlet~;
#N canvas 288 188 492 428 grain-start 0;
#X obj 47 25 inlet constant;
#X obj 175 24 inlet deviation;
#X obj 47 146 *;
#X obj 62 118 r \$0-fsize;
#X obj 47 338 +;
#X obj 62 310 t b f;
#X obj 47 376 outlet;
#X obj 297 23 inlet bang;
#X obj 160 173 *;
#X obj 160 144 random;
#X obj 193 117 r \$0-fsize;
#X obj 177 238 t b f;
#X obj 160 270 -;
#X obj 175 60 clip 0 1;
#X obj 243 173 *;
#X obj 258 147 r \$0-fsize;
#X obj 243 196 * 0.5;
#X connect 0 0 2 0;
#X connect 1 0 13 0;
#X connect 2 0 4 0;
#X connect 3 0 2 1;
#X connect 4 0 6 0;
#X connect 5 0 4 0;
#X connect 5 1 4 1;
#X connect 7 0 9 0;
#X connect 8 0 12 0;
#X connect 9 0 8 0;
#X connect 10 0 9 1;
#X connect 11 0 12 0;
#X connect 11 1 12 1;
#X connect 12 0 5 0;
#X connect 13 0 8 1;
#X connect 13 0 14 0;
#X connect 14 0 16 0;
#X connect 15 0 14 1;
#X connect 16 0 11 0;
#X restore 45 303 pd grain-start;
#N canvas 350 335 502 444 grain-length 0;
#X obj 47 25 inlet constant;
#X obj 175 24 inlet deviation;
#X obj 47 338 +;
#X obj 62 310 t b f;
#X obj 47 376 outlet;
#X obj 297 23 inlet bang;
#X obj 175 84 random 1000;
#X obj 175 107 / 1000;
#X obj 175 133 - 0.5;
#X obj 175 159 *;
#X obj 160 205 *;
#X obj 47 65 * 44.1;
#X connect 0 0 11 0;
#X connect 1 0 9 1;
#X connect 2 0 4 0;
#X connect 3 0 2 0;
#X connect 3 1 2 1;
#X connect 5 0 6 0;
#X connect 5 0 10 0;
#X connect 6 0 7 0;
#X connect 7 0 8 0;
#X connect 8 0 9 0;
#X connect 9 0 10 1;
#X connect 10 0 3 0;
#X connect 11 0 10 0;
#X connect 11 0 2 0;
#X restore 171 299 pd grain-length;
#N canvas 350 335 502 444 grain-speed 0;
#X obj 47 25 inlet constant;
#X obj 175 24 inlet deviation;
#X obj 47 338 +;
#X obj 62 310 t b f;
#X obj 47 376 outlet;
#X obj 297 23 inlet bang;
#X obj 175 84 random 1000;
#X obj 175 107 / 1000;
#X obj 175 133 - 0.5;
#X obj 175 159 *;
#X obj 160 205 *;
#X connect 0 0 2 0;
#X connect 0 0 10 0;
#X connect 1 0 9 1;
#X connect 2 0 4 0;
#X connect 3 0 2 0;
#X connect 3 1 2 1;
#X connect 5 0 6 0;
#X connect 5 0 10 0;
#X connect 6 0 7 0;
#X connect 7 0 8 0;
#X connect 8 0 9 0;
#X connect 9 0 10 1;
#X connect 10 0 3 0;
#X restore 291 299 pd grain-speed;
#X obj 131 213 r \$0-grain-start;
#X obj 131 243 r \$0-grain-start-r;
#X obj 261 213 r \$0-grain-length;
#X obj 261 243 r \$0-grain-length-r;
#X floatatom 125 429 10 0 0 0 - - -;
#X floatatom 198 412 10 0 0 0 - - -;
#X floatatom 287 407 10 0 0 0 - - -;
#X obj 401 213 r \$0-grain-speed;
#X obj 401 243 r \$0-grain-speed-r;
#X obj 17 207 bang;
#X obj 47 250 bng 15 250 50 0 empty empty empty 17 7 0 10 -262144 -1
-1;
#X obj 17 568 l4_gr_w;
#X obj 348 95 inlet control;
#X obj 348 161 switch~;
#X obj 461 96 loadbang;
#X msg 461 118 1;
#X obj 150 350 cyclone/sampstoms~;
#X floatatom 244 389 5 0 0 0 - - -;
#X obj 186 480 spigot;
#X obj 293 457 loadbang;
#X msg 293 481 1;
#X msg 271 560 0;
#X obj 319 609 expr 1-$f1;
#X obj 274 650 spigot;
#X obj 273 681 outlet;
#X obj 19 151 inlet;
#X floatatom 241 490 5 0 0 0 - - -;
#X obj 189 573 pipe 50;
#X obj 23 361 t b b;
#X connect 1 0 8 0;
#X connect 1 0 15 1;
#X connect 2 0 9 0;
#X connect 2 0 15 2;
#X connect 2 0 20 0;
#X connect 3 0 10 0;
#X connect 3 0 15 3;
#X connect 4 0 1 0;
#X connect 5 0 1 1;
#X connect 6 0 2 0;
#X connect 7 0 2 1;
#X connect 11 0 3 0;
#X connect 12 0 3 1;
#X connect 13 0 1 2;
#X connect 13 0 2 2;
#X connect 13 0 3 2;
#X connect 13 0 14 0;
#X connect 13 0 32 0;
#X connect 15 0 0 0;
#X connect 16 0 17 0;
#X connect 18 0 19 0;
#X connect 19 0 17 0;
#X connect 20 1 21 0;
#X connect 20 1 31 1;
#X connect 22 0 25 0;
#X connect 22 0 15 0;
#X connect 22 0 31 0;
#X connect 23 0 24 0;
#X connect 24 0 22 1;
#X connect 24 0 26 0;
#X connect 25 0 22 1;
#X connect 25 0 26 0;
#X connect 26 0 27 1;
#X connect 27 0 28 0;
#X connect 29 0 13 0;
#X connect 31 0 24 0;
#X connect 32 0 22 0;
#X connect 32 1 27 0;
#X restore 343 531 pd grain~;
#X obj 362 220 s \$0-new-random;
#X obj 464 141 nbx 5 14 -1e+37 1e+37 0 0 empty empty empty 0 -8 0 10
-262144 -1 -1 13 256;
#X obj 411 191 s \$0-grain-bang;
#X obj 44 541 hsl 200 15 0 1000 0 0 \$0-random-max empty random-max
-2 -8 0 10 -262144 -1 -1 0 1;
#X floatatom 41 564 5 0 0 0 - - -;
#X obj 513 411 tgl 15 0 empty empty empty 17 7 0 10 -262144 -1 -1 1
1;
#X obj 284 54 bng 15 250 50 0 empty empty empty 17 7 0 10 -262144 -1
-1;
#X msg 254 392 1.5;
#X obj 780 341 mtof;
#X floatatom 780 370 5 0 0 0 - - -;
#X obj 830 341 mtof;
#X floatatom 830 370 5 0 0 0 - - -;
#X obj 809 421 /;
#X obj 829 397 t b f;
#X floatatom 814 452 10 0 0 0 - - -;
#X msg 780 312 70;
#X msg 830 312 69;
#X obj 365 685 dac~;
#X obj 604 143 phasor~ 0.25;
#X obj 588 182 snapshot~;
#X obj 560 78 metro 33;
#X obj 550 52 tgl 15 0 empty empty empty 17 7 0 10 -262144 -1 -1 1
1;
#X obj 717 241 s \$0-grain-start;
#X obj 533 228 s \$0-grain-start-in;
#N canvas 0 22 450 300 ctrl1 0;
#X obj 17 26 r \$0-grain-bang;
#X msg 17 57 1;
#X obj 68 54 r \$0-new-random;
#X obj 131 28 bng 15 250 50 0 empty empty empty 17 7 0 10 -262144 -1
-1;
#X floatatom 94 111 5 0 0 0 - - -;
#X obj 183 53 r \$0-random-max;
#X obj 68 82 random 90;
#X obj 17 109 pipe 90;
#X obj 30 166 outlet;
#X connect 0 0 1 0;
#X connect 1 0 7 0;
#X connect 2 0 6 0;
#X connect 3 0 6 0;
#X connect 5 0 6 1;
#X connect 6 0 4 0;
#X connect 6 0 7 1;
#X connect 7 0 8 0;
#X restore 344 478 pd ctrl1;
#X obj 365 616 *~ 0.4;
#X msg 293 394 1;
#X obj 637 669 *~ 0.4;
#X obj 731 182 - 2;
#N canvas 462 23 784 703 grain~ 0;
#X obj 17 602 outlet~;
#N canvas 288 188 492 428 grain-start 0;
#X obj 47 25 inlet constant;
#X obj 175 24 inlet deviation;
#X obj 47 146 *;
#X obj 62 118 r \$0-fsize;
#X obj 47 338 +;
#X obj 62 310 t b f;
#X obj 47 376 outlet;
#X obj 297 23 inlet bang;
#X obj 160 173 *;
#X obj 160 144 random;
#X obj 193 117 r \$0-fsize;
#X obj 177 238 t b f;
#X obj 160 270 -;
#X obj 175 60 clip 0 1;
#X obj 243 173 *;
#X obj 258 147 r \$0-fsize;
#X obj 243 196 * 0.5;
#X connect 0 0 2 0;
#X connect 1 0 13 0;
#X connect 2 0 4 0;
#X connect 3 0 2 1;
#X connect 4 0 6 0;
#X connect 5 0 4 0;
#X connect 5 1 4 1;
#X connect 7 0 9 0;
#X connect 8 0 12 0;
#X connect 9 0 8 0;
#X connect 10 0 9 1;
#X connect 11 0 12 0;
#X connect 11 1 12 1;
#X connect 12 0 5 0;
#X connect 13 0 8 1;
#X connect 13 0 14 0;
#X connect 14 0 16 0;
#X connect 15 0 14 1;
#X connect 16 0 11 0;
#X restore 45 303 pd grain-start;
#N canvas 350 335 502 444 grain-length 0;
#X obj 47 25 inlet constant;
#X obj 175 24 inlet deviation;
#X obj 47 338 +;
#X obj 62 310 t b f;
#X obj 47 376 outlet;
#X obj 297 23 inlet bang;
#X obj 175 84 random 1000;
#X obj 175 107 / 1000;
#X obj 175 133 - 0.5;
#X obj 175 159 *;
#X obj 160 205 *;
#X obj 47 65 * 44.1;
#X connect 0 0 11 0;
#X connect 1 0 9 1;
#X connect 2 0 4 0;
#X connect 3 0 2 0;
#X connect 3 1 2 1;
#X connect 5 0 6 0;
#X connect 5 0 10 0;
#X connect 6 0 7 0;
#X connect 7 0 8 0;
#X connect 8 0 9 0;
#X connect 9 0 10 1;
#X connect 10 0 3 0;
#X connect 11 0 10 0;
#X connect 11 0 2 0;
#X restore 171 299 pd grain-length;
#N canvas 350 335 502 444 grain-speed 0;
#X obj 47 25 inlet constant;
#X obj 175 24 inlet deviation;
#X obj 47 338 +;
#X obj 62 310 t b f;
#X obj 47 376 outlet;
#X obj 297 23 inlet bang;
#X obj 175 84 random 1000;
#X obj 175 107 / 1000;
#X obj 175 133 - 0.5;
#X obj 175 159 *;
#X obj 160 205 *;
#X connect 0 0 2 0;
#X connect 0 0 10 0;
#X connect 1 0 9 1;
#X connect 2 0 4 0;
#X connect 3 0 2 0;
#X connect 3 1 2 1;
#X connect 5 0 6 0;
#X connect 5 0 10 0;
#X connect 6 0 7 0;
#X connect 7 0 8 0;
#X connect 8 0 9 0;
#X connect 9 0 10 1;
#X connect 10 0 3 0;
#X restore 291 299 pd grain-speed;
#X obj 131 213 r \$0-grain-start;
#X obj 131 243 r \$0-grain-start-r;
#X obj 261 213 r \$0-grain-length;
#X obj 261 243 r \$0-grain-length-r;
#X floatatom 125 429 10 0 0 0 - - -;
#X floatatom 198 412 10 0 0 0 - - -;
#X floatatom 287 407 10 0 0 0 - - -;
#X obj 401 213 r \$0-grain-speed;
#X obj 401 243 r \$0-grain-speed-r;
#X obj 17 207 bang;
#X obj 47 250 bng 15 250 50 0 empty empty empty 17 7 0 10 -262144 -1
-1;
#X obj 17 568 l4_gr_w;
#X obj 348 95 inlet control;
#X obj 348 161 switch~;
#X obj 461 96 loadbang;
#X msg 461 118 1;
#X obj 150 350 cyclone/sampstoms~;
#X floatatom 244 389 5 0 0 0 - - -;
#X obj 186 480 spigot;
#X obj 293 457 loadbang;
#X msg 293 481 1;
#X msg 271 560 0;
#X obj 319 609 expr 1-$f1;
#X obj 274 650 spigot;
#X obj 273 681 outlet;
#X obj 19 151 inlet;
#X floatatom 241 490 5 0 0 0 - - -;
#X obj 189 573 pipe 50;
#X obj 23 361 t b b;
#X connect 1 0 8 0;
#X connect 1 0 15 1;
#X connect 2 0 9 0;
#X connect 2 0 15 2;
#X connect 2 0 20 0;
#X connect 3 0 10 0;
#X connect 3 0 15 3;
#X connect 4 0 1 0;
#X connect 5 0 1 1;
#X connect 6 0 2 0;
#X connect 7 0 2 1;
#X connect 11 0 3 0;
#X connect 12 0 3 1;
#X connect 13 0 1 2;
#X connect 13 0 2 2;
#X connect 13 0 3 2;
#X connect 13 0 14 0;
#X connect 13 0 32 0;
#X connect 15 0 0 0;
#X connect 16 0 17 0;
#X connect 18 0 19 0;
#X connect 19 0 17 0;
#X connect 20 1 21 0;
#X connect 20 1 31 1;
#X connect 22 0 25 0;
#X connect 22 0 15 0;
#X connect 22 0 31 0;
#X connect 23 0 24 0;
#X connect 24 0 22 1;
#X connect 24 0 26 0;
#X connect 25 0 22 1;
#X connect 25 0 26 0;
#X connect 26 0 27 1;
#X connect 27 0 28 0;
#X connect 29 0 13 0;
#X connect 31 0 24 0;
#X connect 32 0 22 0;
#X connect 32 1 27 0;
#X restore 427 532 pd grain~;
#N canvas 462 23 784 703 grain~ 0;
#X obj 17 602 outlet~;
#N canvas 288 188 492 428 grain-start 0;
#X obj 47 25 inlet constant;
#X obj 175 24 inlet deviation;
#X obj 47 146 *;
#X obj 62 118 r \$0-fsize;
#X obj 47 338 +;
#X obj 62 310 t b f;
#X obj 47 376 outlet;
#X obj 297 23 inlet bang;
#X obj 160 173 *;
#X obj 160 144 random;
#X obj 193 117 r \$0-fsize;
#X obj 177 238 t b f;
#X obj 160 270 -;
#X obj 175 60 clip 0 1;
#X obj 243 173 *;
#X obj 258 147 r \$0-fsize;
#X obj 243 196 * 0.5;
#X connect 0 0 2 0;
#X connect 1 0 13 0;
#X connect 2 0 4 0;
#X connect 3 0 2 1;
#X connect 4 0 6 0;
#X connect 5 0 4 0;
#X connect 5 1 4 1;
#X connect 7 0 9 0;
#X connect 8 0 12 0;
#X connect 9 0 8 0;
#X connect 10 0 9 1;
#X connect 11 0 12 0;
#X connect 11 1 12 1;
#X connect 12 0 5 0;
#X connect 13 0 8 1;
#X connect 13 0 14 0;
#X connect 14 0 16 0;
#X connect 15 0 14 1;
#X connect 16 0 11 0;
#X restore 45 303 pd grain-start;
#N canvas 350 335 502 444 grain-length 0;
#X obj 47 25 inlet constant;
#X obj 175 24 inlet deviation;
#X obj 47 338 +;
#X obj 62 310 t b f;
#X obj 47 376 outlet;
#X obj 297 23 inlet bang;
#X obj 175 84 random 1000;
#X obj 175 107 / 1000;
#X obj 175 133 - 0.5;
#X obj 175 159 *;
#X obj 160 205 *;
#X obj 47 65 * 44.1;
#X connect 0 0 11 0;
#X connect 1 0 9 1;
#X connect 2 0 4 0;
#X connect 3 0 2 0;
#X connect 3 1 2 1;
#X connect 5 0 6 0;
#X connect 5 0 10 0;
#X connect 6 0 7 0;
#X connect 7 0 8 0;
#X connect 8 0 9 0;
#X connect 9 0 10 1;
#X connect 10 0 3 0;
#X connect 11 0 10 0;
#X connect 11 0 2 0;
#X restore 171 299 pd grain-length;
#N canvas 350 335 502 444 grain-speed 0;
#X obj 47 25 inlet constant;
#X obj 175 24 inlet deviation;
#X obj 47 338 +;
#X obj 62 310 t b f;
#X obj 47 376 outlet;
#X obj 297 23 inlet bang;
#X obj 175 84 random 1000;
#X obj 175 107 / 1000;
#X obj 175 133 - 0.5;
#X obj 175 159 *;
#X obj 160 205 *;
#X connect 0 0 2 0;
#X connect 0 0 10 0;
#X connect 1 0 9 1;
#X connect 2 0 4 0;
#X connect 3 0 2 0;
#X connect 3 1 2 1;
#X connect 5 0 6 0;
#X connect 5 0 10 0;
#X connect 6 0 7 0;
#X connect 7 0 8 0;
#X connect 8 0 9 0;
#X connect 9 0 10 1;
#X connect 10 0 3 0;
#X restore 291 299 pd grain-speed;
#X obj 131 213 r \$0-grain-start;
#X obj 131 243 r \$0-grain-start-r;
#X obj 261 213 r \$0-grain-length;
#X obj 261 243 r \$0-grain-length-r;
#X floatatom 125 429 10 0 0 0 - - -;
#X floatatom 198 412 10 0 0 0 - - -;
#X floatatom 287 407 10 0 0 0 - - -;
#X obj 401 213 r \$0-grain-speed;
#X obj 401 243 r \$0-grain-speed-r;
#X obj 17 207 bang;
#X obj 47 250 bng 15 250 50 0 empty empty empty 17 7 0 10 -262144 -1
-1;
#X obj 17 568 l4_gr_w;
#X obj 348 95 inlet control;
#X obj 348 161 switch~;
#X obj 461 96 loadbang;
#X msg 461 118 1;
#X obj 150 350 cyclone/sampstoms~;
#X floatatom 244 389 5 0 0 0 - - -;
#X obj 186 480 spigot;
#X obj 293 457 loadbang;
#X msg 293 481 1;
#X msg 271 560 0;
#X obj 319 609 expr 1-$f1;
#X obj 274 650 spigot;
#X obj 273 681 outlet;
#X obj 19 151 inlet;
#X floatatom 241 490 5 0 0 0 - - -;
#X obj 189 573 pipe 50;
#X obj 23 361 t b b;
#X connect 1 0 8 0;
#X connect 1 0 15 1;
#X connect 2 0 9 0;
#X connect 2 0 15 2;
#X connect 2 0 20 0;
#X connect 3 0 10 0;
#X connect 3 0 15 3;
#X connect 4 0 1 0;
#X connect 5 0 1 1;
#X connect 6 0 2 0;
#X connect 7 0 2 1;
#X connect 11 0 3 0;
#X connect 12 0 3 1;
#X connect 13 0 1 2;
#X connect 13 0 2 2;
#X connect 13 0 3 2;
#X connect 13 0 14 0;
#X connect 13 0 32 0;
#X connect 15 0 0 0;
#X connect 16 0 17 0;
#X connect 18 0 19 0;
#X connect 19 0 17 0;
#X connect 20 1 21 0;
#X connect 20 1 31 1;
#X connect 22 0 25 0;
#X connect 22 0 15 0;
#X connect 22 0 31 0;
#X connect 23 0 24 0;
#X connect 24 0 22 1;
#X connect 24 0 26 0;
#X connect 25 0 22 1;
#X connect 25 0 26 0;
#X connect 26 0 27 1;
#X connect 27 0 28 0;
#X connect 29 0 13 0;
#X connect 31 0 24 0;
#X connect 32 0 22 0;
#X connect 32 1 27 0;
#X restore 508 533 pd grain~;
#N canvas 462 23 784 703 grain~ 0;
#X obj 17 602 outlet~;
#N canvas 288 188 492 428 grain-start 0;
#X obj 47 25 inlet constant;
#X obj 175 24 inlet deviation;
#X obj 47 146 *;
#X obj 62 118 r \$0-fsize;
#X obj 47 338 +;
#X obj 62 310 t b f;
#X obj 47 376 outlet;
#X obj 297 23 inlet bang;
#X obj 160 173 *;
#X obj 160 144 random;
#X obj 193 117 r \$0-fsize;
#X obj 177 238 t b f;
#X obj 160 270 -;
#X obj 175 60 clip 0 1;
#X obj 243 173 *;
#X obj 258 147 r \$0-fsize;
#X obj 243 196 * 0.5;
#X connect 0 0 2 0;
#X connect 1 0 13 0;
#X connect 2 0 4 0;
#X connect 3 0 2 1;
#X connect 4 0 6 0;
#X connect 5 0 4 0;
#X connect 5 1 4 1;
#X connect 7 0 9 0;
#X connect 8 0 12 0;
#X connect 9 0 8 0;
#X connect 10 0 9 1;
#X connect 11 0 12 0;
#X connect 11 1 12 1;
#X connect 12 0 5 0;
#X connect 13 0 8 1;
#X connect 13 0 14 0;
#X connect 14 0 16 0;
#X connect 15 0 14 1;
#X connect 16 0 11 0;
#X restore 45 303 pd grain-start;
#N canvas 350 335 502 444 grain-length 0;
#X obj 47 25 inlet constant;
#X obj 175 24 inlet deviation;
#X obj 47 338 +;
#X obj 62 310 t b f;
#X obj 47 376 outlet;
#X obj 297 23 inlet bang;
#X obj 175 84 random 1000;
#X obj 175 107 / 1000;
#X obj 175 133 - 0.5;
#X obj 175 159 *;
#X obj 160 205 *;
#X obj 47 65 * 44.1;
#X connect 0 0 11 0;
#X connect 1 0 9 1;
#X connect 2 0 4 0;
#X connect 3 0 2 0;
#X connect 3 1 2 1;
#X connect 5 0 6 0;
#X connect 5 0 10 0;
#X connect 6 0 7 0;
#X connect 7 0 8 0;
#X connect 8 0 9 0;
#X connect 9 0 10 1;
#X connect 10 0 3 0;
#X connect 11 0 10 0;
#X connect 11 0 2 0;
#X restore 171 299 pd grain-length;
#N canvas 350 335 502 444 grain-speed 0;
#X obj 47 25 inlet constant;
#X obj 175 24 inlet deviation;
#X obj 47 338 +;
#X obj 62 310 t b f;
#X obj 47 376 outlet;
#X obj 297 23 inlet bang;
#X obj 175 84 random 1000;
#X obj 175 107 / 1000;
#X obj 175 133 - 0.5;
#X obj 175 159 *;
#X obj 160 205 *;
#X connect 0 0 2 0;
#X connect 0 0 10 0;
#X connect 1 0 9 1;
#X connect 2 0 4 0;
#X connect 3 0 2 0;
#X connect 3 1 2 1;
#X connect 5 0 6 0;
#X connect 5 0 10 0;
#X connect 6 0 7 0;
#X connect 7 0 8 0;
#X connect 8 0 9 0;
#X connect 9 0 10 1;
#X connect 10 0 3 0;
#X restore 291 299 pd grain-speed;
#X obj 131 213 r \$0-grain-start;
#X obj 131 243 r \$0-grain-start-r;
#X obj 261 213 r \$0-grain-length;
#X obj 261 243 r \$0-grain-length-r;
#X floatatom 125 429 10 0 0 0 - - -;
#X floatatom 198 412 10 0 0 0 - - -;
#X floatatom 287 407 10 0 0 0 - - -;
#X obj 401 213 r \$0-grain-speed;
#X obj 401 243 r \$0-grain-speed-r;
#X obj 17 207 bang;
#X obj 47 250 bng 15 250 50 0 empty empty empty 17 7 0 10 -262144 -1
-1;
#X obj 17 568 l4_gr_w;
#X obj 348 95 inlet control;
#X obj 348 161 switch~;
#X obj 461 96 loadbang;
#X msg 461 118 1;
#X obj 150 350 cyclone/sampstoms~;
#X floatatom 244 389 5 0 0 0 - - -;
#X obj 186 480 spigot;
#X obj 293 457 loadbang;
#X msg 293 481 1;
#X msg 271 560 0;
#X obj 319 609 expr 1-$f1;
#X obj 274 650 spigot;
#X obj 273 681 outlet;
#X obj 19 151 inlet;
#X floatatom 241 490 5 0 0 0 - - -;
#X obj 189 573 pipe 50;
#X obj 23 361 t b b;
#X connect 1 0 8 0;
#X connect 1 0 15 1;
#X connect 2 0 9 0;
#X connect 2 0 15 2;
#X connect 2 0 20 0;
#X connect 3 0 10 0;
#X connect 3 0 15 3;
#X connect 4 0 1 0;
#X connect 5 0 1 1;
#X connect 6 0 2 0;
#X connect 7 0 2 1;
#X connect 11 0 3 0;
#X connect 12 0 3 1;
#X connect 13 0 1 2;
#X connect 13 0 2 2;
#X connect 13 0 3 2;
#X connect 13 0 14 0;
#X connect 13 0 32 0;
#X connect 15 0 0 0;
#X connect 16 0 17 0;
#X connect 18 0 19 0;
#X connect 19 0 17 0;
#X connect 20 1 21 0;
#X connect 20 1 31 1;
#X connect 22 0 25 0;
#X connect 22 0 15 0;
#X connect 22 0 31 0;
#X connect 23 0 24 0;
#X connect 24 0 22 1;
#X connect 24 0 26 0;
#X connect 25 0 22 1;
#X connect 25 0 26 0;
#X connect 26 0 27 1;
#X connect 27 0 28 0;
#X connect 29 0 13 0;
#X connect 31 0 24 0;
#X connect 32 0 22 0;
#X connect 32 1 27 0;
#X restore 592 534 pd grain~;
#N canvas 462 23 784 703 grain~ 0;
#X obj 17 602 outlet~;
#N canvas 288 188 492 428 grain-start 0;
#X obj 47 25 inlet constant;
#X obj 175 24 inlet deviation;
#X obj 47 146 *;
#X obj 62 118 r \$0-fsize;
#X obj 47 338 +;
#X obj 62 310 t b f;
#X obj 47 376 outlet;
#X obj 297 23 inlet bang;
#X obj 160 173 *;
#X obj 160 144 random;
#X obj 193 117 r \$0-fsize;
#X obj 177 238 t b f;
#X obj 160 270 -;
#X obj 175 60 clip 0 1;
#X obj 243 173 *;
#X obj 258 147 r \$0-fsize;
#X obj 243 196 * 0.5;
#X connect 0 0 2 0;
#X connect 1 0 13 0;
#X connect 2 0 4 0;
#X connect 3 0 2 1;
#X connect 4 0 6 0;
#X connect 5 0 4 0;
#X connect 5 1 4 1;
#X connect 7 0 9 0;
#X connect 8 0 12 0;
#X connect 9 0 8 0;
#X connect 10 0 9 1;
#X connect 11 0 12 0;
#X connect 11 1 12 1;
#X connect 12 0 5 0;
#X connect 13 0 8 1;
#X connect 13 0 14 0;
#X connect 14 0 16 0;
#X connect 15 0 14 1;
#X connect 16 0 11 0;
#X restore 45 303 pd grain-start;
#N canvas 350 335 502 444 grain-length 0;
#X obj 47 25 inlet constant;
#X obj 175 24 inlet deviation;
#X obj 47 338 +;
#X obj 62 310 t b f;
#X obj 47 376 outlet;
#X obj 297 23 inlet bang;
#X obj 175 84 random 1000;
#X obj 175 107 / 1000;
#X obj 175 133 - 0.5;
#X obj 175 159 *;
#X obj 160 205 *;
#X obj 47 65 * 44.1;
#X connect 0 0 11 0;
#X connect 1 0 9 1;
#X connect 2 0 4 0;
#X connect 3 0 2 0;
#X connect 3 1 2 1;
#X connect 5 0 6 0;
#X connect 5 0 10 0;
#X connect 6 0 7 0;
#X connect 7 0 8 0;
#X connect 8 0 9 0;
#X connect 9 0 10 1;
#X connect 10 0 3 0;
#X connect 11 0 10 0;
#X connect 11 0 2 0;
#X restore 171 299 pd grain-length;
#N canvas 350 335 502 444 grain-speed 0;
#X obj 47 25 inlet constant;
#X obj 175 24 inlet deviation;
#X obj 47 338 +;
#X obj 62 310 t b f;
#X obj 47 376 outlet;
#X obj 297 23 inlet bang;
#X obj 175 84 random 1000;
#X obj 175 107 / 1000;
#X obj 175 133 - 0.5;
#X obj 175 159 *;
#X obj 160 205 *;
#X connect 0 0 2 0;
#X connect 0 0 10 0;
#X connect 1 0 9 1;
#X connect 2 0 4 0;
#X connect 3 0 2 0;
#X connect 3 1 2 1;
#X connect 5 0 6 0;
#X connect 5 0 10 0;
#X connect 6 0 7 0;
#X connect 7 0 8 0;
#X connect 8 0 9 0;
#X connect 9 0 10 1;
#X connect 10 0 3 0;
#X restore 291 299 pd grain-speed;
#X obj 131 213 r \$0-grain-start;
#X obj 131 243 r \$0-grain-start-r;
#X obj 261 213 r \$0-grain-length;
#X obj 261 243 r \$0-grain-length-r;
#X floatatom 125 429 10 0 0 0 - - -;
#X floatatom 198 412 10 0 0 0 - - -;
#X floatatom 287 407 10 0 0 0 - - -;
#X obj 401 213 r \$0-grain-speed;
#X obj 401 243 r \$0-grain-speed-r;
#X obj 17 207 bang;
#X obj 47 250 bng 15 250 50 0 empty empty empty 17 7 0 10 -262144 -1
-1;
#X obj 17 568 l4_gr_w;
#X obj 348 95 inlet control;
#X obj 348 161 switch~;
#X obj 461 96 loadbang;
#X msg 461 118 1;
#X obj 150 350 cyclone/sampstoms~;
#X floatatom 244 389 5 0 0 0 - - -;
#X obj 186 480 spigot;
#X obj 293 457 loadbang;
#X msg 293 481 1;
#X msg 271 560 0;
#X obj 319 609 expr 1-$f1;
#X obj 274 650 spigot;
#X obj 273 681 outlet;
#X obj 19 151 inlet;
#X floatatom 241 490 5 0 0 0 - - -;
#X obj 189 573 pipe 50;
#X obj 23 361 t b b;
#X connect 1 0 8 0;
#X connect 1 0 15 1;
#X connect 2 0 9 0;
#X connect 2 0 15 2;
#X connect 2 0 20 0;
#X connect 3 0 10 0;
#X connect 3 0 15 3;
#X connect 4 0 1 0;
#X connect 5 0 1 1;
#X connect 6 0 2 0;
#X connect 7 0 2 1;
#X connect 11 0 3 0;
#X connect 12 0 3 1;
#X connect 13 0 1 2;
#X connect 13 0 2 2;
#X connect 13 0 3 2;
#X connect 13 0 14 0;
#X connect 13 0 32 0;
#X connect 15 0 0 0;
#X connect 16 0 17 0;
#X connect 18 0 19 0;
#X connect 19 0 17 0;
#X connect 20 1 21 0;
#X connect 20 1 31 1;
#X connect 22 0 25 0;
#X connect 22 0 15 0;
#X connect 22 0 31 0;
#X connect 23 0 24 0;
#X connect 24 0 22 1;
#X connect 24 0 26 0;
#X connect 25 0 22 1;
#X connect 25 0 26 0;
#X connect 26 0 27 1;
#X connect 27 0 28 0;
#X connect 29 0 13 0;
#X connect 31 0 24 0;
#X connect 32 0 22 0;
#X connect 32 1 27 0;
#X restore 569 591 pd grain~;
#N canvas 462 23 784 703 grain~ 0;
#X obj 17 602 outlet~;
#N canvas 288 188 492 428 grain-start 0;
#X obj 47 25 inlet constant;
#X obj 175 24 inlet deviation;
#X obj 47 146 *;
#X obj 62 118 r \$0-fsize;
#X obj 47 338 +;
#X obj 62 310 t b f;
#X obj 47 376 outlet;
#X obj 297 23 inlet bang;
#X obj 160 173 *;
#X obj 160 144 random;
#X obj 193 117 r \$0-fsize;
#X obj 177 238 t b f;
#X obj 160 270 -;
#X obj 175 60 clip 0 1;
#X obj 243 173 *;
#X obj 258 147 r \$0-fsize;
#X obj 243 196 * 0.5;
#X connect 0 0 2 0;
#X connect 1 0 13 0;
#X connect 2 0 4 0;
#X connect 3 0 2 1;
#X connect 4 0 6 0;
#X connect 5 0 4 0;
#X connect 5 1 4 1;
#X connect 7 0 9 0;
#X connect 8 0 12 0;
#X connect 9 0 8 0;
#X connect 10 0 9 1;
#X connect 11 0 12 0;
#X connect 11 1 12 1;
#X connect 12 0 5 0;
#X connect 13 0 8 1;
#X connect 13 0 14 0;
#X connect 14 0 16 0;
#X connect 15 0 14 1;
#X connect 16 0 11 0;
#X restore 45 303 pd grain-start;
#N canvas 350 335 502 444 grain-length 0;
#X obj 47 25 inlet constant;
#X obj 175 24 inlet deviation;
#X obj 47 338 +;
#X obj 62 310 t b f;
#X obj 47 376 outlet;
#X obj 297 23 inlet bang;
#X obj 175 84 random 1000;
#X obj 175 107 / 1000;
#X obj 175 133 - 0.5;
#X obj 175 159 *;
#X obj 160 205 *;
#X obj 47 65 * 44.1;
#X connect 0 0 11 0;
#X connect 1 0 9 1;
#X connect 2 0 4 0;
#X connect 3 0 2 0;
#X connect 3 1 2 1;
#X connect 5 0 6 0;
#X connect 5 0 10 0;
#X connect 6 0 7 0;
#X connect 7 0 8 0;
#X connect 8 0 9 0;
#X connect 9 0 10 1;
#X connect 10 0 3 0;
#X connect 11 0 10 0;
#X connect 11 0 2 0;
#X restore 171 299 pd grain-length;
#N canvas 350 335 502 444 grain-speed 0;
#X obj 47 25 inlet constant;
#X obj 175 24 inlet deviation;
#X obj 47 338 +;
#X obj 62 310 t b f;
#X obj 47 376 outlet;
#X obj 297 23 inlet bang;
#X obj 175 84 random 1000;
#X obj 175 107 / 1000;
#X obj 175 133 - 0.5;
#X obj 175 159 *;
#X obj 160 205 *;
#X connect 0 0 2 0;
#X connect 0 0 10 0;
#X connect 1 0 9 1;
#X connect 2 0 4 0;
#X connect 3 0 2 0;
#X connect 3 1 2 1;
#X connect 5 0 6 0;
#X connect 5 0 10 0;
#X connect 6 0 7 0;
#X connect 7 0 8 0;
#X connect 8 0 9 0;
#X connect 9 0 10 1;
#X connect 10 0 3 0;
#X restore 291 299 pd grain-speed;
#X obj 131 213 r \$0-grain-start;
#X obj 131 243 r \$0-grain-start-r;
#X obj 261 213 r \$0-grain-length;
#X obj 261 243 r \$0-grain-length-r;
#X floatatom 125 429 10 0 0 0 - - -;
#X floatatom 198 412 10 0 0 0 - - -;
#X floatatom 287 407 10 0 0 0 - - -;
#X obj 401 213 r \$0-grain-speed;
#X obj 401 243 r \$0-grain-speed-r;
#X obj 17 207 bang;
#X obj 47 250 bng 15 250 50 0 empty empty empty 17 7 0 10 -262144 -1
-1;
#X obj 17 568 l4_gr_w;
#X obj 348 95 inlet control;
#X obj 348 161 switch~;
#X obj 461 96 loadbang;
#X msg 461 118 1;
#X obj 150 350 cyclone/sampstoms~;
#X floatatom 244 389 5 0 0 0 - - -;
#X obj 186 480 spigot;
#X obj 293 457 loadbang;
#X msg 293 481 1;
#X msg 271 560 0;
#X obj 319 609 expr 1-$f1;
#X obj 274 650 spigot;
#X obj 273 681 outlet;
#X obj 19 151 inlet;
#X floatatom 241 490 5 0 0 0 - - -;
#X obj 189 573 pipe 50;
#X obj 23 361 t b b;
#X connect 1 0 8 0;
#X connect 1 0 15 1;
#X connect 2 0 9 0;
#X connect 2 0 15 2;
#X connect 2 0 20 0;
#X connect 3 0 10 0;
#X connect 3 0 15 3;
#X connect 4 0 1 0;
#X connect 5 0 1 1;
#X connect 6 0 2 0;
#X connect 7 0 2 1;
#X connect 11 0 3 0;
#X connect 12 0 3 1;
#X connect 13 0 1 2;
#X connect 13 0 2 2;
#X connect 13 0 3 2;
#X connect 13 0 14 0;
#X connect 13 0 32 0;
#X connect 15 0 0 0;
#X connect 16 0 17 0;
#X connect 18 0 19 0;
#X connect 19 0 17 0;
#X connect 20 1 21 0;
#X connect 20 1 31 1;
#X connect 22 0 25 0;
#X connect 22 0 15 0;
#X connect 22 0 31 0;
#X connect 23 0 24 0;
#X connect 24 0 22 1;
#X connect 24 0 26 0;
#X connect 25 0 22 1;
#X connect 25 0 26 0;
#X connect 26 0 27 1;
#X connect 27 0 28 0;
#X connect 29 0 13 0;
#X connect 31 0 24 0;
#X connect 32 0 22 0;
#X connect 32 1 27 0;
#X restore 653 592 pd grain~;
#N canvas 462 23 784 703 grain~ 0;
#X obj 17 602 outlet~;
#N canvas 288 188 492 428 grain-start 0;
#X obj 47 25 inlet constant;
#X obj 175 24 inlet deviation;
#X obj 47 146 *;
#X obj 62 118 r \$0-fsize;
#X obj 47 338 +;
#X obj 62 310 t b f;
#X obj 47 376 outlet;
#X obj 297 23 inlet bang;
#X obj 160 173 *;
#X obj 160 144 random;
#X obj 193 117 r \$0-fsize;
#X obj 177 238 t b f;
#X obj 160 270 -;
#X obj 175 60 clip 0 1;
#X obj 243 173 *;
#X obj 258 147 r \$0-fsize;
#X obj 243 196 * 0.5;
#X connect 0 0 2 0;
#X connect 1 0 13 0;
#X connect 2 0 4 0;
#X connect 3 0 2 1;
#X connect 4 0 6 0;
#X connect 5 0 4 0;
#X connect 5 1 4 1;
#X connect 7 0 9 0;
#X connect 8 0 12 0;
#X connect 9 0 8 0;
#X connect 10 0 9 1;
#X connect 11 0 12 0;
#X connect 11 1 12 1;
#X connect 12 0 5 0;
#X connect 13 0 8 1;
#X connect 13 0 14 0;
#X connect 14 0 16 0;
#X connect 15 0 14 1;
#X connect 16 0 11 0;
#X restore 45 303 pd grain-start;
#N canvas 350 335 502 444 grain-length 0;
#X obj 47 25 inlet constant;
#X obj 175 24 inlet deviation;
#X obj 47 338 +;
#X obj 62 310 t b f;
#X obj 47 376 outlet;
#X obj 297 23 inlet bang;
#X obj 175 84 random 1000;
#X obj 175 107 / 1000;
#X obj 175 133 - 0.5;
#X obj 175 159 *;
#X obj 160 205 *;
#X obj 47 65 * 44.1;
#X connect 0 0 11 0;
#X connect 1 0 9 1;
#X connect 2 0 4 0;
#X connect 3 0 2 0;
#X connect 3 1 2 1;
#X connect 5 0 6 0;
#X connect 5 0 10 0;
#X connect 6 0 7 0;
#X connect 7 0 8 0;
#X connect 8 0 9 0;
#X connect 9 0 10 1;
#X connect 10 0 3 0;
#X connect 11 0 10 0;
#X connect 11 0 2 0;
#X restore 171 299 pd grain-length;
#N canvas 350 335 502 444 grain-speed 0;
#X obj 47 25 inlet constant;
#X obj 175 24 inlet deviation;
#X obj 47 338 +;
#X obj 62 310 t b f;
#X obj 47 376 outlet;
#X obj 297 23 inlet bang;
#X obj 175 84 random 1000;
#X obj 175 107 / 1000;
#X obj 175 133 - 0.5;
#X obj 175 159 *;
#X obj 160 205 *;
#X connect 0 0 2 0;
#X connect 0 0 10 0;
#X connect 1 0 9 1;
#X connect 2 0 4 0;
#X connect 3 0 2 0;
#X connect 3 1 2 1;
#X connect 5 0 6 0;
#X connect 5 0 10 0;
#X connect 6 0 7 0;
#X connect 7 0 8 0;
#X connect 8 0 9 0;
#X connect 9 0 10 1;
#X connect 10 0 3 0;
#X restore 291 299 pd grain-speed;
#X obj 131 213 r \$0-grain-start;
#X obj 131 243 r \$0-grain-start-r;
#X obj 261 213 r \$0-grain-length;
#X obj 261 243 r \$0-grain-length-r;
#X floatatom 125 429 10 0 0 0 - - -;
#X floatatom 198 412 10 0 0 0 - - -;
#X floatatom 287 407 10 0 0 0 - - -;
#X obj 401 213 r \$0-grain-speed;
#X obj 401 243 r \$0-grain-speed-r;
#X obj 17 207 bang;
#X obj 47 250 bng 15 250 50 0 empty empty empty 17 7 0 10 -262144 -1
-1;
#X obj 17 568 l4_gr_w;
#X obj 348 95 inlet control;
#X obj 348 161 switch~;
#X obj 461 96 loadbang;
#X msg 461 118 1;
#X obj 150 350 cyclone/sampstoms~;
#X floatatom 244 389 5 0 0 0 - - -;
#X obj 186 480 spigot;
#X obj 293 457 loadbang;
#X msg 293 481 1;
#X msg 271 560 0;
#X obj 319 609 expr 1-$f1;
#X obj 274 650 spigot;
#X obj 273 681 outlet;
#X obj 19 151 inlet;
#X floatatom 241 490 5 0 0 0 - - -;
#X obj 189 573 pipe 50;
#X obj 23 361 t b b;
#X connect 1 0 8 0;
#X connect 1 0 15 1;
#X connect 2 0 9 0;
#X connect 2 0 15 2;
#X connect 2 0 20 0;
#X connect 3 0 10 0;
#X connect 3 0 15 3;
#X connect 4 0 1 0;
#X connect 5 0 1 1;
#X connect 6 0 2 0;
#X connect 7 0 2 1;
#X connect 11 0 3 0;
#X connect 12 0 3 1;
#X connect 13 0 1 2;
#X connect 13 0 2 2;
#X connect 13 0 3 2;
#X connect 13 0 14 0;
#X connect 13 0 32 0;
#X connect 15 0 0 0;
#X connect 16 0 17 0;
#X connect 18 0 19 0;
#X connect 19 0 17 0;
#X connect 20 1 21 0;
#X connect 20 1 31 1;
#X connect 22 0 25 0;
#X connect 22 0 15 0;
#X connect 22 0 31 0;
#X connect 23 0 24 0;
#X connect 24 0 22 1;
#X connect 24 0 26 0;
#X connect 25 0 22 1;
#X connect 25 0 26 0;
#X connect 26 0 27 1;
#X connect 27 0 28 0;
#X connect 29 0 13 0;
#X connect 31 0 24 0;
#X connect 32 0 22 0;
#X connect 32 1 27 0;
#X restore 734 593 pd grain~;
#N canvas 462 23 784 703 grain~ 0;
#X obj 17 602 outlet~;
#N canvas 288 188 492 428 grain-start 0;
#X obj 47 25 inlet constant;
#X obj 175 24 inlet deviation;
#X obj 47 146 *;
#X obj 62 118 r \$0-fsize;
#X obj 47 338 +;
#X obj 62 310 t b f;
#X obj 47 376 outlet;
#X obj 297 23 inlet bang;
#X obj 160 173 *;
#X obj 160 144 random;
#X obj 193 117 r \$0-fsize;
#X obj 177 238 t b f;
#X obj 160 270 -;
#X obj 175 60 clip 0 1;
#X obj 243 173 *;
#X obj 258 147 r \$0-fsize;
#X obj 243 196 * 0.5;
#X connect 0 0 2 0;
#X connect 1 0 13 0;
#X connect 2 0 4 0;
#X connect 3 0 2 1;
#X connect 4 0 6 0;
#X connect 5 0 4 0;
#X connect 5 1 4 1;
#X connect 7 0 9 0;
#X connect 8 0 12 0;
#X connect 9 0 8 0;
#X connect 10 0 9 1;
#X connect 11 0 12 0;
#X connect 11 1 12 1;
#X connect 12 0 5 0;
#X connect 13 0 8 1;
#X connect 13 0 14 0;
#X connect 14 0 16 0;
#X connect 15 0 14 1;
#X connect 16 0 11 0;
#X restore 45 303 pd grain-start;
#N canvas 350 335 502 444 grain-length 0;
#X obj 47 25 inlet constant;
#X obj 175 24 inlet deviation;
#X obj 47 338 +;
#X obj 62 310 t b f;
#X obj 47 376 outlet;
#X obj 297 23 inlet bang;
#X obj 175 84 random 1000;
#X obj 175 107 / 1000;
#X obj 175 133 - 0.5;
#X obj 175 159 *;
#X obj 160 205 *;
#X obj 47 65 * 44.1;
#X connect 0 0 11 0;
#X connect 1 0 9 1;
#X connect 2 0 4 0;
#X connect 3 0 2 0;
#X connect 3 1 2 1;
#X connect 5 0 6 0;
#X connect 5 0 10 0;
#X connect 6 0 7 0;
#X connect 7 0 8 0;
#X connect 8 0 9 0;
#X connect 9 0 10 1;
#X connect 10 0 3 0;
#X connect 11 0 10 0;
#X connect 11 0 2 0;
#X restore 171 299 pd grain-length;
#N canvas 350 335 502 444 grain-speed 0;
#X obj 47 25 inlet constant;
#X obj 175 24 inlet deviation;
#X obj 47 338 +;
#X obj 62 310 t b f;
#X obj 47 376 outlet;
#X obj 297 23 inlet bang;
#X obj 175 84 random 1000;
#X obj 175 107 / 1000;
#X obj 175 133 - 0.5;
#X obj 175 159 *;
#X obj 160 205 *;
#X connect 0 0 2 0;
#X connect 0 0 10 0;
#X connect 1 0 9 1;
#X connect 2 0 4 0;
#X connect 3 0 2 0;
#X connect 3 1 2 1;
#X connect 5 0 6 0;
#X connect 5 0 10 0;
#X connect 6 0 7 0;
#X connect 7 0 8 0;
#X connect 8 0 9 0;
#X connect 9 0 10 1;
#X connect 10 0 3 0;
#X restore 291 299 pd grain-speed;
#X obj 131 213 r \$0-grain-start;
#X obj 131 243 r \$0-grain-start-r;
#X obj 261 213 r \$0-grain-length;
#X obj 261 243 r \$0-grain-length-r;
#X floatatom 125 429 10 0 0 0 - - -;
#X floatatom 198 412 10 0 0 0 - - -;
#X floatatom 287 407 10 0 0 0 - - -;
#X obj 401 213 r \$0-grain-speed;
#X obj 401 243 r \$0-grain-speed-r;
#X obj 17 207 bang;
#X obj 47 250 bng 15 250 50 0 empty empty empty 17 7 0 10 -262144 -1
-1;
#X obj 17 568 l4_gr_w;
#X obj 348 95 inlet control;
#X obj 348 161 switch~;
#X obj 461 96 loadbang;
#X msg 461 118 1;
#X obj 150 350 cyclone/sampstoms~;
#X floatatom 244 389 5 0 0 0 - - -;
#X obj 186 480 spigot;
#X obj 293 457 loadbang;
#X msg 293 481 1;
#X msg 271 560 0;
#X obj 319 609 expr 1-$f1;
#X obj 274 650 spigot;
#X obj 273 681 outlet;
#X obj 19 151 inlet;
#X floatatom 241 490 5 0 0 0 - - -;
#X obj 189 573 pipe 50;
#X obj 23 361 t b b;
#X connect 1 0 8 0;
#X connect 1 0 15 1;
#X connect 2 0 9 0;
#X connect 2 0 15 2;
#X connect 2 0 20 0;
#X connect 3 0 10 0;
#X connect 3 0 15 3;
#X connect 4 0 1 0;
#X connect 5 0 1 1;
#X connect 6 0 2 0;
#X connect 7 0 2 1;
#X connect 11 0 3 0;
#X connect 12 0 3 1;
#X connect 13 0 1 2;
#X connect 13 0 2 2;
#X connect 13 0 3 2;
#X connect 13 0 14 0;
#X connect 13 0 32 0;
#X connect 15 0 0 0;
#X connect 16 0 17 0;
#X connect 18 0 19 0;
#X connect 19 0 17 0;
#X connect 20 1 21 0;
#X connect 20 1 31 1;
#X connect 22 0 25 0;
#X connect 22 0 15 0;
#X connect 22 0 31 0;
#X connect 23 0 24 0;
#X connect 24 0 22 1;
#X connect 24 0 26 0;
#X connect 25 0 22 1;
#X connect 25 0 26 0;
#X connect 26 0 27 1;
#X connect 27 0 28 0;
#X connect 29 0 13 0;
#X connect 31 0 24 0;
#X connect 32 0 22 0;
#X connect 32 1 27 0;
#X restore 818 594 pd grain~;
#X connect 1 0 2 0;
#X connect 2 0 3 0;
#X connect 3 0 4 0;
#X connect 4 0 5 0;
#X connect 5 0 52 0;
#X connect 6 0 13 0;
#X connect 8 0 5 0;
#X connect 9 0 22 0;
#X connect 10 0 11 0;
#X connect 12 0 14 0;
#X connect 13 0 26 0;
#X connect 13 0 24 0;
#X connect 15 0 16 0;
#X connect 17 0 18 0;
#X connect 19 0 20 0;
#X connect 23 0 49 0;
#X connect 23 1 53 0;
#X connect 25 0 13 1;
#X connect 27 0 28 0;
#X connect 29 0 23 1;
#X connect 29 0 53 1;
#X connect 29 0 54 1;
#X connect 29 0 55 1;
#X connect 29 0 56 1;
#X connect 29 0 57 1;
#X connect 29 0 58 1;
#X connect 29 0 59 1;
#X connect 30 0 21 0;
#X connect 31 0 17 0;
#X connect 32 0 33 0;
#X connect 33 0 36 0;
#X connect 34 0 35 0;
#X connect 35 0 37 0;
#X connect 36 0 38 0;
#X connect 37 0 36 0;
#X connect 37 1 36 1;
#X connect 39 0 32 0;
#X connect 40 0 34 0;
#X connect 42 0 43 0;
#X connect 43 0 47 0;
#X connect 44 0 43 0;
#X connect 45 0 44 0;
#X connect 48 0 23 0;
#X connect 49 0 41 0;
#X connect 49 0 41 1;
#X connect 50 0 17 0;
#X connect 51 0 41 1;
#X connect 51 0 41 0;
#X connect 52 0 7 0;
#X connect 53 0 49 0;
#X connect 53 1 54 0;
#X connect 54 0 49 0;
#X connect 54 1 55 0;
#X connect 55 0 49 0;
#X connect 55 1 56 0;
#X connect 56 0 51 0;
#X connect 56 1 57 0;
#X connect 57 0 51 0;
#X connect 57 1 58 0;
#X connect 58 0 51 0;
#X connect 58 1 59 0;
#X connect 59 0 51 0;
