#N canvas 113 123 1693 787 36;
#X obj 130 518 osc~;
#X obj 130 665 dac~;
#X obj 130 82 tgl 15 0 empty empty empty 17 7 0 10 -262144 -1 -1 1
1;
#X obj 130 266 + 100;
#X obj 402 334 mtof;
#X obj 402 197 random 80;
#X text 525 260 [20 \, 100);
#X text 641 189 [0 \, 80);
#X obj 402 263 + 32;
#X obj 130 433 multiplex . . .;
#X obj 457 398 hradio 15 1 0 8 empty empty empty 0 -8 0 10 -262144
-1 -1 1;
#X obj 130 198 random 5000;
#X obj 130 125 metro 20;
#X obj 853 149 metro 400;
#X obj 853 215 random 500;
#X obj 853 274 + 100;
#X obj 853 114 tgl 15 0 empty empty empty 17 7 0 10 -262144 -1 -1 1
1;
#X floatatom 941 358 5 0 0 0 - - -;
#X obj 1113 149 metro 400;
#X obj 1113 216 random 3;
#X obj 1113 284 select 0 1 2;
#X msg 1219 364 100;
#X msg 1319 364 200;
#X msg 1113 363 200;
#X floatatom 602 469 5 0 0 0 - - -;
#X obj 602 544 mtof;
#X floatatom 602 611 5 0 0 0 - - -;
#X obj 1467 81 adc~;
#X obj 1467 160 env~;
#X floatatom 1484 263 5 0 0 0 - - -;
#X connect 2 0 12 0;
#X connect 3 0 9 0;
#X connect 4 0 9 1;
#X connect 5 0 8 0;
#X connect 8 0 4 0;
#X connect 9 0 0 0;
#X connect 10 0 9 3;
#X connect 11 0 3 0;
#X connect 12 0 11 0;
#X connect 13 0 14 0;
#X connect 14 0 15 0;
#X connect 15 0 13 1;
#X connect 15 0 17 0;
#X connect 16 0 13 0;
#X connect 16 0 18 0;
#X connect 18 0 19 0;
#X connect 18 0 5 0;
#X connect 19 0 20 0;
#X connect 20 0 23 0;
#X connect 20 1 21 0;
#X connect 20 2 22 0;
#X connect 21 0 18 1;
#X connect 22 0 18 1;
#X connect 23 0 18 1;
#X connect 24 0 25 0;
#X connect 25 0 26 0;
#X connect 27 0 28 0;
#X connect 28 0 29 0;
