#N canvas 5 23 951 634 10;
#X obj 41 82 tgl 15 0 empty empty empty 17 7 0 10 -262144 -1 -1 1 1
;
#X obj 41 185 + 100;
#X obj 41 148 random 900;
#X obj 41 363 osc~;
#X obj 41 515 dac~;
#X obj 41 108 metro 60;
#X obj 41 31 key;
#X obj 41 53 sel 112;
#X floatatom 108 53 5 0 0 0 - - -;
#X obj 131 146 random 66;
#X obj 131 175 + 30;
#X obj 131 80 tgl 15 0 empty empty empty 17 7 0 10 -262144 -1 -1 1
1;
#X obj 131 205 mtof;
#X obj 128 273 hradio 15 1 0 4 empty empty empty 0 -8 0 10 -262144
-1 -1 2;
#X obj 205 207 key;
#X msg 205 256 0;
#X msg 236 256 1;
#X msg 266 256 2;
#X obj 131 106 metro 40;
#X obj 41 468 *~;
#X obj 93 327 bang;
#X obj 93 351 random 100;
#X obj 93 375 / 100;
#X obj 93 404 sig~;
#X floatatom 153 410 5 0 0 0 - - -;
#X obj 217 451 line~;
#X obj 93 432 lop~ 15;
#X msg 217 421 \$1 10;
#X obj 730 178 *~;
#X obj 730 337 dac~;
#X obj 806 161 line~;
#X msg 879 127 0 1000;
#X msg 806 49 0 \, 1 1000;
#X obj 879 78 bang;
#X obj 879 101 del 1000;
#X obj 730 60 adc~ 1;
#X obj 730 212 *~ 0.4;
#X obj 730 256 freeverb~;
#X msg 809 212 roomsize 0.92;
#X obj 331 146 random 66;
#X obj 331 175 + 30;
#X obj 331 80 tgl 15 0 empty empty empty 17 7 0 10 -262144 -1 -1 1
1;
#X obj 331 205 mtof;
#X obj 331 281 spigot;
#X obj 408 145 random 2;
#X obj 331 106 metro 140;
#X obj 205 232 sel 49 50 51 52;
#X msg 297 256 3;
#X obj 41 298 multiplex . . . .;
#X obj 503 101 metro 140;
#X obj 503 78 tgl 15 0 empty empty empty 17 7 0 10 -262144 -1 -1 1
1;
#X msg 503 199 60;
#X msg 523 224 64;
#X msg 543 199 65;
#X msg 563 224 67;
#X obj 503 260 mtof;
#X obj 217 394 tgl 15 0 empty empty empty 17 7 0 10 -262144 -1 -1 1
1;
#X obj 503 145 random 5;
#X obj 503 172 select 0 1 2 3 4;
#X msg 574 199 72;
#X floatatom 554 50 5 0 0 0 - - -;
#X obj 554 71 bpm2ms;
#X connect 0 0 5 0;
#X connect 1 0 48 0;
#X connect 2 0 1 0;
#X connect 3 0 19 0;
#X connect 5 0 2 0;
#X connect 6 0 7 0;
#X connect 6 0 8 0;
#X connect 7 0 0 0;
#X connect 9 0 10 0;
#X connect 10 0 12 0;
#X connect 11 0 18 0;
#X connect 12 0 48 1;
#X connect 13 0 48 4;
#X connect 14 0 46 0;
#X connect 15 0 13 0;
#X connect 16 0 13 0;
#X connect 17 0 13 0;
#X connect 18 0 9 0;
#X connect 19 0 4 0;
#X connect 19 0 4 1;
#X connect 20 0 21 0;
#X connect 21 0 22 0;
#X connect 22 0 23 0;
#X connect 22 0 24 0;
#X connect 23 0 26 0;
#X connect 25 0 19 1;
#X connect 27 0 25 0;
#X connect 28 0 36 0;
#X connect 30 0 28 1;
#X connect 31 0 30 0;
#X connect 32 0 30 0;
#X connect 33 0 34 0;
#X connect 34 0 31 0;
#X connect 36 0 37 0;
#X connect 37 0 29 0;
#X connect 37 1 29 1;
#X connect 38 0 37 0;
#X connect 39 0 40 0;
#X connect 40 0 42 0;
#X connect 41 0 45 0;
#X connect 42 0 43 0;
#X connect 43 0 48 2;
#X connect 44 0 43 1;
#X connect 45 0 39 0;
#X connect 45 0 44 0;
#X connect 46 0 15 0;
#X connect 46 1 16 0;
#X connect 46 2 17 0;
#X connect 46 3 47 0;
#X connect 47 0 13 0;
#X connect 48 0 3 0;
#X connect 48 0 20 0;
#X connect 49 0 57 0;
#X connect 50 0 49 0;
#X connect 51 0 55 0;
#X connect 52 0 55 0;
#X connect 53 0 55 0;
#X connect 54 0 55 0;
#X connect 55 0 48 3;
#X connect 56 0 27 0;
#X connect 57 0 58 0;
#X connect 58 0 51 0;
#X connect 58 1 52 0;
#X connect 58 2 53 0;
#X connect 58 3 54 0;
#X connect 58 4 59 0;
#X connect 59 0 55 0;
#X connect 60 0 61 0;
#X connect 61 0 49 1;
