#N canvas 93 135 622 416 10;
#X obj 124 70 tgl 15 0 empty empty empty 17 7 0 10 -262144 -1 -1 1
1;
#X obj 124 98 metro 1000;
#X floatatom 143 188 5 0 0 0 - - -;
#X obj 124 260 mtof;
#X obj 124 289 osc~;
#X obj 124 324 dac~;
#X obj 124 236 + 35;
#X obj 124 213 random 55;
#X obj 143 162 + 50;
#X obj 143 134 random 500;
#X obj 264 108 % 2;
#X floatatom 264 78 5 0 0 0 - - -;
#X floatatom 264 142 5 0 0 0 - - -;
#X obj 370 144 f;
#X obj 400 144 + 1;
#X obj 361 100 metro 250;
#X obj 361 75 tgl 15 0 empty empty empty 17 7 0 10 -262144 -1 -1 1
1;
#X obj 370 173 % 2;
#X obj 346 247 del;
#X obj 370 197 sel 0 1;
#X msg 370 221 0;
#X msg 400 221 50;
#X connect 0 0 1 0;
#X connect 1 0 9 0;
#X connect 2 0 1 1;
#X connect 3 0 4 0;
#X connect 4 0 5 0;
#X connect 4 0 5 1;
#X connect 6 0 3 0;
#X connect 7 0 6 0;
#X connect 8 0 2 0;
#X connect 9 0 8 0;
#X connect 10 0 12 0;
#X connect 11 0 10 0;
#X connect 13 0 14 0;
#X connect 13 0 17 0;
#X connect 14 0 13 1;
#X connect 15 0 13 0;
#X connect 15 0 18 0;
#X connect 16 0 15 0;
#X connect 17 0 19 0;
#X connect 18 0 7 0;
#X connect 19 0 20 0;
#X connect 19 1 21 0;
#X connect 20 0 18 1;
#X connect 21 0 18 1;
