#N canvas 30 107 977 417 10;
#X obj 205 366 dac~;
#X obj 34 60 mtof;
#X obj 318 42 bng 30 250 50 0 empty empty change_color 40 7 0 16 -262144
-1 -1;
#X msg 34 29 48;
#X obj 318 78 send change;
#X obj 34 86 send freq;
#X obj 204 335 catch~ out;
#N canvas 581 197 277 287 harm2 0;
#X obj 60 149 osc~;
#X obj 60 186 *~;
#X obj 92 169 line~;
#X msg 92 149 \$1 1000;
#X obj 60 213 *~ 0.3;
#X obj 92 121 / 1000;
#X obj 92 94 random 1000;
#X obj 92 63 receive change;
#X obj 60 239 throw~ out;
#X obj 60 38 r freq;
#X obj 60 94 * 2;
#X connect 0 0 1 0;
#X connect 1 0 4 0;
#X connect 2 0 1 1;
#X connect 3 0 2 0;
#X connect 4 0 8 0;
#X connect 5 0 3 0;
#X connect 6 0 5 0;
#X connect 7 0 6 0;
#X connect 9 0 10 0;
#X connect 10 0 0 0;
#X restore 42 225 pd harm2;
#N canvas 581 197 277 287 harm3 0;
#X obj 60 149 osc~;
#X obj 60 186 *~;
#X obj 92 169 line~;
#X msg 92 149 \$1 1000;
#X obj 60 213 *~ 0.3;
#X obj 92 121 / 1000;
#X obj 92 94 random 1000;
#X obj 92 63 receive change;
#X obj 60 239 throw~ out;
#X obj 60 38 r freq;
#X obj 60 94 * 3;
#X connect 0 0 1 0;
#X connect 1 0 4 0;
#X connect 2 0 1 1;
#X connect 3 0 2 0;
#X connect 4 0 8 0;
#X connect 5 0 3 0;
#X connect 6 0 5 0;
#X connect 7 0 6 0;
#X connect 9 0 10 0;
#X connect 10 0 0 0;
#X restore 42 255 pd harm3;
#N canvas 581 197 277 287 harm5 0;
#X obj 60 149 osc~;
#X obj 60 186 *~;
#X obj 92 169 line~;
#X msg 92 149 \$1 1000;
#X obj 60 213 *~ 0.3;
#X obj 92 121 / 1000;
#X obj 92 94 random 1000;
#X obj 92 62 receive change;
#X obj 60 239 throw~ out;
#X obj 60 38 r freq;
#X obj 60 94 * 5;
#X connect 0 0 1 0;
#X connect 1 0 4 0;
#X connect 2 0 1 1;
#X connect 3 0 2 0;
#X connect 4 0 8 0;
#X connect 5 0 3 0;
#X connect 6 0 5 0;
#X connect 7 0 6 0;
#X connect 9 0 10 0;
#X connect 10 0 0 0;
#X restore 112 225 pd harm5;
#N canvas 581 197 277 287 harm6 0;
#X obj 60 149 osc~;
#X obj 60 186 *~;
#X obj 92 169 line~;
#X msg 92 149 \$1 1000;
#X obj 60 213 *~ 0.3;
#X obj 92 121 / 1000;
#X obj 92 94 random 1000;
#X obj 92 63 receive change;
#X obj 60 239 throw~ out;
#X obj 60 38 r freq;
#X obj 60 94 * 6;
#X connect 0 0 1 0;
#X connect 1 0 4 0;
#X connect 2 0 1 1;
#X connect 3 0 2 0;
#X connect 4 0 8 0;
#X connect 5 0 3 0;
#X connect 6 0 5 0;
#X connect 7 0 6 0;
#X connect 9 0 10 0;
#X connect 10 0 0 0;
#X restore 112 255 pd harm6;
#N canvas 581 197 277 287 harm8 0;
#X obj 60 149 osc~;
#X obj 60 186 *~;
#X obj 92 169 line~;
#X msg 92 149 \$1 1000;
#X obj 60 213 *~ 0.3;
#X obj 92 121 / 1000;
#X obj 92 94 random 1000;
#X obj 92 63 receive change;
#X obj 60 239 throw~ out;
#X obj 60 38 r freq;
#X obj 60 94 * 8;
#X connect 0 0 1 0;
#X connect 1 0 4 0;
#X connect 2 0 1 1;
#X connect 3 0 2 0;
#X connect 4 0 8 0;
#X connect 5 0 3 0;
#X connect 6 0 5 0;
#X connect 7 0 6 0;
#X connect 9 0 10 0;
#X connect 10 0 0 0;
#X restore 172 225 pd harm8;
#N canvas 581 197 277 287 harm9 0;
#X obj 60 149 osc~;
#X obj 60 186 *~;
#X obj 92 169 line~;
#X msg 92 149 \$1 1000;
#X obj 60 213 *~ 0.3;
#X obj 92 121 / 1000;
#X obj 92 94 random 1000;
#X obj 92 63 receive change;
#X obj 60 239 throw~ out;
#X obj 60 38 r freq;
#X obj 60 94 * 9;
#X connect 0 0 1 0;
#X connect 1 0 4 0;
#X connect 2 0 1 1;
#X connect 3 0 2 0;
#X connect 4 0 8 0;
#X connect 5 0 3 0;
#X connect 6 0 5 0;
#X connect 7 0 6 0;
#X connect 9 0 10 0;
#X connect 10 0 0 0;
#X restore 172 255 pd harm9;
#N canvas 581 197 277 287 harm11 0;
#X obj 60 149 osc~;
#X obj 60 186 *~;
#X obj 92 169 line~;
#X msg 92 149 \$1 1000;
#X obj 60 213 *~ 0.3;
#X obj 92 121 / 1000;
#X obj 92 94 random 1000;
#X obj 92 63 receive change;
#X obj 60 239 throw~ out;
#X obj 60 38 r freq;
#X obj 60 94 * 11;
#X connect 0 0 1 0;
#X connect 1 0 4 0;
#X connect 2 0 1 1;
#X connect 3 0 2 0;
#X connect 4 0 8 0;
#X connect 5 0 3 0;
#X connect 6 0 5 0;
#X connect 7 0 6 0;
#X connect 9 0 10 0;
#X connect 10 0 0 0;
#X restore 242 225 pd harm11;
#N canvas 581 197 277 287 harm12 0;
#X obj 60 149 osc~;
#X obj 60 186 *~;
#X obj 92 169 line~;
#X msg 92 149 \$1 1000;
#X obj 60 213 *~ 0.3;
#X obj 92 121 / 1000;
#X obj 92 94 random 1000;
#X obj 92 63 receive change;
#X obj 60 239 throw~ out;
#X obj 60 38 r freq;
#X obj 60 94 * 12;
#X connect 0 0 1 0;
#X connect 1 0 4 0;
#X connect 2 0 1 1;
#X connect 3 0 2 0;
#X connect 4 0 8 0;
#X connect 5 0 3 0;
#X connect 6 0 5 0;
#X connect 7 0 6 0;
#X connect 9 0 10 0;
#X connect 10 0 0 0;
#X restore 242 255 pd harm12;
#N canvas 581 197 277 287 harm1 0;
#X obj 60 149 osc~;
#X obj 60 186 *~;
#X obj 92 169 line~;
#X msg 92 149 \$1 1000;
#X obj 60 213 *~ 0.3;
#X obj 92 121 / 1000;
#X obj 92 94 random 1000;
#X obj 92 63 receive change;
#X obj 60 239 throw~ out;
#X obj 60 38 r freq;
#X obj 60 94 * 1;
#X connect 0 0 1 0;
#X connect 1 0 4 0;
#X connect 2 0 1 1;
#X connect 3 0 2 0;
#X connect 4 0 8 0;
#X connect 5 0 3 0;
#X connect 6 0 5 0;
#X connect 7 0 6 0;
#X connect 9 0 10 0;
#X connect 10 0 0 0;
#X restore 42 195 pd harm1;
#N canvas 581 197 277 287 harm4 0;
#X obj 60 149 osc~;
#X obj 60 186 *~;
#X obj 92 169 line~;
#X msg 92 149 \$1 1000;
#X obj 60 213 *~ 0.3;
#X obj 92 121 / 1000;
#X obj 92 94 random 1000;
#X obj 92 62 receive change;
#X obj 60 239 throw~ out;
#X obj 60 38 r freq;
#X obj 60 94 * 4;
#X connect 0 0 1 0;
#X connect 1 0 4 0;
#X connect 2 0 1 1;
#X connect 3 0 2 0;
#X connect 4 0 8 0;
#X connect 5 0 3 0;
#X connect 6 0 5 0;
#X connect 7 0 6 0;
#X connect 9 0 10 0;
#X connect 10 0 0 0;
#X restore 112 195 pd harm4;
#N canvas 581 197 277 287 harm7 0;
#X obj 60 149 osc~;
#X obj 60 186 *~;
#X obj 92 169 line~;
#X msg 92 149 \$1 1000;
#X obj 60 213 *~ 0.3;
#X obj 92 121 / 1000;
#X obj 92 94 random 1000;
#X obj 92 63 receive change;
#X obj 60 239 throw~ out;
#X obj 60 38 r freq;
#X obj 60 94 * 7;
#X connect 0 0 1 0;
#X connect 1 0 4 0;
#X connect 2 0 1 1;
#X connect 3 0 2 0;
#X connect 4 0 8 0;
#X connect 5 0 3 0;
#X connect 6 0 5 0;
#X connect 7 0 6 0;
#X connect 9 0 10 0;
#X connect 10 0 0 0;
#X restore 172 195 pd harm7;
#N canvas 581 197 277 287 harm10 0;
#X obj 60 149 osc~;
#X obj 60 186 *~;
#X obj 92 169 line~;
#X msg 92 149 \$1 1000;
#X obj 60 213 *~ 0.3;
#X obj 92 121 / 1000;
#X obj 92 94 random 1000;
#X obj 92 63 receive change;
#X obj 60 239 throw~ out;
#X obj 60 38 r freq;
#X obj 60 94 * 10;
#X connect 0 0 1 0;
#X connect 1 0 4 0;
#X connect 2 0 1 1;
#X connect 3 0 2 0;
#X connect 4 0 8 0;
#X connect 5 0 3 0;
#X connect 6 0 5 0;
#X connect 7 0 6 0;
#X connect 9 0 10 0;
#X connect 10 0 0 0;
#X restore 242 195 pd harm10;
#X obj 425 146 s~ a;
#X obj 424 181 r~ a;
#X obj 464 181 r~ a;
#X obj 504 181 r~ a;
#X obj 421 228 throw~ b;
#X obj 421 262 catch~ b;
#X obj 481 228 throw~ b;
#X obj 541 228 throw~ b;
#X connect 1 0 5 0;
#X connect 2 0 4 0;
#X connect 3 0 1 0;
#X connect 6 0 0 0;
#X connect 6 0 0 1;
