#N canvas 13 177 977 417 10;
#X obj 60 209 osc~;
#X obj 60 246 *~;
#X obj 92 229 line~;
#X msg 92 209 \$1 1000;
#X obj 60 154 * 1;
#X obj 60 273 *~ 0.3;
#X obj 92 181 / 1000;
#X obj 92 154 random 1000;
#X obj 170 209 osc~;
#X obj 170 246 *~;
#X obj 202 229 line~;
#X msg 202 209 \$1 1000;
#X obj 170 273 *~ 0.3;
#X obj 202 181 / 1000;
#X obj 202 154 random 1000;
#X obj 280 209 osc~;
#X obj 280 246 *~;
#X obj 312 229 line~;
#X msg 312 209 \$1 1000;
#X obj 280 273 *~ 0.3;
#X obj 312 181 / 1000;
#X obj 312 154 random 1000;
#X obj 390 209 osc~;
#X obj 390 246 *~;
#X obj 422 229 line~;
#X msg 422 209 \$1 1000;
#X obj 390 273 *~ 0.3;
#X obj 422 181 / 1000;
#X obj 422 154 random 1000;
#X obj 500 209 osc~;
#X obj 500 246 *~;
#X obj 532 229 line~;
#X msg 532 209 \$1 1000;
#X obj 500 273 *~ 0.3;
#X obj 532 181 / 1000;
#X obj 532 154 random 1000;
#X obj 610 209 osc~;
#X obj 610 246 *~;
#X obj 642 229 line~;
#X msg 642 209 \$1 1000;
#X obj 610 273 *~ 0.3;
#X obj 642 181 / 1000;
#X obj 642 154 random 1000;
#X obj 720 209 osc~;
#X obj 720 246 *~;
#X obj 752 229 line~;
#X msg 752 209 \$1 1000;
#X obj 720 273 *~ 0.3;
#X obj 752 181 / 1000;
#X obj 752 154 random 1000;
#X obj 830 209 osc~;
#X obj 830 246 *~;
#X obj 862 229 line~;
#X msg 862 209 \$1 1000;
#X obj 830 273 *~ 0.3;
#X obj 862 181 / 1000;
#X obj 862 154 random 1000;
#X obj 365 366 dac~;
#X obj 170 154 * 2;
#X obj 280 154 * 3;
#X obj 390 154 * 4;
#X obj 500 154 * 5;
#X obj 610 154 * 6;
#X obj 720 154 * 7;
#X obj 830 154 * 8;
#X obj 304 60 mtof;
#X obj 478 42 bng 30 250 50 0 empty empty change_color 40 7 0 16 -262144
-1 -1;
#X msg 304 29 48;
#X connect 0 0 1 0;
#X connect 1 0 5 0;
#X connect 2 0 1 1;
#X connect 3 0 2 0;
#X connect 4 0 0 0;
#X connect 5 0 57 0;
#X connect 6 0 3 0;
#X connect 7 0 6 0;
#X connect 8 0 9 0;
#X connect 9 0 12 0;
#X connect 10 0 9 1;
#X connect 11 0 10 0;
#X connect 12 0 57 0;
#X connect 13 0 11 0;
#X connect 14 0 13 0;
#X connect 15 0 16 0;
#X connect 16 0 19 0;
#X connect 17 0 16 1;
#X connect 18 0 17 0;
#X connect 19 0 57 0;
#X connect 20 0 18 0;
#X connect 21 0 20 0;
#X connect 22 0 23 0;
#X connect 23 0 26 0;
#X connect 24 0 23 1;
#X connect 25 0 24 0;
#X connect 26 0 57 0;
#X connect 27 0 25 0;
#X connect 28 0 27 0;
#X connect 29 0 30 0;
#X connect 30 0 33 0;
#X connect 31 0 30 1;
#X connect 32 0 31 0;
#X connect 33 0 57 0;
#X connect 34 0 32 0;
#X connect 35 0 34 0;
#X connect 36 0 37 0;
#X connect 37 0 40 0;
#X connect 38 0 37 1;
#X connect 39 0 38 0;
#X connect 40 0 57 0;
#X connect 41 0 39 0;
#X connect 42 0 41 0;
#X connect 43 0 44 0;
#X connect 44 0 47 0;
#X connect 45 0 44 1;
#X connect 46 0 45 0;
#X connect 47 0 57 0;
#X connect 48 0 46 0;
#X connect 49 0 48 0;
#X connect 50 0 51 0;
#X connect 51 0 54 0;
#X connect 52 0 51 1;
#X connect 53 0 52 0;
#X connect 54 0 57 0;
#X connect 55 0 53 0;
#X connect 56 0 55 0;
#X connect 58 0 8 0;
#X connect 59 0 15 0;
#X connect 60 0 22 0;
#X connect 61 0 29 0;
#X connect 62 0 36 0;
#X connect 63 0 43 0;
#X connect 64 0 50 0;
#X connect 65 0 4 0;
#X connect 65 0 58 0;
#X connect 65 0 59 0;
#X connect 65 0 60 0;
#X connect 65 0 61 0;
#X connect 65 0 62 0;
#X connect 65 0 63 0;
#X connect 65 0 64 0;
#X connect 66 0 7 0;
#X connect 66 0 14 0;
#X connect 66 0 21 0;
#X connect 66 0 28 0;
#X connect 66 0 35 0;
#X connect 66 0 42 0;
#X connect 66 0 49 0;
#X connect 66 0 56 0;
#X connect 67 0 65 0;
