#N canvas 50 30 1119 853 10;
#N canvas 0 22 450 278 (subpatch) 0;
#X array array1 162831 float 2;
#X coords 0 1 162831 -1 200 140 1;
#X restore 41 26 graph;
#X obj 726 60 bng 15 250 50 0 empty empty empty 17 7 0 10 -262144 -1
-1;
#X obj 726 82 openpanel;
#X msg 726 107 read -resize \$1 array1;
#X obj 726 132 soundfiler;
#X floatatom 726 158 10 0 0 0 - - -;
#X obj 411 141 tgl 15 0 empty empty empty 17 7 0 10 -262144 -1 -1 0
1;
#X obj 726 181 s \$0-fsize;
#X obj 807 133 bng 15 250 50 0 empty empty empty 17 7 0 10 -262144
-1 -1;
#X obj 44 184 hsl 200 15 0 1 0 0 \$0-grain-start \$0-grain-start-in
start -2 -8 0 10 -262144 -1 -1 1990 1;
#X obj 44 244 hsl 200 15 0 1 0 0 \$0-grain-start-r \$0-grain-start-rin
start_randomness -2 -8 0 10 -262144 -1 -1 995 1;
#X floatatom 41 263 5 0 0 0 - - -;
#X obj 44 304 hsl 200 15 10 1000 0 0 \$0-grain-length \$0-length-in
length_(ms) -2 -8 0 10 -262144 -1 -1 1809 1;
#X obj 411 164 metro 100;
#X floatatom 41 323 5 0 0 0 - - -;
#X obj 44 364 hsl 200 15 0 1 0 0 \$0-grain-length-r \$0-length-rin
length_randomness -2 -8 0 10 -262144 -1 -1 3980 1;
#X floatatom 41 383 5 0 0 0 - - -;
#X obj 44 424 hsl 200 15 0.1 10 0 0 \$0-grain-speed \$0-speed-in speed
-2 -8 0 10 -262144 -1 -1 1809 1;
#X floatatom 41 443 5 0 0 0 - - -;
#X obj 44 484 hsl 200 15 0 1 0 0 \$0-grain-speed-r \$0-speed-rin speed_randomness
-2 -8 0 10 -262144 -1 -1 3980 1;
#X floatatom 41 503 5 0 0 0 - - -;
#X obj 362 570 output~;
#N canvas 459 167 450 300 init 0;
#X obj 94 45 loadbang;
#X obj 94 73 f \$0;
#X obj 159 46 bng 15 250 50 0 empty empty empty 17 7 0 10 -262144 -1
-1;
#X msg 94 105 \; \$1-grain-start-in 0.1 \; \$1-grain-start-rin 0.05
\; \$1-length-in 100 \; \$1-length-rin 0.2 \; \$1-speed-in 1 \; \$1-speed-rin
0.2;
#X connect 0 0 1 0;
#X connect 1 0 3 0;
#X connect 2 0 1 0;
#X restore 286 24 pd init;
#X floatatom 41 203 5 0 0 0 - - -;
#N canvas 256 362 774 464 grain~ 0;
#X obj 23 384 outlet~;
#X obj 23 17 r \$0-grain-bang;
#N canvas 288 188 492 428 grain-start 0;
#X obj 47 25 inlet constant;
#X obj 175 24 inlet deviation;
#X obj 47 146 *;
#X obj 62 118 r \$0-fsize;
#X obj 47 338 +;
#X obj 62 310 t b f;
#X obj 47 376 outlet;
#X obj 297 23 inlet bang;
#X obj 160 173 *;
#X obj 160 144 random;
#X obj 193 117 r \$0-fsize;
#X obj 177 238 t b f;
#X obj 160 270 -;
#X obj 175 60 clip 0 1;
#X obj 243 173 *;
#X obj 258 147 r \$0-fsize;
#X obj 243 196 * 0.5;
#X connect 0 0 2 0;
#X connect 1 0 13 0;
#X connect 2 0 4 0;
#X connect 3 0 2 1;
#X connect 4 0 6 0;
#X connect 5 0 4 0;
#X connect 5 1 4 1;
#X connect 7 0 9 0;
#X connect 8 0 12 0;
#X connect 9 0 8 0;
#X connect 10 0 9 1;
#X connect 11 0 12 0;
#X connect 11 1 12 1;
#X connect 12 0 5 0;
#X connect 13 0 8 1;
#X connect 13 0 14 0;
#X connect 14 0 16 0;
#X connect 15 0 14 1;
#X connect 16 0 11 0;
#X restore 51 227 pd grain-start;
#N canvas 350 335 502 444 grain-length 0;
#X obj 47 25 inlet constant;
#X obj 175 24 inlet deviation;
#X obj 47 338 +;
#X obj 62 310 t b f;
#X obj 47 376 outlet;
#X obj 297 23 inlet bang;
#X obj 175 84 random 1000;
#X obj 175 107 / 1000;
#X obj 175 133 - 0.5;
#X obj 175 159 *;
#X obj 160 205 *;
#X obj 47 65 * 44.1;
#X connect 0 0 11 0;
#X connect 1 0 9 1;
#X connect 2 0 4 0;
#X connect 3 0 2 0;
#X connect 3 1 2 1;
#X connect 5 0 6 0;
#X connect 5 0 10 0;
#X connect 6 0 7 0;
#X connect 7 0 8 0;
#X connect 8 0 9 0;
#X connect 9 0 10 1;
#X connect 10 0 3 0;
#X connect 11 0 10 0;
#X connect 11 0 2 0;
#X restore 177 223 pd grain-length;
#N canvas 350 335 502 444 grain-speed 0;
#X obj 47 25 inlet constant;
#X obj 175 24 inlet deviation;
#X obj 47 338 +;
#X obj 62 310 t b f;
#X obj 47 376 outlet;
#X obj 297 23 inlet bang;
#X obj 175 84 random 1000;
#X obj 175 107 / 1000;
#X obj 175 133 - 0.5;
#X obj 175 159 *;
#X obj 160 205 *;
#X connect 0 0 2 0;
#X connect 0 0 10 0;
#X connect 1 0 9 1;
#X connect 2 0 4 0;
#X connect 3 0 2 0;
#X connect 3 1 2 1;
#X connect 5 0 6 0;
#X connect 5 0 10 0;
#X connect 6 0 7 0;
#X connect 7 0 8 0;
#X connect 8 0 9 0;
#X connect 9 0 10 1;
#X connect 10 0 3 0;
#X restore 297 223 pd grain-speed;
#X obj 137 137 r \$0-grain-start;
#X obj 137 167 r \$0-grain-start-r;
#X obj 267 137 r \$0-grain-length;
#X obj 267 167 r \$0-grain-length-r;
#X floatatom 131 353 10 0 0 0 - - -;
#X floatatom 204 336 10 0 0 0 - - -;
#X floatatom 293 331 10 0 0 0 - - -;
#X obj 407 137 r \$0-grain-speed;
#X obj 407 167 r \$0-grain-speed-r;
#X msg 23 48 1;
#X obj 23 131 bang;
#X obj 74 45 r \$0-new-random;
#X obj 137 19 bng 15 250 50 0 empty empty empty 17 7 0 10 -262144 -1
-1;
#X floatatom 100 102 5 0 0 0 - - -;
#X obj 189 44 r \$0-random-max;
#X obj 74 73 random 90;
#X obj 23 100 pipe 90;
#X obj 53 174 bng 15 250 50 0 empty empty empty 17 7 0 10 -262144 -1
-1;
#X obj 23 350 l4_gr_w;
#X connect 1 0 14 0;
#X connect 2 0 9 0;
#X connect 2 0 23 1;
#X connect 3 0 10 0;
#X connect 3 0 23 2;
#X connect 4 0 11 0;
#X connect 4 0 23 3;
#X connect 5 0 2 0;
#X connect 6 0 2 1;
#X connect 7 0 3 0;
#X connect 8 0 3 1;
#X connect 12 0 4 0;
#X connect 13 0 4 1;
#X connect 14 0 21 0;
#X connect 15 0 2 2;
#X connect 15 0 3 2;
#X connect 15 0 4 2;
#X connect 15 0 22 0;
#X connect 15 0 23 0;
#X connect 16 0 20 0;
#X connect 17 0 20 0;
#X connect 19 0 20 1;
#X connect 20 0 18 0;
#X connect 20 0 21 1;
#X connect 21 0 15 0;
#X connect 23 0 0 0;
#X restore 362 434 pd grain~;
#X obj 362 220 s \$0-new-random;
#X obj 464 141 nbx 5 14 -1e+37 1e+37 0 0 empty empty empty 0 -8 0 10
-262144 -1 -1 0 256;
#X obj 411 191 s \$0-grain-bang;
#X obj 44 541 hsl 200 15 0 1000 0 0 \$0-random-max empty random-max
-2 -8 0 10 -262144 -1 -1 19900 1;
#X floatatom 41 564 5 0 0 0 - - -;
#N canvas 256 362 774 464 grain~ 0;
#X obj 23 384 outlet~;
#X obj 23 17 r \$0-grain-bang;
#N canvas 288 188 492 428 grain-start 0;
#X obj 47 25 inlet constant;
#X obj 175 24 inlet deviation;
#X obj 47 146 *;
#X obj 62 118 r \$0-fsize;
#X obj 47 338 +;
#X obj 62 310 t b f;
#X obj 47 376 outlet;
#X obj 297 23 inlet bang;
#X obj 160 173 *;
#X obj 160 144 random;
#X obj 193 117 r \$0-fsize;
#X obj 177 238 t b f;
#X obj 160 270 -;
#X obj 175 60 clip 0 1;
#X obj 243 173 *;
#X obj 258 147 r \$0-fsize;
#X obj 243 196 * 0.5;
#X connect 0 0 2 0;
#X connect 1 0 13 0;
#X connect 2 0 4 0;
#X connect 3 0 2 1;
#X connect 4 0 6 0;
#X connect 5 0 4 0;
#X connect 5 1 4 1;
#X connect 7 0 9 0;
#X connect 8 0 12 0;
#X connect 9 0 8 0;
#X connect 10 0 9 1;
#X connect 11 0 12 0;
#X connect 11 1 12 1;
#X connect 12 0 5 0;
#X connect 13 0 8 1;
#X connect 13 0 14 0;
#X connect 14 0 16 0;
#X connect 15 0 14 1;
#X connect 16 0 11 0;
#X restore 51 227 pd grain-start;
#N canvas 350 335 502 444 grain-length 0;
#X obj 47 25 inlet constant;
#X obj 175 24 inlet deviation;
#X obj 47 338 +;
#X obj 62 310 t b f;
#X obj 47 376 outlet;
#X obj 297 23 inlet bang;
#X obj 175 84 random 1000;
#X obj 175 107 / 1000;
#X obj 175 133 - 0.5;
#X obj 175 159 *;
#X obj 160 205 *;
#X obj 47 65 * 44.1;
#X connect 0 0 11 0;
#X connect 1 0 9 1;
#X connect 2 0 4 0;
#X connect 3 0 2 0;
#X connect 3 1 2 1;
#X connect 5 0 6 0;
#X connect 5 0 10 0;
#X connect 6 0 7 0;
#X connect 7 0 8 0;
#X connect 8 0 9 0;
#X connect 9 0 10 1;
#X connect 10 0 3 0;
#X connect 11 0 10 0;
#X connect 11 0 2 0;
#X restore 177 223 pd grain-length;
#N canvas 350 335 502 444 grain-speed 0;
#X obj 47 25 inlet constant;
#X obj 175 24 inlet deviation;
#X obj 47 338 +;
#X obj 62 310 t b f;
#X obj 47 376 outlet;
#X obj 297 23 inlet bang;
#X obj 175 84 random 1000;
#X obj 175 107 / 1000;
#X obj 175 133 - 0.5;
#X obj 175 159 *;
#X obj 160 205 *;
#X connect 0 0 2 0;
#X connect 0 0 10 0;
#X connect 1 0 9 1;
#X connect 2 0 4 0;
#X connect 3 0 2 0;
#X connect 3 1 2 1;
#X connect 5 0 6 0;
#X connect 5 0 10 0;
#X connect 6 0 7 0;
#X connect 7 0 8 0;
#X connect 8 0 9 0;
#X connect 9 0 10 1;
#X connect 10 0 3 0;
#X restore 297 223 pd grain-speed;
#X obj 137 137 r \$0-grain-start;
#X obj 137 167 r \$0-grain-start-r;
#X obj 267 137 r \$0-grain-length;
#X obj 267 167 r \$0-grain-length-r;
#X floatatom 131 353 10 0 0 0 - - -;
#X floatatom 204 336 10 0 0 0 - - -;
#X floatatom 293 331 10 0 0 0 - - -;
#X obj 407 137 r \$0-grain-speed;
#X obj 407 167 r \$0-grain-speed-r;
#X msg 23 48 1;
#X obj 23 131 bang;
#X obj 74 45 r \$0-new-random;
#X obj 137 19 bng 15 250 50 0 empty empty empty 17 7 0 10 -262144 -1
-1;
#X floatatom 100 102 5 0 0 0 - - -;
#X obj 189 44 r \$0-random-max;
#X obj 74 73 random 90;
#X obj 23 100 pipe 90;
#X obj 53 174 bng 15 250 50 0 empty empty empty 17 7 0 10 -262144 -1
-1;
#X obj 23 350 l4_gr_w;
#X connect 1 0 14 0;
#X connect 2 0 9 0;
#X connect 2 0 23 1;
#X connect 3 0 10 0;
#X connect 3 0 23 2;
#X connect 4 0 11 0;
#X connect 4 0 23 3;
#X connect 5 0 2 0;
#X connect 6 0 2 1;
#X connect 7 0 3 0;
#X connect 8 0 3 1;
#X connect 12 0 4 0;
#X connect 13 0 4 1;
#X connect 14 0 21 0;
#X connect 15 0 2 2;
#X connect 15 0 3 2;
#X connect 15 0 4 2;
#X connect 15 0 22 0;
#X connect 15 0 23 0;
#X connect 16 0 20 0;
#X connect 17 0 20 0;
#X connect 19 0 20 1;
#X connect 20 0 18 0;
#X connect 20 0 21 1;
#X connect 21 0 15 0;
#X connect 23 0 0 0;
#X restore 382 464 pd grain~;
#N canvas 256 362 774 464 grain~ 0;
#X obj 23 384 outlet~;
#X obj 23 17 r \$0-grain-bang;
#N canvas 288 188 492 428 grain-start 0;
#X obj 47 25 inlet constant;
#X obj 175 24 inlet deviation;
#X obj 47 146 *;
#X obj 62 118 r \$0-fsize;
#X obj 47 338 +;
#X obj 62 310 t b f;
#X obj 47 376 outlet;
#X obj 297 23 inlet bang;
#X obj 160 173 *;
#X obj 160 144 random;
#X obj 193 117 r \$0-fsize;
#X obj 177 238 t b f;
#X obj 160 270 -;
#X obj 175 60 clip 0 1;
#X obj 243 173 *;
#X obj 258 147 r \$0-fsize;
#X obj 243 196 * 0.5;
#X connect 0 0 2 0;
#X connect 1 0 13 0;
#X connect 2 0 4 0;
#X connect 3 0 2 1;
#X connect 4 0 6 0;
#X connect 5 0 4 0;
#X connect 5 1 4 1;
#X connect 7 0 9 0;
#X connect 8 0 12 0;
#X connect 9 0 8 0;
#X connect 10 0 9 1;
#X connect 11 0 12 0;
#X connect 11 1 12 1;
#X connect 12 0 5 0;
#X connect 13 0 8 1;
#X connect 13 0 14 0;
#X connect 14 0 16 0;
#X connect 15 0 14 1;
#X connect 16 0 11 0;
#X restore 51 227 pd grain-start;
#N canvas 350 335 502 444 grain-length 0;
#X obj 47 25 inlet constant;
#X obj 175 24 inlet deviation;
#X obj 47 338 +;
#X obj 62 310 t b f;
#X obj 47 376 outlet;
#X obj 297 23 inlet bang;
#X obj 175 84 random 1000;
#X obj 175 107 / 1000;
#X obj 175 133 - 0.5;
#X obj 175 159 *;
#X obj 160 205 *;
#X obj 47 65 * 44.1;
#X connect 0 0 11 0;
#X connect 1 0 9 1;
#X connect 2 0 4 0;
#X connect 3 0 2 0;
#X connect 3 1 2 1;
#X connect 5 0 6 0;
#X connect 5 0 10 0;
#X connect 6 0 7 0;
#X connect 7 0 8 0;
#X connect 8 0 9 0;
#X connect 9 0 10 1;
#X connect 10 0 3 0;
#X connect 11 0 10 0;
#X connect 11 0 2 0;
#X restore 177 223 pd grain-length;
#N canvas 350 335 502 444 grain-speed 0;
#X obj 47 25 inlet constant;
#X obj 175 24 inlet deviation;
#X obj 47 338 +;
#X obj 62 310 t b f;
#X obj 47 376 outlet;
#X obj 297 23 inlet bang;
#X obj 175 84 random 1000;
#X obj 175 107 / 1000;
#X obj 175 133 - 0.5;
#X obj 175 159 *;
#X obj 160 205 *;
#X connect 0 0 2 0;
#X connect 0 0 10 0;
#X connect 1 0 9 1;
#X connect 2 0 4 0;
#X connect 3 0 2 0;
#X connect 3 1 2 1;
#X connect 5 0 6 0;
#X connect 5 0 10 0;
#X connect 6 0 7 0;
#X connect 7 0 8 0;
#X connect 8 0 9 0;
#X connect 9 0 10 1;
#X connect 10 0 3 0;
#X restore 297 223 pd grain-speed;
#X obj 137 137 r \$0-grain-start;
#X obj 137 167 r \$0-grain-start-r;
#X obj 267 137 r \$0-grain-length;
#X obj 267 167 r \$0-grain-length-r;
#X floatatom 131 353 10 0 0 0 - - -;
#X floatatom 204 336 10 0 0 0 - - -;
#X floatatom 293 331 10 0 0 0 - - -;
#X obj 407 137 r \$0-grain-speed;
#X obj 407 167 r \$0-grain-speed-r;
#X msg 23 48 1;
#X obj 23 131 bang;
#X obj 74 45 r \$0-new-random;
#X obj 137 19 bng 15 250 50 0 empty empty empty 17 7 0 10 -262144 -1
-1;
#X floatatom 100 102 5 0 0 0 - - -;
#X obj 189 44 r \$0-random-max;
#X obj 74 73 random 90;
#X obj 23 100 pipe 90;
#X obj 53 174 bng 15 250 50 0 empty empty empty 17 7 0 10 -262144 -1
-1;
#X obj 23 350 l4_gr_w;
#X connect 1 0 14 0;
#X connect 2 0 9 0;
#X connect 2 0 23 1;
#X connect 3 0 10 0;
#X connect 3 0 23 2;
#X connect 4 0 11 0;
#X connect 4 0 23 3;
#X connect 5 0 2 0;
#X connect 6 0 2 1;
#X connect 7 0 3 0;
#X connect 8 0 3 1;
#X connect 12 0 4 0;
#X connect 13 0 4 1;
#X connect 14 0 21 0;
#X connect 15 0 2 2;
#X connect 15 0 3 2;
#X connect 15 0 4 2;
#X connect 15 0 22 0;
#X connect 15 0 23 0;
#X connect 16 0 20 0;
#X connect 17 0 20 0;
#X connect 19 0 20 1;
#X connect 20 0 18 0;
#X connect 20 0 21 1;
#X connect 21 0 15 0;
#X connect 23 0 0 0;
#X restore 452 434 pd grain~;
#N canvas 256 362 774 464 grain~ 0;
#X obj 23 384 outlet~;
#X obj 23 17 r \$0-grain-bang;
#N canvas 288 188 492 428 grain-start 0;
#X obj 47 25 inlet constant;
#X obj 175 24 inlet deviation;
#X obj 47 146 *;
#X obj 62 118 r \$0-fsize;
#X obj 47 338 +;
#X obj 62 310 t b f;
#X obj 47 376 outlet;
#X obj 297 23 inlet bang;
#X obj 160 173 *;
#X obj 160 144 random;
#X obj 193 117 r \$0-fsize;
#X obj 177 238 t b f;
#X obj 160 270 -;
#X obj 175 60 clip 0 1;
#X obj 243 173 *;
#X obj 258 147 r \$0-fsize;
#X obj 243 196 * 0.5;
#X connect 0 0 2 0;
#X connect 1 0 13 0;
#X connect 2 0 4 0;
#X connect 3 0 2 1;
#X connect 4 0 6 0;
#X connect 5 0 4 0;
#X connect 5 1 4 1;
#X connect 7 0 9 0;
#X connect 8 0 12 0;
#X connect 9 0 8 0;
#X connect 10 0 9 1;
#X connect 11 0 12 0;
#X connect 11 1 12 1;
#X connect 12 0 5 0;
#X connect 13 0 8 1;
#X connect 13 0 14 0;
#X connect 14 0 16 0;
#X connect 15 0 14 1;
#X connect 16 0 11 0;
#X restore 51 227 pd grain-start;
#N canvas 350 335 502 444 grain-length 0;
#X obj 47 25 inlet constant;
#X obj 175 24 inlet deviation;
#X obj 47 338 +;
#X obj 62 310 t b f;
#X obj 47 376 outlet;
#X obj 297 23 inlet bang;
#X obj 175 84 random 1000;
#X obj 175 107 / 1000;
#X obj 175 133 - 0.5;
#X obj 175 159 *;
#X obj 160 205 *;
#X obj 47 65 * 44.1;
#X connect 0 0 11 0;
#X connect 1 0 9 1;
#X connect 2 0 4 0;
#X connect 3 0 2 0;
#X connect 3 1 2 1;
#X connect 5 0 6 0;
#X connect 5 0 10 0;
#X connect 6 0 7 0;
#X connect 7 0 8 0;
#X connect 8 0 9 0;
#X connect 9 0 10 1;
#X connect 10 0 3 0;
#X connect 11 0 10 0;
#X connect 11 0 2 0;
#X restore 177 223 pd grain-length;
#N canvas 350 335 502 444 grain-speed 0;
#X obj 47 25 inlet constant;
#X obj 175 24 inlet deviation;
#X obj 47 338 +;
#X obj 62 310 t b f;
#X obj 47 376 outlet;
#X obj 297 23 inlet bang;
#X obj 175 84 random 1000;
#X obj 175 107 / 1000;
#X obj 175 133 - 0.5;
#X obj 175 159 *;
#X obj 160 205 *;
#X connect 0 0 2 0;
#X connect 0 0 10 0;
#X connect 1 0 9 1;
#X connect 2 0 4 0;
#X connect 3 0 2 0;
#X connect 3 1 2 1;
#X connect 5 0 6 0;
#X connect 5 0 10 0;
#X connect 6 0 7 0;
#X connect 7 0 8 0;
#X connect 8 0 9 0;
#X connect 9 0 10 1;
#X connect 10 0 3 0;
#X restore 297 223 pd grain-speed;
#X obj 137 137 r \$0-grain-start;
#X obj 137 167 r \$0-grain-start-r;
#X obj 267 137 r \$0-grain-length;
#X obj 267 167 r \$0-grain-length-r;
#X floatatom 131 353 10 0 0 0 - - -;
#X floatatom 204 336 10 0 0 0 - - -;
#X floatatom 293 331 10 0 0 0 - - -;
#X obj 407 137 r \$0-grain-speed;
#X obj 407 167 r \$0-grain-speed-r;
#X msg 23 48 1;
#X obj 23 131 bang;
#X obj 74 45 r \$0-new-random;
#X obj 137 19 bng 15 250 50 0 empty empty empty 17 7 0 10 -262144 -1
-1;
#X floatatom 100 102 5 0 0 0 - - -;
#X obj 189 44 r \$0-random-max;
#X obj 74 73 random 90;
#X obj 23 100 pipe 90;
#X obj 53 174 bng 15 250 50 0 empty empty empty 17 7 0 10 -262144 -1
-1;
#X obj 23 350 l4_gr_w;
#X connect 1 0 14 0;
#X connect 2 0 9 0;
#X connect 2 0 23 1;
#X connect 3 0 10 0;
#X connect 3 0 23 2;
#X connect 4 0 11 0;
#X connect 4 0 23 3;
#X connect 5 0 2 0;
#X connect 6 0 2 1;
#X connect 7 0 3 0;
#X connect 8 0 3 1;
#X connect 12 0 4 0;
#X connect 13 0 4 1;
#X connect 14 0 21 0;
#X connect 15 0 2 2;
#X connect 15 0 3 2;
#X connect 15 0 4 2;
#X connect 15 0 22 0;
#X connect 15 0 23 0;
#X connect 16 0 20 0;
#X connect 17 0 20 0;
#X connect 19 0 20 1;
#X connect 20 0 18 0;
#X connect 20 0 21 1;
#X connect 21 0 15 0;
#X connect 23 0 0 0;
#X restore 472 464 pd grain~;
#N canvas 256 362 774 464 grain~ 0;
#X obj 23 384 outlet~;
#X obj 23 17 r \$0-grain-bang;
#N canvas 288 188 492 428 grain-start 0;
#X obj 47 25 inlet constant;
#X obj 175 24 inlet deviation;
#X obj 47 146 *;
#X obj 62 118 r \$0-fsize;
#X obj 47 338 +;
#X obj 62 310 t b f;
#X obj 47 376 outlet;
#X obj 297 23 inlet bang;
#X obj 160 173 *;
#X obj 160 144 random;
#X obj 193 117 r \$0-fsize;
#X obj 177 238 t b f;
#X obj 160 270 -;
#X obj 175 60 clip 0 1;
#X obj 243 173 *;
#X obj 258 147 r \$0-fsize;
#X obj 243 196 * 0.5;
#X connect 0 0 2 0;
#X connect 1 0 13 0;
#X connect 2 0 4 0;
#X connect 3 0 2 1;
#X connect 4 0 6 0;
#X connect 5 0 4 0;
#X connect 5 1 4 1;
#X connect 7 0 9 0;
#X connect 8 0 12 0;
#X connect 9 0 8 0;
#X connect 10 0 9 1;
#X connect 11 0 12 0;
#X connect 11 1 12 1;
#X connect 12 0 5 0;
#X connect 13 0 8 1;
#X connect 13 0 14 0;
#X connect 14 0 16 0;
#X connect 15 0 14 1;
#X connect 16 0 11 0;
#X restore 51 227 pd grain-start;
#N canvas 350 335 502 444 grain-length 0;
#X obj 47 25 inlet constant;
#X obj 175 24 inlet deviation;
#X obj 47 338 +;
#X obj 62 310 t b f;
#X obj 47 376 outlet;
#X obj 297 23 inlet bang;
#X obj 175 84 random 1000;
#X obj 175 107 / 1000;
#X obj 175 133 - 0.5;
#X obj 175 159 *;
#X obj 160 205 *;
#X obj 47 65 * 44.1;
#X connect 0 0 11 0;
#X connect 1 0 9 1;
#X connect 2 0 4 0;
#X connect 3 0 2 0;
#X connect 3 1 2 1;
#X connect 5 0 6 0;
#X connect 5 0 10 0;
#X connect 6 0 7 0;
#X connect 7 0 8 0;
#X connect 8 0 9 0;
#X connect 9 0 10 1;
#X connect 10 0 3 0;
#X connect 11 0 10 0;
#X connect 11 0 2 0;
#X restore 177 223 pd grain-length;
#N canvas 350 335 502 444 grain-speed 0;
#X obj 47 25 inlet constant;
#X obj 175 24 inlet deviation;
#X obj 47 338 +;
#X obj 62 310 t b f;
#X obj 47 376 outlet;
#X obj 297 23 inlet bang;
#X obj 175 84 random 1000;
#X obj 175 107 / 1000;
#X obj 175 133 - 0.5;
#X obj 175 159 *;
#X obj 160 205 *;
#X connect 0 0 2 0;
#X connect 0 0 10 0;
#X connect 1 0 9 1;
#X connect 2 0 4 0;
#X connect 3 0 2 0;
#X connect 3 1 2 1;
#X connect 5 0 6 0;
#X connect 5 0 10 0;
#X connect 6 0 7 0;
#X connect 7 0 8 0;
#X connect 8 0 9 0;
#X connect 9 0 10 1;
#X connect 10 0 3 0;
#X restore 297 223 pd grain-speed;
#X obj 137 137 r \$0-grain-start;
#X obj 137 167 r \$0-grain-start-r;
#X obj 267 137 r \$0-grain-length;
#X obj 267 167 r \$0-grain-length-r;
#X floatatom 131 353 10 0 0 0 - - -;
#X floatatom 204 336 10 0 0 0 - - -;
#X floatatom 293 331 10 0 0 0 - - -;
#X obj 407 137 r \$0-grain-speed;
#X obj 407 167 r \$0-grain-speed-r;
#X msg 23 48 1;
#X obj 23 131 bang;
#X obj 74 45 r \$0-new-random;
#X obj 137 19 bng 15 250 50 0 empty empty empty 17 7 0 10 -262144 -1
-1;
#X floatatom 100 102 5 0 0 0 - - -;
#X obj 189 44 r \$0-random-max;
#X obj 74 73 random 90;
#X obj 23 100 pipe 90;
#X obj 53 174 bng 15 250 50 0 empty empty empty 17 7 0 10 -262144 -1
-1;
#X obj 23 350 l4_gr_w;
#X connect 1 0 14 0;
#X connect 2 0 9 0;
#X connect 2 0 23 1;
#X connect 3 0 10 0;
#X connect 3 0 23 2;
#X connect 4 0 11 0;
#X connect 4 0 23 3;
#X connect 5 0 2 0;
#X connect 6 0 2 1;
#X connect 7 0 3 0;
#X connect 8 0 3 1;
#X connect 12 0 4 0;
#X connect 13 0 4 1;
#X connect 14 0 21 0;
#X connect 15 0 2 2;
#X connect 15 0 3 2;
#X connect 15 0 4 2;
#X connect 15 0 22 0;
#X connect 15 0 23 0;
#X connect 16 0 20 0;
#X connect 17 0 20 0;
#X connect 19 0 20 1;
#X connect 20 0 18 0;
#X connect 20 0 21 1;
#X connect 21 0 15 0;
#X connect 23 0 0 0;
#X restore 562 434 pd grain~;
#N canvas 256 362 774 464 grain~ 0;
#X obj 23 384 outlet~;
#X obj 23 17 r \$0-grain-bang;
#N canvas 288 188 492 428 grain-start 0;
#X obj 47 25 inlet constant;
#X obj 175 24 inlet deviation;
#X obj 47 146 *;
#X obj 62 118 r \$0-fsize;
#X obj 47 338 +;
#X obj 62 310 t b f;
#X obj 47 376 outlet;
#X obj 297 23 inlet bang;
#X obj 160 173 *;
#X obj 160 144 random;
#X obj 193 117 r \$0-fsize;
#X obj 177 238 t b f;
#X obj 160 270 -;
#X obj 175 60 clip 0 1;
#X obj 243 173 *;
#X obj 258 147 r \$0-fsize;
#X obj 243 196 * 0.5;
#X connect 0 0 2 0;
#X connect 1 0 13 0;
#X connect 2 0 4 0;
#X connect 3 0 2 1;
#X connect 4 0 6 0;
#X connect 5 0 4 0;
#X connect 5 1 4 1;
#X connect 7 0 9 0;
#X connect 8 0 12 0;
#X connect 9 0 8 0;
#X connect 10 0 9 1;
#X connect 11 0 12 0;
#X connect 11 1 12 1;
#X connect 12 0 5 0;
#X connect 13 0 8 1;
#X connect 13 0 14 0;
#X connect 14 0 16 0;
#X connect 15 0 14 1;
#X connect 16 0 11 0;
#X restore 51 227 pd grain-start;
#N canvas 350 335 502 444 grain-length 0;
#X obj 47 25 inlet constant;
#X obj 175 24 inlet deviation;
#X obj 47 338 +;
#X obj 62 310 t b f;
#X obj 47 376 outlet;
#X obj 297 23 inlet bang;
#X obj 175 84 random 1000;
#X obj 175 107 / 1000;
#X obj 175 133 - 0.5;
#X obj 175 159 *;
#X obj 160 205 *;
#X obj 47 65 * 44.1;
#X connect 0 0 11 0;
#X connect 1 0 9 1;
#X connect 2 0 4 0;
#X connect 3 0 2 0;
#X connect 3 1 2 1;
#X connect 5 0 6 0;
#X connect 5 0 10 0;
#X connect 6 0 7 0;
#X connect 7 0 8 0;
#X connect 8 0 9 0;
#X connect 9 0 10 1;
#X connect 10 0 3 0;
#X connect 11 0 10 0;
#X connect 11 0 2 0;
#X restore 177 223 pd grain-length;
#N canvas 350 335 502 444 grain-speed 0;
#X obj 47 25 inlet constant;
#X obj 175 24 inlet deviation;
#X obj 47 338 +;
#X obj 62 310 t b f;
#X obj 47 376 outlet;
#X obj 297 23 inlet bang;
#X obj 175 84 random 1000;
#X obj 175 107 / 1000;
#X obj 175 133 - 0.5;
#X obj 175 159 *;
#X obj 160 205 *;
#X connect 0 0 2 0;
#X connect 0 0 10 0;
#X connect 1 0 9 1;
#X connect 2 0 4 0;
#X connect 3 0 2 0;
#X connect 3 1 2 1;
#X connect 5 0 6 0;
#X connect 5 0 10 0;
#X connect 6 0 7 0;
#X connect 7 0 8 0;
#X connect 8 0 9 0;
#X connect 9 0 10 1;
#X connect 10 0 3 0;
#X restore 297 223 pd grain-speed;
#X obj 137 137 r \$0-grain-start;
#X obj 137 167 r \$0-grain-start-r;
#X obj 267 137 r \$0-grain-length;
#X obj 267 167 r \$0-grain-length-r;
#X floatatom 131 353 10 0 0 0 - - -;
#X floatatom 204 336 10 0 0 0 - - -;
#X floatatom 293 331 10 0 0 0 - - -;
#X obj 407 137 r \$0-grain-speed;
#X obj 407 167 r \$0-grain-speed-r;
#X msg 23 48 1;
#X obj 23 131 bang;
#X obj 74 45 r \$0-new-random;
#X obj 137 19 bng 15 250 50 0 empty empty empty 17 7 0 10 -262144 -1
-1;
#X floatatom 100 102 5 0 0 0 - - -;
#X obj 189 44 r \$0-random-max;
#X obj 74 73 random 90;
#X obj 23 100 pipe 90;
#X obj 53 174 bng 15 250 50 0 empty empty empty 17 7 0 10 -262144 -1
-1;
#X obj 23 350 l4_gr_w;
#X connect 1 0 14 0;
#X connect 2 0 9 0;
#X connect 2 0 23 1;
#X connect 3 0 10 0;
#X connect 3 0 23 2;
#X connect 4 0 11 0;
#X connect 4 0 23 3;
#X connect 5 0 2 0;
#X connect 6 0 2 1;
#X connect 7 0 3 0;
#X connect 8 0 3 1;
#X connect 12 0 4 0;
#X connect 13 0 4 1;
#X connect 14 0 21 0;
#X connect 15 0 2 2;
#X connect 15 0 3 2;
#X connect 15 0 4 2;
#X connect 15 0 22 0;
#X connect 15 0 23 0;
#X connect 16 0 20 0;
#X connect 17 0 20 0;
#X connect 19 0 20 1;
#X connect 20 0 18 0;
#X connect 20 0 21 1;
#X connect 21 0 15 0;
#X connect 23 0 0 0;
#X restore 582 464 pd grain~;
#N canvas 256 362 774 464 grain~ 0;
#X obj 23 384 outlet~;
#X obj 23 17 r \$0-grain-bang;
#N canvas 288 188 492 428 grain-start 0;
#X obj 47 25 inlet constant;
#X obj 175 24 inlet deviation;
#X obj 47 146 *;
#X obj 62 118 r \$0-fsize;
#X obj 47 338 +;
#X obj 62 310 t b f;
#X obj 47 376 outlet;
#X obj 297 23 inlet bang;
#X obj 160 173 *;
#X obj 160 144 random;
#X obj 193 117 r \$0-fsize;
#X obj 177 238 t b f;
#X obj 160 270 -;
#X obj 175 60 clip 0 1;
#X obj 243 173 *;
#X obj 258 147 r \$0-fsize;
#X obj 243 196 * 0.5;
#X connect 0 0 2 0;
#X connect 1 0 13 0;
#X connect 2 0 4 0;
#X connect 3 0 2 1;
#X connect 4 0 6 0;
#X connect 5 0 4 0;
#X connect 5 1 4 1;
#X connect 7 0 9 0;
#X connect 8 0 12 0;
#X connect 9 0 8 0;
#X connect 10 0 9 1;
#X connect 11 0 12 0;
#X connect 11 1 12 1;
#X connect 12 0 5 0;
#X connect 13 0 8 1;
#X connect 13 0 14 0;
#X connect 14 0 16 0;
#X connect 15 0 14 1;
#X connect 16 0 11 0;
#X restore 51 227 pd grain-start;
#N canvas 350 335 502 444 grain-length 0;
#X obj 47 25 inlet constant;
#X obj 175 24 inlet deviation;
#X obj 47 338 +;
#X obj 62 310 t b f;
#X obj 47 376 outlet;
#X obj 297 23 inlet bang;
#X obj 175 84 random 1000;
#X obj 175 107 / 1000;
#X obj 175 133 - 0.5;
#X obj 175 159 *;
#X obj 160 205 *;
#X obj 47 65 * 44.1;
#X connect 0 0 11 0;
#X connect 1 0 9 1;
#X connect 2 0 4 0;
#X connect 3 0 2 0;
#X connect 3 1 2 1;
#X connect 5 0 6 0;
#X connect 5 0 10 0;
#X connect 6 0 7 0;
#X connect 7 0 8 0;
#X connect 8 0 9 0;
#X connect 9 0 10 1;
#X connect 10 0 3 0;
#X connect 11 0 10 0;
#X connect 11 0 2 0;
#X restore 177 223 pd grain-length;
#N canvas 350 335 502 444 grain-speed 0;
#X obj 47 25 inlet constant;
#X obj 175 24 inlet deviation;
#X obj 47 338 +;
#X obj 62 310 t b f;
#X obj 47 376 outlet;
#X obj 297 23 inlet bang;
#X obj 175 84 random 1000;
#X obj 175 107 / 1000;
#X obj 175 133 - 0.5;
#X obj 175 159 *;
#X obj 160 205 *;
#X connect 0 0 2 0;
#X connect 0 0 10 0;
#X connect 1 0 9 1;
#X connect 2 0 4 0;
#X connect 3 0 2 0;
#X connect 3 1 2 1;
#X connect 5 0 6 0;
#X connect 5 0 10 0;
#X connect 6 0 7 0;
#X connect 7 0 8 0;
#X connect 8 0 9 0;
#X connect 9 0 10 1;
#X connect 10 0 3 0;
#X restore 297 223 pd grain-speed;
#X obj 137 137 r \$0-grain-start;
#X obj 137 167 r \$0-grain-start-r;
#X obj 267 137 r \$0-grain-length;
#X obj 267 167 r \$0-grain-length-r;
#X floatatom 131 353 10 0 0 0 - - -;
#X floatatom 204 336 10 0 0 0 - - -;
#X floatatom 293 331 10 0 0 0 - - -;
#X obj 407 137 r \$0-grain-speed;
#X obj 407 167 r \$0-grain-speed-r;
#X msg 23 48 1;
#X obj 23 131 bang;
#X obj 74 45 r \$0-new-random;
#X obj 137 19 bng 15 250 50 0 empty empty empty 17 7 0 10 -262144 -1
-1;
#X floatatom 100 102 5 0 0 0 - - -;
#X obj 189 44 r \$0-random-max;
#X obj 74 73 random 90;
#X obj 23 100 pipe 90;
#X obj 53 174 bng 15 250 50 0 empty empty empty 17 7 0 10 -262144 -1
-1;
#X obj 23 350 l4_gr_w;
#X connect 1 0 14 0;
#X connect 2 0 9 0;
#X connect 2 0 23 1;
#X connect 3 0 10 0;
#X connect 3 0 23 2;
#X connect 4 0 11 0;
#X connect 4 0 23 3;
#X connect 5 0 2 0;
#X connect 6 0 2 1;
#X connect 7 0 3 0;
#X connect 8 0 3 1;
#X connect 12 0 4 0;
#X connect 13 0 4 1;
#X connect 14 0 21 0;
#X connect 15 0 2 2;
#X connect 15 0 3 2;
#X connect 15 0 4 2;
#X connect 15 0 22 0;
#X connect 15 0 23 0;
#X connect 16 0 20 0;
#X connect 17 0 20 0;
#X connect 19 0 20 1;
#X connect 20 0 18 0;
#X connect 20 0 21 1;
#X connect 21 0 15 0;
#X connect 23 0 0 0;
#X restore 652 434 pd grain~;
#N canvas 256 362 774 464 grain~ 0;
#X obj 23 384 outlet~;
#X obj 23 17 r \$0-grain-bang;
#N canvas 288 188 492 428 grain-start 0;
#X obj 47 25 inlet constant;
#X obj 175 24 inlet deviation;
#X obj 47 146 *;
#X obj 62 118 r \$0-fsize;
#X obj 47 338 +;
#X obj 62 310 t b f;
#X obj 47 376 outlet;
#X obj 297 23 inlet bang;
#X obj 160 173 *;
#X obj 160 144 random;
#X obj 193 117 r \$0-fsize;
#X obj 177 238 t b f;
#X obj 160 270 -;
#X obj 175 60 clip 0 1;
#X obj 243 173 *;
#X obj 258 147 r \$0-fsize;
#X obj 243 196 * 0.5;
#X connect 0 0 2 0;
#X connect 1 0 13 0;
#X connect 2 0 4 0;
#X connect 3 0 2 1;
#X connect 4 0 6 0;
#X connect 5 0 4 0;
#X connect 5 1 4 1;
#X connect 7 0 9 0;
#X connect 8 0 12 0;
#X connect 9 0 8 0;
#X connect 10 0 9 1;
#X connect 11 0 12 0;
#X connect 11 1 12 1;
#X connect 12 0 5 0;
#X connect 13 0 8 1;
#X connect 13 0 14 0;
#X connect 14 0 16 0;
#X connect 15 0 14 1;
#X connect 16 0 11 0;
#X restore 51 227 pd grain-start;
#N canvas 350 335 502 444 grain-length 0;
#X obj 47 25 inlet constant;
#X obj 175 24 inlet deviation;
#X obj 47 338 +;
#X obj 62 310 t b f;
#X obj 47 376 outlet;
#X obj 297 23 inlet bang;
#X obj 175 84 random 1000;
#X obj 175 107 / 1000;
#X obj 175 133 - 0.5;
#X obj 175 159 *;
#X obj 160 205 *;
#X obj 47 65 * 44.1;
#X connect 0 0 11 0;
#X connect 1 0 9 1;
#X connect 2 0 4 0;
#X connect 3 0 2 0;
#X connect 3 1 2 1;
#X connect 5 0 6 0;
#X connect 5 0 10 0;
#X connect 6 0 7 0;
#X connect 7 0 8 0;
#X connect 8 0 9 0;
#X connect 9 0 10 1;
#X connect 10 0 3 0;
#X connect 11 0 10 0;
#X connect 11 0 2 0;
#X restore 177 223 pd grain-length;
#N canvas 350 335 502 444 grain-speed 0;
#X obj 47 25 inlet constant;
#X obj 175 24 inlet deviation;
#X obj 47 338 +;
#X obj 62 310 t b f;
#X obj 47 376 outlet;
#X obj 297 23 inlet bang;
#X obj 175 84 random 1000;
#X obj 175 107 / 1000;
#X obj 175 133 - 0.5;
#X obj 175 159 *;
#X obj 160 205 *;
#X connect 0 0 2 0;
#X connect 0 0 10 0;
#X connect 1 0 9 1;
#X connect 2 0 4 0;
#X connect 3 0 2 0;
#X connect 3 1 2 1;
#X connect 5 0 6 0;
#X connect 5 0 10 0;
#X connect 6 0 7 0;
#X connect 7 0 8 0;
#X connect 8 0 9 0;
#X connect 9 0 10 1;
#X connect 10 0 3 0;
#X restore 297 223 pd grain-speed;
#X obj 137 137 r \$0-grain-start;
#X obj 137 167 r \$0-grain-start-r;
#X obj 267 137 r \$0-grain-length;
#X obj 267 167 r \$0-grain-length-r;
#X floatatom 131 353 10 0 0 0 - - -;
#X floatatom 204 336 10 0 0 0 - - -;
#X floatatom 293 331 10 0 0 0 - - -;
#X obj 407 137 r \$0-grain-speed;
#X obj 407 167 r \$0-grain-speed-r;
#X msg 23 48 1;
#X obj 23 131 bang;
#X obj 74 45 r \$0-new-random;
#X obj 137 19 bng 15 250 50 0 empty empty empty 17 7 0 10 -262144 -1
-1;
#X floatatom 100 102 5 0 0 0 - - -;
#X obj 189 44 r \$0-random-max;
#X obj 74 73 random 90;
#X obj 23 100 pipe 90;
#X obj 53 174 bng 15 250 50 0 empty empty empty 17 7 0 10 -262144 -1
-1;
#X obj 23 350 l4_gr_w;
#X connect 1 0 14 0;
#X connect 2 0 9 0;
#X connect 2 0 23 1;
#X connect 3 0 10 0;
#X connect 3 0 23 2;
#X connect 4 0 11 0;
#X connect 4 0 23 3;
#X connect 5 0 2 0;
#X connect 6 0 2 1;
#X connect 7 0 3 0;
#X connect 8 0 3 1;
#X connect 12 0 4 0;
#X connect 13 0 4 1;
#X connect 14 0 21 0;
#X connect 15 0 2 2;
#X connect 15 0 3 2;
#X connect 15 0 4 2;
#X connect 15 0 22 0;
#X connect 15 0 23 0;
#X connect 16 0 20 0;
#X connect 17 0 20 0;
#X connect 19 0 20 1;
#X connect 20 0 18 0;
#X connect 20 0 21 1;
#X connect 21 0 15 0;
#X connect 23 0 0 0;
#X restore 672 464 pd grain~;
#X connect 1 0 2 0;
#X connect 2 0 3 0;
#X connect 3 0 4 0;
#X connect 4 0 5 0;
#X connect 5 0 7 0;
#X connect 6 0 13 0;
#X connect 8 0 5 0;
#X connect 9 0 23 0;
#X connect 10 0 11 0;
#X connect 12 0 14 0;
#X connect 13 0 27 0;
#X connect 13 0 25 0;
#X connect 15 0 16 0;
#X connect 17 0 18 0;
#X connect 19 0 20 0;
#X connect 24 0 21 0;
#X connect 26 0 13 1;
#X connect 28 0 29 0;
#X connect 30 0 21 0;
#X connect 31 0 21 0;
#X connect 32 0 21 0;
#X connect 33 0 21 1;
#X connect 34 0 21 1;
#X connect 35 0 21 1;
#X connect 36 0 21 1;
