#N canvas 1022 235 399 491 12;
#X obj 62 114 osc~ 440;
#X obj 195 153 line~;
#X msg 195 128 0 \, 1 5000;
#X obj 62 207 *~;
#X obj 63 259 dac~;
#X obj 149 239 env~ 128;
#X obj 149 266 - 100;
#X obj 150 298 vu 15 120 empty empty -1 -8 0 8 -66577 -1 1 0;
#X text 54 21 3.9.1.1. vu;
#X text 203 433 www.pd-tutorial.com;
#X text 228 406 Johannes Kreidler;
#X connect 0 0 3 0;
#X connect 1 0 3 1;
#X connect 2 0 1 0;
#X connect 3 0 4 0;
#X connect 3 0 4 1;
#X connect 3 0 5 0;
#X connect 5 0 6 0;
#X connect 6 0 7 0;
