#N canvas 1022 235 656 626 12;
#X obj 27 81 inlet~;
#X floatatom 78 288 5 0 0 0 - - -;
#X msg 219 120 10;
#X floatatom 361 112 5 0 0 0 - - -;
#X obj 78 250 expr (($f1 - $f3) / $f2) - $f1 + $f3;
#X floatatom 219 154 5 0 0 0 - - -;
#X obj 219 95 loadbang;
#X obj 43 151 env~ 1024;
#X floatatom 78 226 5 0 0 0 - - -;
#X obj 78 373 dbtorms;
#X floatatom 78 407 12 0 0 0 - - -;
#X floatatom 78 349 5 0 0 0 - - -;
#X obj 78 322 expr 100 + $f1;
#X obj 27 545 outlet~;
#X obj 27 518 *~;
#X obj 43 202 moses;
#X floatatom 43 177 5 0 0 0 - - -;
#X msg 43 374 1;
#X obj 43 227 bng 15 250 50 0 empty empty empty 0 -6 0 8 -262144 -1
-1;
#X text 27 16 3.9.1.1. Limiter 2;
#X text 25 45 signal to be limited;
#X text 364 86 threshold / reference;
#X text 266 144 limit factor;
#X text 125 287 value by which the signal must be reduced;
#X text 204 357 conversion;
#X text 184 401 correction factor ofthe input signal's rms value;
#X text 329 524 www.pd-tutorial.com;
#X text 339 499 Johannes Kreidler;
#X connect 0 0 7 0;
#X connect 0 0 14 0;
#X connect 1 0 12 0;
#X connect 2 0 5 0;
#X connect 3 0 4 2;
#X connect 3 0 15 1;
#X connect 4 0 1 0;
#X connect 5 0 4 1;
#X connect 6 0 2 0;
#X connect 7 0 16 0;
#X connect 8 0 4 0;
#X connect 9 0 10 0;
#X connect 10 0 14 1;
#X connect 11 0 9 0;
#X connect 12 0 11 0;
#X connect 14 0 13 0;
#X connect 15 0 18 0;
#X connect 15 1 8 0;
#X connect 16 0 15 0;
#X connect 17 0 14 1;
#X connect 18 0 17 0;
