#N canvas 432 468 899 456 12;
#X obj 92 314 *~;
#X obj 91 180 *~ 0.2;
#X obj 91 152 noise~;
#X obj 91 363 dac~ 1 2 3 4;
#X obj 273 50 metro;
#X floatatom 308 23 5 0 0 0 - - -;
#X obj 273 23 tgl 15 0 empty empty empty 0 -6 0 8 -262144 -1 -1 0 1
;
#X obj 312 92 del;
#X obj 158 214 line~;
#X obj 158 238 abs~;
#X obj 157 266 *~ -1;
#X obj 156 290 +~ 1;
#X obj 215 315 *~;
#X obj 281 215 line~;
#X obj 281 239 abs~;
#X obj 280 267 *~ -1;
#X obj 279 291 +~ 1;
#X obj 324 316 *~;
#X obj 390 216 line~;
#X obj 390 240 abs~;
#X obj 389 268 *~ -1;
#X obj 388 292 +~ 1;
#X obj 426 316 *~;
#X obj 492 216 line~;
#X obj 492 240 abs~;
#X obj 491 268 *~ -1;
#X obj 490 292 +~ 1;
#X obj 331 62 / 4;
#X obj 386 118 del;
#X obj 405 88 / 4;
#X obj 489 144 del;
#X obj 508 114 / 4;
#X msg 158 191 -1 \, 1 \$1;
#X obj 158 165 f;
#X obj 281 166 f;
#X obj 390 167 f;
#X obj 492 169 f;
#X obj 448 51 / 2;
#X msg 281 192 -1 \, 1 \$1;
#X msg 390 193 -1 \, 1 \$1;
#X msg 492 193 -1 \, 1 \$1;
#X text 22 3 3.9.3.1. Spatial Quadro;
#X text 363 18 speed;
#X text 550 230 creates back and forth movement;
#X text 551 252 between 0 and 1;
#X text 615 383 www.pd-tutorial.com;
#X text 627 356 Johannes Kreidler;
#X connect 0 0 3 0;
#X connect 1 0 0 0;
#X connect 1 0 12 0;
#X connect 1 0 17 0;
#X connect 1 0 22 0;
#X connect 2 0 1 0;
#X connect 4 0 7 0;
#X connect 4 0 33 0;
#X connect 5 0 4 1;
#X connect 5 0 27 0;
#X connect 5 0 29 0;
#X connect 5 0 31 0;
#X connect 5 0 37 0;
#X connect 6 0 4 0;
#X connect 7 0 28 0;
#X connect 7 0 34 0;
#X connect 7 0 35 0;
#X connect 7 0 36 0;
#X connect 8 0 9 0;
#X connect 9 0 10 0;
#X connect 10 0 11 0;
#X connect 11 0 0 1;
#X connect 12 0 3 1;
#X connect 13 0 14 0;
#X connect 14 0 15 0;
#X connect 15 0 16 0;
#X connect 16 0 12 1;
#X connect 17 0 3 2;
#X connect 18 0 19 0;
#X connect 19 0 20 0;
#X connect 20 0 21 0;
#X connect 21 0 17 1;
#X connect 22 0 3 3;
#X connect 23 0 24 0;
#X connect 24 0 25 0;
#X connect 25 0 26 0;
#X connect 26 0 22 1;
#X connect 27 0 7 1;
#X connect 28 0 30 0;
#X connect 29 0 28 1;
#X connect 31 0 30 1;
#X connect 32 0 8 0;
#X connect 33 0 32 0;
#X connect 34 0 38 0;
#X connect 35 0 39 0;
#X connect 36 0 40 0;
#X connect 37 0 36 1;
#X connect 37 0 35 1;
#X connect 37 0 34 1;
#X connect 37 0 33 1;
#X connect 38 0 13 0;
#X connect 39 0 18 0;
#X connect 40 0 23 0;
