#N canvas 133 150 837 623 10;
#X obj 140 150 grid grid1 200 0 199 200 0 199 0 1 1 10 10 236 250;
#X text 177 51 grid;
#X floatatom 140 379 5 0 0 0 - - -;
#X floatatom 333 380 5 0 0 0 - - -;
#X obj 140 466 phasor~;
#X obj 140 428 maxlib/scale 0 200 200 3000;
#X obj 330 466 phasor~;
#X obj 330 428 maxlib/scale 0 200 200 3000;
#X obj 233 544 *~;
#X connect 0 0 2 0;
#X connect 0 1 3 0;
#X connect 2 0 5 0;
#X connect 3 0 7 0;
#X connect 4 0 8 0;
#X connect 5 0 4 0;
#X connect 7 0 6 0;
