#N canvas 0 0 500 500 ;
#X obj 288 365 osc~ 44;
#X obj 64 125 osc~ 308;
#X obj 128 125 osc~ 264;
#X obj 96 160 +~;
#X obj 96 194 *~ 0.5;
#X obj 160 194 osc~ 8.2;
#X obj 128 228 *~;
#X obj 96 262 *~;
#X obj 64 228 sig~ 1;
#X obj 256 228 osc~ 10;
#X obj 320 228 osc~ 3.1;
#X obj 288 262 *~;
#X obj 192 296 *~;
#X obj 416 262 phasor~ 572;
#X obj 480 262 osc~ 7.8;
#X obj 448 296 *~;
#X obj 320 330 *~;
#X obj 384 330 osc~ 3;
#X obj 352 365 *~;
#X obj 320 399 +~;
#X obj 320 433 *~ 0.5;
#X obj 544 365 osc~ 9.2;
#X obj 512 399 *~;
#X obj 480 365 sig~ 1;
#X obj 576 399 osc~ 1.5;
#X obj 544 433 *~;
#X obj 432 467 *~;
#X obj 432 501 dac~;
#X connect 1 0 3 0;
#X connect 2 0 3 1;
#X connect 3 0 4 0;
#X connect 4 0 6 0;
#X connect 5 0 6 1;
#X connect 8 0 7 0;
#X connect 6 0 7 1;
#X connect 9 0 11 0;
#X connect 10 0 11 1;
#X connect 7 0 12 0;
#X connect 11 0 12 1;
#X connect 13 0 15 0;
#X connect 14 0 15 1;
#X connect 12 0 16 0;
#X connect 15 0 16 1;
#X connect 16 0 18 0;
#X connect 17 0 18 1;
#X connect 0 0 19 0;
#X connect 18 0 19 1;
#X connect 19 0 20 0;
#X connect 23 0 22 0;
#X connect 21 0 22 1;
#X connect 22 0 25 0;
#X connect 24 0 25 1;
#X connect 20 0 26 0;
#X connect 25 0 26 1;
#X connect 26 0 27 0;
#X connect 26 0 27 1;
