#N canvas 228 23 807 604 12;
#X obj 117 305 equal_power_pan~;
#X msg 254 44 symbol a;
#X msg 343 44 list a b c;
#X msg 113 44 bang;
#X msg 172 43 float 1;
#X msg 450 44 string12312;
#X msg 173 79 1;
#X msg 343 81 1 2 3 4;
#X msg 451 81 a b c;
#X floatatom 170 152 5 0 0 0 - - -, f 5;
#X floatatom 170 241 5 0 0 0 - - -, f 5;
#X obj 261 191 +;
#X floatatom 261 216 5 0 0 0 - - -, f 5;
#X msg 285 155 2;
#X floatatom 231 132 5 0 0 0 - - -, f 5;
#X obj 170 216 *;
#X obj 170 184 t f f;
#X floatatom 38 93 5 0 0 0 - - -, f 5;
#X obj 38 113 t b f;
#X obj 74 137 mtof;
#X obj 74 158 osc~;
#X obj 74 178 dac~;
#X obj 38 142 bng 15 250 50 0 empty empty empty 17 7 0 10 -262144 -1
-1;
#X connect 9 0 16 0;
#X connect 11 0 12 0;
#X connect 13 0 11 1;
#X connect 14 0 11 0;
#X connect 15 0 10 0;
#X connect 16 0 15 0;
#X connect 16 1 15 1;
#X connect 17 0 18 0;
#X connect 18 0 22 0;
#X connect 18 1 19 0;
#X connect 19 0 20 0;
#X connect 20 0 21 0;
