#N canvas 149 26 929 555 12;
#X obj 155 19 inlet freq;
#X obj 308 20 inlet amp;
#X obj 187 129 osc~;
#X obj 308 92 line~;
#X obj 187 169 *~;
#X msg 308 56 \$1 20;
#X obj 187 224 outlet~;
#X connect 0 0 2 0;
#X connect 1 0 5 0;
#X connect 2 0 4 0;
#X connect 3 0 4 1;
#X connect 4 0 6 0;
#X connect 5 0 3 0;
