#N canvas 147 63 967 561 12;
#X obj 63 21 inlet freq;
#X obj 63 113 osc~;
#X obj 113 88 * 2;
#X obj 113 113 osc~;
#X obj 163 113 osc~;
#X obj 213 113 osc~;
#X obj 263 113 osc~;
#X obj 313 113 osc~;
#X obj 363 113 osc~;
#X obj 413 113 osc~;
#X obj 63 174 *~ 0.1;
#X obj 63 229 outlet~;
#X obj 63 88 * 1;
#X obj 163 88 * 3;
#X obj 213 88 * 4;
#X obj 263 88 * 5;
#X obj 313 88 * 6;
#X obj 363 88 * 7;
#X obj 413 88 * 8;
#X connect 0 0 12 0;
#X connect 0 0 2 0;
#X connect 0 0 13 0;
#X connect 0 0 14 0;
#X connect 0 0 15 0;
#X connect 0 0 16 0;
#X connect 0 0 17 0;
#X connect 0 0 18 0;
#X connect 1 0 10 0;
#X connect 2 0 3 0;
#X connect 3 0 10 0;
#X connect 4 0 10 0;
#X connect 5 0 10 0;
#X connect 6 0 10 0;
#X connect 7 0 10 0;
#X connect 8 0 10 0;
#X connect 9 0 10 0;
#X connect 10 0 11 0;
#X connect 12 0 1 0;
#X connect 13 0 4 0;
#X connect 14 0 5 0;
#X connect 15 0 6 0;
#X connect 16 0 7 0;
#X connect 17 0 8 0;
#X connect 18 0 9 0;
