#N canvas 445 76 700 500 12;
#X obj 181 197 dac~;
#X obj 181 165 *~;
#X obj 272 97 line~;
#X msg 272 72 \$1 20;
#X obj 209 165 *~;
#X obj 113 58 tgl 30 0 empty empty empty 17 7 0 10 -260097 -1 -1 0
1;
#X obj 55 95 hsl 90 10 40 106 0 0 empty empty vol: -2 -8 0 10 -262144
-1 -1 8900 1;
#X obj 154 17 inlet~;
#X obj 224 17 inlet~;
#X obj 69 76 nbx 3 11 -100 100 0 0 empty empty empty 0 -8 0 10 -262144
-1 -1 6 256;
#X obj 53 124 - 100;
#X obj 181 127 *~;
#X obj 209 127 *~;
#X obj 202 90 line~;
#X msg 202 59 \$1 20;
#X obj 272 50 dbtorms;
#X connect 1 0 0 0;
#X connect 2 0 1 1;
#X connect 2 0 4 1;
#X connect 3 0 2 0;
#X connect 4 0 0 1;
#X connect 5 0 14 0;
#X connect 6 0 10 0;
#X connect 6 0 15 0;
#X connect 7 0 11 0;
#X connect 8 0 12 0;
#X connect 10 0 9 0;
#X connect 11 0 1 0;
#X connect 12 0 4 0;
#X connect 13 0 11 1;
#X connect 13 0 12 1;
#X connect 14 0 13 0;
#X connect 15 0 3 0;
#X coords 0 -1 1 1 100 60 1 50 50;
