#N canvas 151 98 964 849 10;
#N canvas 0 22 450 278 (subpatch) 0;
#X array array1 84672 float 2;
#X coords 0 1 84672 -1 200 140 1;
#X restore 41 26 graph;
#X obj 726 60 bng 15 250 50 0 empty empty empty 17 7 0 10 -262144 -1
-1;
#X obj 726 82 openpanel;
#X msg 726 107 read -resize \$1 array1;
#X obj 726 132 soundfiler;
#X floatatom 726 158 10 0 0 0 - - -;
#X obj 62 780 output~;
#X obj 411 141 tgl 15 0 empty empty empty 17 7 0 10 -262144 -1 -1 1
1;
#X obj 726 181 s \$0-fsize;
#X obj 570 63 test_args;
#X obj 570 96 test_args 100;
#X obj 571 131 test_args 1 2 3;
#N canvas 288 188 492 428 . 0;
#X obj 47 25 inlet constant;
#X obj 175 24 inlet deviation;
#X obj 47 146 *;
#X obj 62 118 r \$0-fsize;
#X obj 47 338 +;
#X obj 62 310 t b f;
#X obj 47 376 outlet;
#X obj 297 23 inlet bang;
#X obj 160 173 *;
#X obj 160 144 random;
#X obj 193 117 r \$0-fsize;
#X obj 160 207 / 2;
#X obj 160 270 -;
#X obj 177 238 t b f;
#X connect 0 0 2 0;
#X connect 1 0 8 1;
#X connect 2 0 4 0;
#X connect 3 0 2 1;
#X connect 4 0 6 0;
#X connect 5 0 4 0;
#X connect 5 1 4 1;
#X connect 7 0 9 0;
#X connect 8 0 11 0;
#X connect 8 0 13 0;
#X connect 9 0 8 0;
#X connect 10 0 9 1;
#X connect 11 0 12 0;
#X connect 12 0 5 0;
#X connect 13 0 12 0;
#X connect 13 1 12 1;
#X restore 30 477 pd . . .;
#X obj 807 133 bng 15 250 50 0 empty empty empty 17 7 0 10 -262144
-1 -1;
#X obj 44 184 hsl 200 15 0 1 0 0 empty empty start -2 -8 0 10 -262144
-1 -1 7800 1;
#X obj 44 224 hsl 200 15 0 1 0 0 empty empty start_randomness -2 -8
0 10 -262144 -1 -1 4600 1;
#N canvas 350 335 502 444 . 0;
#X obj 47 25 inlet constant;
#X obj 175 24 inlet deviation;
#X obj 47 338 +;
#X obj 62 310 t b f;
#X obj 47 376 outlet;
#X obj 297 23 inlet bang;
#X obj 175 84 random 1000;
#X obj 175 107 / 1000;
#X obj 175 133 - 0.5;
#X obj 175 159 *;
#X obj 160 205 *;
#X obj 47 65 * 44.1;
#X connect 0 0 11 0;
#X connect 1 0 9 1;
#X connect 2 0 4 0;
#X connect 3 0 2 0;
#X connect 3 1 2 1;
#X connect 5 0 6 0;
#X connect 5 0 10 0;
#X connect 6 0 7 0;
#X connect 7 0 8 0;
#X connect 8 0 9 0;
#X connect 9 0 10 1;
#X connect 10 0 3 0;
#X connect 11 0 10 0;
#X connect 11 0 2 0;
#X restore 216 473 pd . . .;
#X floatatom 257 223 5 0 0 0 - - -;
#X obj 44 264 hsl 200 15 10 1000 0 0 empty empty length_(ms) -2 -8
0 10 -262144 -1 -1 6700 1;
#X obj 411 191 s \$0-grain-bang;
#X obj 411 164 metro 100;
#X obj 378 194 bng 15 250 50 0 empty empty empty 17 7 0 10 -262144
-1 -1;
#X obj 81 437 r \$0-grain-bang;
#X floatatom 258 263 5 0 0 0 - - -;
#X obj 62 641 r \$0-grain-bang;
#X obj 261 437 r \$0-grain-bang;
#X obj 30 504 s \$0-grain-start;
#X obj 216 499 s \$0-grain-length;
#X obj 75 665 r \$0-grain-start;
#X obj 88 689 r \$0-grain-length;
#X obj 101 713 r \$0-grain-speed;
#X obj 44 304 hsl 200 15 0 1 0 0 empty empty length_randomness -2 -8
0 10 -262144 -1 -1 12200 1;
#X floatatom 259 303 5 0 0 0 - - -;
#X obj 62 740 l2_gr_w;
#N canvas 350 335 502 444 . 0;
#X obj 47 25 inlet constant;
#X obj 175 24 inlet deviation;
#X obj 47 338 +;
#X obj 62 310 t b f;
#X obj 47 376 outlet;
#X obj 297 23 inlet bang;
#X obj 175 84 random 1000;
#X obj 175 107 / 1000;
#X obj 175 133 - 0.5;
#X obj 175 159 *;
#X obj 160 205 *;
#X connect 0 0 2 0;
#X connect 0 0 10 0;
#X connect 1 0 9 1;
#X connect 2 0 4 0;
#X connect 3 0 2 0;
#X connect 3 1 2 1;
#X connect 5 0 6 0;
#X connect 5 0 10 0;
#X connect 6 0 7 0;
#X connect 7 0 8 0;
#X connect 8 0 9 0;
#X connect 9 0 10 1;
#X connect 10 0 3 0;
#X restore 426 473 pd . . .;
#X obj 471 437 r \$0-grain-bang;
#X obj 44 344 hsl 200 15 0.1 10 0 0 empty empty speed -2 -8 0 10 -262144
-1 -1 3100 1;
#X floatatom 259 343 5 0 0 0 - - -;
#X obj 426 497 s \$0-grain-speed;
#X obj 44 384 hsl 200 15 0 1 0 0 empty empty speed_randomness -2 -8
0 10 -262144 -1 -1 0 1;
#X floatatom 259 383 5 0 0 0 - - -;
#X connect 1 0 2 0;
#X connect 2 0 3 0;
#X connect 3 0 4 0;
#X connect 4 0 5 0;
#X connect 5 0 8 0;
#X connect 7 0 20 0;
#X connect 12 0 26 0;
#X connect 13 0 5 0;
#X connect 14 0 12 0;
#X connect 15 0 12 1;
#X connect 15 0 17 0;
#X connect 16 0 27 0;
#X connect 18 0 23 0;
#X connect 18 0 16 0;
#X connect 20 0 19 0;
#X connect 20 0 21 0;
#X connect 22 0 12 2;
#X connect 24 0 33 0;
#X connect 25 0 16 2;
#X connect 28 0 33 1;
#X connect 29 0 33 2;
#X connect 30 0 33 3;
#X connect 31 0 32 0;
#X connect 31 0 16 1;
#X connect 33 0 6 0;
#X connect 33 0 6 1;
#X connect 34 0 38 0;
#X connect 35 0 34 2;
#X connect 36 0 37 0;
#X connect 36 0 34 0;
#X connect 39 0 40 0;
#X connect 39 0 34 1;
