#N canvas 397 147 450 300 10;
#X obj 40 21 inlet~;
#X obj 129 21 inlet~;
#X obj 40 246 outlet~;
#X obj 129 201 *~;
#X obj 215 20 inlet control;
#X obj 215 51 clip 0 1;
#X obj 215 83 swap 1;
#X obj 215 108 -;
#X obj 215 133 sig~;
#X obj 215 159 lop~ 5;
#X obj 144 133 sig~;
#X obj 144 159 lop~ 5;
#X obj 40 201 *~;
#X obj 316 20 loadbang;
#X msg 316 56 0;
#X connect 0 0 12 0;
#X connect 1 0 3 0;
#X connect 3 0 2 0;
#X connect 4 0 5 0;
#X connect 5 0 6 0;
#X connect 5 0 10 0;
#X connect 6 0 7 0;
#X connect 6 1 7 1;
#X connect 7 0 8 0;
#X connect 8 0 9 0;
#X connect 9 0 12 1;
#X connect 10 0 11 0;
#X connect 11 0 3 1;
#X connect 12 0 2 0;
#X connect 13 0 14 0;
#X connect 14 0 5 0;
