#N canvas 169 182 535 355 10;
#X obj 59 194 random;
#X obj 136 29 inlet first;
#X obj 234 28 inlet second;
#X obj 136 64 f \$1;
#X obj 234 62 f \$2;
#X obj 27 31 inlet bang;
#X obj 59 227 +;
#X obj 143 142 -;
#X obj 143 118 swap;
#X obj 234 85 t b f;
#X obj 59 260 outlet;
#X obj 338 28 loadbang;
#X connect 0 0 6 0;
#X connect 1 0 3 0;
#X connect 2 0 4 0;
#X connect 3 0 6 1;
#X connect 3 0 8 0;
#X connect 4 0 9 0;
#X connect 5 0 0 0;
#X connect 6 0 10 0;
#X connect 7 0 0 1;
#X connect 8 0 7 0;
#X connect 8 1 7 1;
#X connect 9 0 8 0;
#X connect 9 1 8 1;
#X connect 11 0 3 0;
#X connect 11 0 4 0;
