#N canvas 109 101 830 481 10;
#X obj 167 309 dac~;
#X obj 167 208 osc~ 440;
#X msg 151 140 880;
#X msg 191 140 660;
#X msg 231 140 440;
#X floatatom 99 77 10 200 500 0 freq - -;
#X obj 170 28 hsl 128 15 200 2000 0 0 empty empty empty -2 -8 0 10
-4034 -1 -1 4600 1;
#X floatatom 180 74 5 0 0 0 - - -;
#X connect 1 0 0 0;
#X connect 1 0 0 1;
#X connect 2 0 1 0;
#X connect 3 0 1 0;
#X connect 4 0 1 0;
#X connect 5 0 1 0;
#X connect 6 0 7 0;
#X connect 6 0 1 0;
