#N canvas 709 100 1097 833 12;
#X obj 296 653 outlet~;
#X obj 359 652 outlet~;
#X obj 315 317 line~;
#X obj 315 231 pack f f;
#X obj 240 398 +~ 0.5;
#X obj 240 423 cos~;
#X obj 240 448 *~ 0.5;
#X obj 240 473 +~ 0.5;
#X obj 331 394 samphold~;
#X obj 400 278 * 44.1;
#X obj 400 303 sig~;
#X obj 400 328 +~;
#X obj 478 229 noise~;
#X obj 478 254 abs~;
#X obj 477 295 *~ 44.1;
#X obj 529 258 * 44.1;
#X obj 315 165 * 44.1;
#X obj 315 78 inlet;
#X msg 315 284 0 \, \$1 \$2;
#X obj 314 428 +~;
#X obj 296 568 *~;
#X obj 239 310 line~;
#X obj 239 185 t b;
#X obj 239 246 f;
#X msg 239 285 0 \, 1 \$1;
#X obj 314 482 tabread4~ \$1;
#X obj 481 122 random;
#X obj 488 63 t b f;
#X obj 520 90 * 2;
#X obj 481 147 -;
#X obj 481 172 * 0.01;
#X obj 352 195 +;
#X obj 315 117 unpack f f f f f f f;
#X obj 624 259 t b f;
#X obj 624 316 random;
#X obj 663 287 * 2;
#X obj 624 341 -;
#X obj 624 366 * 0.01;
#X obj 295 605 *~;
#X obj 358 605 *~;
#X obj 514 516 +~;
#X obj 514 423 line~;
#X obj 514 391 pack f 20;
#X obj 514 448 *~ -1;
#X obj 514 473 +~ 1;
#X obj 559 516 +~;
#X obj 624 429 line~;
#X obj 624 397 pack f 20;
#X obj 623 472 *~ -1;
#X connect 2 0 8 1;
#X connect 2 0 19 0;
#X connect 3 0 18 0;
#X connect 4 0 5 0;
#X connect 5 0 6 0;
#X connect 6 0 7 0;
#X connect 7 0 20 0;
#X connect 8 0 19 1;
#X connect 9 0 10 0;
#X connect 10 0 11 0;
#X connect 11 0 8 0;
#X connect 12 0 13 0;
#X connect 13 0 14 0;
#X connect 14 0 11 1;
#X connect 15 0 14 1;
#X connect 16 0 3 0;
#X connect 17 0 32 0;
#X connect 18 0 2 0;
#X connect 19 0 25 0;
#X connect 20 0 38 0;
#X connect 20 0 39 0;
#X connect 21 0 4 0;
#X connect 22 0 23 0;
#X connect 23 0 24 0;
#X connect 24 0 21 0;
#X connect 25 0 20 1;
#X connect 26 0 29 0;
#X connect 27 0 26 0;
#X connect 27 1 28 0;
#X connect 27 1 29 1;
#X connect 28 0 26 1;
#X connect 29 0 30 0;
#X connect 30 0 31 1;
#X connect 31 0 3 1;
#X connect 31 0 23 1;
#X connect 32 0 16 0;
#X connect 32 0 22 0;
#X connect 32 1 31 0;
#X connect 32 2 9 0;
#X connect 32 3 15 0;
#X connect 32 4 27 0;
#X connect 32 5 42 0;
#X connect 32 6 33 0;
#X connect 33 0 34 0;
#X connect 33 1 35 0;
#X connect 33 1 36 1;
#X connect 34 0 36 0;
#X connect 35 0 34 1;
#X connect 36 0 37 0;
#X connect 37 0 47 0;
#X connect 38 0 0 0;
#X connect 39 0 1 0;
#X connect 40 0 38 1;
#X connect 41 0 43 0;
#X connect 41 0 45 0;
#X connect 42 0 41 0;
#X connect 43 0 44 0;
#X connect 44 0 40 0;
#X connect 45 0 39 1;
#X connect 46 0 40 1;
#X connect 46 0 48 0;
#X connect 47 0 46 0;
#X connect 48 0 45 1;
