#N canvas 591 85 556 395 12;
#X obj 205 207 zl join;
#X obj 147 102 + 1;
#X obj 205 175 f;
#X obj 46 68 inlet values;
#X obj 147 67 inlet preset_num;
#X obj 272 67 inlet store;
#X obj 369 66 inlet rw_name;
#X obj 147 249 coll \$1;
#C restore;
#X obj 147 274 outlet;
#X obj 369 95 prepend write;
#X connect 0 0 7 0;
#X connect 1 0 2 1;
#X connect 1 0 7 0;
#X connect 2 0 0 0;
#X connect 3 0 0 1;
#X connect 4 0 1 0;
#X connect 5 0 2 0;
#X connect 6 0 9 0;
#X connect 7 0 8 0;
#X connect 9 0 7 0;
