#N canvas 179 68 1133 796 10;
#X obj 118 667 tabread4~ array1;
#X obj 121 619 vline~;
#X floatatom 189 289 5 0 0 0 - - -;
#X obj 152 289 bng 15 250 50 0 empty empty empty 17 7 0 10 -262144
-1 -1;
#X obj 155 328 f;
#X obj 156 360 t b f f;
#X obj 123 511 f;
#X obj 221 520 sampstoms~;
#X floatatom 48 339 5 0 0 0 - - -;
#X obj 223 432 -;
#X obj 223 402 t b;
#X obj 121 557 pack 0 0 0;
#X msg 121 591 \$3 0 0 \, \$1 \$2 0;
#X obj 354 320 +;
#X obj 347 280 t b f;
#X obj 222 480 / 1;
#X floatatom 297 453 5 0 0 0 - - -;
#X text 344 449 speed;
#X text 49 310 start;
#X text 233 283 end;
#X floatatom 342 243 5 0 0 0 - - -;
#X text 402 241 length;
#X obj 90 203 inlet;
#X obj 168 203 inlet;
#X obj 283 180 inlet;
#X obj 118 704 outlet~;
#X obj 20 203 inlet;
#X connect 0 0 25 0;
#X connect 1 0 0 0;
#X connect 2 0 4 1;
#X connect 3 0 4 0;
#X connect 4 0 5 0;
#X connect 5 0 6 0;
#X connect 5 1 6 1;
#X connect 5 2 9 0;
#X connect 6 0 11 0;
#X connect 7 1 11 1;
#X connect 8 0 10 0;
#X connect 8 0 9 1;
#X connect 8 0 11 2;
#X connect 8 0 13 0;
#X connect 9 0 15 0;
#X connect 10 0 9 0;
#X connect 11 0 12 0;
#X connect 12 0 1 0;
#X connect 13 0 2 0;
#X connect 14 0 13 0;
#X connect 14 1 13 1;
#X connect 15 0 7 0;
#X connect 16 0 15 1;
#X connect 20 0 14 0;
#X connect 22 0 8 0;
#X connect 23 0 20 0;
#X connect 24 0 16 0;
#X connect 26 0 3 0;
