#N canvas 143 46 964 849 10;
#N canvas 0 22 450 278 (subpatch) 0;
#X array array1 22382 float 2;
#X coords 0 1 22382 -1 200 140 1;
#X restore 41 26 graph;
#X obj 726 390 bng 15 250 50 0 empty empty empty 17 7 0 10 -262144
-1 -1;
#X obj 726 412 openpanel;
#X msg 726 437 read -resize \$1 array1;
#X obj 726 462 soundfiler;
#X floatatom 726 488 10 0 0 0 - - -;
#X obj 121 710 output~;
#X obj 416 141 tgl 15 0 empty empty empty 17 7 0 10 -262144 -1 -1 0
1;
#X floatatom 70 383 5 0 0 0 - - -;
#X floatatom 269 439 5 0 0 0 - - -;
#X floatatom 164 372 5 0 0 0 - - -;
#X obj 128 520 l2_gr;
#X msg 274 391 1;
#X msg 313 391 2;
#X msg 353 390 0.5;
#X msg 147 326 2000;
#X msg 194 331 4000;
#X msg 75 315 4000;
#X msg 28 310 7000;
#X obj 411 178 metro 75;
#X connect 1 0 2 0;
#X connect 2 0 3 0;
#X connect 3 0 4 0;
#X connect 4 0 5 0;
#X connect 7 0 19 0;
#X connect 8 0 11 1;
#X connect 9 0 11 3;
#X connect 10 0 11 2;
#X connect 11 0 6 0;
#X connect 11 0 6 1;
#X connect 12 0 9 0;
#X connect 13 0 9 0;
#X connect 14 0 9 0;
#X connect 15 0 10 0;
#X connect 16 0 10 0;
#X connect 17 0 8 0;
#X connect 18 0 8 0;
#X connect 19 0 11 0;
