#N canvas 425 133 703 751 10;
#N canvas 0 22 450 278 (subpatch) 0;
#X array array1 22382 float 2;
#X coords 0 1 22382 -1 200 140 1;
#X restore 130 47 graph;
#X obj 412 382 bng 15 250 50 0 empty empty empty 17 7 0 10 -262144
-1 -1;
#X obj 412 404 openpanel;
#X msg 412 429 read -resize \$1 array1;
#X obj 412 454 soundfiler;
#X floatatom 412 480 10 0 0 0 - - -;
#X obj 123 574 tabread4~ array1;
#X obj 123 619 output~;
#X obj 120 546 vline~;
#X floatatom 196 292 5 0 0 0 - - -;
#X obj 149 292 bng 15 250 50 0 empty empty empty 17 7 0 10 -262144
-1 -1;
#X obj 152 331 f;
#X obj 45 550 zl reg;
#X msg 185 246 4000;
#X obj 156 360 t b f f;
#X obj 85 461 f;
#X obj 212 463 sampstoms~;
#X floatatom 69 342 5 0 0 0 - - -;
#X msg 58 296 4000;
#X msg 232 245 9000;
#X obj 223 432 -;
#X obj 223 402 t b;
#X obj 85 490 pack 0 0 0;
#X msg 124 521 \$3 0 0 \, \$1 \$2 0;
#X msg 104 295 8900;
#X connect 1 0 2 0;
#X connect 2 0 3 0;
#X connect 3 0 4 0;
#X connect 4 0 5 0;
#X connect 6 0 7 0;
#X connect 6 0 7 1;
#X connect 8 0 6 0;
#X connect 9 0 11 1;
#X connect 10 0 11 0;
#X connect 11 0 14 0;
#X connect 13 0 9 0;
#X connect 14 0 15 0;
#X connect 14 1 15 1;
#X connect 14 2 20 0;
#X connect 15 0 22 0;
#X connect 16 1 22 1;
#X connect 17 0 21 0;
#X connect 17 0 20 1;
#X connect 17 0 22 2;
#X connect 18 0 17 0;
#X connect 19 0 9 0;
#X connect 20 0 16 0;
#X connect 21 0 20 0;
#X connect 22 0 23 0;
#X connect 23 0 8 0;
#X connect 24 0 17 0;
