#N canvas 335 55 691 601 10;
#X obj 338 340 ctlin;
#X obj 47 337 notein;
#X obj 47 387 noteout;
#X obj 422 340 pgmout;
#X obj 135 338 midiin;
#X obj 135 378 print;
#X obj 95 64 ctlin;
#X obj 45 91 pgmin;
#X obj 45 64 bendin;
#X obj 225 91 touchin;
#X obj 89 91 polytouchin;
#X obj 139 64 midiin;
#X obj 169 91 sysexin;
#X obj 203 151 noteout;
#X obj 45 151 bendout;
#X obj 181 178 touchout;
#X obj 95 178 polytouchout;
#X obj 147 151 midiout;
#X obj 45 178 pgmout;
#X obj 45 233 makenote;
#X text 42 210 MIDI note construction:;
#X text 42 124 MIDI output:;
#X text 42 41 MIDI input:;
#X obj 205 233 stripnote;
#X obj 189 64 notein;
#X text 202 210 MIDI note deconstruction:;
#X obj 101 151 ctlout;
#X obj 210 339 notein;
#X floatatom 209 378 5 0 0 0 - - -;
#X floatatom 226 415 5 0 0 0 - - -;
#X floatatom 239 467 5 0 0 0 - - -;
#X connect 1 0 2 0;
#X connect 1 1 2 1;
#X connect 1 2 2 2;
#X connect 27 0 28 0;
#X connect 27 1 29 0;
#X connect 27 2 30 0;
