#N canvas 62 146 876 435 10;
#X obj 24 33 inlet~;
#X obj 242 31 inlet~;
#X obj 242 169 *~;
#X obj 153 312 dac~;
#X obj 24 167 *~;
#X obj 24 261 *~;
#X obj 242 262 *~;
#X obj 39 236 line~;
#X obj 257 236 line~;
#X msg 39 214 \$1 10;
#X msg 257 214 \$1 10;
#X obj 101 117 cnv 15 98 60 empty empty empty 20 12 0 14 -13330 -66577
0;
#X obj 110 127 tgl 42 0 \$0-mute-s \$0-mute-r empty 17 7 0 10 -262144
-1 -1 0 1;
#X obj 181 129 vsl 10 40 0.001 1 1 0 \$0-vol-s \$0-vol-r empty 0 -9
0 10 -262144 -1 -1 0 1;
#X obj 166 129 vsl 10 40 0 1 0 0 \$0-vu-l-s \$0-vu-l-s empty 0 -9 0
10 -99865 -260097 -1 0 1;
#X obj 39 140 line~;
#X obj 257 141 line~;
#X msg 39 115 \$1 10;
#X msg 257 115 \$1 10;
#X obj 242 297 env~;
#X obj 156 129 vsl 10 40 0 1 0 0 \$0-vu-l-s \$0-vu-l-s empty 0 -9 0
10 -99865 -260097 -1 0 1;
#X obj 242 328 dbtorms;
#X obj 24 297 env~;
#X obj 24 328 dbtorms;
#X obj 374 235 tgl 15 0 empty empty empty 17 7 0 10 -262144 -1 -1 0
1;
#X obj 363 191 receive \$0-mute-s;
#X floatatom 359 49 5 0 0 0 - - -;
#X obj 359 80 * 2;
#X floatatom 359 109 5 0 0 0 - - -;
#X floatatom 399 109 5 0 0 0 - - -;
#X floatatom 439 109 5 0 0 0 - - -;
#X floatatom 479 109 5 0 0 0 - - -;
#X text 304 327 root mean square;
#X connect 0 0 4 0;
#X connect 1 0 2 0;
#X connect 2 0 6 0;
#X connect 4 0 5 0;
#X connect 5 0 3 0;
#X connect 5 0 22 0;
#X connect 6 0 3 1;
#X connect 6 0 19 0;
#X connect 7 0 5 1;
#X connect 8 0 6 1;
#X connect 9 0 7 0;
#X connect 10 0 8 0;
#X connect 12 0 9 0;
#X connect 12 0 10 0;
#X connect 13 0 18 0;
#X connect 13 0 17 0;
#X connect 15 0 4 1;
#X connect 16 0 2 1;
#X connect 17 0 15 0;
#X connect 18 0 16 0;
#X connect 19 0 21 0;
#X connect 21 0 14 0;
#X connect 22 0 23 0;
#X connect 23 0 20 0;
#X connect 25 0 24 0;
#X connect 26 0 27 0;
#X connect 27 0 28 0;
#X connect 27 0 29 0;
#X connect 27 0 30 0;
#X connect 27 0 31 0;
#X coords 0 -1 1 1 100 80 1 100 100;
