#N canvas 245 70 655 602 16;
#X obj 93 179 phasor~;
#X obj 90 299 lop~;
#X obj 93 504 dac~;
#X floatatom 94 150 5 0 0 0 - - -;
#X floatatom 201 215 5 0 0 0 - - -;
#X obj 90 330 lop~;
#X obj 90 363 +~;
#X obj 139 300 bp~ 100 50;
#X obj 93 34 notein;
#X floatatom 12 109 5 0 0 0 - - -;
#X obj 94 109 mtof;
#X obj 93 435 *~;
#X obj 279 299 / 127;
#X obj 389 299 adsr~;
#X obj 402 87 vsl 15 128 0 1000 0 0 empty empty empty 0 -9 0 10 -262144
-1 -1 5100 1;
#X obj 422 87 vsl 15 128 0 1000 0 0 empty empty empty 0 -9 0 10 -262144
-1 -1 1500 1;
#X obj 443 87 vsl 15 128 0 1 0 0 empty empty empty 0 -9 0 10 -262144
-1 -1 1700 1;
#X obj 462 88 vsl 15 128 0 1000 0 0 empty empty empty 0 -9 0 10 -262144
-1 -1 4000 1;
#X obj 332 132 > 0;
#X obj 496 298 adsr~;
#X obj 509 86 vsl 15 128 0 1000 0 0 empty empty empty 0 -9 0 10 -262144
-1 -1 8700 1;
#X obj 529 86 vsl 15 128 0 1000 0 0 empty empty empty 0 -9 0 10 -262144
-1 -1 0 1;
#X obj 550 86 vsl 15 128 0 1 0 0 empty empty empty 0 -9 0 10 -262144
-1 -1 7800 1;
#X obj 569 87 vsl 15 128 0 1000 0 0 empty empty empty 0 -9 0 10 -262144
-1 -1 3900 1;
#X floatatom 596 440 5 0 0 0 - - -;
#N canvas 322 88 581 520 keyboard 0;
#X obj 78 47 key;
#X obj 90 88 prepend set;
#X msg 117 129 0;
#X obj 264 41 keyup;
#X obj 299 83 prepend set;
#X msg 327 119 115;
#X obj 85 130 bng 15 250 50 0 empty empty empty 17 7 0 10 -262144 -1
-1;
#X obj 290 127 bng 15 250 50 0 empty empty empty 17 7 0 10 -262144
-1 -1;
#X obj 65 167 select 97 119 115 101 100;
#X msg 67 197 60;
#X msg 96 197 61;
#X msg 130 196 62;
#X msg 162 195 63;
#X msg 201 197 64;
#X msg 66 239 \$1 100;
#X obj 246 241 select 97 119 115 101 100;
#X msg 248 271 60;
#X msg 277 271 61;
#X msg 311 270 62;
#X msg 343 269 63;
#X msg 382 271 64;
#X msg 247 313 \$1 0;
#X obj 57 418 outlet;
#X obj 162 424 outlet;
#X obj 66 375 unpack 0 0;
#X connect 0 0 1 0;
#X connect 0 0 8 0;
#X connect 1 0 2 0;
#X connect 1 0 6 0;
#X connect 3 0 4 0;
#X connect 3 0 15 0;
#X connect 4 0 5 0;
#X connect 4 0 7 0;
#X connect 8 0 9 0;
#X connect 8 1 10 0;
#X connect 8 2 11 0;
#X connect 8 3 12 0;
#X connect 8 4 13 0;
#X connect 9 0 14 0;
#X connect 10 0 14 0;
#X connect 11 0 14 0;
#X connect 12 0 14 0;
#X connect 13 0 14 0;
#X connect 14 0 24 0;
#X connect 15 0 16 0;
#X connect 15 1 17 0;
#X connect 15 2 18 0;
#X connect 15 3 19 0;
#X connect 15 4 20 0;
#X connect 16 0 21 0;
#X connect 17 0 21 0;
#X connect 18 0 21 0;
#X connect 19 0 21 0;
#X connect 20 0 21 0;
#X connect 21 0 24 0;
#X connect 24 0 22 0;
#X connect 24 1 23 0;
#X restore 190 32 pd keyboard;
#X obj 430 438 unsig~ 10;
#X obj 517 362 loadbang;
#X msg 517 393 1;
#X obj 429 492 maxlib/scale 0 1 0 500;
#X floatatom 537 441 5 0 0 0 - - -;
#X connect 0 0 1 0;
#X connect 0 0 7 0;
#X connect 1 0 5 0;
#X connect 3 0 0 0;
#X connect 4 0 1 1;
#X connect 4 0 5 1;
#X connect 4 0 7 1;
#X connect 5 0 6 0;
#X connect 6 0 11 0;
#X connect 7 0 6 1;
#X connect 8 0 9 0;
#X connect 8 0 10 0;
#X connect 8 1 12 0;
#X connect 8 1 18 0;
#X connect 10 0 3 0;
#X connect 11 0 2 1;
#X connect 11 0 2 0;
#X connect 13 0 11 1;
#X connect 14 0 13 1;
#X connect 15 0 13 2;
#X connect 16 0 13 3;
#X connect 17 0 13 4;
#X connect 18 0 13 0;
#X connect 18 0 19 0;
#X connect 19 0 26 0;
#X connect 20 0 19 1;
#X connect 21 0 19 2;
#X connect 22 0 19 3;
#X connect 23 0 19 4;
#X connect 24 0 29 4;
#X connect 25 0 10 0;
#X connect 25 1 18 0;
#X connect 25 1 12 0;
#X connect 26 0 29 0;
#X connect 27 0 28 0;
#X connect 28 0 29 2;
#X connect 29 0 4 0;
#X connect 30 0 29 3;
