#N canvas 245 135 1197 805 10;
#X obj 170 122 adc~ 1;
#X obj 170 218 *~;
#X obj 246 122 hsl 128 15 0 1 0 0 empty empty volume -2 -8 0 10 -262144
-1 -1 11700 1;
#X floatatom 277 145 5 0 0 0 - - -;
#X obj 243 201 line~;
#X msg 243 176 \$1 10;
#X obj 170 329 pan~;
#X obj 248 314 hsl 128 15 -45 45 0 0 empty empty pan -2 -8 0 10 -262144
-1 -1 6050 1;
#X msg 286 289 0;
#X floatatom 245 337 5 0 0 0 - - -;
#X obj 170 488 freeverb~;
#X msg 306 440 roomsize \$1;
#X obj 309 418 hsl 128 15 0 1 0 0 empty empty empty -2 -8 0 10 -262144
-1 -1 12200 1;
#X obj 309 368 hsl 128 15 0 1 0 0 empty empty empty -2 -8 0 10 -262144
-1 -1 7000 1;
#X msg 306 390 damping \$1;
#X msg 459 432 freeze \$1;
#X obj 459 405 tgl 15 0 empty empty empty 17 7 0 10 -262144 -1 -1 1
1;
#X obj 170 596 bp~ 100 10;
#X obj 262 596 bp~ 100 10;
#X obj 170 634 output~;
#X obj 307 552 hsl 128 15 100 5000 0 0 empty empty freq -2 -8 0 10
-262144 -1 -1 1226 1;
#X floatatom 371 601 5 0 0 0 - - -;
#X obj 467 552 hsl 128 15 1 50 0 0 empty empty Q -2 -8 0 10 -262144
-1 -1 698 1;
#X floatatom 474 575 5 0 0 0 - - -;
#X obj 575 408 lfo_tri 1;
#X obj 575 437 maxlib/scale 0 1 100 3000;
#X obj 585 497 maxlib/scale 0 1 1 30;
#X obj 585 468 lfo_tri 0.6;
#X obj 575 333 / 1000;
#X floatatom 633 360 5 0 0 0 - - -;
#X obj 805 343 / 1000;
#X floatatom 863 370 5 0 0 0 - - -;
#X obj 805 318 random 500 1000;
#X obj 575 308 random 600 1000;
#X obj 773 102 tgl 15 0 empty empty empty 17 7 0 10 -262144 -1 -1 0
1;
#X floatatom 611 198 5 0 0 0 - - -;
#X obj 773 129 lfo_random 100 1000;
#X obj 514 291 line;
#X msg 514 258 \$1 1000;
#X msg 448 111 open \$1;
#X obj 448 62 openpanel;
#X obj 448 39 bng 15 250 50 0 empty empty empty 17 7 0 10 -262144 -1
-1;
#X obj 448 148 readsf~ 2;
#X msg 518 101 start;
#X obj 448 86 symbol;
#X connect 1 0 6 0;
#X connect 2 0 3 0;
#X connect 2 0 5 0;
#X connect 4 0 1 1;
#X connect 5 0 4 0;
#X connect 6 0 10 0;
#X connect 6 1 10 1;
#X connect 7 0 6 1;
#X connect 7 0 9 0;
#X connect 8 0 7 0;
#X connect 10 0 17 0;
#X connect 10 1 18 0;
#X connect 11 0 10 0;
#X connect 12 0 11 0;
#X connect 13 0 14 0;
#X connect 14 0 10 0;
#X connect 15 0 10 0;
#X connect 16 0 15 0;
#X connect 17 0 19 0;
#X connect 18 0 19 1;
#X connect 20 0 21 0;
#X connect 20 0 17 1;
#X connect 20 0 18 1;
#X connect 22 0 23 0;
#X connect 22 0 18 2;
#X connect 22 0 17 2;
#X connect 24 0 25 0;
#X connect 26 0 22 0;
#X connect 27 0 26 0;
#X connect 28 0 24 0;
#X connect 28 0 29 0;
#X connect 30 0 31 0;
#X connect 30 0 27 0;
#X connect 32 0 30 0;
#X connect 33 0 28 0;
#X connect 34 0 36 0;
#X connect 35 0 38 0;
#X connect 36 0 35 0;
#X connect 37 0 20 0;
#X connect 38 0 37 0;
#X connect 39 0 42 0;
#X connect 40 0 44 0;
#X connect 41 0 40 0;
#X connect 42 0 1 0;
#X connect 42 2 44 0;
#X connect 42 2 43 0;
#X connect 43 0 42 0;
#X connect 44 0 39 0;
