#N canvas 330 130 544 428 10;
#X obj 118 360 send~ f1;
#X obj 275 323 osc~;
#X obj 360 141 nbx 5 14 -1e+37 1e+37 0 0 empty empty empty 0 -8 0 10
-262144 -1 -1 166 256;
#X obj 272 389 dac~;
#X obj 361 205 sig~;
#X obj 195 240 *~;
#X obj 212 130 nbx 5 14 -1e+37 1e+37 0 0 empty empty empty 0 -8 0 10
-262144 -1 -1 620 256;
#X obj 211 206 sig~;
#X text 329 319 несущий осцилятор;
#X text 359 94 частота несущего осцилятора
;
#X obj 119 197 receive~ f1;
#X text 278 89;
#X text 209 89 обратная связь;
#X connect 1 0 3 0;
#X connect 1 0 3 1;
#X connect 1 0 0 0;
#X connect 2 0 4 0;
#X connect 4 0 1 0;
#X connect 5 0 1 0;
#X connect 6 0 7 0;
#X connect 7 0 5 1;
#X connect 10 0 5 0;
