#N canvas 75 23 345 248 10;
#X obj 80 41 inlet~;
#X obj 187 40 inlet control;
#X obj 80 135 *~;
#X obj 187 77 sig~;
#X obj 187 118 lop~ 5;
#X obj 80 185 outlet~;
#X connect 0 0 2 0;
#X connect 1 0 3 0;
#X connect 2 0 5 0;
#X connect 3 0 4 0;
#X connect 4 0 2 1;
