#N canvas 290 202 450 300 10;
#X obj 63 130 osc~ 220;
#X obj 123 130 osc~ 225;
#X obj 183 130 osc~ 400;
#X obj 63 211 *~ 0.1;
#X obj 63 250 dac~;
#X obj 66 14 hsl 128 15 200 2000 0 0 empty empty empty -2 -8 0 10 -262144
-1 -1 0 1;
#X obj 126 34 hsl 128 15 200 2000 0 0 empty empty empty -2 -8 0 10
-262144 -1 -1 0 1;
#X obj 186 54 hsl 128 15 200 2000 0 0 empty empty empty -2 -8 0 10
-262144 -1 -1 0 1;
#X obj 63 86 sig~;
#X obj 123 86 sig~;
#X obj 183 87 sig~;
#X connect 0 0 3 0;
#X connect 1 0 3 0;
#X connect 2 0 3 0;
#X connect 3 0 4 0;
#X connect 3 0 4 1;
#X connect 5 0 8 0;
#X connect 6 0 9 0;
#X connect 7 0 10 0;
#X connect 8 0 0 0;
#X connect 9 0 1 0;
#X connect 10 0 2 0;
