#N canvas 297 75 395 497 10;
#X obj 120 144 cursor;
#X obj 120 172 route motion;
#X obj 120 116 tgl 15 0 empty empty empty 17 7 0 10 -262144 -1 -1 1
1;
#X obj 120 201 route x y;
#X obj 25 31 cnv 15 300 50 empty empty Simple_Theremin 20 12 0 20 -233017
-66577 0;
#X obj 120 318 *~;
#X obj 120 356 *~ 0.1;
#X obj 120 405 dac~;
#X obj 120 260 synth1~;
#X obj 120 228 sig~;
#X obj 213 260 osc~ 1;
#X obj 157 229 sig~;
#X connect 0 0 1 0;
#X connect 1 0 3 0;
#X connect 2 0 0 0;
#X connect 3 0 9 0;
#X connect 3 1 11 0;
#X connect 5 0 6 0;
#X connect 6 0 7 0;
#X connect 6 0 7 1;
#X connect 8 0 5 0;
#X connect 9 0 8 0;
#X connect 10 0 5 1;
#X connect 11 0 10 0;
