#N canvas 297 75 547 553 10;
#X obj 40 144 cursor;
#X obj 40 172 route motion;
#X obj 40 116 tgl 15 0 empty empty empty 17 7 0 10 -262144 -1 -1 0
1;
#X obj 40 201 route x y;
#X obj 25 31 cnv 15 300 50 empty empty Simple_Theremin 20 12 0 20 -233017
-66577 0;
#X obj 40 280 synth1~;
#X obj 40 338 *~;
#X obj 55 313 tgl 15 0 empty empty empty 17 7 0 10 -262144 -1 -1 0
1;
#X obj 40 376 *~ 0.1;
#X obj 40 465 dac~;
#X floatatom 55 243 5 0 0 0 - - -;
#X obj 180 144 cursor;
#X obj 180 172 route motion;
#X obj 180 116 tgl 15 0 empty empty empty 17 7 0 10 -262144 -1 -1 0
1;
#X obj 180 201 route x y;
#X obj 180 280 synth1~;
#X obj 180 338 *~;
#X obj 195 313 tgl 15 0 empty empty empty 17 7 0 10 -262144 -1 -1 0
1;
#X floatatom 239 243 5 0 0 0 - - -;
#X connect 0 0 1 0;
#X connect 1 0 3 0;
#X connect 2 0 0 0;
#X connect 3 0 5 0;
#X connect 3 0 10 0;
#X connect 5 0 6 0;
#X connect 6 0 8 0;
#X connect 7 0 6 1;
#X connect 8 0 9 0;
#X connect 8 0 9 1;
#X connect 11 0 12 0;
#X connect 12 0 14 0;
#X connect 13 0 11 0;
#X connect 14 1 18 0;
#X connect 14 1 15 0;
#X connect 15 0 16 0;
#X connect 16 0 8 0;
#X connect 17 0 16 1;
