#N canvas 744 116 472 411 10;
#X declare -path ./tuio;
#X obj 36 24 tuio/TuioClient;
#X obj 313 23 declare -path ./tuio;
#X obj 123 51 bng 15 250 50 0 empty empty empty 17 7 0 10 -262144 -1
-1;
#X obj 36 170 route addObject removeObject updateObject;
#X obj 36 360 dac~;
#X obj 36 207 unpack \$1 \$2;
#X obj 117 207 unpack \$1 \$2;
#X obj 64 138 print;
#X obj 64 113 spigot;
#X obj 97 87 tgl 15 0 empty empty empty 17 7 0 10 -262144 -1 -1 0 1
;
#N canvas 228 196 504 407 obj 1;
#X obj 125 36 inlet remove;
#X obj 59 36 inlet add;
#X msg 59 102 1 1000;
#X msg 125 102 0 1000;
#X obj 59 169 line~;
#X obj 59 304 *~;
#X obj 59 364 outlet~;
#X obj 235 36 inlet remove;
#X obj 268 287 *~ 0.5;
#X obj 269 261 osc~ 100;
#X obj 235 94 unpack \$1 \$2 \$3;
#X obj 337 37 inlet id;
#X obj 59 66 select;
#X obj 125 65 select;
#X obj 235 66 route;
#X obj 235 118 * 400;
#X obj 235 143 + 400;
#X obj 235 177 sig~;
#X obj 322 118 * 100;
#X obj 322 143 sig~;
#X obj 268 214 +~;
#X connect 0 0 13 0;
#X connect 1 0 12 0;
#X connect 2 0 4 0;
#X connect 3 0 4 0;
#X connect 4 0 5 0;
#X connect 5 0 6 0;
#X connect 7 0 14 0;
#X connect 8 0 5 1;
#X connect 9 0 8 0;
#X connect 10 0 15 0;
#X connect 10 1 18 0;
#X connect 11 0 12 1;
#X connect 11 0 13 1;
#X connect 11 0 14 1;
#X connect 12 0 2 0;
#X connect 13 0 3 0;
#X connect 14 0 10 0;
#X connect 15 0 16 0;
#X connect 16 0 17 0;
#X connect 17 0 20 0;
#X connect 18 0 19 0;
#X connect 19 0 20 1;
#X connect 20 0 9 0;
#X restore 36 305 pd obj;
#X obj 208 245 loadbang;
#X obj 198 207 list split 1;
#X obj 165 344 print;
#X msg 208 266 75;
#X connect 0 0 3 0;
#X connect 0 0 8 0;
#X connect 0 1 2 0;
#X connect 3 0 5 0;
#X connect 3 1 6 0;
#X connect 3 2 12 0;
#X connect 5 1 10 0;
#X connect 6 1 10 1;
#X connect 8 0 7 0;
#X connect 9 0 8 1;
#X connect 10 0 4 0;
#X connect 10 0 4 1;
#X connect 11 0 14 0;
#X connect 12 1 10 2;
#X connect 14 0 10 3;
