#N canvas 53 214 567 437 10;
#X declare -path ./tuio;
#X obj 36 24 tuio/TuioClient;
#X obj 313 23 declare -path ./tuio;
#X obj 123 51 bng 15 250 50 0 empty empty empty 17 7 0 10 -262144 -1
-1;
#X obj 36 100 route addObject removeObject updateObject;
#X obj 36 336 *~;
#X obj 36 287 line~;
#X obj 198 132 unpack \$1 \$2 \$3 \$4 \$5;
#X text 290 154 ypos;
#X text 257 155 xpos;
#X text 324 154 angle;
#X obj 259 186 * 440;
#X obj 259 216 + 440;
#X obj 294 254 osc~ 660;
#X obj 294 282 +~;
#X obj 294 307 *~ 0.5;
#X obj 36 375 dac~;
#X obj 363 214 osc~ 100;
#X obj 363 185 * 100;
#X obj 36 137 unpack \$1 \$2;
#X obj 117 137 unpack \$1 \$2;
#X obj 105 163 sel 80;
#X obj 186 163 sel 80;
#X msg 86 250 0 1000;
#X msg 36 250 1 1000;
#X connect 0 0 3 0;
#X connect 0 1 2 0;
#X connect 3 0 18 0;
#X connect 3 1 19 0;
#X connect 3 2 6 0;
#X connect 4 0 15 0;
#X connect 4 0 15 1;
#X connect 5 0 4 0;
#X connect 6 2 10 0;
#X connect 6 3 17 0;
#X connect 10 0 11 0;
#X connect 11 0 12 0;
#X connect 12 0 13 0;
#X connect 13 0 14 0;
#X connect 14 0 4 1;
#X connect 16 0 13 1;
#X connect 17 0 16 0;
#X connect 18 1 20 0;
#X connect 19 1 21 0;
#X connect 20 0 23 0;
#X connect 21 0 22 0;
#X connect 22 0 5 0;
#X connect 23 0 5 0;
