#N canvas 126 119 776 605 10;
#X obj 37 63 metro 1000;
#X obj 37 38 tgl 15 0 empty empty empty 17 7 0 10 -262144 -1 -1 0 1
;
#X obj 37 156 f;
#X obj 72 155 + 1;
#X obj 60 89 sel 1;
#X msg 60 114 0;
#X obj 37 186 s \$0-time;
#X obj 249 285 r \$0-time;
#X obj 249 316 sel 10;
#X obj 234 433 osc~ 1000;
#X obj 234 467 *~;
#X obj 249 385 vline~;
#X msg 249 356 1 10 \, 0 20 10;
#X floatatom 166 219 5 0 0 0 - - -;
#X obj 388 288 r \$0-time;
#X obj 373 474 *~;
#X obj 339 523 output~;
#X obj 388 322 >= 4;
#X obj 367 432 phasor~ 100;
#X connect 0 0 2 0;
#X connect 1 0 0 0;
#X connect 1 0 4 0;
#X connect 2 0 3 0;
#X connect 2 0 6 0;
#X connect 2 0 13 0;
#X connect 3 0 2 1;
#X connect 4 0 5 0;
#X connect 5 0 2 1;
#X connect 5 0 2 0;
#X connect 7 0 8 0;
#X connect 8 0 12 0;
#X connect 9 0 10 0;
#X connect 10 0 16 0;
#X connect 11 0 10 1;
#X connect 12 0 11 0;
#X connect 14 0 17 0;
#X connect 15 0 16 0;
#X connect 15 0 16 1;
#X connect 17 0 15 1;
#X connect 18 0 15 0;
