#N canvas 432 468 709 315 12;
#X obj 168 211 *~;
#X obj 224 211 *~;
#X obj 288 117 abs~;
#X floatatom 287 13 5 0 0 0 - - -;
#X obj 168 127 *~ 0.2;
#X obj 168 99 noise~;
#X obj 287 37 phasor~;
#X obj 289 87 -~ 1;
#X obj 288 62 *~ 2;
#X obj 288 150 *~ -1;
#X obj 289 177 +~ 1;
#X obj 184 245 dac~;
#X text 52 20 3.9.3.1. Spatial Stereo;
#X text 335 82 creates back and forth movement;
#X text 336 102 between 0 and 1;
#X text 410 235 www.pd-tutorial.com;
#X text 421 211 Johannes Kreidler;
#X connect 0 0 11 0;
#X connect 1 0 11 1;
#X connect 2 0 0 1;
#X connect 2 0 9 0;
#X connect 3 0 6 0;
#X connect 4 0 0 0;
#X connect 4 0 1 0;
#X connect 5 0 4 0;
#X connect 6 0 8 0;
#X connect 7 0 2 0;
#X connect 8 0 7 0;
#X connect 9 0 10 0;
#X connect 10 0 1 1;
