#N canvas 0 23 1024 674 36;
#X declare -lib mrpeach;
#X obj 426 35 import mrpeach;
#X obj 57 221 packOSC;
#X obj 57 351 udpsend;
#X obj 57 408 tgl 40 0 empty empty empty 17 7 0 10 -262144 -1 -1 1
1;
#X msg 57 111 send /hello;
#X msg 352 173 send /freq \$1;
#X obj 355 118 hsl 128 15 0 5000 0 0 empty empty empty -2 -8 0 10 -262144
-1 -1 4800 1;
#X obj 675 173 hsl 128 15 0 1 0 0 empty empty empty -2 -8 0 10 -262144
-1 -1 6800 1;
#X msg 672 228 send /amp \$1;
#X text 516 98 [100 \, 5000];
#X text 824 152 [0 \, 1];
#X msg 283 380 disconnect;
#X msg 132 286 connect 10.1.1.94 9000;
#X connect 1 0 2 0;
#X connect 2 0 3 0;
#X connect 4 0 1 0;
#X connect 5 0 1 0;
#X connect 6 0 5 0;
#X connect 7 0 8 0;
#X connect 8 0 1 0;
#X connect 11 0 2 0;
#X connect 12 0 2 0;
