#N canvas 6 24 1009 662 36;
#X obj 76 72 metro 1000;
#X obj 76 30 tgl 15 0 empty empty empty 17 7 0 10 -262144 -1 -1 1 1
;
#X obj 75 426 osc~ 440;
#X obj 75 511 *~;
#X obj 76 307 t b b;
#X msg 205 369 1;
#X obj 323 303 del 100;
#X msg 323 368 0;
#X obj 75 591 dac~;
#X obj 185 233 + 950;
#X obj 185 173 random 50;
#X obj 621 171 zl len;
#X obj 414 440 zl nth;
#X obj 550 321 f 1;
#X obj 654 320 + 1;
#X obj 458 226 t b;
#X floatatom 414 516 5 0 0 0 - - -;
#X obj 549 514 t b f;
#X obj 549 579 del;
#X msg 613 253 1;
#X msg 414 71 1000 500 400 300 200;
#X connect 0 0 4 0;
#X connect 0 0 10 0;
#X connect 1 0 0 0;
#X connect 2 0 3 0;
#X connect 3 0 8 0;
#X connect 4 0 5 0;
#X connect 4 1 6 0;
#X connect 5 0 3 1;
#X connect 6 0 7 0;
#X connect 7 0 3 1;
#X connect 9 0 0 1;
#X connect 10 0 9 0;
#X connect 12 0 16 0;
#X connect 12 0 17 0;
#X connect 13 0 14 0;
#X connect 13 0 12 1;
#X connect 14 0 13 1;
#X connect 15 0 13 0;
#X connect 17 0 18 0;
#X connect 17 1 18 1;
#X connect 18 0 20 0;
#X connect 19 0 13 1;
#X connect 20 0 12 0;
#X connect 20 0 15 0;
