#N canvas 14 89 894 551 36;
#X obj 52 153 random 50;
#X obj 52 224 + 30;
#X obj 52 41 tgl 15 0 empty empty empty 17 7 0 10 -262144 -1 -1 0 1
;
#X obj 52 287 mtof;
#X obj 52 347 osc~;
#X obj 52 417 dac~;
#X obj 52 77 metro 50;
#X obj 225 44 nbx 5 14 -1e+37 1e+37 0 0 empty empty empty 0 -8 0 10
-262144 -1 -1 36 256;
#X text 281 149 [0 \, 50);
#X text 280 214 [30 \, 80);
#X obj 502 41 tgl 15 0 empty empty empty 17 7 0 10 -262144 -1 -1 1
1;
#X obj 502 347 osc~;
#X obj 502 417 dac~;
#X obj 502 77 metro 50;
#X obj 502 224 + 200;
#X obj 502 153 random 5000;
#X connect 0 0 1 0;
#X connect 1 0 3 0;
#X connect 2 0 6 0;
#X connect 3 0 4 0;
#X connect 6 0 0 0;
#X connect 7 0 6 1;
#X connect 10 0 13 0;
#X connect 11 0 12 0;
#X connect 11 0 12 1;
#X connect 13 0 15 0;
#X connect 14 0 11 0;
#X connect 15 0 14 0;
