#N canvas 292 177 1070 616 12;
#X obj 119 116 osc~;
#X obj 119 271 dac~;
#X obj 120 42 hsl 200 15 100 10000 0 0 empty empty empty -2 -8 0 10
-260097 -1 -1 14503 1;
#X floatatom 131 66 5 0 0 0 - - -, f 5;
#X obj 163 125 hsl 64 7 0 1 0 0 empty empty empty -2 -8 0 10 -4032
-1 -1 8700 1;
#X msg 162 157 \$1 30;
#X obj 162 187 line~;
#X obj 119 226 *~;
#X obj 224 164 sig~;
#X obj 224 188 lop~ 20;
#X floatatom 225 140 5 0 0 0 - - -, f 5;
#X connect 0 0 7 0;
#X connect 2 0 0 0;
#X connect 2 0 3 0;
#X connect 4 0 5 0;
#X connect 4 0 8 0;
#X connect 4 0 10 0;
#X connect 5 0 6 0;
#X connect 7 0 1 0;
#X connect 7 0 1 1;
#X connect 8 0 9 0;
#X connect 9 0 7 1;
