#N canvas 301 165 1071 692 12;
#X obj 113 204 osc~ 440;
#X obj 113 242 dac~;
#X text 291 50 Digital Analog Converter;
#X msg 113 150 220;
#X msg 154 150 440;
#X floatatom 141 76 10 1 300 0 - - -, f 10;
#X text 28 19 1;
#X obj 52 19 mtof;
#X text 27 46 2;
#X msg 53 46 hello!;
#X text 27 73 3;
#X floatatom 54 73 5 0 0 0 - - -, f 5;
#X text 27 98 4;
#X symbolatom 54 98 10 0 0 0 - - -, f 10;
#X text 27 126 5;
#X text 183 203 oscillator;
#X msg 265 99 1 2 3 4 5;
#X connect 0 0 1 0;
#X connect 0 0 1 1;
#X connect 3 0 0 0;
#X connect 4 0 0 0;
#X connect 5 0 0 0;
