#N canvas 57 59 917 618 10;
#X text 38 27 ADSR;
#X text 143 24 attack - decay - sustain - release;
#X obj 71 122 hsl 128 15 0 1000 0 0 empty empty empty -2 -8 0 10 -262144
-1 -1 343 1;
#X obj 211 122 hsl 128 15 0 1000 0 0 empty empty empty -2 -8 0 10 -262144
-1 -1 25 1;
#X obj 352 122 hsl 128 15 0 1 0 0 empty empty empty -2 -8 0 10 -262144
-1 -1 0 1;
#X obj 492 122 hsl 128 15 0 1000 0 0 empty empty empty -2 -8 0 10 -262144
-1 -1 0 1;
#X floatatom 85 153 5 0 0 0 - - -;
#X floatatom 363 152 5 0 0 0 - - -;
#X floatatom 227 153 5 0 0 0 - - -;
#X floatatom 506 149 5 0 0 0 - - -;
#X obj 109 459 vline~;
#X obj 114 275 pack 0 0 0;
#X obj 86 243 t b;
#X msg 109 409 1 \$1 0 \, \$3 \$2 \$1;
#X obj 5 244 tgl 45 0 empty empty empty 17 7 0 10 -4034 -1 -1 0 1;
#X obj 10 310 select 1 0;
#X obj 11 345 bng 15 250 50 0 empty empty empty 17 7 0 10 -262144 -1
-1;
#X obj 35 345 bng 15 250 50 0 empty empty empty 17 7 0 10 -262144 -1
-1;
#X obj 108 378 zl reg;
#X msg 257 407 0 \$1 0;
#X obj 257 374 f;
#X obj 40 572 dac~;
#X obj 134 493 unsig~ 50;
#X floatatom 133 533 5 0 0 0 - - -;
#X obj 41 533 *~;
#X obj 479 406 bng 15 250 50 0 empty empty empty 17 7 0 10 -262144
-1 -1;
#X obj 666 266 metro;
#X obj 667 162 tgl 45 0 empty empty empty 17 7 0 10 -260097 -1 -1 0
1;
#X obj 40 493 osc~ 8000;
#X obj 548 436 random 9000;
#X obj 716 224 + 50;
#X obj 778 294 random 350;
#X obj 673 509 metro 10;
#X obj 741 446 random 30;
#X obj 740 477 + 5;
#X msg 648 403 1;
#X msg 689 403 0;
#X obj 478 437 random 4;
#X obj 402 404 bng 15 250 50 0 empty empty empty 17 7 0 10 -262144
-1 -1;
#X obj 689 377 delay 50;
#X obj 402 435 random 40;
#X obj 71 84 r _atk;
#X obj 211 85 r _dcy;
#X obj 113 311 r _gate1;
#X obj 400 467 s _atk;
#X obj 474 465 s _dcy;
#X obj 673 540 s _gate1;
#X obj 548 465 s _freq;
#X obj 25 470 r _freq;
#X connect 2 0 6 0;
#X connect 2 0 11 0;
#X connect 3 0 8 0;
#X connect 3 0 11 1;
#X connect 3 0 12 0;
#X connect 4 0 7 0;
#X connect 4 0 11 2;
#X connect 4 0 12 0;
#X connect 5 0 9 0;
#X connect 5 0 20 1;
#X connect 10 0 22 0;
#X connect 10 0 24 1;
#X connect 11 0 18 1;
#X connect 12 0 11 0;
#X connect 13 0 10 0;
#X connect 14 0 15 0;
#X connect 15 0 16 0;
#X connect 15 1 17 0;
#X connect 16 0 18 0;
#X connect 17 0 20 0;
#X connect 18 0 13 0;
#X connect 19 0 10 0;
#X connect 20 0 19 0;
#X connect 22 0 23 0;
#X connect 24 0 21 1;
#X connect 24 0 21 0;
#X connect 25 0 37 0;
#X connect 26 0 25 0;
#X connect 26 0 29 0;
#X connect 26 0 31 0;
#X connect 26 0 35 0;
#X connect 26 0 33 0;
#X connect 26 0 38 0;
#X connect 26 0 39 0;
#X connect 27 0 26 0;
#X connect 28 0 24 0;
#X connect 29 0 47 0;
#X connect 30 0 26 1;
#X connect 31 0 30 0;
#X connect 32 0 46 0;
#X connect 33 0 34 0;
#X connect 34 0 32 1;
#X connect 35 0 32 0;
#X connect 36 0 32 0;
#X connect 37 0 45 0;
#X connect 38 0 40 0;
#X connect 39 0 36 0;
#X connect 40 0 44 0;
#X connect 41 0 2 0;
#X connect 42 0 3 0;
#X connect 43 0 16 0;
#X connect 48 0 28 0;
