#N canvas 548 379 700 500 12;
#X obj 165 135 phasor~;
#X obj 108 218 expr~ $v1 * 2 - 1;
#X obj 188 183 expr~ ($v1 > $f2) * 2 - 1;
#X obj 165 59 inlet~;
#X obj 301 93 inlet;
#X obj 101 367 *~;
#X obj 231 311 expr~ 1-$v1;
#X msg 390 264 \$1 50;
#X obj 390 299 line~;
#X obj 173 379 *~;
#X obj 107 408 outlet~;
#X obj 442 148 inlet;
#X connect 0 0 1 0;
#X connect 0 0 2 0;
#X connect 1 0 5 0;
#X connect 2 0 9 1;
#X connect 3 0 0 0;
#X connect 4 0 2 1;
#X connect 5 0 10 0;
#X connect 6 0 9 0;
#X connect 7 0 8 0;
#X connect 8 0 6 0;
#X connect 8 0 5 1;
#X connect 9 0 10 0;
#X connect 11 0 7 0;
