#N canvas 143 46 964 849 10;
#N canvas 0 22 450 278 (subpatch) 0;
#X array array1 22382 float 2;
#X coords 0 1 22382 -1 200 140 1;
#X restore 41 26 graph;
#X obj 412 382 bng 15 250 50 0 empty empty empty 17 7 0 10 -262144
-1 -1;
#X obj 412 404 openpanel;
#X msg 412 429 read -resize \$1 array1;
#X obj 412 454 soundfiler;
#X floatatom 412 480 10 0 0 0 - - -;
#X obj 121 665 tabread4~ array1;
#X obj 121 710 output~;
#X obj 118 637 vline~;
#X floatatom 189 289 5 0 0 0 - - -;
#X obj 152 289 bng 15 250 50 0 empty empty empty 17 7 0 10 -262144
-1 -1;
#X obj 155 328 f;
#X msg 187 246 4000;
#X obj 156 360 t b f f;
#X obj 83 506 f;
#X obj 221 520 sampstoms~;
#X floatatom 48 339 5 0 0 0 - - -;
#X msg 46 293 4000;
#X msg 234 245 9000;
#X obj 223 432 -;
#X obj 223 402 t b;
#X obj 80 556 pack 0 0 0;
#X msg 119 591 \$3 0 0 \, \$1 \$2 0;
#X msg 92 292 8900;
#X obj 354 320 +;
#X obj 347 280 t b f;
#X msg 340 252 100;
#X msg 379 251 2000;
#X obj 222 480 / 1;
#X msg 308 406 1;
#X msg 300 381 2;
#X floatatom 297 453 5 0 0 0 - - -;
#X obj 411 178 metro 75;
#X obj 416 141 tgl 15 0 empty empty empty 17 7 0 10 -262144 -1 -1 0
1;
#X connect 1 0 2 0;
#X connect 2 0 3 0;
#X connect 3 0 4 0;
#X connect 4 0 5 0;
#X connect 6 0 7 0;
#X connect 6 0 7 1;
#X connect 8 0 6 0;
#X connect 9 0 11 1;
#X connect 10 0 11 0;
#X connect 11 0 13 0;
#X connect 12 0 9 0;
#X connect 13 0 14 0;
#X connect 13 1 14 1;
#X connect 13 2 19 0;
#X connect 14 0 21 0;
#X connect 15 1 21 1;
#X connect 16 0 20 0;
#X connect 16 0 19 1;
#X connect 16 0 21 2;
#X connect 16 0 24 0;
#X connect 17 0 16 0;
#X connect 18 0 9 0;
#X connect 19 0 28 0;
#X connect 20 0 19 0;
#X connect 21 0 22 0;
#X connect 22 0 8 0;
#X connect 23 0 16 0;
#X connect 24 0 9 0;
#X connect 25 0 24 0;
#X connect 25 1 24 1;
#X connect 26 0 25 0;
#X connect 27 0 25 0;
#X connect 28 0 15 0;
#X connect 29 0 31 0;
#X connect 30 0 31 0;
#X connect 31 0 28 1;
#X connect 32 0 10 0;
#X connect 33 0 32 0;
