#N canvas 143 46 964 849 10;
#N canvas 0 22 450 278 (subpatch) 0;
#X array array1 13704 float 2;
#X coords 0 1 13704 -1 200 140 1;
#X restore 41 26 graph;
#X obj 726 390 bng 15 250 50 0 empty empty empty 17 7 0 10 -262144
-1 -1;
#X obj 726 412 openpanel;
#X msg 726 437 read -resize \$1 array1;
#X obj 726 462 soundfiler;
#X floatatom 726 488 10 0 0 0 - - -;
#X obj 121 710 output~;
#X obj 416 141 tgl 15 0 empty empty empty 17 7 0 10 -262144 -1 -1 0
1;
#X floatatom 59 393 5 0 0 0 - - -;
#X floatatom 269 439 5 0 0 0 - - -;
#X floatatom 164 372 5 0 0 0 - - -;
#X msg 274 391 1;
#X msg 313 391 2;
#X msg 353 390 0.5;
#X msg 147 326 2000;
#X msg 194 331 4000;
#X msg 75 315 4000;
#X msg 28 310 7000;
#X obj 586 218 random 300;
#X obj 586 253 + 33;
#X obj 458 331 random 300;
#X obj 461 389 maxlib/scale 0 300 0.25 4;
#X obj 335 312 select 0 1 2;
#X obj 354 272 counter 0 3;
#X obj 411 178 metro 100;
#X obj 69 267 snapshot~ 50;
#X obj 64 237 vline~;
#X msg 63 204 0 0 0 \, 10000 10000 0;
#X msg 176 300 440;
#X text 49 430 start;
#X text 162 413 length;
#X text 266 470 speed;
#X obj 296 164 select 1;
#X obj 128 520 l2_gr_w;
#X connect 1 0 2 0;
#X connect 2 0 3 0;
#X connect 3 0 4 0;
#X connect 4 0 5 0;
#X connect 7 0 24 0;
#X connect 7 0 32 0;
#X connect 8 0 33 1;
#X connect 9 0 33 3;
#X connect 10 0 33 2;
#X connect 11 0 9 0;
#X connect 12 0 9 0;
#X connect 13 0 9 0;
#X connect 14 0 10 0;
#X connect 15 0 10 0;
#X connect 16 0 8 0;
#X connect 17 0 8 0;
#X connect 18 0 19 0;
#X connect 19 0 24 1;
#X connect 20 0 21 0;
#X connect 21 0 9 0;
#X connect 22 0 11 0;
#X connect 22 1 12 0;
#X connect 22 2 13 0;
#X connect 24 0 23 0;
#X connect 24 0 25 0;
#X connect 24 0 20 0;
#X connect 24 0 18 0;
#X connect 24 0 33 0;
#X connect 25 0 8 0;
#X connect 26 0 25 0;
#X connect 27 0 26 0;
#X connect 28 0 10 0;
#X connect 32 0 27 0;
#X connect 33 0 6 0;
#X connect 33 0 6 1;
