#N canvas 0 23 800 500 10;
#X floatatom 17 28 5 0 0 0 - - -, f 5;
#X floatatom 13 186 5 0 0 0 - - -, f 5;
#X floatatom 100 32 5 0 0 0 - - -, f 5;
#X floatatom 96 183 5 0 0 0 - - -, f 5;
#X obj 100 84 send f1;
#X obj 96 132 receive f1;
#X floatatom 256 35 5 0 0 0 - - -, f 5;
#X floatatom 248 193 5 0 0 0 - - -, f 5;
#X floatatom 329 38 5 0 0 0 - - -, f 5;
#X obj 246 86 send f2;
#X obj 319 89 send f2;
#X obj 242 134 receive f2;
#X floatatom 344 195 5 0 0 0 - - -, f 5;
#X obj 338 136 receive f2;
#X floatatom 519 42 5 0 0 0 - - -, f 5;
#X floatatom 499 172 5 0 0 0 - - -, f 5;
#X obj 513 99 send the send;
#X obj 496 136 receive the send;
#X floatatom 617 36 5 0 0 0 - - -, f 5;
#X obj 617 70 send the;
#X floatatom 17 301 5 0 0 0 - - f1, f 5;
#X obj 189 304 vsl 15 128 0 127 0 0 empty f1 empty 0 -9 0 10 -262144
-1 -1 7700 1;
#X text 16 274 send symbol: s1;
#X floatatom 21 361 5 0 0 0 - f1 -, f 5;
#X obj 85 304 ui.toggle @size 75 75 @fontname "Helvetica" @fontweight
"normal" @fontslant "roman" @fontsize 11 @receive "f1" @send "(null)"
@pinned 0 @presetname "(null)" @bgcolor 0.93 0.93 0.93 1 @bdcolor 0.6
0.6 0.6 1 @crcolor 0 0.75 1 1;
#X obj 263 274 ui.sliders @size 150 100 @fontname "Helvetica" @fontweight
"normal" @fontslant "roman" @fontsize 11 @receive "(null)" @send "f1"
@pinned 0 @presetname "(null)" @bgcolor 0.912987 0.912987 0.912987
1 @bdcolor 0.6 0.6 0.6 1 @fgcolor 0.75 0.75 0.75 1 @count 8 @shift
0 @range 127 @auto_range 0 @show_range 1;
#X obj 262 407 ui.display @size 250 30 @fontname "Helvetica" @fontweight
"normal" @fontslant "roman" @fontsize 11 @receive "(null)" @send "(null)"
@pinned 0 @bgcolor 0.93 0.93 0.93 1 @bdcolor 0.6 0.6 0.6 1 @display_events
1 @display_type 0 @auto_size 1;
#X floatatom 684 66 5 0 0 0 - - -, f 5;
#X obj 684 100 send the other;
#X obj 150 184 bng 15 250 50 0 empty empty empty 17 7 0 10 -262144
-1 -1;
#X text 96 7 1;
#X text 489 13 2;
#X text 29 253 3;
#X text 255 242 4;
#X text 540 256 5;
#N canvas 77 188 511 357 gui 0;
#X obj 20 17 hsl 128 15 0 127 0 0 f1 empty empty -2 -8 0 10 -262144
-1 -1 7700 1;
#X obj 22 45 hsl 128 15 0 127 0 0 empty empty empty -2 -8 0 10 -262144
-1 -1 7200 1;
#X obj 22 73 hsl 128 15 0 127 0 0 empty empty empty -2 -8 0 10 -262144
-1 -1 4000 1;
#X coords 0 -1 1 1 200 100 1 0 0;
#X restore 536 279 pd gui;
#X connect 0 0 1 0;
#X connect 2 0 4 0;
#X connect 5 0 3 0;
#X connect 5 0 29 0;
#X connect 6 0 9 0;
#X connect 8 0 10 0;
#X connect 11 0 7 0;
#X connect 13 0 12 0;
#X connect 14 0 16 0;
#X connect 17 0 15 0;
#X connect 18 0 19 0;
#X connect 25 0 26 0;
#X connect 27 0 28 0;
