#N canvas 34 42 700 500 10;
#X obj 90 125 arp_subpatch;
#X obj 118 88 tgl 15 0 empty empty empty 17 7 0 10 -262144 -1 -1 1
1;
#X floatatom 102 162 5 0 0 0 - - -, f 5;
#X obj 84 202 osc~;
#X obj 90 263 dac~;
#X obj 87 233 *~ 0.1;
#X obj 183 126 arp_subpatch;
#X floatatom 195 163 5 0 0 0 - - -, f 5;
#X obj 177 203 osc~;
#X obj 183 264 dac~;
#X obj 180 234 *~ 0.1;
#X obj 283 128 arp_subpatch;
#X floatatom 295 165 5 0 0 0 - - -, f 5;
#X obj 277 205 osc~;
#X obj 283 266 dac~;
#X obj 280 236 *~ 0.1;
#X obj 376 129 arp_subpatch;
#X floatatom 388 166 5 0 0 0 - - -, f 5;
#X obj 370 206 osc~;
#X obj 376 267 dac~;
#X obj 373 237 *~ 0.1;
#X connect 0 0 2 0;
#X connect 1 0 0 0;
#X connect 1 0 6 0;
#X connect 1 0 11 0;
#X connect 1 0 16 0;
#X connect 2 0 3 0;
#X connect 3 0 5 0;
#X connect 5 0 4 0;
#X connect 5 0 4 1;
#X connect 6 0 7 0;
#X connect 7 0 8 0;
#X connect 8 0 10 0;
#X connect 10 0 9 0;
#X connect 10 0 9 1;
#X connect 11 0 12 0;
#X connect 12 0 13 0;
#X connect 13 0 15 0;
#X connect 15 0 14 0;
#X connect 15 0 14 1;
#X connect 16 0 17 0;
#X connect 17 0 18 0;
#X connect 18 0 20 0;
#X connect 20 0 19 0;
#X connect 20 0 19 1;
