#N canvas 34 42 700 500 10;
#X obj 118 88 tgl 15 0 empty empty empty 17 7 0 10 -262144 -1 -1 0
1;
#X floatatom 102 162 5 0 0 0 - - -, f 5;
#X obj 84 202 osc~;
#X obj 90 263 dac~;
#X obj 87 233 *~ 0.1;
#X floatatom 206 53 5 0 0 0 - - -, f 5;
#X obj 100 128 arp_subpatch123;
#X floatatom 224 163 5 0 0 0 - - -, f 5;
#X obj 206 203 osc~;
#X obj 212 264 dac~;
#X obj 209 234 *~ 0.1;
#X floatatom 353 159 5 0 0 0 - - -, f 5;
#X obj 335 199 osc~;
#X obj 341 260 dac~;
#X obj 338 230 *~ 0.1;
#X floatatom 475 160 5 0 0 0 - - -, f 5;
#X obj 457 200 osc~;
#X obj 463 261 dac~;
#X obj 460 231 *~ 0.1;
#N canvas 0 23 800 551 arp_subpatch123 0;
#X restore 133 323 pd arp_subpatch123;
#X obj 222 129 arp_subpatch123;
#X obj 351 125 arp_subpatch123;
#X obj 473 126 arp_subpatch123;
#X connect 0 0 6 0;
#X connect 0 0 20 0;
#X connect 0 0 21 0;
#X connect 0 0 22 0;
#X connect 1 0 2 0;
#X connect 2 0 4 0;
#X connect 4 0 3 0;
#X connect 4 0 3 1;
#X connect 5 0 6 1;
#X connect 5 0 20 1;
#X connect 5 0 21 1;
#X connect 5 0 22 1;
#X connect 6 0 1 0;
#X connect 7 0 8 0;
#X connect 8 0 10 0;
#X connect 10 0 9 0;
#X connect 10 0 9 1;
#X connect 11 0 12 0;
#X connect 12 0 14 0;
#X connect 14 0 13 0;
#X connect 14 0 13 1;
#X connect 15 0 16 0;
#X connect 16 0 18 0;
#X connect 18 0 17 0;
#X connect 18 0 17 1;
#X connect 20 0 7 0;
#X connect 21 0 11 0;
#X connect 22 0 15 0;
