#N canvas 87 103 966 645 24;
#X obj 380 446 osc~;
#X obj 381 510 dac~;
#X obj 53 369 *~;
#X obj 55 208 receive~ t;
#X obj 68 516 send~ t;
#X obj 649 75 cursor;
#X obj 648 132 route motion;
#X obj 650 188 route x y;
#X obj 179 87 metro;
#X obj 179 56 tgl 15 0 empty empty empty 17 7 0 10 -262144 -1 -1 0
1;
#X obj 233 206 random 100;
#X obj 648 398 maxlib/scale 0 768 10 2000;
#X obj 637 49 tgl 15 0 empty empty empty 17 7 0 10 -262144 -1 -1 1
1;
#X obj 626 308 maxlib/scale 0 1024 500 50;
#X floatatom 660 245 5 0 0 0 - - -;
#X floatatom 758 246 5 0 0 0 - - -;
#X floatatom 622 349 5 0 0 0 - - -;
#X obj 374 298 random 1000;
#X obj 233 308 vline~;
#X obj 234 262 pack 0 0;
#X obj 372 398 vline~;
#X obj 373 352 pack 0 0;
#X obj 369 206 random 500;
#X connect 0 0 1 0;
#X connect 0 0 1 1;
#X connect 0 0 4 0;
#X connect 2 0 0 0;
#X connect 3 0 2 0;
#X connect 5 0 6 0;
#X connect 6 0 7 0;
#X connect 7 0 13 0;
#X connect 7 0 14 0;
#X connect 7 1 11 0;
#X connect 7 1 15 0;
#X connect 8 0 10 0;
#X connect 8 0 17 0;
#X connect 8 0 22 0;
#X connect 9 0 8 0;
#X connect 10 0 19 0;
#X connect 11 0 10 1;
#X connect 12 0 5 0;
#X connect 13 0 8 1;
#X connect 13 0 16 0;
#X connect 17 0 21 0;
#X connect 18 0 2 1;
#X connect 19 0 18 0;
#X connect 20 0 0 0;
#X connect 21 0 20 0;
#X connect 22 0 19 1;
#X connect 22 0 21 1;
