#N canvas 146 85 1297 826 10;
#X declare -lib rtc;
#N canvas 0 22 450 278 (subpatch) 0;
#X array \$0-sndL 84672 float 2;
#X coords 0 1 84672 -1 200 140 1;
#X restore 380 69 graph;
#N canvas 0 22 450 278 (subpatch) 0;
#X array \$0-sndR 84672 float 2;
#X coords 0 1 84672 -1 200 140 1 0 0;
#X restore 379 241 graph;
#X obj 116 63 bng 15 250 50 0 empty empty empty 17 7 0 10 -262144 -1
-1;
#X obj 116 90 openpanel;
#X msg 116 149 read -resize \$1 \$2-sndL \$2-sndR;
#X obj 116 120 pack s \$0;
#X obj 116 177 soundfiler;
#X obj 143 212 s \$0-size;
#X obj 116 245 expr 44100/$f1;
#X obj 116 328 phasor~;
#X obj 116 302 f;
#X obj 116 364 *~;
#X obj 116 396 tabread4~ \$0-sndL;
#X obj 116 645 output~;
#X msg 47 292 0;
#X obj 61 252 bng 15 250 50 0 empty empty empty 17 7 0 10 -262144 -1
-1;
#X obj 116 562 rev2~ 100 90 3000 20;
#X obj 177 508 hsl 128 15 0 127 0 0 empty empty liveness -2 -8 0 10
-262144 -1 -1 0 1;
#X floatatom 190 531 5 0 0 0 - - -;
#X obj 148 448 hsl 128 15 0 127 0 0 empty empty level -2 -8 0 10 -262144
-1 -1 9900 1;
#X floatatom 160 471 5 0 0 0 - - -;
#X msg 164 297 0.5;
#X floatatom 353 496 5 0 0 0 - - -;
#X obj 353 470 env~;
#X obj 353 441 hip~ 5;
#X obj 444 567 vu 15 120 empty empty -1 -8 0 10 -66577 -1 1 0;
#X obj 443 517 - 100;
#X floatatom 374 596 5 0 0 0 - - -;
#X floatatom 292 605 5 0 0 0 - - -;
#X msg 374 626 0;
#X obj 680 518 fiddle~;
#X obj 680 468 adc~ 1;
#X floatatom 653 577 5 0 0 0 - - -;
#X obj 774 109 import rtc;
#X obj 653 608 round;
#X floatatom 653 638 5 0 0 0 - - -;
#X obj 868 608 rev2~ 100 90 3000 20;
#X obj 868 640 output~;
#X obj 884 524 hsl 128 15 0 127 0 0 empty empty empty -2 -8 0 10 -262144
-1 -1 4000 1;
#X floatatom 921 495 5 0 0 0 - - -;
#X text 723 239 30 80 -> 99 0;
#X obj 881 552 clip 0 100;
#X floatatom 957 573 5 0 0 0 - - -;
#X floatatom 993 558 5 0 0 0 - - -;
#X floatatom 880 274 5 0 0 0 - - -;
#X floatatom 880 339 5 0 0 0 - - -;
#X obj 880 365 clip 0 1000;
#X floatatom 880 393 5 0 0 0 - - -;
#X text 654 315 40 70 -> 0 127;
#X text 656 349 70 - 40 == 3;
#X obj 880 309 maxlib/scale 20 30 0 99;
#X obj 881 450 maxlib/scale 40 70 0 99;
#X obj 653 689 moses 75;
#X msg 723 730 100;
#X msg 653 731 40;
#X obj 980 139 adc~ 1;
#X obj 980 165 env~;
#X floatatom 980 200 5 0 0 0 - - -;
#X obj 980 226 mtof;
#X obj 980 251 osc~;
#X obj 1046 287 output~;
#X obj 318 557 moses 50;
#X obj 292 693 f 100;
#X obj 292 632 b;
#X obj 319 659 ctlin 4;
#X obj 406 471 ctlin 3;
#X connect 2 0 3 0;
#X connect 3 0 5 0;
#X connect 4 0 6 0;
#X connect 5 0 4 0;
#X connect 6 0 7 0;
#X connect 6 0 8 0;
#X connect 6 0 11 1;
#X connect 8 0 10 0;
#X connect 9 0 11 0;
#X connect 10 0 9 0;
#X connect 11 0 12 0;
#X connect 12 0 16 0;
#X connect 12 0 24 0;
#X connect 14 0 9 0;
#X connect 15 0 10 0;
#X connect 16 0 13 0;
#X connect 16 1 13 1;
#X connect 17 0 16 2;
#X connect 17 0 18 0;
#X connect 19 0 20 0;
#X connect 19 0 16 1;
#X connect 21 0 9 1;
#X connect 22 0 26 0;
#X connect 22 0 61 0;
#X connect 23 0 22 0;
#X connect 24 0 23 0;
#X connect 26 0 25 0;
#X connect 27 0 29 0;
#X connect 28 0 63 0;
#X connect 29 0 17 0;
#X connect 30 0 32 0;
#X connect 31 0 30 0;
#X connect 31 0 36 0;
#X connect 32 0 34 0;
#X connect 34 0 35 0;
#X connect 35 0 52 0;
#X connect 36 0 37 0;
#X connect 36 1 37 1;
#X connect 38 0 41 0;
#X connect 38 0 43 0;
#X connect 41 0 36 2;
#X connect 41 0 42 0;
#X connect 44 0 50 0;
#X connect 45 0 46 0;
#X connect 46 0 47 0;
#X connect 50 0 45 0;
#X connect 51 0 38 0;
#X connect 51 0 39 0;
#X connect 52 0 54 0;
#X connect 52 1 53 0;
#X connect 53 0 38 0;
#X connect 54 0 38 0;
#X connect 55 0 56 0;
#X connect 56 0 57 0;
#X connect 57 0 58 0;
#X connect 58 0 59 0;
#X connect 59 0 60 0;
#X connect 59 0 60 1;
#X connect 61 0 28 0;
#X connect 61 1 27 0;
#X connect 62 0 17 0;
#X connect 63 0 62 0;
#X connect 64 0 62 1;
#X connect 65 0 61 1;
