#N canvas 19 26 949 642 36;
#X obj 39 53 bng 30 250 50 0 empty empty empty 17 7 0 10 -262144 -1
-1;
#X obj 39 95 openpanel;
#X obj 39 229 soundfiler;
#X msg 39 163 read -resize \$1 snd1;
#N canvas 0 22 450 278 (subpatch) 0;
#X array snd1 162831 float 2;
#X coords 0 1 162831 -1 200 140 1;
#X restore 553 112 graph;
#X floatatom 39 305 10 0 0 0 - - -;
#X obj 387 542 dac~;
#X obj 387 463 tabread~ snd1;
#X obj 387 325 phasor~ 1;
#X text 623 296 [0 \, 1];
#X obj 387 401 *~ 1;
#X obj 39 395 expr 44100/$f1;
#X obj 387 267 * 0.5;
#X obj 425 56 hsl 128 15 0 10 0 0 empty empty empty -2 -8 0 10 -262144
-1 -1 2400 1;
#X obj 422 80 t b f;
#X floatatom 291 82 5 0 0 0 - - -;
#X connect 0 0 1 0;
#X connect 1 0 3 0;
#X connect 2 0 5 0;
#X connect 3 0 2 0;
#X connect 5 0 10 1;
#X connect 5 0 11 0;
#X connect 7 0 6 0;
#X connect 7 0 6 1;
#X connect 8 0 10 0;
#X connect 10 0 7 0;
#X connect 11 0 12 0;
#X connect 12 0 8 0;
#X connect 13 0 14 0;
#X connect 13 0 15 0;
#X connect 14 0 12 0;
#X connect 14 1 12 1;
