#N canvas 315 160 907 549 10;
#X obj 47 68 openpanel;
#X obj 47 39 bng 15 250 50 0 empty empty empty 17 7 0 10 -262144 -1
-1;
#X obj 47 129 soundfiler;
#N canvas 0 22 450 278 (subpatch) 0;
#X array snd1 84672 float 2;
#X coords 0 1 84672 -1 200 140 1;
#X restore 370 44 graph;
#X msg 47 97 read -resize \$1 snd1;
#X floatatom 47 158 10 0 0 0 - - -;
#X obj 168 328 dac~;
#X obj 168 283 tabplay~ snd1;
#X obj 168 247 bng 15 250 50 0 empty empty empty 17 7 0 10 -262144
-1 -1;
#X msg 202 246 stop;
#X obj 268 356 phasor~;
#X obj 268 384 *~ 1;
#X msg 119 41 stuck-a-125.wav;
#X obj 119 68 symbol;
#X msg 138 21 stuck-b-125.wav;
#X obj 268 485 dac~;
#X obj 268 294 expr 44100/$f1;
#X floatatom 268 325 5 0 0 0 - - -;
#X obj 268 415 +~ 0;
#X obj 325 385 nbx 5 14 -1e+37 1e+37 0 0 empty empty empty 0 -8 0 10
-262144 -1 -1 26380 256;
#X obj 139 158 s total;
#X obj 371 192 hsl 200 15 0 1 0 0 empty empty empty -2 -8 0 10 -262144
-1 -1 12000 1;
#X obj 371 212 hsl 200 15 0 1 0 0 empty empty empty -2 -8 0 10 -262144
-1 -1 6200 1;
#X obj 413 258 r total;
#X obj 398 286 *;
#X floatatom 398 337 10 0 0 0 - - -;
#X obj 398 311 int;
#X obj 493 258 r total;
#X obj 478 286 *;
#X floatatom 478 337 10 0 0 0 - - -;
#X obj 478 311 int;
#X obj 478 363 t b f;
#X obj 424 408 -;
#X floatatom 424 437 10 0 0 0 - - -;
#X obj 268 453 tabread4~ snd1;
#X obj 268 258 * 1;
#X obj 234 193 hsl 128 15 0 1 0 0 empty empty empty -2 -8 0 10 -262144
-1 -1 7300 1;
#X connect 0 0 4 0;
#X connect 1 0 0 0;
#X connect 2 0 5 0;
#X connect 2 0 20 0;
#X connect 4 0 2 0;
#X connect 7 0 6 0;
#X connect 7 0 6 1;
#X connect 8 0 7 0;
#X connect 9 0 7 0;
#X connect 10 0 11 0;
#X connect 11 0 18 0;
#X connect 12 0 13 0;
#X connect 13 0 4 0;
#X connect 14 0 13 0;
#X connect 16 0 17 0;
#X connect 17 0 10 0;
#X connect 18 0 34 0;
#X connect 19 0 18 1;
#X connect 21 0 24 0;
#X connect 22 0 28 0;
#X connect 23 0 24 1;
#X connect 24 0 26 0;
#X connect 25 0 32 0;
#X connect 26 0 25 0;
#X connect 27 0 28 1;
#X connect 28 0 30 0;
#X connect 29 0 31 0;
#X connect 29 0 19 0;
#X connect 30 0 29 0;
#X connect 31 0 32 0;
#X connect 31 1 32 1;
#X connect 32 0 33 0;
#X connect 33 0 11 1;
#X connect 33 0 35 0;
#X connect 34 0 15 0;
#X connect 34 0 15 1;
#X connect 35 0 16 0;
#X connect 36 0 35 1;
