#N canvas 12 51 923 634 10;
#X obj 99 108 cursor;
#X obj 99 79 tgl 15 0 empty empty empty 17 7 0 10 -262144 -1 -1 0 1
;
#X obj 99 139 route motion;
#X floatatom 103 228 5 0 0 0 - - -;
#X floatatom 178 228 5 0 0 0 - - -;
#X obj 99 196 route x y;
#X text 160 107 motion x 324;
#X text 107 166 x 324;
#X obj 283 79 key;
#X floatatom 368 133 5 0 0 0 - - -;
#X obj 298 187 sel 97 119 115 101 100;
#X msg 298 222 60;
#X obj 321 288 mtof;
#X obj 321 342 osc~;
#X msg 329 244 61;
#X msg 339 224 62;
#X msg 369 244 63;
#X msg 393 222 64;
#X msg 425 245 65;
#X obj 479 110 key;
#X obj 479 207 +;
#X obj 514 207 f;
#X obj 479 138 sel 45 61;
#X msg 479 169 -1;
#X msg 516 169 1;
#N canvas 254 244 450 300 test 0;
#X obj 41 69 osc~ 400;
#X obj 41 180 *~;
#X obj 120 69 metro 500;
#X msg 120 101 1;
#X obj 163 101 del 100;
#X msg 163 130 0;
#X obj 120 154 sig~;
#X obj 41 220 outlet~;
#X obj 120 23 inlet;
#X connect 0 0 1 0;
#X connect 1 0 7 0;
#X connect 2 0 3 0;
#X connect 2 0 4 0;
#X connect 3 0 6 0;
#X connect 4 0 5 0;
#X connect 5 0 6 0;
#X connect 6 0 1 1;
#X connect 8 0 2 0;
#X restore 391 319 pd test signal;
#X obj 391 293 tgl 15 0 empty empty empty 17 7 0 10 -262144 -1 -1 0
1;
#X obj 470 420 dac~;
#X obj 470 370 rev3~ 100 90 3000 20;
#X obj 516 333 hsl 128 15 0 127 0 0 empty empty empty -2 -8 0 10 -262144
-1 -1 4500 1;
#X obj 530 249 key;
#X obj 530 276 sel 32;
#X obj 83 351 key;
#X obj 83 394 moses 49;
#X obj 128 423 moses 57;
#X text 146 351 x > 49 && x < 57;
#X obj 128 450 - 49;
#X obj 128 480 hradio 15 1 0 8 empty empty empty 0 -8 0 10 -262144
-1 -1 3;
#X obj 317 589 dac~;
#X obj 317 504 bp~ 440 200;
#X obj 317 536 *~ 4;
#X obj 386 462 hsl 128 15 3 300 0 0 empty empty empty -2 -8 0 10 -262144
-1 -1 800 1;
#X obj 317 435 pink~;
#X obj 386 439 hsl 128 15 100 5000 0 0 empty empty empty -2 -8 0 10
-262144 -1 -1 0 1;
#X connect 0 0 2 0;
#X connect 1 0 0 0;
#X connect 2 0 5 0;
#X connect 5 0 3 0;
#X connect 5 1 4 0;
#X connect 8 0 9 0;
#X connect 8 0 10 0;
#X connect 10 0 11 0;
#X connect 10 1 14 0;
#X connect 10 2 15 0;
#X connect 10 3 16 0;
#X connect 10 4 17 0;
#X connect 10 5 18 0;
#X connect 11 0 12 0;
#X connect 12 0 13 0;
#X connect 14 0 12 0;
#X connect 15 0 12 0;
#X connect 16 0 12 0;
#X connect 17 0 12 0;
#X connect 19 0 22 0;
#X connect 20 0 21 0;
#X connect 20 0 29 0;
#X connect 21 0 20 1;
#X connect 22 0 23 0;
#X connect 22 1 24 0;
#X connect 23 0 20 0;
#X connect 24 0 20 0;
#X connect 25 0 28 0;
#X connect 25 0 27 0;
#X connect 26 0 25 0;
#X connect 28 0 27 0;
#X connect 28 1 27 1;
#X connect 29 0 28 2;
#X connect 30 0 31 0;
#X connect 32 0 33 0;
#X connect 33 1 34 0;
#X connect 34 0 36 0;
#X connect 36 0 37 0;
#X connect 39 0 40 0;
#X connect 40 0 38 0;
#X connect 40 0 38 1;
#X connect 41 0 39 2;
#X connect 42 0 39 0;
#X connect 43 0 39 1;
