#N canvas 119 157 633 344 10;
#X obj 29 53 inlet list;
#X obj 134 112 zl len;
#X obj 101 161 random;
#X obj 29 90 t l b l;
#X obj 101 187 + 1;
#X obj 29 204 zl nth;
#X obj 29 237 outlet random element;
#X text 186 111 list length;
#X text 159 161 random value [0 \, length-1];
#X text 159 186 random value [1 \, length];
#X connect 0 0 3 0;
#X connect 1 0 2 1;
#X connect 2 0 4 0;
#X connect 3 0 5 0;
#X connect 3 1 2 0;
#X connect 3 2 1 0;
#X connect 4 0 5 1;
#X connect 5 0 6 0;
