#N canvas 16 41 997 623 10;
#X obj 61 449 dsp~;
#X msg 101 53 0 1 4 5 6;
#X obj 101 94 zl len;
#X text 182 95 length;
#X floatatom 101 134 5 0 0 0 - - -;
#X msg 184 53 a b c;
#X obj 226 174 zl nth;
#X text 298 173 n-th;
#X floatatom 259 143 5 0 0 0 - - -;
#X msg 226 119 1 2 3 4 5 6 7 8 9;
#X floatatom 226 212 5 0 0 0 - - -;
#X obj 377 282 zl nth;
#X obj 410 256 + 1;
#X obj 377 105 bng 15 250 50 0 empty empty empty 17 7 0 10 -262144
-1 -1;
#X obj 377 131 t b b;
#X obj 377 375 + 60;
#X obj 377 402 mtof;
#X msg 377 182 -1 2 2 4 6 8 10;
#X obj 410 229 random 7;
#X obj 377 319 moses 0;
#X msg 339 336 0;
#X obj 579 361 vsl 15 128 0 1 0 0 empty empty empty 0 -9 0 10 -262144
-1 -1 0 1;
#X obj 579 295 vline~;
#X msg 579 244 1 2000;
#X obj 579 330 unsig~ 10;
#X msg 629 244 0 2000;
#X msg 599 204 1 2000 1000;
#X msg 689 204 0 2000 2000;
#X obj 661 447 osc~ 440;
#X obj 661 477 *~;
#X obj 690 417 vline~;
#X text 684 315 value time delay;
#X msg 690 382 1 100 0 \, 0.6 50 100 \, 0 1000 150;
#X obj 661 543 clip~ -1 1;
#X obj 661 511 *~ 3;
#X obj 760 476 line;
#X msg 760 446 1 \, 20 100;
#X obj 424 432 t f b;
#X connect 1 0 2 0;
#X connect 2 0 4 0;
#X connect 5 0 2 0;
#X connect 6 0 10 0;
#X connect 8 0 6 1;
#X connect 9 0 6 0;
#X connect 11 0 19 0;
#X connect 12 0 11 1;
#X connect 13 0 14 0;
#X connect 14 0 17 0;
#X connect 14 1 18 0;
#X connect 15 0 16 0;
#X connect 16 0 37 0;
#X connect 17 0 11 0;
#X connect 18 0 12 0;
#X connect 19 0 20 0;
#X connect 19 1 15 0;
#X connect 20 0 37 0;
#X connect 22 0 24 0;
#X connect 23 0 22 0;
#X connect 24 0 21 0;
#X connect 25 0 22 0;
#X connect 26 0 22 0;
#X connect 27 0 22 0;
#X connect 28 0 29 0;
#X connect 29 0 34 0;
#X connect 30 0 29 1;
#X connect 32 0 30 0;
#X connect 32 0 36 0;
#X connect 33 0 0 0;
#X connect 34 0 33 0;
#X connect 35 0 34 1;
#X connect 36 0 35 0;
#X connect 37 0 28 0;
#X connect 37 1 32 0;
