#N canvas 64 65 1133 732 10;
#X obj 151 527 tabread4~ array1;
#X obj 151 479 vline~;
#X floatatom 220 149 5 0 0 0 - - -;
#X obj 186 149 bng 15 250 50 0 empty empty empty 17 7 0 10 -262144
-1 -1;
#X obj 186 188 f;
#X obj 186 220 t b f f;
#X obj 151 371 f;
#X obj 252 380 sampstoms~;
#X floatatom 78 199 5 0 0 0 - - -;
#X obj 253 292 -;
#X obj 253 262 t b;
#X obj 151 417 pack 0 0 0;
#X msg 151 451 \$3 0 0 \, \$1 \$2 0;
#X obj 384 180 +;
#X obj 377 140 t b f;
#X obj 252 340 / 1;
#X floatatom 327 313 5 0 0 0 - - -;
#X text 374 309 speed;
#X text 79 170 start;
#X text 264 143 end;
#X floatatom 372 103 5 0 0 0 - - -;
#X text 432 101 length;
#X obj 120 63 inlet;
#X obj 198 63 inlet;
#X obj 313 40 inlet;
#X obj 151 618 outlet~;
#X obj 50 63 inlet;
#X obj 151 572 *~;
#N canvas 0 22 450 278 (subpatch) 0;
#X array \$0-hanning 2048 float 2;
#X coords 0 1 2048 0 200 140 1 0 0;
#X restore 703 64 graph;
#X obj 706 232 loadbang;
#X obj 706 428 tabwrite~ \$0-hanning;
#X obj 724 287 samplerate~;
#X obj 706 258 bng 15 250 50 0 empty empty empty 17 7 0 10 -262144
-1 -1;
#X obj 724 339 osc~;
#X msg 814 306 0;
#X obj 724 363 *~ -0.5;
#X obj 724 385 +~ 0.5;
#X obj 724 314 / 2048;
#X obj 425 357 / 2048;
#X obj 309 505 tabread~ \$0-hanning;
#X obj 309 476 vline~;
#X msg 309 447 0 0 0 \, 2048 \$1 0;
#X connect 0 0 27 0;
#X connect 1 0 0 0;
#X connect 2 0 4 1;
#X connect 3 0 4 0;
#X connect 4 0 5 0;
#X connect 5 0 6 0;
#X connect 5 1 6 1;
#X connect 5 2 9 0;
#X connect 6 0 11 0;
#X connect 7 1 11 1;
#X connect 7 1 41 0;
#X connect 8 0 10 0;
#X connect 8 0 9 1;
#X connect 8 0 11 2;
#X connect 8 0 13 0;
#X connect 9 0 15 0;
#X connect 10 0 9 0;
#X connect 11 0 12 0;
#X connect 12 0 1 0;
#X connect 13 0 2 0;
#X connect 14 0 13 0;
#X connect 14 1 13 1;
#X connect 15 0 7 0;
#X connect 15 0 38 0;
#X connect 16 0 15 1;
#X connect 20 0 14 0;
#X connect 22 0 8 0;
#X connect 23 0 20 0;
#X connect 24 0 16 0;
#X connect 26 0 3 0;
#X connect 27 0 25 0;
#X connect 29 0 32 0;
#X connect 31 0 37 0;
#X connect 32 0 31 0;
#X connect 32 0 30 0;
#X connect 32 0 34 0;
#X connect 33 0 35 0;
#X connect 34 0 33 1;
#X connect 35 0 36 0;
#X connect 36 0 30 0;
#X connect 37 0 33 0;
#X connect 39 0 27 1;
#X connect 40 0 39 0;
#X connect 41 0 40 0;
