#N canvas 80 92 732 603 10;
#X obj 90 156 fiddle~;
#X floatatom 94 253 5 0 0 0 - - -;
#X obj 182 269 bng 15 250 50 0 empty empty empty 17 7 0 10 -262144
-1 -1;
#X obj 18 156 unsig~ 20;
#X floatatom 18 194 5 0 0 0 - - -;
#X obj 96 462 phasor~;
#X obj 184 346 vline~;
#X obj 95 518 *~;
#X obj 190 156 dac~;
#X obj 99 415 mtof;
#X floatatom 36 463 5 0 0 0 - - -;
#X msg 184 308 1 0 0 \, 0 500 0;
#X floatatom 133 211 5 0 0 0 - - -;
#X obj 307 311 dbtorms;
#X floatatom 346 340 5 0 0 0 - - -;
#X obj 439 265 prepend set;
#X msg 440 305 71.2402 74.583;
#X obj 27 284 bng 15 250 50 0 empty empty empty 17 7 0 10 -262144 -1
-1;
#X obj 97 331 vline~;
#X msg 94 294 \$1 500 0;
#X obj 99 372 unsig~ 20;
#X obj 309 415 vline~;
#X obj 310 448 unsig~ 20;
#X msg 308 388 \$1 1500 0;
#X obj 90 93 adc~ 1;
#X obj 189 55 delread~ d1 200;
#X obj 94 558 delwrite~ d1 200;
#X obj 191 101 *~;
#X obj 349 66 cycle~ 500;
#X connect 0 0 1 0;
#X connect 0 1 2 0;
#X connect 0 2 15 0;
#X connect 0 3 12 0;
#X connect 0 3 13 0;
#X connect 1 0 17 0;
#X connect 1 0 19 0;
#X connect 2 0 11 0;
#X connect 3 0 4 0;
#X connect 5 0 7 0;
#X connect 7 0 26 0;
#X connect 9 0 5 0;
#X connect 9 0 10 0;
#X connect 11 0 6 0;
#X connect 13 0 14 0;
#X connect 13 0 23 0;
#X connect 15 0 16 0;
#X connect 18 0 20 0;
#X connect 19 0 18 0;
#X connect 20 0 9 0;
#X connect 21 0 22 0;
#X connect 22 0 7 1;
#X connect 23 0 21 0;
#X connect 24 0 3 0;
#X connect 24 0 0 0;
#X connect 25 0 27 0;
#X connect 27 0 0 0;
#X connect 27 0 8 1;
#X connect 27 0 8 0;
#X connect 28 0 27 1;
