#N canvas 118 23 1018 585 36;
#X declare -lib mrpeach;
#X obj 508 54 import mrpeach;
#X obj 66 57 udpreceive 9000;
#X obj 66 131 unpackOSC;
#X obj 66 276 prepend set;
#X msg 66 348 /freq 234.26;
#X obj 405 197 routeOSC /freq /amp;
#X obj 405 316 osc~;
#X obj 405 406 *~ 0.1;
#X obj 405 494 dac~;
#X connect 1 0 2 0;
#X connect 2 0 3 0;
#X connect 2 0 5 0;
#X connect 3 0 4 0;
#X connect 5 0 6 0;
#X connect 5 1 7 1;
#X connect 6 0 7 0;
#X connect 7 0 8 0;
#X connect 7 0 8 1;
