#N canvas 123 95 664 483 12;
#X floatatom 41 81 5 0 0 0 - - -, f 5;
#X floatatom 40 173 5 0 0 0 - - -, f 5;
#X obj 161 74 ui.slider @size 14 349 @fontname "Helvetica" @fontweight
"normal" @fontslant "roman" @fontsize 11 @receive "(null)" @send "(null)"
@pinned 0 @presetname "(null)" @mode 0 @min 0 @max 1 @border_color
0.6 0.6 0.6 1 @background_color 0.93 0.93 0.93 1 @knob_color 0 0.75
1 1;
#X obj 201 70 ui.keyboard @size 433 60 @fontname "Helvetica" @fontweight
"normal" @fontslant "roman" @fontsize 11 @receive "(null)" @send "(null)"
@pinned 0 @background_color 0.93 0.93 0.93 1 @border_color 0.6 0.6
0.6 1 @shift 36 @keys 61;
#X obj 211 271 osc~;
#X obj 212 333 dac~;
#X obj 339 166 ui.display @size 40 18 @fontname "Helvetica" @fontweight
"normal" @fontslant "roman" @fontsize 11 @receive "(null)" @send "(null)"
@pinned 0 @background_color 0.93 0.93 0.93 1 @border_color 0.6 0.6
0.6 1 @display_events 1 @display_type 0 @auto_size 1;
#X obj 201 161 unpack;
#X floatatom 262 214 5 0 0 0 - - -, f 5;
#X floatatom 313 213 5 0 0 0 - - -, f 5;
#X obj 200 218 mtof;
#X connect 0 0 1 0;
#X connect 3 0 6 0;
#X connect 3 0 7 0;
#X connect 4 0 5 0;
#X connect 4 0 5 1;
#X connect 7 0 8 0;
#X connect 7 0 10 0;
#X connect 7 1 9 0;
#X connect 10 0 4 0;
