#N canvas 151 85 1440 890 12;
#X obj 173 371 delwrite~ d1 1000;
#X obj 554 45 bng 15 250 50 0 empty empty empty 17 7 0 10 -262144 -1
-1;
#X text 592 45 open file;
#X obj 554 74 openpanel;
#X msg 554 103 load \$1 @to array[] @resize;
#X obj 554 132 snd.file;
#X obj 554 161 prop-> @channels;
#X floatatom 554 189 8 0 0 0 - - -, f 8;
#X floatatom 678 189 5 0 0 0 - - -, f 5;
#X obj 746 189 print;
#X text 554 218 play;
#X msg 554 247 bang;
#X msg 688 247 stop;
#X obj 554 290 tabplay~ array1;
#X obj 193 678 dac~;
#N canvas 0 22 450 278 (subpatch) 0;
#X array array1 153400 float 2;
#X coords 0 1 153400 -1 200 140 1;
#X restore 857 100 graph;
#X obj 194 619 +~;
#X obj 349 152 tgl 15 0 empty empty empty 17 7 0 10 -262144 -1 -1 1
1;
#X obj 344 220 bng 15 250 50 0 empty empty empty 17 7 0 10 -262144
-1 -1;
#X obj 348 180 metro 3500;
#X obj 328 682 ui.spectroscope~ @size 703 100 @fontname "Helvetica"
@fontweight "normal" @fontslant "roman" @fontsize 11 @receive "(null)"
@send "(null)" @pinned 0 @background_color 0.93 0.93 0.93 1 @border_color
0.6 0.6 0.6 1 @fgcolor 0 0.75 1 1;
#X obj 192 558 delread4~ d1;
#X obj 135 484 line~;
#X msg 113 431 0 \, 2000 2000;
#X msg 234 441 0 \, 2000 1000;
#X msg 343 446 0 \, 2000 500;
#X connect 1 0 3 0;
#X connect 3 0 4 0;
#X connect 4 0 5 0;
#X connect 5 0 6 0;
#X connect 6 0 7 0;
#X connect 6 1 8 0;
#X connect 6 2 9 0;
#X connect 11 0 13 0;
#X connect 12 0 13 0;
#X connect 13 0 0 0;
#X connect 16 0 14 0;
#X connect 16 0 14 1;
#X connect 16 0 20 0;
#X connect 17 0 19 0;
#X connect 19 0 11 0;
#X connect 19 0 18 0;
#X connect 21 0 16 0;
#X connect 22 0 21 0;
#X connect 23 0 22 0;
#X connect 24 0 22 0;
#X connect 25 0 22 0;
