#N canvas 151 85 1440 890 12;
#X obj 173 371 delwrite~ d1 1000;
#X obj 554 45 bng 15 250 50 0 empty empty empty 17 7 0 10 -262144 -1
-1;
#X text 592 45 open file;
#X obj 554 74 openpanel;
#X msg 554 103 load \$1 @to array[] @resize;
#X obj 554 132 snd.file;
#X obj 554 161 prop-> @channels;
#X floatatom 554 189 8 0 0 0 - - -, f 8;
#X floatatom 678 189 5 0 0 0 - - -, f 5;
#X obj 746 189 print;
#X text 554 218 play;
#X msg 554 247 bang;
#X msg 688 247 stop;
#X obj 554 290 tabplay~ array1;
#X obj 93 681 dac~;
#N canvas 0 22 450 278 (subpatch) 0;
#X array array1 153400 float 2;
#X coords 0 1 153400 -1 200 140 1;
#X restore 857 100 graph;
#X obj 94 622 +~;
#X obj 349 152 tgl 15 0 empty empty empty 17 7 0 10 -262144 -1 -1 1
1;
#X obj 344 220 bng 15 250 50 0 empty empty empty 17 7 0 10 -262144
-1 -1;
#X obj 348 180 metro 3500;
#X obj 328 682 ui.spectroscope~ @size 703 100 @fontname "Helvetica"
@fontweight "normal" @fontslant "roman" @fontsize 11 @receive "(null)"
@send "(null)" @pinned 0 @background_color 0.93 0.93 0.93 1 @border_color
0.6 0.6 0.6 1 @fgcolor 0 0.75 1 1;
#X floatatom 65 410 5 0 0 0 - - -, f 5;
#X obj 93 540 *~;
#X floatatom 152 442 5 0 0 0 - - -, f 5;
#X obj 93 579 delread4~ d1;
#X obj 80 442 osc~;
#X obj 93 510 expr~ $v1*0.5+0.5;
#X obj 288 542 *~;
#X obj 288 581 delread4~ d1;
#X obj 288 512 expr~ $v1*0.5+0.5;
#X obj 493 533 *~;
#X obj 523 473 ui.knob @size 40 40 @fontname "Helvetica" @fontweight
"normal" @fontslant "roman" @fontsize 11 @receive "(null)" @send "(null)"
@pinned 0 @presetname "(null)" @background_color 0.93 0.93 0.93 1 @border_color
0.6 0.6 0.6 1 @knob_color 0 0.75 1 1 @scale_color 0.6 0.6 0.6 1 @show_range
0 @draw_active 0 @min -0.9999 @max 0.9999;
#X connect 1 0 3 0;
#X connect 3 0 4 0;
#X connect 4 0 5 0;
#X connect 5 0 6 0;
#X connect 6 0 7 0;
#X connect 6 1 8 0;
#X connect 6 2 9 0;
#X connect 11 0 13 0;
#X connect 12 0 13 0;
#X connect 13 0 0 0;
#X connect 13 0 16 1;
#X connect 16 0 14 0;
#X connect 16 0 14 1;
#X connect 16 0 20 0;
#X connect 17 0 19 0;
#X connect 19 0 11 0;
#X connect 19 0 18 0;
#X connect 21 0 25 0;
#X connect 22 0 24 0;
#X connect 23 0 22 1;
#X connect 23 0 27 1;
#X connect 24 0 16 0;
#X connect 25 0 26 0;
#X connect 25 0 29 0;
#X connect 26 0 22 0;
#X connect 27 0 28 0;
#X connect 28 0 30 0;
#X connect 29 0 27 0;
#X connect 30 0 0 0;
#X connect 31 0 30 1;
