#N canvas 151 224 968 747 12;
#X obj 94 226 delwrite~ ks 1000;
#X obj 80 623 dac~;
#X obj 168 92 click~;
#X obj 175 43 bng 15 250 50 0 empty empty empty 17 7 0 10 -262144 -1
-1;
#X floatatom 42 337 5 0 0 0 - - -, f 5;
#X obj 622 33 ui.keyboard @size 433 60 @fontname "Helvetica" @fontweight
"normal" @fontslant "roman" @fontsize 11 @receive "(null)" @send "(null)"
@pinned 0 @background_color 0.93 0.93 0.93 1 @border_color 0.6 0.6
0.6 1 @shift 36 @keys 61;
#X obj 615 200 mtof;
#X msg 617 164 \$1;
#X obj 672 290 ui.display @size 63 18 @fontname "Helvetica" @fontweight
"normal" @fontslant "roman" @fontsize 11 @receive "(null)" @send "(null)"
@pinned 0 @background_color 0.93 0.93 0.93 1 @border_color 0.6 0.6
0.6 1 @display_events 1 @display_type 0 @auto_size 1;
#X obj 617 240 expr 1000/$f1;
#X obj 652 115 stripnote;
#X obj 213 664 lop~ 2000;
#X floatatom 334 611 5 0 0 0 - - -, f 5;
#X floatatom 262 110 5 0 0 0 - - -, f 5;
#X obj 36 100 noise.pink~;
#X obj 168 134 lop~ 1000;
#X obj 154 173 *~ 1000;
#X obj 78 61 adc~;
#X obj 214 609 *~ 0.98;
#X obj 269 550 ui.knob @size 40 40 @fontname "Helvetica" @fontweight
"normal" @fontslant "roman" @fontsize 11 @receive "(null)" @send "(null)"
@pinned 0 @presetname "(null)" @background_color 0.93 0.93 0.93 1 @border_color
0.6 0.6 0.6 1 @knob_color 0 0.75 1 1 @scale_color 0.6 0.6 0.6 1 @show_range
0 @draw_active 0 @min 0 @max 1;
#X obj 264 46 metro 1000;
#X obj 250 21 tgl 15 0 empty empty empty 17 7 0 10 -262144 -1 -1 0
1;
#X obj 329 573 ui.slider @size 131 11 @fontname "Helvetica" @fontweight
"normal" @fontslant "roman" @fontsize 11 @receive "(null)" @send "(null)"
@pinned 0 @presetname "(null)" @mode 0 @min 500 @max 5000 @border_color
0.6 0.6 0.6 1 @background_color 0.93 0.93 0.93 1 @knob_color 0 0.75
1 1;
#X obj 85 560 delread4~ ks;
#X obj 74 384 sig~;
#X obj 284 480 *~;
#X obj 310 359 ui.knob @size 40 40 @fontname "Helvetica" @fontweight
"normal" @fontslant "roman" @fontsize 11 @receive "(null)" @send "(null)"
@pinned 0 @presetname "(null)" @background_color 0.93 0.93 0.93 1 @border_color
0.6 0.6 0.6 1 @knob_color 0 0.75 1 1 @scale_color 0.6 0.6 0.6 1 @show_range
0 @draw_active 0 @min 0 @max 100;
#X floatatom 311 419 5 0 0 0 - - -, f 5;
#X obj 154 262 lop~ 1;
#X obj 359 25 metro 1000;
#X obj 345 0 tgl 15 0 empty empty empty 17 7 0 10 -262144 -1 -1 0 1
;
#X obj 402 65 delay 200;
#X msg 401 93 0;
#X obj 357 136 sig~;
#X msg 357 62 1;
#X msg 416 143 trigger \$1;
#X obj 388 179 env.adsr~ 30 30 0 1;
#X text 268 522 fb;
#X text 325 537 filter;
#X text 33 13 excitators;
#X obj 48 169 *~ 0.2;
#X connect 2 0 15 0;
#X connect 3 0 2 0;
#X connect 4 0 24 0;
#X connect 5 0 7 0;
#X connect 5 0 10 0;
#X connect 6 0 9 0;
#X connect 7 0 6 0;
#X connect 9 0 8 0;
#X connect 9 0 4 0;
#X connect 10 0 3 0;
#X connect 11 0 0 0;
#X connect 12 0 11 1;
#X connect 13 0 15 1;
#X connect 14 0 40 0;
#X connect 15 0 16 0;
#X connect 16 0 0 0;
#X connect 16 0 28 0;
#X connect 18 0 11 0;
#X connect 19 0 18 1;
#X connect 20 0 3 0;
#X connect 21 0 20 0;
#X connect 22 0 12 0;
#X connect 23 0 1 0;
#X connect 23 0 1 1;
#X connect 23 0 18 0;
#X connect 24 0 23 0;
#X connect 25 0 23 0;
#X connect 26 0 27 0;
#X connect 27 0 25 1;
#X connect 29 0 34 0;
#X connect 29 0 31 0;
#X connect 30 0 29 0;
#X connect 31 0 32 0;
#X connect 32 0 33 0;
#X connect 32 0 35 0;
#X connect 33 0 36 0;
#X connect 34 0 33 0;
#X connect 34 0 35 0;
#X connect 35 0 36 0;
#X connect 36 0 25 0;
#X connect 36 0 0 0;
#X connect 40 0 0 0;
#X connect 40 0 25 0;
