#N canvas 0 23 1920 1031 12;
#N canvas 0 22 450 278 (subpatch) 0;
#X array array1 8192 float 2;
#X coords 0 1 8192 -1 200 140 1;
#X restore 251 34 graph;
#X obj 460 43 array.do array1;
#X obj 634 15 unpack f f f;
#X obj 678 56 /;
#X obj 461 12 bng 15 250 50 0 empty empty empty 17 7 0 10 -262144 -1
-1;
#X obj 679 115 lin->lin 0 1 -1 1;
#X obj 19 96 osc~ 440;
#X obj 22 148 expr~ ($v1+1)/2*8192;
#X obj 95 247 tabread~ array1;
#X obj 86 397 dac~ 1 2;
#X obj 266 258 ui.scope~ @size 168 100 @fontname "Helvetica" @fontweight
"normal" @fontslant "roman" @fontsize 11 @receive "(null)" @send "(null)"
@pinned 0 @background_color 0.93 0.93 0.93 1 @border_color 0.6 0.6
0.6 1 @yscale 1;
#X obj 460 193 array.do array1;
#X obj 634 166 unpack f f f;
#X obj 460 151 bng 30 250 50 0 empty empty empty 17 7 0 10 -262144
-1 -1;
#X obj 675 201 bng 15 250 50 0 empty empty empty 17 7 0 10 -262144
-1 -1;
#X obj 675 237 random.float -1 1;
#X floatatom 35 64 5 0 0 0 - - -, f 5;
#X obj 188 149 *~ 1;
#X obj 187 175 /~ 2;
#X obj 187 199 *~ 8192;
#X obj 462 325 array.do array1;
#X obj 635 291 unpack f f f;
#X obj 680 322 /;
#X obj 468 296 bng 30 250 50 0 empty empty empty 17 7 0 10 -262144
-1 -1;
#X obj 679 352 lin->lin 0 1 -1 1;
#X floatatom 793 295 5 0 0 0 - - -, f 5;
#X obj 580 388 expr ($f1!=0)*$f1/abs($f1)*pow(abs($f1) \, $f2);
#X obj 266 380 ui.scope~ @size 168 100 @fontname "Helvetica" @fontweight
"normal" @fontslant "roman" @fontsize 11 @receive "(null)" @send "(null)"
@pinned 0 @background_color 0.93 0.93 0.93 1 @border_color 0.6 0.6
0.6 1 @yscale 1;
#X obj 468 447 array.do array1;
#X obj 642 419 unpack f f f;
#X obj 686 446 /;
#X obj 474 418 bng 30 250 50 0 empty empty empty 17 7 0 10 -262144
-1 -1;
#X obj 810 167 bng 30 250 50 0 empty empty empty 17 7 0 10 -262144
-1 -1;
#X obj 810 203 random.float -1 1;
#X obj 119 30 adc~ 1;
#X floatatom 883 428 5 0 0 0 - - -, f 5;
#X obj 565 474 expr 2*sin($f1*3.1415*$f3)*(.8+.2*$f2)*(.5-abs($f1-.5))
;
#X obj 106 81 phasor~ 440;
#X obj 111 115 expr~ $v1*2-1;
#X connect 1 1 2 0;
#X connect 2 1 3 0;
#X connect 2 2 3 1;
#X connect 3 0 5 0;
#X connect 4 0 1 0;
#X connect 5 0 1 1;
#X connect 6 0 7 0;
#X connect 7 0 8 0;
#X connect 8 0 10 0;
#X connect 8 0 9 1;
#X connect 8 0 9 0;
#X connect 11 1 12 0;
#X connect 12 1 14 0;
#X connect 13 0 11 0;
#X connect 14 0 15 0;
#X connect 15 0 11 1;
#X connect 16 0 6 0;
#X connect 16 0 37 0;
#X connect 17 0 18 0;
#X connect 18 0 19 0;
#X connect 20 1 21 0;
#X connect 21 1 22 0;
#X connect 21 2 22 1;
#X connect 22 0 24 0;
#X connect 23 0 20 0;
#X connect 24 0 26 0;
#X connect 25 0 23 0;
#X connect 25 0 26 1;
#X connect 26 0 20 1;
#X connect 28 1 29 0;
#X connect 29 1 30 0;
#X connect 29 1 32 0;
#X connect 29 2 30 1;
#X connect 30 0 36 0;
#X connect 31 0 28 0;
#X connect 32 0 33 0;
#X connect 33 0 36 1;
#X connect 35 0 31 0;
#X connect 35 0 36 2;
#X connect 36 0 28 1;
#X connect 37 0 38 0;
