#N canvas 270 99 754 567 10;
#X obj 26 190 osc~;
#X obj 26 282 dac~;
#X text 103 175 oscillator;
#X text 100 282 digital-to-analog converter;
#X obj 28 146 hsl 128 15 0 3000 0 0 empty empty empty -2 -8 0 10 -257985
-1 -1 0 1;
#X text 177 145 hsl horizontal slider;
#X obj 26 236 *~;
#X obj 80 210 tgl 15 0 empty empty empty 17 7 0 10 -262144 -1 -1 0
1;
#X text 103 208 tgl;
#X obj 80 176 bng 15 250 50 0 empty empty empty 17 7 0 10 -262144 -1
-1;
#X obj 26 100 mtof;
#X obj 29 56 hsl 128 15 36 100 0 0 empty empty empty -2 -8 0 10 -4032
-1 -1 0 1;
#X floatatom 29 28 5 0 0 0 - - -;
#X obj 323 190 osc~;
#X obj 323 282 dac~;
#X text 400 175 oscillator;
#X text 397 282 digital-to-analog converter;
#X obj 326 146 hsl 128 15 0 3000 0 0 empty empty empty -2 -8 0 10 -257985
-1 -1 0 1;
#X text 474 145 hsl horizontal slider;
#X obj 323 236 *~;
#X obj 377 210 tgl 15 0 empty empty empty 17 7 0 10 -262144 -1 -1 0
1;
#X text 400 208 tgl;
#X obj 377 176 bng 15 250 50 0 empty empty empty 17 7 0 10 -262144
-1 -1;
#X obj 323 100 mtof;
#X obj 326 56 hsl 128 15 36 127 0 0 empty empty empty -2 -8 0 10 -4032
-1 -1 0 1;
#X floatatom 326 28 5 0 0 0 - - -;
#X obj 282 392 dac~;
#X obj 281 366 *~ 1000;
#X obj 362 321 tgl 15 0 empty empty empty 17 7 0 10 -262144 -1 -1 0
1;
#X obj 362 343 * 1000;
#X obj 363 368 + 1;
#X obj 89 431 scope~ 476 125 256 3 128 -2 2 0 0 0 0 102 255 51 135
135 135 0;
#X text 439 322 scope~;
#X connect 0 0 6 0;
#X connect 4 0 0 0;
#X connect 6 0 1 0;
#X connect 6 0 1 1;
#X connect 6 0 27 0;
#X connect 6 0 31 0;
#X connect 7 0 6 1;
#X connect 9 0 7 0;
#X connect 10 0 4 0;
#X connect 11 0 10 0;
#X connect 12 0 11 0;
#X connect 13 0 19 0;
#X connect 17 0 13 0;
#X connect 19 0 14 0;
#X connect 19 0 14 1;
#X connect 19 0 27 0;
#X connect 20 0 19 1;
#X connect 22 0 20 0;
#X connect 23 0 17 0;
#X connect 24 0 23 0;
#X connect 25 0 24 0;
#X connect 27 0 26 1;
#X connect 27 0 26 0;
#X connect 28 0 29 0;
#X connect 29 0 30 0;
#X connect 30 0 27 1;
