#N canvas 0 23 700 500 12;
#X obj 72 144 flt.lpf12~;
#X obj 80 178 flt.lpf24~;
#X obj 322 143 flt.hpf12~;
#X obj 330 177 flt.hpf24~;
#X obj 200 143 flt.bpf12~;
#X obj 208 177 flt.bpf24~;
#X obj 169 211 hradio 15 1 0 6 empty empty empty 0 -8 0 10 -262144
-1 -1 0;
#X obj 106 248 == 0;
#X obj 148 248 == 1;
#X obj 190 250 == 2;
#X obj 232 250 == 3;
#X obj 276 253 == 4;
#X obj 318 253 == 5;
#X msg 104 280 \$1 100;
#X obj 105 313 line~;
#X msg 168 281 \$1 100;
#X obj 169 314 line~;
#X msg 229 282 \$1 100;
#X obj 230 315 line~;
#X msg 293 283 \$1 100;
#X obj 294 316 line~;
#X msg 357 284 \$1 100;
#X obj 358 317 line~;
#X msg 421 285 \$1 100;
#X obj 422 318 line~;
#X obj 63 355 *~;
#X obj 108 357 *~;
#X obj 158 358 *~;
#X obj 203 360 *~;
#X obj 256 359 *~;
#X obj 301 361 *~;
#X obj 74 18 inlet~;
#X obj 142 435 outlet~;
#X obj 174 13 inlet;
#X msg 232 81 freq \$1;
#X msg 310 82 q \$1;
#X obj 236 13 inlet~;
#X obj 314 12 inlet~;
#X obj 233 54 snapshot~;
#X obj 313 53 snapshot~;
#X obj 454 82 metro 16;
#X obj 449 20 loadbang;
#X msg 451 50 1;
#X connect 0 0 25 0;
#X connect 1 0 26 0;
#X connect 2 0 29 0;
#X connect 3 0 30 0;
#X connect 4 0 27 0;
#X connect 5 0 28 0;
#X connect 6 0 7 0;
#X connect 6 0 8 0;
#X connect 6 0 9 0;
#X connect 6 0 10 0;
#X connect 6 0 11 0;
#X connect 6 0 12 0;
#X connect 7 0 13 0;
#X connect 8 0 15 0;
#X connect 9 0 17 0;
#X connect 10 0 19 0;
#X connect 11 0 21 0;
#X connect 12 0 23 0;
#X connect 13 0 14 0;
#X connect 14 0 25 1;
#X connect 15 0 16 0;
#X connect 16 0 26 1;
#X connect 17 0 18 0;
#X connect 18 0 27 1;
#X connect 19 0 20 0;
#X connect 20 0 28 1;
#X connect 21 0 22 0;
#X connect 22 0 29 1;
#X connect 23 0 24 0;
#X connect 24 0 30 1;
#X connect 25 0 32 0;
#X connect 26 0 32 0;
#X connect 27 0 32 0;
#X connect 28 0 32 0;
#X connect 29 0 32 0;
#X connect 30 0 32 0;
#X connect 31 0 0 0;
#X connect 31 0 1 0;
#X connect 31 0 4 0;
#X connect 31 0 5 0;
#X connect 31 0 2 0;
#X connect 31 0 3 0;
#X connect 33 0 6 0;
#X connect 34 0 0 0;
#X connect 34 0 1 0;
#X connect 34 0 4 0;
#X connect 34 0 5 0;
#X connect 34 0 2 0;
#X connect 34 0 3 0;
#X connect 35 0 0 0;
#X connect 35 0 1 0;
#X connect 35 0 4 0;
#X connect 35 0 5 0;
#X connect 35 0 2 0;
#X connect 35 0 3 0;
#X connect 36 0 38 0;
#X connect 37 0 39 0;
#X connect 38 0 34 0;
#X connect 39 0 35 0;
#X connect 40 0 39 0;
#X connect 40 0 38 0;
#X connect 41 0 42 0;
#X connect 42 0 40 0;
