#N canvas 0 23 800 534 12;
#X obj 30 30 phasor~;
#X obj -3 103 cos~;
#X obj 50 104 expr~ ($v1-0.5)*2;
#X obj 204 105 expr~ (($v1>$v2)-0.5)*2;
#X obj 101 146 hradio 15 1 0 3 empty empty empty 0 -8 0 10 -262144
-1 -1 0;
#X obj 81 184 == 0;
#X obj 124 183 == 1;
#X obj 169 183 == 2;
#X obj 0 297 *~;
#X msg 29 218 \$1 100;
#X obj 20 250 line~;
#X msg 115 221 \$1 100;
#X obj 106 253 line~;
#X msg 188 220 \$1 100;
#X obj 179 252 line~;
#X obj 55 295 *~;
#X obj 180 293 *~;
#X obj 180 387 +~;
#X obj 407 104 cos~;
#X obj 460 105 expr~ ($v1-0.5)*2;
#X obj 614 106 expr~ (($v1>$v2)-0.5)*2;
#X obj 511 147 hradio 15 1 0 3 empty empty empty 0 -8 0 10 -262144
-1 -1 0;
#X obj 491 185 == 0;
#X obj 534 184 == 1;
#X obj 579 184 == 2;
#X obj 410 298 *~;
#X msg 439 219 \$1 100;
#X obj 430 251 line~;
#X msg 525 222 \$1 100;
#X obj 516 254 line~;
#X msg 598 221 \$1 100;
#X obj 589 253 line~;
#X obj 465 296 *~;
#X obj 590 294 *~;
#X obj 407 57 wrap~ 0 1;
#X obj 407 26 +~;
#X obj 30 -5 inlet~;
#X obj 110 1 inlet;
#X obj 164 2 inlet;
#X obj 219 1 inlet~;
#X obj 183 428 outlet~;
#X obj 423 -3 inlet~;
#X connect 0 0 1 0;
#X connect 0 0 2 0;
#X connect 0 0 3 0;
#X connect 0 0 35 0;
#X connect 1 0 8 0;
#X connect 2 0 15 0;
#X connect 3 0 16 1;
#X connect 4 0 5 0;
#X connect 4 0 6 0;
#X connect 4 0 7 0;
#X connect 5 0 9 0;
#X connect 6 0 11 0;
#X connect 7 0 13 0;
#X connect 8 0 17 0;
#X connect 9 0 10 0;
#X connect 10 0 8 1;
#X connect 11 0 12 0;
#X connect 12 0 15 1;
#X connect 13 0 14 0;
#X connect 14 0 16 0;
#X connect 15 0 17 0;
#X connect 16 0 17 0;
#X connect 17 0 40 0;
#X connect 18 0 25 0;
#X connect 19 0 32 0;
#X connect 20 0 33 1;
#X connect 21 0 22 0;
#X connect 21 0 23 0;
#X connect 21 0 24 0;
#X connect 22 0 26 0;
#X connect 23 0 28 0;
#X connect 24 0 30 0;
#X connect 25 0 17 1;
#X connect 26 0 27 0;
#X connect 27 0 25 1;
#X connect 28 0 29 0;
#X connect 29 0 32 1;
#X connect 30 0 31 0;
#X connect 31 0 33 0;
#X connect 32 0 17 1;
#X connect 33 0 17 1;
#X connect 34 0 18 0;
#X connect 34 0 19 0;
#X connect 34 0 20 0;
#X connect 35 0 34 0;
#X connect 36 0 0 0;
#X connect 37 0 4 0;
#X connect 38 0 21 0;
#X connect 39 0 3 1;
#X connect 39 0 20 1;
#X connect 41 0 35 1;
