#N canvas 387 138 700 500 12;
#X obj 239 125 osc~ 300;
#X obj 239 220 *~;
#X obj 239 275 dac~;
#X obj 352 193 dbtorms;
#X floatatom 352 153 5 0 0 0 - - -, f 5;
#X floatatom 352 244 10 0 0 0 - - -, f 10;
#X connect 0 0 1 0;
#X connect 1 0 2 0;
#X connect 3 0 5 0;
#X connect 4 0 3 0;
#X connect 5 0 1 1;
