#N canvas 610 70 1187 818 12;
#X obj 66 270 *~;
#X obj 87 249 tgl 15 0 empty empty empty 17 7 0 10 -262144 -1 -1 1
1;
#X obj 66 301 *~ 0.1;
#X obj 66 326 dac~;
#X obj 66 130 list.choice;
#X obj 66 196 mtof;
#X obj 66 175 + 60;
#X obj 66 29 tgl 15 0 empty empty empty 17 7 0 10 -262144 -1 -1 1 1
;
#X obj 66 47 metro 1000;
#X obj 174 32 hsl 128 15 0 127 0 0 empty empty empty -2 -8 0 10 -262144
-1 -1 6950 1;
#X floatatom 172 49 5 0 0 0 - - -, f 5;
#X obj 175 156 hradio 15 1 0 3 empty empty empty 0 -8 0 10 -262144
-1 -1 2;
#X obj 175 173 sel 0 1 2;
#X msg 175 199 48;
#X msg 210 198 60;
#X msg 240 198 72;
#X obj 233 92 tgl 15 0 empty empty empty 17 7 0 10 -262144 -1 -1 1
1;
#X obj 233 110 metro 2000;
#X obj 233 133 random.int 0 2;
#X floatatom 338 31 5 0 0 0 - - -, f 5;
#X floatatom 338 92 5 0 0 0 - - -, f 5;
#X text 389 29 BPM;
#X text 382 92 ms;
#X obj 338 71 expr (60/$f1) * 1000;
#X text 283 172 [61..83];
#X obj 66 225 osc~;
#X msg 66 92 0 0 0 12;
#X text 75 68 3/4;
#X obj 360 176 ui.bpfunc @size 200 150 @fontname "Helvetica" @fontweight
"normal" @fontslant "roman" @fontsize 11 @receive "(null)" @send "(null)"
@pinned 0 @bgcolor 0.93 0.93 0.93 1 @bdcolor 0.6 0.6 0.6 1 @auto_send
0;
#X text 358 147 ADSR;
#X connect 0 0 2 0;
#X connect 1 0 0 1;
#X connect 2 0 3 0;
#X connect 4 0 6 0;
#X connect 5 0 25 0;
#X connect 6 0 5 0;
#X connect 7 0 8 0;
#X connect 8 0 26 0;
#X connect 9 0 8 1;
#X connect 9 0 10 0;
#X connect 11 0 12 0;
#X connect 12 0 13 0;
#X connect 12 1 14 0;
#X connect 12 2 15 0;
#X connect 13 0 6 1;
#X connect 14 0 6 1;
#X connect 15 0 6 1;
#X connect 16 0 17 0;
#X connect 17 0 18 0;
#X connect 18 0 11 0;
#X connect 19 0 23 0;
#X connect 20 0 9 0;
#X connect 23 0 20 0;
#X connect 25 0 0 0;
#X connect 26 0 4 0;
