#N canvas 303 93 704 419 10;
#X obj 96 125 vol~;
#X obj 96 33 osc~ 440;
#X obj 96 169 gate~;
#X obj 123 149 tgl 15 0 empty empty empty 17 7 0 10 -262144 -1 -1 1
1;
#X obj 96 200 dac~;
#X obj 175 110 hsl 128 15 0 127 0 0 empty empty empty -2 -8 0 10 -262144
-1 -1 9900 1;
#X floatatom 172 152 5 0 0 0 - - -;
#X obj 248 238 vu 15 120 empty empty -1 -8 0 10 -66577 -1 1 0;
#X obj 247 186 env~;
#X obj 247 208 - 100;
#X obj 96 79 gate~;
#X obj 176 38 metro 500;
#X obj 176 64 tgl 15 0 empty empty empty 17 7 0 10 -262144 -1 -1 0
1;
#X obj 176 14 tgl 15 0 empty empty empty 17 7 0 10 -262144 -1 -1 1
1;
#X obj 276 79 gate~;
#X obj 356 64 tgl 15 0 empty empty empty 17 7 0 10 -262144 -1 -1 1
1;
#X obj 356 14 tgl 15 0 empty empty empty 17 7 0 10 -262144 -1 -1 1
1;
#X obj 356 38 metro 350;
#X obj 276 33 osc~ 220;
#X connect 0 0 2 0;
#X connect 1 0 10 0;
#X connect 2 0 4 0;
#X connect 2 0 4 1;
#X connect 2 0 8 0;
#X connect 3 0 2 1;
#X connect 5 0 0 1;
#X connect 5 0 6 0;
#X connect 8 0 9 0;
#X connect 9 0 7 0;
#X connect 10 0 0 0;
#X connect 11 0 12 0;
#X connect 12 0 10 1;
#X connect 13 0 11 0;
#X connect 14 0 0 0;
#X connect 15 0 14 1;
#X connect 16 0 17 0;
#X connect 17 0 15 0;
#X connect 18 0 14 0;
