#N canvas 1230 219 408 252 10;
#X obj 50 38 inlet freq;
#X obj 50 65 clip 0 50;
#X obj 50 93 phasor~ \$1;
#X obj 50 122 expr~ if($v1>0.5 \, 1 \, 0);
#X obj 50 148 unsig~ 1;
#X obj 50 176 outlet;
#X connect 0 0 1 0;
#X connect 1 0 2 0;
#X connect 2 0 3 0;
#X connect 3 0 4 0;
#X connect 4 0 5 0;
