#N canvas 394 58 615 473 10;
#X obj 69 372 outlet~;
#X obj 205 372 outlet~;
#X obj 69 95 metro 300;
#X obj 69 51 inlet control;
#X obj 69 138 random 5000;
#X obj 69 171 + 200;
#X obj 69 204 osc~;
#X obj 69 310 freeverb~;
#X obj 178 50 inlet speed;
#X obj 69 248 *~;
#X connect 2 0 4 0;
#X connect 3 0 2 0;
#X connect 3 0 9 1;
#X connect 4 0 5 0;
#X connect 5 0 6 0;
#X connect 6 0 9 0;
#X connect 7 0 0 0;
#X connect 7 1 1 0;
#X connect 8 0 2 1;
#X connect 9 0 7 0;
#X connect 9 0 7 1;
