#N canvas 577 99 491 345 10;
#X obj 77 60 pink~;
#X obj 77 282 outlet~;
#X obj 205 283 outlet~;
#X obj 77 239 pan~;
#X obj 77 141 bp~ 100 4;
#X obj 77 182 *~;
#X obj 160 28 inlet control;
#X obj 244 63 metro 3000;
#X obj 189 142 random 5000;
#X obj 189 223 line;
#X msg 189 197 \$1 3000;
#X obj 279 223 line;
#X msg 279 197 \$1 3000;
#X obj 279 142 random 20;
#X obj 189 168 + 100;
#X obj 279 166 + 1;
#X obj 244 88 random 100;
#X obj 244 114 + 2900;
#X connect 0 0 4 0;
#X connect 3 0 1 0;
#X connect 3 1 2 0;
#X connect 4 0 5 0;
#X connect 5 0 3 0;
#X connect 6 0 5 1;
#X connect 6 0 7 0;
#X connect 7 0 8 0;
#X connect 7 0 13 0;
#X connect 7 0 16 0;
#X connect 8 0 14 0;
#X connect 9 0 4 1;
#X connect 10 0 9 0;
#X connect 11 0 4 2;
#X connect 12 0 11 0;
#X connect 13 0 15 0;
#X connect 14 0 10 0;
#X connect 15 0 12 0;
#X connect 16 0 17 0;
#X connect 17 0 7 1;
