#N canvas 390 130 1036 632 12;
#X obj 64 84 line~;
#X obj 64 139 osc~;
#X obj 64 215 dac~;
#X obj 64 190 *~ 0.1;
#X msg 289 35 1 2 3 4 5;
#X obj 289 56 print;
#X obj 369 56 print;
#X msg 369 36 list 1 2 3 4 5;
#X obj 272 150 line~;
#X msg 272 119 destination time;
#X msg 316 89 20 0;
#X msg 360 89 20;
#X msg 396 88 20 1000;
#X obj 64 112 mtof~;
#X msg 64 25 20 \, 130 1000;
#X obj 64 165 *~;
#X obj 157 112 delay 1000;
#X obj 157 86 bang;
#X msg 111 139 1;
#X msg 157 140 0;
#X obj 111 113 bang;
#X obj 320 232 pipe 1000;
#X floatatom 320 204 5 0 0 0 - - -, f 5;
#X floatatom 320 259 5 0 0 0 - - -, f 5;
#X connect 0 0 13 0;
#X connect 1 0 15 0;
#X connect 3 0 2 0;
#X connect 3 0 2 1;
#X connect 4 0 5 0;
#X connect 7 0 6 0;
#X connect 10 0 8 0;
#X connect 11 0 8 0;
#X connect 12 0 8 0;
#X connect 13 0 1 0;
#X connect 14 0 0 0;
#X connect 14 0 17 0;
#X connect 14 0 20 0;
#X connect 15 0 3 0;
#X connect 16 0 19 0;
#X connect 17 0 16 0;
#X connect 18 0 15 1;
#X connect 19 0 15 1;
#X connect 20 0 18 0;
#X connect 21 0 23 0;
#X connect 22 0 21 0;
