#N canvas 259 64 1092 549 12;
#X obj 38 52 notein;
#X obj 38 82 mtof;
#X obj 38 133 line~;
#X obj 38 217 dac~;
#X obj 38 191 *~ 0.3;
#X floatatom 94 84 5 0 0 0 - - -, f 5;
#X obj 38 161 osc~;
#X msg 38 107 \$1 1000;
#X floatatom 233 67 5 0 0 0 - - -, f 5;
#X floatatom 357 159 5 0 0 0 - - -, f 5;
#X obj 278 115 print;
#X obj 164 25 bng 15 250 50 0 empty empty empty 17 7 0 10 -262144 -1
-1;
#X floatatom 189 23 5 0 0 0 - - -, f 5;
#X symbolatom 242 22 10 0 0 0 - - -, f 10;
#X msg 327 23 list 1 2 3 4;
#X msg 327 48 list a b c d;
#X msg 358 108 list set 1;
#X msg 233 94 this is a \$1 \$2;
#X connect 0 0 1 0;
#X connect 0 0 5 0;
#X connect 1 0 7 0;
#X connect 2 0 6 0;
#X connect 4 0 3 0;
#X connect 4 0 3 1;
#X connect 6 0 4 0;
#X connect 7 0 2 0;
#X connect 8 0 17 0;
#X connect 16 0 9 0;
#X connect 17 0 10 0;
