#N canvas 385 146 639 536 10;
#X obj 109 127 notein;
#X obj 109 175 stripnote;
#X obj 88 249 bng 15 250 50 0 empty empty empty 17 7 0 10 -262144 -1
-1;
#X obj 85 378 osc~;
#X obj 91 338 vline~;
#X obj 155 378 vline~;
#X msg 156 342 1 \, 0 100;
#X obj 83 417 *~;
#X obj 79 458 dac~;
#X msg 89 299 120 \, 70 50;
#X obj 293 419 osc~;
#X obj 255 327 vline~;
#X obj 428 425 vline~;
#X msg 429 389 1 \, 0 100;
#X obj 291 458 *~;
#X obj 287 499 dac~;
#X obj 250 356 osc~;
#X msg 256 299 2000 \, 1000 50;
#X obj 312 383 sig~ 2345;
#X obj 248 388 *~ 900;
#X obj 116 214 select 36 37;
#X obj 148 248 bng 15 250 50 0 empty empty empty 17 7 0 10 -262144
-1 -1;
#X connect 0 0 1 0;
#X connect 0 1 1 1;
#X connect 1 0 20 0;
#X connect 2 0 9 0;
#X connect 2 0 6 0;
#X connect 3 0 7 0;
#X connect 4 0 3 0;
#X connect 5 0 7 1;
#X connect 6 0 5 0;
#X connect 7 0 8 0;
#X connect 7 0 8 1;
#X connect 9 0 4 0;
#X connect 10 0 14 0;
#X connect 11 0 16 0;
#X connect 12 0 14 1;
#X connect 13 0 12 0;
#X connect 14 0 15 0;
#X connect 14 0 15 1;
#X connect 16 0 19 0;
#X connect 17 0 11 0;
#X connect 18 0 10 0;
#X connect 19 0 10 0;
#X connect 20 0 2 0;
#X connect 20 1 21 0;
#X connect 21 0 17 0;
#X connect 21 0 13 0;
