#N canvas 157 91 850 558 10;
#X obj 94 31 notein;
#X obj 94 79 stripnote;
#X obj 293 437 osc~;
#X obj 255 345 vline~;
#X obj 428 443 vline~;
#X msg 429 407 1 \, 0 100;
#X obj 291 476 *~;
#X obj 287 517 dac~;
#X obj 250 374 osc~;
#X msg 256 317 2000 \, 1000 50;
#X obj 312 401 sig~ 2345;
#X obj 248 406 *~ 900;
#X obj 269 276 bng 15 250 50 0 empty empty empty 17 7 0 10 -262144
-1 -1;
#X obj 654 368 osc~;
#X obj 616 404 *~;
#X obj 621 433 send~ fb;
#X obj 611 302 receive~ fb;
#X obj 699 316 sig~ 500;
#X obj 744 424 vline~;
#X obj 664 465 *~;
#X obj 660 506 dac~;
#X obj 90 105 select 36 37 38;
#X obj 553 278 bng 15 250 50 0 empty empty empty 17 7 0 10 -262144
-1 -1;
#X obj 529 357 vline~;
#X obj 390 104 key;
#X obj 390 135 select 97 115 100;
#X obj 273 241 r s2;
#X obj 550 248 r s3;
#X msg 81 154 \; s1 bang;
#X msg 142 159 \; s2 bang;
#X msg 213 159 \; s3 bang;
#X msg 397 174 \; s1 bang;
#X msg 458 179 \; s2 bang;
#X msg 529 179 \; s3 bang;
#N canvas 245 359 450 300 synth1 0;
#X obj 73 52 bng 15 250 50 0 empty empty empty 17 7 0 10 -262144 -1
-1;
#X obj 70 181 osc~;
#X obj 76 141 vline~;
#X obj 140 181 vline~;
#X msg 141 145 1 \, 0 100;
#X obj 68 220 *~;
#X obj 64 261 dac~;
#X msg 74 102 120 \, 70 50;
#X obj 71 21 r s1;
#X connect 0 0 7 0;
#X connect 0 0 4 0;
#X connect 1 0 5 0;
#X connect 2 0 1 0;
#X connect 3 0 5 1;
#X connect 4 0 3 0;
#X connect 5 0 6 0;
#X connect 5 0 6 1;
#X connect 7 0 2 0;
#X connect 8 0 0 0;
#X restore 56 252 pd synth1;
#X text 57 233 r s1:;
#X msg 745 388 1 \, 0 100;
#X msg 530 321 9000 \, 0 100;
#X connect 0 0 1 0;
#X connect 0 1 1 1;
#X connect 1 0 21 0;
#X connect 2 0 6 0;
#X connect 3 0 8 0;
#X connect 4 0 6 1;
#X connect 5 0 4 0;
#X connect 6 0 7 0;
#X connect 6 0 7 1;
#X connect 8 0 11 0;
#X connect 9 0 3 0;
#X connect 10 0 2 0;
#X connect 11 0 2 0;
#X connect 12 0 9 0;
#X connect 12 0 5 0;
#X connect 13 0 14 0;
#X connect 13 0 19 0;
#X connect 14 0 15 0;
#X connect 16 0 13 0;
#X connect 17 0 13 0;
#X connect 18 0 19 1;
#X connect 19 0 20 0;
#X connect 19 0 20 1;
#X connect 21 0 28 0;
#X connect 21 1 29 0;
#X connect 21 2 30 0;
#X connect 22 0 36 0;
#X connect 22 0 37 0;
#X connect 23 0 14 1;
#X connect 24 0 25 0;
#X connect 25 0 31 0;
#X connect 25 1 32 0;
#X connect 25 2 33 0;
#X connect 26 0 12 0;
#X connect 27 0 22 0;
#X connect 36 0 18 0;
#X connect 37 0 23 0;
