#N canvas 122 84 785 389 12;
#X obj 38 56 bng 15 250 50 0 empty empty empty 17 7 0 10 -262144 -1
-1;
#X obj 42 132 print;
#X msg 69 53 bang;
#X floatatom 132 54 5 0 0 0 - - -;
#X msg 184 55 4;
#X obj 229 55 nbx 5 40 -1e+37 1e+37 0 0 empty empty empty 0 -8 0 18
-258113 -1 -1 3 256;
#X obj 137 128 print;
#X symbolatom 365 56 10 0 0 0 - - -;
#X obj 365 135 print;
#X msg 568 56 abc;
#X msg 461 55 symbol abc;
#X msg 630 57 list a b c d e f;
#X obj 630 101 zl rev;
#X obj 630 150 prepend set;
#X msg 630 202 f e d c b a;
#X msg 579 182 set;
#X obj 123 200 bng 50 250 50 0 empty empty empty 17 7 0 10 -262144
-1 -1;
#X obj 123 272 delay 1000;
#X obj 123 306 bng 50 250 50 0 empty empty empty 17 7 0 10 -262144
-258113 -1;
#X obj 215 272 del 1000;
#X connect 0 0 1 0;
#X connect 2 0 1 0;
#X connect 3 0 6 0;
#X connect 4 0 6 0;
#X connect 5 0 6 0;
#X connect 7 0 8 0;
#X connect 9 0 8 0;
#X connect 10 0 8 0;
#X connect 11 0 12 0;
#X connect 12 0 13 0;
#X connect 13 0 14 0;
#X connect 15 0 14 0;
#X connect 16 0 17 0;
#X connect 17 0 18 0;
