#N canvas 122 41 739 557 12;
#N canvas 0 22 450 278 (subpatch) 0;
#X array array1 1000 float 2;
#X coords 0 1 1000 -1 200 140 1;
#X restore 42 320 graph;
#X obj 101 240 tabwrite~ array1;
#N canvas 0 22 450 278 (subpatch) 0;
#X array array2 1000 float 2;
#X coords 0 1 999 -1 200 140 1;
#X restore 264 320 graph;
#X obj 116 147 tgl 15 0 empty empty empty 17 7 0 10 -262144 -1 -1 1
1;
#X msg 116 203 start;
#X obj 116 174 metro 100;
#X msg 256 203 start;
#X obj 256 174 metro 100;
#X obj 241 240 tabwrite~ array2;
#X obj 241 99 *~ -1;
#X obj 101 54 osc~ 40;
#N canvas 0 22 450 278 (subpatch) 0;
#X array array3 1000 float 2;
#X coords 0 1 999 -1 200 140 1;
#X restore 486 321 graph;
#X msg 396 203 start;
#X obj 396 150 tgl 15 0 empty empty empty 17 7 0 10 -262144 -1 -1 1
1;
#X obj 381 240 tabwrite~ array3;
#X obj 362 174 +~;
#X obj 396 174 metro 200;
#X connect 3 0 5 0;
#X connect 3 0 7 0;
#X connect 4 0 1 0;
#X connect 5 0 4 0;
#X connect 6 0 8 0;
#X connect 7 0 6 0;
#X connect 9 0 8 0;
#X connect 9 0 15 1;
#X connect 10 0 1 0;
#X connect 10 0 9 0;
#X connect 10 0 15 0;
#X connect 12 0 14 0;
#X connect 13 0 16 0;
#X connect 15 0 14 0;
#X connect 16 0 12 0;
