#N canvas 0 23 800 551 12;
#X obj 34 248 osc~;
#X obj 36 28 ui.keyboard @size 433 60 @fontname "Helvetica" @fontweight
"normal" @fontslant "roman" @fontsize 11 @receive "(null)" @send "(null)"
@pinned 0 @background_color 0.93 0.93 0.93 1 @border_color 0.6 0.6
0.6 1 @shift 36 @keys 61;
#X obj 36 119 unpack 0 0;
#X obj 36 169 mtof;
#X obj 80 263 osc~;
#X obj 131 263 osc~;
#X obj 177 263 osc~;
#X obj 80 213 * 2;
#X obj 131 213 * 3;
#X obj 177 213 * 4;
#X obj 35 437 dac~;
#X obj 427 408 ui.scope~ @size 150 100 @fontname "Helvetica" @fontweight
"normal" @fontslant "roman" @fontsize 11 @receive "(null)" @send "(null)"
@pinned 0 @background_color 0.93 0.93 0.93 1 @border_color 0.6 0.6
0.6 1 @yscale 1;
#X obj 189 408 ui.spectroscope~ @size 150 100 @fontname "Helvetica"
@fontweight "normal" @fontslant "roman" @fontsize 11 @receive "(null)"
@send "(null)" @pinned 0 @background_color 0.93 0.93 0.93 1 @border_color
0.6 0.6 0.6 1 @fgcolor 0 0.75 1 1;
#X obj 234 263 osc~;
#X obj 290 263 osc~;
#X obj 331 263 osc~;
#X obj 379 263 osc~;
#X obj 234 213 * 5;
#X obj 290 213 * 6;
#X obj 331 213 * 7;
#X obj 379 213 * 8;
#X obj 33 314 *~;
#X obj 80 313 *~;
#X obj 131 313 *~;
#X obj 177 313 *~;
#X obj 234 313 *~;
#X obj 290 313 *~;
#X obj 331 313 *~;
#X obj 379 313 *~;
#X obj 33 378 /~ 8;
#X obj 491 229 unpack 0 0 0 0 0 0 0 0;
#X obj 490 98 bng 15 250 50 0 empty empty empty 17 7 0 10 -262144 -1
-1;
#X obj 623 78 bng 15 250 50 0 empty empty empty 17 7 0 10 -262144 -1
-1;
#X obj 622 103 noise.navier_stokes;
#X obj 493 127 list.gen 8;
#X obj 490 28 tgl 15 0 empty empty empty 17 7 0 10 -262144 -1 -1 1
1;
#X obj 596 318 ui.sliders @size 150 100 @fontname "Helvetica" @fontweight
"normal" @fontslant "roman" @fontsize 11 @receive "(null)" @send "(null)"
@pinned 0 @presetname "(null)" @background_color 0.93 0.93 0.93 1 @border_color
0.6 0.6 0.6 1 @fgcolor 0.75 0.75 0.75 1 @count 8 @shift 0 @range 1
@auto_range 0 @show_range 1;
#X obj 623 137 / 4;
#X obj 620 183 random.float;
#X obj 490 60 metro 33;
#X connect 0 0 21 0;
#X connect 1 0 2 0;
#X connect 2 0 3 0;
#X connect 3 0 0 0;
#X connect 3 0 7 0;
#X connect 3 0 8 0;
#X connect 3 0 9 0;
#X connect 3 0 17 0;
#X connect 3 0 18 0;
#X connect 3 0 19 0;
#X connect 3 0 20 0;
#X connect 4 0 22 0;
#X connect 5 0 23 0;
#X connect 6 0 24 0;
#X connect 7 0 4 0;
#X connect 8 0 5 0;
#X connect 9 0 6 0;
#X connect 13 0 25 0;
#X connect 14 0 26 0;
#X connect 15 0 27 0;
#X connect 16 0 28 0;
#X connect 17 0 13 0;
#X connect 18 0 14 0;
#X connect 19 0 15 0;
#X connect 20 0 16 0;
#X connect 21 0 29 0;
#X connect 22 0 29 0;
#X connect 23 0 29 0;
#X connect 24 0 29 0;
#X connect 25 0 29 0;
#X connect 26 0 29 0;
#X connect 27 0 29 0;
#X connect 28 0 29 0;
#X connect 29 0 10 0;
#X connect 29 0 10 1;
#X connect 29 0 12 0;
#X connect 29 0 11 0;
#X connect 30 0 21 1;
#X connect 30 1 22 1;
#X connect 30 2 23 1;
#X connect 30 3 24 1;
#X connect 30 4 25 1;
#X connect 30 5 26 1;
#X connect 30 6 27 1;
#X connect 30 7 28 1;
#X connect 31 0 34 0;
#X connect 32 0 33 0;
#X connect 33 0 37 0;
#X connect 34 0 36 0;
#X connect 34 0 30 0;
#X connect 34 1 32 0;
#X connect 34 1 38 0;
#X connect 35 0 39 0;
#X connect 38 0 34 1;
#X connect 39 0 31 0;
