#N canvas 0 23 800 551 12;
#X obj 702 72 send abc;
#X obj 705 127 receive abc;
#X floatatom 701 32 5 0 0 0 - - -, f 5;
#X floatatom 705 159 5 0 0 0 - - -, f 5;
#X obj 27 14 ui.keyboard @size 433 60 @fontname "Helvetica" @fontweight
"normal" @fontslant "roman" @fontsize 11 @receive "(null)" @send "(null)"
@pinned 0 @background_color 0.93 0.93 0.93 1 @border_color 0.6 0.6
0.6 1 @shift 36 @keys 61;
#X obj 28 95 unpack 0 0;
#X obj 28 134 mtof;
#X obj 29 202 s freq;
#X obj 40 408 dac~ 1 2;
#X obj 496 26 ui.sliders @size 150 100 @fontname "Helvetica" @fontweight
"normal" @fontslant "roman" @fontsize 11 @receive "(null)" @send "(null)"
@pinned 0 @presetname "(null)" @background_color 0.93 0.93 0.93 1 @border_color
0.6 0.6 0.6 1 @fgcolor 0.75 0.75 0.75 1 @count 8 @shift 1 @range 7
@auto_range 0 @show_range 1;
#X obj 603 185 ui.sliders @size 150 100 @fontname "Helvetica" @fontweight
"normal" @fontslant "roman" @fontsize 11 @receive "(null)" @send "(null)"
@pinned 0 @presetname "(null)" @background_color 0.93 0.93 0.93 1 @border_color
0.6 0.6 0.6 1 @fgcolor 0.75 0.75 0.75 1 @count 8 @shift -100 @range
200 @auto_range 0 @show_range 1;
#X obj 597 364 ui.sliders @size 150 100 @fontname "Helvetica" @fontweight
"normal" @fontslant "roman" @fontsize 11 @receive "(null)" @send "(null)"
@pinned 0 @presetname "(null)" @background_color 0.93 0.93 0.93 1 @border_color
0.6 0.6 0.6 1 @fgcolor 0.75 0.75 0.75 1 @count 8 @shift 0 @range 1
@auto_range 0 @show_range 1;
#X obj 117 187 list.interleave 3;
#X obj 520 102 ui.display @size 150 18 @fontname "Helvetica" @fontweight
"normal" @fontslant "roman" @fontsize 11 @receive "(null)" @send "(null)"
@pinned 0 @background_color 0.93 0.93 0.93 1 @border_color 0.6 0.6
0.6 1 @display_events 1 @display_type 0 @auto_size 1;
#X obj 45 237 list split 3;
#X obj 97 276 list split 3;
#X obj 180 236 list split 3;
#X obj 232 275 list split 3;
#X obj 293 238 list split 3;
#X obj 345 277 list split 3;
#X obj 428 237 list split 3;
#X obj 480 276 list split 3;
#X obj 57 355 oscillator;
#X obj 24 329 oscillator;
#X obj 123 328 oscillator;
#X obj 156 354 oscillator;
#X obj 227 329 oscillator;
#X obj 260 355 oscillator;
#X obj 326 328 oscillator;
#X obj 359 354 oscillator;
#X obj 511 493 bng 15 250 50 0 empty empty empty 17 7 0 10 -262144
-1 -1;
#X obj 196 431 ui.display @size 250 45 @fontname "Helvetica" @fontweight
"normal" @fontslant "roman" @fontsize 11 @receive "(null)" @send "(null)"
@pinned 0 @background_color 0.93 0.93 0.93 1 @border_color 0.6 0.6
0.6 1 @display_events 1 @display_type 0 @auto_size 1;
#X obj 27 168 float;
#X obj 491 138 bng 15 250 50 0 empty empty empty 17 7 0 10 -262144
-1 -1;
#X obj 395 163 list.each;
#X obj 400 206 ui.display @size 250 30 @fontname "Helvetica" @fontweight
"normal" @fontslant "roman" @fontsize 11 @receive "(null)" @send "(null)"
@pinned 0 @background_color 0.93 0.93 0.93 1 @border_color 0.6 0.6
0.6 1 @display_events 1 @display_type 0 @auto_size 1;
#X obj 624 319 list.gen 8;
#X msg 715 316 0;
#X obj 634 298 bng 15 250 50 0 empty empty empty 17 7 0 10 -262144
-1 -1;
#X obj 525 162 int;
#X connect 1 0 3 0;
#X connect 2 0 0 0;
#X connect 4 0 5 0;
#X connect 5 0 6 0;
#X connect 6 0 32 0;
#X connect 9 0 33 0;
#X connect 9 0 34 0;
#X connect 10 0 12 1;
#X connect 10 0 30 0;
#X connect 11 0 12 2;
#X connect 11 0 30 0;
#X connect 12 0 14 0;
#X connect 12 0 31 0;
#X connect 14 0 23 0;
#X connect 14 1 15 0;
#X connect 15 0 22 0;
#X connect 15 1 16 0;
#X connect 16 0 24 0;
#X connect 16 1 17 0;
#X connect 17 0 25 0;
#X connect 17 1 18 0;
#X connect 18 0 26 0;
#X connect 18 1 19 0;
#X connect 19 0 27 0;
#X connect 19 1 20 0;
#X connect 20 0 28 0;
#X connect 20 1 21 0;
#X connect 21 0 29 0;
#X connect 22 0 8 0;
#X connect 23 0 8 0;
#X connect 24 0 8 0;
#X connect 25 0 8 0;
#X connect 26 0 8 0;
#X connect 27 0 8 0;
#X connect 28 0 8 0;
#X connect 29 0 8 0;
#X connect 30 0 9 0;
#X connect 30 0 32 0;
#X connect 32 0 7 0;
#X connect 33 0 32 0;
#X connect 34 0 12 0;
#X connect 34 0 35 0;
#X connect 34 1 39 0;
#X connect 36 0 10 0;
#X connect 36 1 37 0;
#X connect 37 0 36 1;
#X connect 38 0 36 0;
#X connect 39 0 34 1;
