#N canvas 100 74 700 500 12;
#X obj 100 69 inlet;
#X obj 101 105 unpack 0 0 0;
#X obj 31 156 *;
#X obj 19 69 r freq;
#X floatatom 46 100 5 0 0 0 - - -, f 5;
#X obj 31 226 osc~;
#X obj 31 296 /~ 8;
#X obj 31 261 *~;
#X obj 31 191 +;
#X obj 50 368 outlet~;
#X floatatom 102 237 5 0 0 0 - - -, f 5;
#X connect 0 0 1 0;
#X connect 1 0 2 1;
#X connect 1 1 8 1;
#X connect 1 2 7 1;
#X connect 2 0 8 0;
#X connect 3 0 2 0;
#X connect 3 0 4 0;
#X connect 5 0 7 0;
#X connect 6 0 9 0;
#X connect 7 0 6 0;
#X connect 8 0 5 0;
#X connect 8 0 10 0;
