#N canvas 9 23 800 551 12;
#X obj 108 199 osc.saw~;
#X obj 104 38 ui.keyboard @size 433 60 @fontname "Helvetica" @fontweight
"normal" @fontslant "roman" @fontsize 11 @receive "(null)" @send "(null)"
@pinned 0 @background_color 0.93 0.93 0.93 1 @border_color 0.6 0.6
0.6 1 @shift 36 @keys 61;
#X obj 109 152 mtof;
#X obj 108 359 dac~ 1 2;
#X msg 132 248 freq 1000;
#X obj 108 288 flt.lpf24~ 1000 1;
#X obj 195 360 ui.spectroscope~ @size 150 100 @fontname "Helvetica"
@fontweight "normal" @fontslant "roman" @fontsize 11 @receive "(null)"
@send "(null)" @pinned 0 @background_color 0.93 0.93 0.93 1 @border_color
0.6 0.6 0.6 1 @fgcolor 0 0.75 1 1;
#X obj 305 203 vline~;
#X obj 490 254 tgl 15 0 empty empty empty 17 7 0 10 -262144 -1 -1 0
1;
#X msg 244 248 freq \$1;
#X obj 482 427 snapshot~;
#X obj 549 371 tgl 15 0 empty empty empty 17 7 0 10 -262144 -1 -1 1
1;
#X obj 482 463 lin->lin 0 1 500 2500;
#X msg 516 268 trigger \$1;
#X obj 448 273 bng 15 250 50 0 empty empty empty 17 7 0 10 -262144
-1 -1;
#X floatatom 416 463 5 0 0 0 - - -, f 5;
#X obj 395 345 env.adsr~ 1000 200 50 2000;
#X obj 396 308 sig~ 1;
#X obj 571 57 ui.bpfunc @size 200 150 @fontname "Helvetica" @fontweight
"normal" @fontslant "roman" @fontsize 11 @receive "(null)" @send "(null)"
@pinned 0 @background_color 0.93 0.93 0.93 1 @border_color 0.6 0.6
0.6 1 @auto_send 256;
#X obj 576 227 print;
#X msg 565 27 vline;
#X obj 650 248 vline~;
#X obj 551 393 metro 10;
#X msg 623 27 range_x 5000;
#X connect 0 0 5 0;
#X connect 1 0 2 0;
#X connect 2 0 0 0;
#X connect 4 0 5 0;
#X connect 5 0 3 0;
#X connect 5 0 3 1;
#X connect 5 0 6 0;
#X connect 8 0 13 0;
#X connect 9 0 5 0;
#X connect 10 0 12 0;
#X connect 10 0 15 0;
#X connect 11 0 22 0;
#X connect 12 0 9 0;
#X connect 13 0 16 0;
#X connect 14 0 16 0;
#X connect 17 0 16 0;
#X connect 18 0 19 0;
#X connect 18 0 21 0;
#X connect 20 0 18 0;
#X connect 21 0 10 0;
#X connect 22 0 10 0;
#X connect 23 0 18 0;
