#N canvas 366 26 357 523 12;
#X obj 42 68 inlet~;
#X obj 43 160 osc~;
#X obj 44 303 outlet~;
#X obj 43 235 *~;
#X obj 214 58 inlet~;
#X obj 214 120 cos~;
#X obj 215 161 *~ -0.5;
#X obj 210 199 +~ 0.5;
#X connect 0 0 1 0;
#X connect 1 0 3 0;
#X connect 3 0 2 0;
#X connect 4 0 5 0;
#X connect 5 0 6 0;
#X connect 6 0 7 0;
#X connect 7 0 3 1;
