#N canvas -4 23 800 551 12;
#X obj 73 55 phasor~;
#X floatatom 74 19 5 0 0 0 - - -, f 5;
#X obj 61 466 dac~;
#X obj 146 167 wrap~;
#X obj 146 135 +~ 0.125;
#X obj 227 164 wrap~;
#X obj 328 167 wrap~;
#X obj 409 164 wrap~;
#X obj 503 166 wrap~;
#X obj 604 169 wrap~;
#X obj 685 166 wrap~;
#X obj 227 132 +~ 0.25;
#X obj 328 135 +~ 0.375;
#X obj 409 132 +~ 0.5;
#X obj 503 134 +~ 0.625;
#X obj 604 137 +~ 0.75;
#X obj 687 134 +~ 0.875;
#X obj 91 242 scale1;
#X obj 154 241 scale1;
#X obj 227 242 scale1;
#X obj 328 241 scale1;
#X obj 409 241 scale1;
#X obj 472 240 scale1;
#X obj 577 243 scale1;
#X obj 640 242 scale1;
#X obj 89 415 *~ 0.125;
#X obj 611 92 ui.scope~ @size 150 100 @fontname "Helvetica" @fontweight
"normal" @fontslant "roman" @fontsize 11 @receive "(null)" @send "(null)"
@pinned 0 @background_color 0.93 0.93 0.93 1 @border_color 0.6 0.6
0.6 1 @yscale 1;
#X obj 94 303 osc1;
#X obj 165 304 osc1;
#X obj 221 302 osc1;
#X obj 326 304 osc1;
#X obj 427 307 osc1;
#X obj 498 308 osc1;
#X obj 583 307 osc1;
#X obj 654 308 osc1;
#X msg 143 18 0.05;
#X obj 460 417 snapshot~;
#X floatatom 459 449 5 0 0 0 - - -, f 5;
#X obj 474 359 tgl 15 0 empty empty empty 17 7 0 10 -262144 -1 -1 0
1;
#X obj 475 384 metro 50;
#X connect 0 0 4 0;
#X connect 0 0 11 0;
#X connect 0 0 12 0;
#X connect 0 0 13 0;
#X connect 0 0 14 0;
#X connect 0 0 15 0;
#X connect 0 0 16 0;
#X connect 0 0 17 0;
#X connect 0 0 27 1;
#X connect 1 0 0 0;
#X connect 3 0 18 0;
#X connect 3 0 28 1;
#X connect 4 0 3 0;
#X connect 5 0 19 0;
#X connect 5 0 29 1;
#X connect 6 0 20 0;
#X connect 6 0 30 1;
#X connect 7 0 21 0;
#X connect 7 0 31 1;
#X connect 8 0 22 0;
#X connect 8 0 32 1;
#X connect 9 0 23 0;
#X connect 9 0 33 1;
#X connect 10 0 24 0;
#X connect 10 0 34 1;
#X connect 11 0 5 0;
#X connect 12 0 6 0;
#X connect 13 0 7 0;
#X connect 14 0 8 0;
#X connect 15 0 9 0;
#X connect 16 0 10 0;
#X connect 17 0 27 0;
#X connect 18 0 28 0;
#X connect 19 0 29 0;
#X connect 20 0 30 0;
#X connect 21 0 31 0;
#X connect 22 0 32 0;
#X connect 23 0 33 0;
#X connect 24 0 34 0;
#X connect 25 0 2 1;
#X connect 27 0 25 0;
#X connect 28 0 25 0;
#X connect 29 0 25 0;
#X connect 30 0 25 0;
#X connect 31 0 25 0;
#X connect 31 0 36 0;
#X connect 32 0 25 0;
#X connect 33 0 25 0;
#X connect 34 0 25 0;
#X connect 35 0 1 0;
#X connect 36 0 37 0;
#X connect 38 0 39 0;
#X connect 39 0 36 0;
