#N canvas 284 52 886 611 10;
#X obj 109 459 vline~;
#X obj 103 275 pack 0 0 0;
#X obj 75 243 t b;
#X msg 109 409 1 \$1 0 \, \$3 \$2 \$1;
#X obj 10 310 select 1 0;
#X obj 11 345 bng 15 250 50 0 empty empty empty 17 7 0 10 -262144 -1
-1;
#X obj 35 345 bng 15 250 50 0 empty empty empty 17 7 0 10 -262144 -1
-1;
#X obj 108 378 zl reg;
#X msg 257 407 0 \$1 0;
#X obj 257 374 f;
#X obj 108 491 outlet~;
#X obj 17 60 inlet;
#X obj 73 60 inlet;
#X obj 120 61 inlet;
#X obj 173 59 inlet;
#X obj 228 60 inlet;
#X connect 0 0 10 0;
#X connect 1 0 7 1;
#X connect 2 0 1 0;
#X connect 3 0 0 0;
#X connect 4 0 5 0;
#X connect 4 1 6 0;
#X connect 5 0 7 0;
#X connect 6 0 9 0;
#X connect 7 0 3 0;
#X connect 8 0 0 0;
#X connect 9 0 8 0;
#X connect 11 0 4 0;
#X connect 12 0 1 0;
#X connect 13 0 1 1;
#X connect 13 0 2 0;
#X connect 14 0 1 2;
#X connect 14 0 2 0;
#X connect 15 0 9 1;
