#N canvas 0 23 1920 1031 12;
#X obj 277 409 tabread~ aaa;
#X obj 73 350 tabosc4~ aaa;
#X floatatom 106 180 5 0 0 0 - - -, f 5;
#X obj 79 259 sig~;
#N canvas 0 22 450 278 (subpatch) 0;
#X array aaa 8195 float 2;
#X coords 0 1 8195 -1 200 140 1;
#X restore 862 89 graph;
#X obj 276 371 *~ 8195;
#X obj 276 326 phasor~;
#X obj 74 519 *~;
#X obj 286 505 *~;
#X obj 109 491 tgl 15 0 empty empty empty 17 7 0 10 -262144 -1 -1 0
1;
#X obj 318 476 tgl 15 0 empty empty empty 17 7 0 10 -262144 -1 -1 0
1;
#X text 195 352 << ~ >>;
#X obj 635 407 tabread~ aaa;
#X obj 431 348 tabosc4~ aaa;
#X floatatom 464 178 5 0 0 0 - - -, f 5;
#X obj 437 257 sig~;
#X obj 634 369 *~ 8195;
#X obj 634 324 phasor~;
#X obj 432 517 *~;
#X obj 644 503 *~;
#X obj 467 489 tgl 15 0 empty empty empty 17 7 0 10 -262144 -1 -1 0
1;
#X obj 676 474 tgl 15 0 empty empty empty 17 7 0 10 -262144 -1 -1 0
1;
#X text 553 350 << ~ >>;
#X obj 234 635 *~;
#X obj 487 934 dac~;
#X obj 441 96 ui.knob @size 40 40 @fontname "Helvetica" @fontweight
"normal" @fontslant "roman" @fontsize 11 @receive "(null)" @send "(null)"
@pinned 0 @presetname "(null)" @background_color 0.93 0.93 0.93 1 @border_color
0.6 0.6 0.6 1 @knob_color 0 0.75 1 1 @scale_color 0.6 0.6 0.6 1 @show_range
0 @draw_active 0 @min 0 @max 20;
#X obj 115 91 ui.knob @size 40 40 @fontname "Helvetica" @fontweight
"normal" @fontslant "roman" @fontsize 11 @receive "(null)" @send "(null)"
@pinned 0 @presetname "(null)" @background_color 0.93 0.93 0.93 1 @border_color
0.6 0.6 0.6 1 @knob_color 0 0.75 1 1 @scale_color 0.6 0.6 0.6 1 @show_range
0 @draw_active 0 @min 200 @max 2000;
#N canvas 0 22 450 278 (subpatch) 0;
#X array ws 8195 float 2;
#X coords 0 1 8195 -1 200 140 1;
#X restore 860 300 graph;
#X obj 461 734 *~ 8195;
#X obj 459 636 clip~ -1 1;
#X obj 458 686 expr~ $v1*.5+0.5;
#X obj 463 772 tabread~ ws;
#X obj 406 852 *~;
#X obj 618 838 *~;
#X obj 441 824 tgl 15 0 empty empty empty 17 7 0 10 -262144 -1 -1 0
1;
#X obj 650 809 tgl 15 0 empty empty empty 17 7 0 10 -262144 -1 -1 0
1;
#X connect 0 0 8 0;
#X connect 1 0 7 0;
#X connect 2 0 3 0;
#X connect 2 0 6 0;
#X connect 3 0 1 0;
#X connect 5 0 0 0;
#X connect 6 0 5 0;
#X connect 7 0 23 0;
#X connect 8 0 23 0;
#X connect 9 0 7 1;
#X connect 10 0 8 1;
#X connect 12 0 19 0;
#X connect 13 0 18 0;
#X connect 14 0 15 0;
#X connect 14 0 17 0;
#X connect 15 0 13 0;
#X connect 16 0 12 0;
#X connect 17 0 16 0;
#X connect 18 0 23 1;
#X connect 19 0 23 1;
#X connect 20 0 18 1;
#X connect 21 0 19 1;
#X connect 23 0 32 0;
#X connect 23 0 29 0;
#X connect 25 0 14 0;
#X connect 26 0 2 0;
#X connect 28 0 31 0;
#X connect 29 0 30 0;
#X connect 30 0 28 0;
#X connect 31 0 33 0;
#X connect 32 0 24 0;
#X connect 32 0 24 1;
#X connect 33 0 24 0;
#X connect 33 0 24 1;
#X connect 34 0 32 1;
#X connect 35 0 33 1;
