#N canvas 174 200 1658 751 12;
#X obj 76 93 snd.file;
#X obj 237 91 soundfiler;
#X obj 465 86 bng 15 250 50 0 empty empty empty 17 7 0 10 -262144 -1
-1;
#X obj 465 115 openpanel;
#N canvas 0 22 450 300 (subpatch) 0;
#X array array1 15964 float 0;
#X coords 0 1 15963 -1 120 80 1;
#X restore 1424 88 graph;
#X msg 465 144 load \$1 @to array[] @resize;
#X obj 465 173 snd.file;
#X obj 465 202 prop-> @channels;
#X floatatom 465 230 8 0 0 0 - - -, f 8;
#X floatatom 589 230 5 0 0 0 - - -, f 5;
#X obj 657 230 print;
#N canvas 0 22 450 300 (subpatch) 0;
#X array array2 15964 float 0;
#X coords 0 1 15963 -1 120 80 1;
#X restore 1424 203 graph;
#X text 465 259 play;
#X msg 62 412 bang;
#X msg 196 412 stop;
#X obj 62 455 tabplay~ array1;
#X obj 254 455 tabplay~ array2;
#X obj 62 484 dac~;
#X obj 580 557 tabread4~ array1;
#X obj 580 520 line~;
#X obj 696 322 conv.samp2sec;
#X obj 587 435 pack f f;
#X msg 587 473 0 \, \$1 \$2;
#X obj 539 354 bng 15 250 50 0 empty empty empty 17 7 0 10 -262144
-1 -1;
#X obj 572 392 float;
#X floatatom 735 399 5 0 0 0 - - -, f 5;
#X obj 578 604 dac~;
#X obj 697 353 * 2000;
#X obj 443 193 bng 15 250 50 0 empty empty empty 17 7 0 10 -262144
-1 -1;
#X obj 819 35 ui.keyboard @size 433 62 @fontname "Helvetica" @fontweight
"normal" @fontslant "roman" @fontsize 11 @receive "(null)" @send "(null)"
@pinned 0 @background_color 0.93 0.93 0.93 1 @border_color 0.6 0.6
0.6 1 @shift 36 @keys 61;
#X obj 393 306 local.float lll;
#X obj 972 297 local.float lll;
#X obj 881 280 bng 15 250 50 0 empty empty empty 17 7 0 10 -262144
-1 -1;
#X floatatom 967 334 5 0 0 0 - - -, f 5;
#X obj 1090 580 tabread4~ array1;
#X obj 1090 543 line~;
#X obj 1206 345 conv.samp2sec;
#X obj 1097 458 pack f f;
#X msg 1097 496 0 \, \$1 \$2;
#X obj 1047 389 bng 15 250 50 0 empty empty empty 17 7 0 10 -262144
-1 -1;
#X obj 1082 415 float;
#X floatatom 1258 454 5 0 0 0 - - -, f 5;
#X obj 1088 627 dac~;
#X obj 1207 376 * 1000;
#X floatatom 843 184 5 0 0 0 - - -, f 5;
#X obj 822 210 expr pow(2 \, ($f1-60)/12);
#X floatatom 819 263 5 0 0 0 - - -, f 5;
#X obj 1201 425 /;
#X obj 833 128 stripnote;
#X floatatom 954 167 5 0 0 0 - - -, f 5;
#X obj 916 246 t b f;
#X obj 1233 578 tabread4~ array2;
#X connect 2 0 3 0;
#X connect 3 0 5 0;
#X connect 5 0 6 0;
#X connect 6 0 7 0;
#X connect 7 0 8 0;
#X connect 7 1 9 0;
#X connect 7 2 10 0;
#X connect 8 0 24 1;
#X connect 8 0 20 0;
#X connect 8 0 30 0;
#X connect 13 0 15 0;
#X connect 13 0 16 0;
#X connect 14 0 15 0;
#X connect 14 0 16 0;
#X connect 15 0 17 0;
#X connect 16 0 17 1;
#X connect 18 0 26 0;
#X connect 18 0 26 1;
#X connect 19 0 18 0;
#X connect 20 0 27 0;
#X connect 21 0 22 0;
#X connect 22 0 19 0;
#X connect 23 0 24 0;
#X connect 24 0 21 0;
#X connect 27 0 25 0;
#X connect 27 0 21 1;
#X connect 28 0 8 0;
#X connect 29 0 48 0;
#X connect 31 0 33 0;
#X connect 31 0 40 1;
#X connect 31 0 36 0;
#X connect 32 0 31 0;
#X connect 32 0 39 0;
#X connect 34 0 42 0;
#X connect 35 0 34 0;
#X connect 35 0 51 0;
#X connect 36 0 43 0;
#X connect 37 0 38 0;
#X connect 38 0 35 0;
#X connect 39 0 40 0;
#X connect 40 0 37 0;
#X connect 43 0 41 0;
#X connect 43 0 47 0;
#X connect 45 0 46 0;
#X connect 45 0 50 0;
#X connect 47 0 37 1;
#X connect 48 0 45 0;
#X connect 48 0 49 0;
#X connect 50 0 32 0;
#X connect 50 1 47 1;
#X connect 51 0 42 1;
