#N canvas 1115 221 360 234 10;
#X obj 74 36 inlet;
#X obj 74 65 clip 0 50;
#X obj 74 95 phasor~ \$1;
#X obj 74 125 expr~ if($v1 < 0.5 \, $v1 \, 1-$v1);
#X obj 74 172 unsig~ 1;
#X obj 74 199 outlet;
#X obj 74 149 *~ 2;
#X connect 0 0 1 0;
#X connect 1 0 2 0;
#X connect 2 0 3 0;
#X connect 3 0 6 0;
#X connect 4 0 5 0;
#X connect 6 0 4 0;
