#N canvas 1017 368 167 268 10;
#X obj 39 38 inlet freq;
#X obj 39 69 clip 0 50;
#X obj 39 99 osc~ \$1;
#X obj 39 130 unsig~ 1;
#X msg 39 162 \$1 1;
#X obj 39 189 line;
#X obj 39 216 outlet;
#X connect 0 0 1 0;
#X connect 1 0 2 0;
#X connect 2 0 3 0;
#X connect 3 0 4 0;
#X connect 4 0 5 0;
#X connect 5 0 6 0;
