#N canvas 512 184 612 439 10;
#X obj 66 115 pan~;
#X obj 66 193 freeverb~;
#X msg 143 82 freeze \$1;
#X obj 66 275 *~;
#X obj 117 276 *~;
#X obj 171 215 line~;
#X obj 66 390 outlet~;
#X obj 126 390 outlet~;
#X obj 66 23 inlet~;
#X msg 331 63 roomsize 0.968 \, damping 0.4 \, dry 0.8;
#X obj 331 27 loadbang;
#X obj 143 22 inlet freeze;
#X obj 143 48 tgl 15 0 empty empty empty 17 7 0 10 -262144 -1 -1 0
1;
#X obj 285 128 inlet control;
#X obj 168 115 sel 1 0;
#X msg 168 142 1 2500;
#X obj 455 286 del 500;
#X msg 204 178 0 500;
#X obj 412 127 inlet ar_time;
#X obj 379 190 zl reg;
#X obj 510 127 loadbang;
#X msg 510 152 500 500;
#X connect 0 0 1 0;
#X connect 0 1 1 1;
#X connect 1 0 3 0;
#X connect 1 1 4 0;
#X connect 2 0 1 0;
#X connect 3 0 6 0;
#X connect 4 0 7 0;
#X connect 5 0 3 1;
#X connect 5 0 4 1;
#X connect 8 0 0 0;
#X connect 9 0 1 0;
#X connect 10 0 9 0;
#X connect 11 0 12 0;
#X connect 12 0 2 0;
#X connect 12 0 14 0;
#X connect 13 0 1 0;
#X connect 14 0 15 0;
#X connect 14 1 17 0;
#X connect 15 0 5 0;
#X connect 17 0 5 0;
#X connect 18 0 19 1;
#X connect 20 0 21 0;
#X connect 21 0 19 1;
