#N canvas 347 42 1006 718 12;
#X floatatom 59 49 5 0 0 0 - - -, f 5;
#X obj 59 76 moses 60;
#X floatatom 59 96 5 0 0 0 - - -, f 5;
#X floatatom 117 97 5 0 0 0 - - -, f 5;
#X obj 59 179 phasor~;
#X obj 59 150 mtof;
#X obj 124 150 mtof;
#X obj 124 179 osc~;
#X obj 196 46 / 127;
#X obj 59 307 dac~;
#X obj 60 262 *~ 0.4;
#X obj 59 28 notein 1;
#X floatatom 196 71 5 0 0 0 - - -, f 5;
#X obj 60 231 *~ 1;
#X obj 125 233 *~ 1;
#X obj 59 123 - 24;
#X floatatom 279 49 5 0 0 0 - - -, f 5;
#X obj 279 76 moses 60;
#X floatatom 279 96 5 0 0 0 - - -, f 5;
#X obj 279 179 phasor~;
#X obj 279 150 mtof;
#X obj 416 46 / 127;
#X obj 280 262 *~ 0.4;
#X obj 279 28 notein 1;
#X floatatom 416 71 5 0 0 0 - - -, f 5;
#X obj 280 231 *~ 1;
#X obj 279 123 - 24;
#X connect 0 0 1 0;
#X connect 1 0 2 0;
#X connect 1 1 3 0;
#X connect 2 0 15 0;
#X connect 3 0 6 0;
#X connect 4 0 13 0;
#X connect 5 0 4 0;
#X connect 6 0 7 0;
#X connect 7 0 14 0;
#X connect 8 0 12 0;
#X connect 11 0 0 0;
#X connect 11 1 8 0;
#X connect 12 0 4 0;
#X connect 12 0 7 0;
#X connect 13 0 10 0;
#X connect 14 0 10 0;
#X connect 15 0 5 0;
#X connect 16 0 17 0;
#X connect 17 0 18 0;
#X connect 17 1 20 0;
#X connect 18 0 26 0;
#X connect 19 0 25 0;
#X connect 20 0 19 0;
#X connect 21 0 24 0;
#X connect 22 0 9 0;
#X connect 23 0 16 0;
#X connect 23 1 21 0;
#X connect 24 0 25 1;
#X connect 25 0 22 0;
#X connect 26 0 20 0;
