#N canvas 342 71 700 500 12;
#X obj 66 27 notein;
#X floatatom 66 48 5 0 0 0 - - -, f 5;
#X obj 66 68 - 60;
#X text 137 68 [0 24];
#X obj 66 88 / 2;
#X obj 66 109 + 60;
#X floatatom 66 129 5 0 0 0 - - -, f 5;
#X obj 66 175 osc~;
#X obj 66 151 mtof;
#X text 137 85 [0 12];
#X text 135 25 [60 84];
#X text 134 128 [60 72];
#X obj 66 195 dac~;
#X connect 0 0 1 0;
#X connect 1 0 2 0;
#X connect 2 0 4 0;
#X connect 4 0 5 0;
#X connect 5 0 6 0;
#X connect 6 0 8 0;
#X connect 7 0 12 0;
#X connect 7 0 12 1;
#X connect 8 0 7 0;
