#N canvas 245 92 920 705 12;
#X obj 41 139 mtof;
#X obj 41 175 osc~;
#X floatatom 54 61 5 0 0 0 - - -, f 5;
#X obj 41 209 *~;
#X obj 41 297 dac~;
#X obj 85 138 / 127;
#X obj 41 93 + 1;
#X obj 41 31 notein;
#X floatatom 297 132 5 0 0 0 - - -, f 5;
#X obj 297 54 ctlin 1;
#X obj 297 153 dbtorms;
#X floatatom 297 174 5 0 0 0 - - -, f 5;
#X obj 297 107 clip 0 106;
#X floatatom 297 81 5 0 0 0 - - -, f 5;
#X obj 41 251 *~;
#X obj 151 59 ctlin 1;
#X obj 151 108 dbtorms;
#X obj 225 109 - 100;
#X floatatom 225 130 5 0 0 0 - - -, f 5;
#X obj 151 82 clip 0 106;
#X connect 0 0 1 0;
#X connect 1 0 3 0;
#X connect 3 0 14 0;
#X connect 5 0 3 1;
#X connect 6 0 0 0;
#X connect 7 0 2 0;
#X connect 7 0 6 0;
#X connect 7 1 5 0;
#X connect 8 0 10 0;
#X connect 9 0 13 0;
#X connect 10 0 11 0;
#X connect 12 0 8 0;
#X connect 13 0 12 0;
#X connect 14 0 4 0;
#X connect 14 0 4 1;
#X connect 15 0 19 0;
#X connect 16 0 14 1;
#X connect 17 0 18 0;
#X connect 19 0 16 0;
#X connect 19 0 17 0;
