#N canvas 171 81 974 828 10;
#N canvas 0 22 450 278 (subpatch) 0;
#X array array1 72000 float 2;
#X coords 0 1 72000 -1 200 140 1;
#X restore 120 37 graph;
#X obj 113 313 bng 15 250 50 0 empty empty empty 17 7 0 10 -262144
-1 -1;
#X obj 113 335 openpanel;
#X msg 113 360 read -resize \$1 array1;
#X obj 113 385 soundfiler;
#X floatatom 113 411 10 0 0 0 - - -;
#X obj 113 438 expr 44100 / $f1;
#X text 186 412 Number of samples;
#X text 229 437 Freq of playing;
#X obj 113 466 phasor~;
#X text 184 464 0..1;
#X obj 113 494 *~;
#X text 152 492 sample index;
#X obj 113 564 tabread4~ array1;
#X obj 113 609 output~;
#X obj 423 243 bng 15 250 50 0 empty empty empty 17 7 0 10 -262144
-1 -1;
#X obj 423 265 openpanel;
#X msg 423 290 read -resize \$1 array1;
#X obj 423 315 soundfiler;
#X floatatom 423 341 10 0 0 0 - - -;
#X obj 423 368 expr 44100 / $f1;
#X text 496 342 Number of samples;
#X text 539 367 Freq of playing;
#X obj 423 516 phasor~;
#X text 494 464 0..1;
#X obj 423 594 *~;
#X text 462 592 sample index;
#X obj 423 624 tabread4~ array1;
#X obj 119 144 hsl 200 15 0 1 0 0 empty empty empty -2 -8 0 10 -262144
-4034 -1 6700 1;
#X obj 423 659 output~;
#X obj 116 244 hsl 200 15 0 20 0 0 empty empty empty -2 -8 0 10 -262144
-1 -1 3700 1;
#X text 331 183 X offset;
#X floatatom 79 183 5 0 0 0 - - -;
#X floatatom 78 242 5 0 0 0 - - -;
#X text 333 242 speed;
#X obj 119 159 hsl 200 15 0 1 0 0 empty empty empty -2 -8 0 10 -262144
-1 -1 8200 1;
#X text 333 157 End;
#X obj 327 366 -;
#X obj 327 337 t b f;
#X obj 423 548 *~;
#X obj 423 573 +~;
#X floatatom 328 406 5 0 0 0 - - -;
#X obj 519 405 expr 1 / $f1;
#X obj 423 426 *;
#X obj 519 425 t b f;
#X floatatom 551 457 5 0 0 0 - - -;
#X obj 423 495 * 1;
#X obj 446 461 t b f;
#X floatatom 478 492 5 0 0 0 - - -;
#X connect 1 0 2 0;
#X connect 2 0 3 0;
#X connect 3 0 4 0;
#X connect 4 0 5 0;
#X connect 5 0 6 0;
#X connect 5 0 11 1;
#X connect 6 0 9 0;
#X connect 9 0 11 0;
#X connect 11 0 13 0;
#X connect 13 0 14 0;
#X connect 13 0 14 1;
#X connect 15 0 16 0;
#X connect 16 0 17 0;
#X connect 17 0 18 0;
#X connect 18 0 19 0;
#X connect 19 0 20 0;
#X connect 19 0 25 1;
#X connect 20 0 43 0;
#X connect 23 0 39 0;
#X connect 25 0 27 0;
#X connect 27 0 29 0;
#X connect 27 0 29 1;
#X connect 28 0 32 0;
#X connect 28 0 38 0;
#X connect 28 0 40 1;
#X connect 30 0 33 0;
#X connect 30 0 47 0;
#X connect 35 0 37 0;
#X connect 37 0 39 1;
#X connect 37 0 41 0;
#X connect 37 0 42 0;
#X connect 38 0 37 0;
#X connect 38 1 37 1;
#X connect 39 0 40 0;
#X connect 40 0 25 0;
#X connect 42 0 44 0;
#X connect 43 0 46 0;
#X connect 44 0 43 0;
#X connect 44 1 43 1;
#X connect 44 1 45 0;
#X connect 46 0 23 0;
#X connect 47 0 46 0;
#X connect 47 1 46 1;
#X connect 47 1 48 0;
