#N canvas 119 90 690 357 36;
#X obj 43 35 bng 15 250 50 0 empty empty empty 17 7 0 10 -262144 -1
-1;
#X obj 43 72 openpanel;
#X obj 301 35 bng 15 250 50 0 empty empty empty 17 7 0 10 -262144 -1
-1;
#X obj 301 72 openpanel;
#X obj 43 262 dac~;
#X floatatom 162 16 5 0 0 0 - - -;
#X obj 43 161 ztabplay~ 2;
#X msg 282 254 stop;
#X msg 415 254 start;
#X obj 301 162 ztabplay~ 1;
#X connect 0 0 1 0;
#X connect 1 0 6 0;
#X connect 2 0 3 0;
#X connect 3 0 9 0;
#X connect 5 0 6 1;
#X connect 6 0 4 0;
#X connect 7 0 6 2;
#X connect 8 0 6 2;
