#N canvas 100 36 985 570 10;
#X declare -lib hid;
#X obj 231 45 import hid;
#X obj 53 99 hid;
#X obj 53 42 loadbang;
#X obj 72 251 prepend set;
#X msg 72 280 key_22;
#X text 250 278 q w e r t y u i o p;
#X text 257 265 2 3 5 6 7 9 0;
#X msg 53 395 0;
#X msg 72 415 1;
#X msg 91 395 2;
#X msg 110 415 3;
#X msg 129 395 4;
#X msg 149 415 5;
#X msg 168 395 6;
#X msg 187 415 7;
#X msg 206 395 8;
#X msg 226 415 9;
#X msg 245 395 10;
#X msg 264 415 11;
#X msg 283 395 12;
#X msg 303 415 13;
#X msg 322 395 14;
#X msg 341 415 15;
#X obj 53 348 route key_20 key_31 key_26 key_32 key_8 key_21 key_34
key_23 key_35 key_28 key_36 key_24 key_12 key_38 key_18 key_39 key_19
;
#X msg 360 395 16;
#X obj 567 496 + 72;
#X obj 567 538 outlet midipitch;
#X obj 413 348 route key_29 key_22 key_27 key_7 key_6 key_25 key_10
key_5 key_11 key_17 key_13 key_16 key_54 key_15 key_55;
#X msg 413 385 0;
#X msg 436 405 1;
#X msg 459 385 2;
#X msg 482 405 3;
#X msg 505 385 4;
#X msg 528 405 5;
#X msg 551 385 6;
#X msg 574 405 7;
#X msg 597 385 8;
#X msg 620 405 9;
#X msg 643 385 10;
#X msg 666 405 11;
#X msg 689 385 12;
#X msg 712 405 13;
#X msg 735 385 14;
#X obj 637 495 + 60;
#X obj 759 465 select 1 0;
#X obj 759 539 outlet velocity;
#X obj 759 498 f 127;
#X msg 810 497 0;
#X obj 164 210 prepend set;
#X msg 164 234 1;
#X obj 53 181 unpack symbol float;
#X obj 53 154 route key_-1;
#X obj 53 128 route key;
#X obj 257 211 s keyboard-press;
#X obj 759 436 r keyboard-press;
#X obj 53 206 s keyboard-key;
#X obj 53 229 r keyboard-key;
#X obj 53 494 s \$0-row1;
#X obj 567 444 r \$0-row1;
#X obj 637 465 r \$0-row2;
#X obj 413 440 s \$0-row2;
#X obj 53 311 list trim;
#X obj 335 44 inlet control;
#X msg 53 73 open keyboard 0;
#X text 433 44 0 or 1;
#X connect 1 0 52 0;
#X connect 2 0 63 0;
#X connect 3 0 4 0;
#X connect 7 0 57 0;
#X connect 8 0 57 0;
#X connect 9 0 57 0;
#X connect 10 0 57 0;
#X connect 11 0 57 0;
#X connect 12 0 57 0;
#X connect 13 0 57 0;
#X connect 14 0 57 0;
#X connect 15 0 57 0;
#X connect 16 0 57 0;
#X connect 17 0 57 0;
#X connect 18 0 57 0;
#X connect 19 0 57 0;
#X connect 20 0 57 0;
#X connect 21 0 57 0;
#X connect 22 0 57 0;
#X connect 23 0 7 0;
#X connect 23 1 8 0;
#X connect 23 2 9 0;
#X connect 23 3 10 0;
#X connect 23 4 11 0;
#X connect 23 5 12 0;
#X connect 23 6 13 0;
#X connect 23 7 14 0;
#X connect 23 8 15 0;
#X connect 23 9 16 0;
#X connect 23 10 17 0;
#X connect 23 11 18 0;
#X connect 23 12 19 0;
#X connect 23 13 20 0;
#X connect 23 14 21 0;
#X connect 23 15 22 0;
#X connect 23 16 24 0;
#X connect 23 17 27 0;
#X connect 24 0 57 0;
#X connect 25 0 26 0;
#X connect 27 0 28 0;
#X connect 27 1 29 0;
#X connect 27 2 30 0;
#X connect 27 3 31 0;
#X connect 27 4 32 0;
#X connect 27 5 33 0;
#X connect 27 6 34 0;
#X connect 27 7 35 0;
#X connect 27 8 36 0;
#X connect 27 9 37 0;
#X connect 27 10 38 0;
#X connect 27 11 39 0;
#X connect 27 12 40 0;
#X connect 27 13 41 0;
#X connect 27 14 42 0;
#X connect 28 0 60 0;
#X connect 29 0 60 0;
#X connect 30 0 60 0;
#X connect 31 0 60 0;
#X connect 32 0 60 0;
#X connect 33 0 60 0;
#X connect 34 0 60 0;
#X connect 35 0 60 0;
#X connect 36 0 60 0;
#X connect 37 0 60 0;
#X connect 38 0 60 0;
#X connect 39 0 60 0;
#X connect 40 0 60 0;
#X connect 41 0 60 0;
#X connect 42 0 60 0;
#X connect 43 0 26 0;
#X connect 44 0 46 0;
#X connect 44 1 47 0;
#X connect 46 0 45 0;
#X connect 47 0 45 0;
#X connect 48 0 49 0;
#X connect 50 0 55 0;
#X connect 50 1 48 0;
#X connect 50 1 53 0;
#X connect 51 1 50 0;
#X connect 52 0 51 0;
#X connect 54 0 44 0;
#X connect 56 0 3 0;
#X connect 56 0 61 0;
#X connect 58 0 25 0;
#X connect 59 0 43 0;
#X connect 61 0 23 0;
#X connect 62 0 1 0;
#X connect 63 0 1 0;
