#N canvas 48 55 1867 891 36;
#X obj 293 809 dac~;
#X obj 56 255 osc~;
#X obj 293 729 *~ 0.1;
#X obj 56 193 * 1;
#X obj 266 50 hsl 128 15 50 10000 0 0 freq empty empty -2 -8 0 10 -262144
-1 -1 0 1;
#X floatatom 263 83 5 0 0 0 - - -;
#X obj 569 39 bng 60 250 50 0 rnd empty empty 17 7 0 10 -258113 -1
-1;
#X obj 119 560 line~;
#X obj 56 612 *~;
#X obj 119 443 / 100;
#X obj 119 387 random 100;
#X msg 119 500 \$1 500;
#X obj 119 331 r rnd;
#X obj 346 255 osc~;
#X obj 409 560 line~;
#X obj 346 612 *~;
#X obj 409 443 / 100;
#X obj 409 387 random 100;
#X msg 409 500 \$1 500;
#X obj 409 331 r rnd;
#X obj 566 265 osc~;
#X obj 629 570 line~;
#X obj 566 622 *~;
#X obj 629 453 / 100;
#X obj 629 397 random 100;
#X msg 629 510 \$1 500;
#X obj 629 341 r rnd;
#X obj 56 132 r freq;
#X obj 346 132 r freq;
#X obj 566 132 r freq;
#X obj 876 265 osc~;
#X obj 939 570 line~;
#X obj 876 622 *~;
#X obj 939 453 / 100;
#X obj 939 397 random 100;
#X msg 939 510 \$1 500;
#X obj 939 341 r rnd;
#X obj 1096 275 osc~;
#X obj 1159 580 line~;
#X obj 1096 632 *~;
#X obj 1159 463 / 100;
#X obj 1159 407 random 100;
#X msg 1159 520 \$1 500;
#X obj 1159 351 r rnd;
#X obj 876 142 r freq;
#X obj 1096 142 r freq;
#X obj 1396 265 osc~;
#X obj 1459 570 line~;
#X obj 1396 622 *~;
#X obj 1459 453 / 100;
#X obj 1459 397 random 100;
#X msg 1459 510 \$1 500;
#X obj 1459 341 r rnd;
#X obj 1616 275 osc~;
#X obj 1679 580 line~;
#X obj 1616 632 *~;
#X obj 1679 463 / 100;
#X obj 1679 407 random 100;
#X msg 1679 520 \$1 500;
#X obj 1679 351 r rnd;
#X obj 1396 142 r freq;
#X obj 1616 142 r freq;
#X obj 346 193 * 2;
#X obj 566 203 * 3;
#X obj 876 203 * 4;
#X obj 1096 213 * 5;
#X obj 1396 203 * 6;
#X obj 1616 213 * 7;
#X obj 734 51 metro 500;
#X obj 734 21 tgl 15 0 empty empty empty 17 7 0 10 -262144 -1 -1 1
1;
#X connect 1 0 8 0;
#X connect 2 0 0 0;
#X connect 2 0 0 1;
#X connect 3 0 1 0;
#X connect 4 0 5 0;
#X connect 7 0 8 1;
#X connect 8 0 2 0;
#X connect 9 0 11 0;
#X connect 10 0 9 0;
#X connect 11 0 7 0;
#X connect 12 0 10 0;
#X connect 13 0 15 0;
#X connect 14 0 15 1;
#X connect 15 0 2 0;
#X connect 16 0 18 0;
#X connect 17 0 16 0;
#X connect 18 0 14 0;
#X connect 19 0 17 0;
#X connect 20 0 22 0;
#X connect 21 0 22 1;
#X connect 22 0 2 0;
#X connect 23 0 25 0;
#X connect 24 0 23 0;
#X connect 25 0 21 0;
#X connect 26 0 24 0;
#X connect 27 0 3 0;
#X connect 28 0 62 0;
#X connect 29 0 63 0;
#X connect 30 0 32 0;
#X connect 31 0 32 1;
#X connect 32 0 2 0;
#X connect 33 0 35 0;
#X connect 34 0 33 0;
#X connect 35 0 31 0;
#X connect 36 0 34 0;
#X connect 37 0 39 0;
#X connect 38 0 39 1;
#X connect 39 0 2 0;
#X connect 40 0 42 0;
#X connect 41 0 40 0;
#X connect 42 0 38 0;
#X connect 43 0 41 0;
#X connect 44 0 64 0;
#X connect 45 0 65 0;
#X connect 46 0 48 0;
#X connect 47 0 48 1;
#X connect 48 0 2 0;
#X connect 49 0 51 0;
#X connect 50 0 49 0;
#X connect 51 0 47 0;
#X connect 52 0 50 0;
#X connect 53 0 55 0;
#X connect 54 0 55 1;
#X connect 55 0 2 0;
#X connect 56 0 58 0;
#X connect 57 0 56 0;
#X connect 58 0 54 0;
#X connect 59 0 57 0;
#X connect 60 0 66 0;
#X connect 61 0 67 0;
#X connect 62 0 13 0;
#X connect 63 0 20 0;
#X connect 64 0 30 0;
#X connect 65 0 37 0;
#X connect 66 0 46 0;
#X connect 67 0 53 0;
#X connect 68 0 6 0;
#X connect 69 0 68 0;
