#N canvas 119 90 1185 840 36;
#X text 279 306 carrier;
#X obj 169 169 hsl 128 50 200 5000 0 0 empty empty empty -2 -8 0 10
-262144 -1 -1 40 1;
#X floatatom 181 225 5 0 0 0 - - -;
#X obj 469 308 osc~;
#X obj 166 465 +~;
#X obj 469 417 *~;
#X obj 166 311 sig~;
#X obj 472 169 hsl 128 50 200 5000 0 0 empty empty empty -2 -8 0 10
-262144 -1 -1 2680 1;
#X floatatom 484 225 5 0 0 0 - - -;
#X text 583 302 modulator;
#X obj 602 359 hsl 128 50 200 5000 0 0 empty empty empty -2 -8 0 10
-262144 -1 -1 7000 1;
#X floatatom 614 415 5 0 0 0 - - -;
#X obj 166 550 osc~;
#X obj 166 637 *~ 0.4;
#X obj 166 743 dac~;
#X text 752 349 index;
#X text 289 549 [-1 \, 1];
#X msg 661 167 100;
#X obj 837 94 cursor;
#X obj 837 65 tgl 15 0 empty empty empty 17 7 0 10 -262144 -1 -1 0
1;
#X obj 837 157 route motion;
#X obj 837 213 route x y;
#X connect 1 0 2 0;
#X connect 1 0 6 0;
#X connect 3 0 5 0;
#X connect 4 0 12 0;
#X connect 5 0 4 1;
#X connect 6 0 4 0;
#X connect 7 0 8 0;
#X connect 7 0 3 0;
#X connect 10 0 11 0;
#X connect 10 0 5 1;
#X connect 13 0 14 0;
#X connect 13 0 14 1;
#X connect 17 0 3 0;
#X connect 18 0 20 0;
#X connect 19 0 18 0;
#X connect 20 0 21 0;
#X connect 21 0 7 0;
#X connect 21 1 1 0;
