#N canvas 408 221 1326 685 36;
#X obj 101 81 bng 15 250 50 0 empty empty empty 17 7 0 10 -262144 -1
-1;
#X floatatom 101 221 5 0 0 0 - - -;
#X obj 412 241 fiddle~;
#X obj 101 116 float;
#X text 232 56 0;
#X text 231 176 1;
#X obj 101 309 sel 6;
#X msg 101 388 1000;
#X obj 101 465 osc~;
#X obj 101 553 dac~;
#X floatatom 412 339 5 0 0 0 - - -;
#X obj 412 414 mtof;
#X obj 412 548 dac~;
#X obj 412 482 osc~;
#X obj 555 416 ftom;
#X obj 412 174 adc~ 1;
#X obj 625 127 + 1;
#X obj 725 127 f;
#X msg 625 55 2;
#X floatatom 625 203 5 0 0 0 - - -;
#X msg 729 56 -4;
#X obj 237 116 + 2;
#X connect 0 0 3 0;
#X connect 1 0 6 0;
#X connect 2 0 10 0;
#X connect 3 0 1 0;
#X connect 3 0 21 0;
#X connect 6 0 7 0;
#X connect 10 0 11 0;
#X connect 11 0 13 0;
#X connect 13 0 12 0;
#X connect 15 0 2 0;
#X connect 16 0 17 0;
#X connect 16 0 19 0;
#X connect 17 0 16 1;
#X connect 18 0 16 0;
#X connect 20 0 16 0;
#X connect 21 0 3 1;
