#N canvas 451 413 450 300 10;
#X msg 141 57 devices;
#X msg 90 26 open 2;
#X obj 105 146 print;
#X obj 105 112 comport 2 9600;
#X msg 189 31 close;
#X obj 271 37 hradio 15 1 0 10 empty empty empty 0 -8 0 10 -262144
-1 -1 0;
#X obj 271 77 + 48;
#X connect 0 0 3 0;
#X connect 1 0 3 0;
#X connect 3 0 2 0;
#X connect 4 0 3 0;
#X connect 5 0 6 0;
#X connect 6 0 3 0;
