#N canvas 32 72 777 617 36;
#X obj 52 31 tgl 15 0 empty empty empty 17 7 0 10 -262144 -1 -1 1 1
;
#X obj 52 337 osc~;
#X obj 52 537 dac~;
#X obj 52 214 + 200;
#X obj 52 143 random 5000;
#X obj 52 414 *~;
#X obj 201 366 sig~;
#X text 405 309 [0 \, 1);
#X text 400 66 [0 \, 1000);
#X obj 338 141 random 100;
#X obj 338 211 / 100;
#X obj 52 67 metro 30;
#X obj 52 476 rev1~;
#X obj 334 392 hsl 128 15 0 127 0 0 empty empty empty -2 -8 0 10 -262144
-1 -1 500 1;
#X connect 0 0 11 0;
#X connect 1 0 5 0;
#X connect 3 0 1 0;
#X connect 4 0 3 0;
#X connect 5 0 12 0;
#X connect 6 0 5 1;
#X connect 9 0 10 0;
#X connect 10 0 6 0;
#X connect 11 0 4 0;
#X connect 11 0 9 0;
#X connect 12 0 2 0;
#X connect 12 0 2 1;
#X connect 13 0 12 1;
