#N canvas 19 81 1000 565 10;
#X obj 50 288 osc~;
#X obj 50 181 osc~;
#X obj 50 226 *~;
#X floatatom 103 178 5 0 0 0 - - -;
#X obj 110 225 sig~;
#X floatatom 157 177 5 0 0 0 - - -;
#X obj 105 119 sig~;
#X floatatom 152 71 5 0 0 0 - - -;
#X text 38 13 2 oscillators;
#X obj 397 231 osc~;
#X obj 397 169 *~;
#X floatatom 450 121 5 0 0 0 - - -;
#X obj 457 168 sig~;
#X floatatom 504 120 5 0 0 0 - - -;
#X obj 288 271 send~ feedback1;
#X obj 270 114 receive~ feedback1;
#X text 263 10 1 oscillator + feedback;
#X obj 611 348 osc~;
#X obj 612 322 *~;
#X floatatom 665 274 5 0 0 0 - - -;
#X obj 665 322 sig~;
#X floatatom 719 274 5 0 0 0 - - -;
#X obj 614 236 osc~;
#X obj 614 208 *~;
#X floatatom 667 160 5 0 0 0 - - -;
#X obj 667 208 sig~;
#X floatatom 721 160 5 0 0 0 - - -;
#X obj 614 113 osc~;
#X obj 671 93 sig~;
#X floatatom 718 45 5 0 0 0 - - -;
#X obj 612 459 osc~;
#X obj 613 428 *~;
#X floatatom 666 380 5 0 0 0 - - -;
#X obj 666 428 sig~;
#X floatatom 720 380 5 0 0 0 - - -;
#X text 604 8 4 oscillator;
#X obj 991 342 osc~;
#X obj 992 316 *~;
#X floatatom 1045 268 5 0 0 0 - - -;
#X obj 1045 316 sig~;
#X floatatom 1099 268 5 0 0 0 - - -;
#X obj 994 230 osc~;
#X obj 994 202 *~;
#X floatatom 1047 154 5 0 0 0 - - -;
#X obj 1047 202 sig~;
#X floatatom 1101 154 5 0 0 0 - - -;
#X obj 994 107 osc~;
#X obj 1051 87 sig~;
#X floatatom 1098 39 5 0 0 0 - - -;
#X obj 992 453 osc~;
#X obj 993 422 *~;
#X floatatom 1046 374 5 0 0 0 - - -;
#X obj 1046 422 sig~;
#X floatatom 1101 368 5 0 0 0 - - -;
#X obj 859 483 send~ fb1;
#X obj 849 395 receive~ fb1;
#X obj 946 419 *~;
#X floatatom 999 375 5 0 0 0 - - -;
#X obj 943 313 *~;
#X floatatom 996 269 5 0 0 0 - - -;
#X obj 941 195 *~;
#X floatatom 1004 154 5 0 0 0 - - -;
#X obj 944 71 *~;
#X floatatom 997 27 5 0 0 0 - - -;
#X text 902 6 4 oscillator + 4 feedbacks;
#X obj 847 39 receive~ fb4;
#X obj 846 135 send~ fb4;
#X obj 844 163 receive~ fb3;
#X obj 850 249 send~ fb3;
#X obj 846 281 receive~ fb2;
#X obj 848 365 send~ fb2;
#X obj 1446 292 osc~;
#X obj 1446 185 osc~;
#X obj 1446 230 *~;
#X floatatom 1499 182 5 0 0 0 - - -;
#X obj 1506 229 sig~;
#X floatatom 1553 181 5 0 0 0 - - -;
#X obj 1501 123 sig~;
#X floatatom 1548 75 5 0 0 0 - - -;
#X obj 1242 296 osc~;
#X obj 1242 189 osc~;
#X obj 1242 234 *~;
#X floatatom 1295 186 5 0 0 0 - - -;
#X obj 1302 233 sig~;
#X floatatom 1349 185 5 0 0 0 - - -;
#X obj 1297 127 sig~;
#X floatatom 1344 79 5 0 0 0 - - -;
#X text 1238 10 2 + 2 oscillators;
#X obj 1237 379 *~;
#X floatatom 1290 331 5 0 0 0 - - -;
#X obj 1358 373 *~;
#X floatatom 1370 328 5 0 0 0 - - -;
#X connect 1 0 2 0;
#X connect 2 0 0 0;
#X connect 3 0 2 1;
#X connect 4 0 0 0;
#X connect 5 0 4 0;
#X connect 6 0 1 0;
#X connect 7 0 6 0;
#X connect 9 0 14 0;
#X connect 10 0 9 0;
#X connect 11 0 10 1;
#X connect 12 0 9 0;
#X connect 13 0 12 0;
#X connect 15 0 10 0;
#X connect 17 0 31 0;
#X connect 18 0 17 0;
#X connect 19 0 18 1;
#X connect 20 0 17 0;
#X connect 21 0 20 0;
#X connect 22 0 18 0;
#X connect 23 0 22 0;
#X connect 24 0 23 1;
#X connect 25 0 22 0;
#X connect 26 0 25 0;
#X connect 27 0 23 0;
#X connect 28 0 27 0;
#X connect 29 0 28 0;
#X connect 31 0 30 0;
#X connect 32 0 31 1;
#X connect 33 0 30 0;
#X connect 34 0 33 0;
#X connect 36 0 50 0;
#X connect 36 0 70 0;
#X connect 37 0 36 0;
#X connect 38 0 37 1;
#X connect 39 0 36 0;
#X connect 40 0 39 0;
#X connect 41 0 37 0;
#X connect 41 0 68 0;
#X connect 42 0 41 0;
#X connect 43 0 42 1;
#X connect 44 0 41 0;
#X connect 45 0 44 0;
#X connect 46 0 42 0;
#X connect 46 0 66 0;
#X connect 47 0 46 0;
#X connect 48 0 47 0;
#X connect 49 0 54 0;
#X connect 50 0 49 0;
#X connect 51 0 50 1;
#X connect 52 0 49 0;
#X connect 53 0 52 0;
#X connect 55 0 56 0;
#X connect 56 0 49 0;
#X connect 57 0 56 1;
#X connect 58 0 36 0;
#X connect 59 0 58 1;
#X connect 60 0 41 0;
#X connect 61 0 60 1;
#X connect 62 0 46 0;
#X connect 63 0 62 1;
#X connect 65 0 62 0;
#X connect 67 0 60 0;
#X connect 69 0 58 0;
#X connect 71 0 90 0;
#X connect 72 0 73 0;
#X connect 73 0 71 0;
#X connect 74 0 73 1;
#X connect 75 0 71 0;
#X connect 76 0 75 0;
#X connect 77 0 72 0;
#X connect 78 0 77 0;
#X connect 79 0 88 0;
#X connect 80 0 81 0;
#X connect 81 0 79 0;
#X connect 82 0 81 1;
#X connect 83 0 79 0;
#X connect 84 0 83 0;
#X connect 85 0 80 0;
#X connect 86 0 85 0;
#X connect 89 0 88 1;
#X connect 91 0 90 1;
