#N canvas 151 139 826 519 10;
#X obj 356 428 osc~;
#X obj 356 321 osc~;
#X obj 356 366 *~;
#X floatatom 409 318 5 0 0 0 - - -;
#X obj 416 365 sig~;
#X floatatom 463 317 5 0 0 0 - - -;
#X obj 411 259 sig~;
#X floatatom 458 211 5 0 0 0 - - -;
#X obj 359 482 dac~;
#X obj 298 109 mtof;
#X floatatom 298 73 5 0 0 0 - - -;
#X floatatom 296 157 5 0 0 0 - - -;
#X obj 388 195 * 1;
#X obj 457 183 * 1;
#X floatatom 475 109 5 0 0 0 - - -;
#X floatatom 401 110 5 0 0 0 - - -;
#X obj 387 149 bng 15 250 50 0 empty empty empty 17 7 0 10 -262144
-1 -1;
#X obj 457 150 bng 15 250 50 0 empty empty empty 17 7 0 10 -262144
-1 -1;
#X obj 103 52 key;
#X floatatom 141 93 5 0 0 0 - - -;
#X obj 84 142 select 97 119 115 101 100;
#X msg 78 187 48;
#X msg 113 186 49;
#X msg 151 186 50;
#X msg 189 186 51;
#X msg 227 186 52;
#X obj 77 223 send note1;
#X obj 299 28 receive note1;
#X connect 0 0 8 0;
#X connect 0 0 8 1;
#X connect 1 0 2 0;
#X connect 2 0 0 0;
#X connect 3 0 2 1;
#X connect 4 0 0 0;
#X connect 5 0 4 0;
#X connect 6 0 1 0;
#X connect 7 0 6 0;
#X connect 9 0 11 0;
#X connect 9 0 5 0;
#X connect 9 0 13 0;
#X connect 9 0 12 0;
#X connect 10 0 9 0;
#X connect 12 0 3 0;
#X connect 13 0 7 0;
#X connect 14 0 13 1;
#X connect 14 0 17 0;
#X connect 15 0 12 1;
#X connect 15 0 16 0;
#X connect 16 0 12 0;
#X connect 17 0 13 0;
#X connect 18 0 19 0;
#X connect 18 0 20 0;
#X connect 20 0 21 0;
#X connect 20 1 22 0;
#X connect 20 2 23 0;
#X connect 20 3 24 0;
#X connect 20 4 25 0;
#X connect 21 0 26 0;
#X connect 22 0 26 0;
#X connect 23 0 26 0;
#X connect 24 0 26 0;
#X connect 25 0 26 0;
#X connect 27 0 10 0;
