#N canvas -46 72 1024 669 10;
#X obj 261 347 osc~;
#X obj 262 321 *~;
#X floatatom 315 273 5 0 0 0 - - -;
#X obj 315 321 sig~;
#X floatatom 369 273 5 0 0 0 - - -;
#X obj 264 235 osc~;
#X obj 264 207 *~;
#X floatatom 317 159 5 0 0 0 - - -;
#X obj 317 207 sig~;
#X floatatom 371 159 5 0 0 0 - - -;
#X obj 264 112 osc~;
#X obj 321 92 sig~;
#X floatatom 368 44 5 0 0 0 - - -;
#X obj 262 458 osc~;
#X obj 263 427 *~;
#X floatatom 316 379 5 0 0 0 - - -;
#X obj 316 427 sig~;
#X floatatom 369 380 5 0 0 0 - - -;
#X obj 129 488 send~ fb1;
#X obj 119 400 receive~ fb1;
#X obj 216 424 *~;
#X floatatom 269 380 5 0 0 0 - - -;
#X obj 213 318 *~;
#X floatatom 266 274 5 0 0 0 - - -;
#X obj 211 200 *~;
#X floatatom 274 159 5 0 0 0 - - -;
#X obj 214 76 *~;
#X floatatom 267 32 5 0 0 0 - - -;
#X obj 117 44 receive~ fb4;
#X obj 116 140 send~ fb4;
#X obj 114 168 receive~ fb3;
#X obj 120 254 send~ fb3;
#X obj 116 286 receive~ fb2;
#X obj 118 370 send~ fb2;
#X obj 266 -7 receive _fb4;
#X obj 368 -6 receive _f4;
#X obj 275 131 receive _fb3;
#X obj 289 243 receive _fb2;
#X obj 297 351 receive _fb1;
#X obj 375 125 receive _f3;
#X obj 373 235 receive _f2;
#X obj 384 342 receive _f1;
#X obj 369 90 receive _i4;
#X obj 374 204 receive _i3;
#X obj 371 321 receive _i2;
#X obj 269 515 dac~;
#X msg 660 169 \; _fb4 \$1;
#X obj 693 31 print test:;
#X obj 803 100 r _clock1;
#X obj 662 131 random 1000;
#X obj 662 99 r _clock1;
#X obj 803 233 random 1000;
#X obj 803 201 r _clock1;
#X obj 662 232 random 1000;
#X obj 662 200 r _clock1;
#X obj 806 338 random 1000;
#X obj 806 306 r _clock1;
#X obj 665 337 random 1000;
#X obj 665 305 r _clock1;
#X obj 806 407 r _clock1;
#X obj 665 438 random 1000;
#X obj 665 406 r _clock1;
#X obj 930 262 random 1000;
#X obj 930 230 r _clock1;
#X obj 920 127 random 1000;
#X obj 920 95 r _clock1;
#X obj 919 365 random 1000;
#X obj 919 333 r _clock1;
#X msg 662 260 \; _fb3 \$1;
#X msg 665 360 \; _fb2 \$1;
#X msg 663 476 \; _fb1 \$1;
#X obj 806 163 s _f4;
#X obj 806 264 s _f3;
#X obj 809 369 s _f2;
#X obj 809 470 s _f1;
#X msg 918 165 \; _i4 \$1;
#X obj 933 293 s _i3;
#X obj 922 396 s _i2;
#X msg 358 549 \; _clock1 bang;
#X obj 366 510 metro 100;
#X obj 368 474 tgl 15 0 empty empty empty 17 7 0 10 -262144 -1 -1 0
1;
#X obj 803 132 random 2000;
#X obj 806 439 random 5000;
#X msg 535 563 \; _fb4 8162 \; _fb3 253 \; _fb2 186 \; _fb1 815;
#X msg 504 302 \; _f4 8162 \; _f3 253 \; _f2 186 \; _f1 815;
#X msg 593 296 \; _f4 200 \; _f3 300 \; _f2 400 \; _f1 400;
#X msg 523 476 \; _i4 400 \; _i3 400 \; _i2 400;
#X msg 530 383 \; _fb4 0 \; _fb3 0 \; _fb2 0 \; _fb1 0;
#X obj 693 3 receive _send1;
#X msg 580 5 \; _send1 test;
#X connect 0 0 14 0;
#X connect 0 0 33 0;
#X connect 1 0 0 0;
#X connect 2 0 1 1;
#X connect 3 0 0 0;
#X connect 4 0 3 0;
#X connect 5 0 1 0;
#X connect 5 0 31 0;
#X connect 6 0 5 0;
#X connect 7 0 6 1;
#X connect 8 0 5 0;
#X connect 9 0 8 0;
#X connect 10 0 6 0;
#X connect 10 0 29 0;
#X connect 11 0 10 0;
#X connect 12 0 11 0;
#X connect 13 0 18 0;
#X connect 13 0 45 0;
#X connect 13 0 45 1;
#X connect 14 0 13 0;
#X connect 15 0 14 1;
#X connect 16 0 13 0;
#X connect 17 0 16 0;
#X connect 19 0 20 0;
#X connect 20 0 13 0;
#X connect 21 0 20 1;
#X connect 22 0 0 0;
#X connect 23 0 22 1;
#X connect 24 0 5 0;
#X connect 25 0 24 1;
#X connect 26 0 10 0;
#X connect 27 0 26 1;
#X connect 28 0 26 0;
#X connect 30 0 24 0;
#X connect 32 0 22 0;
#X connect 34 0 27 0;
#X connect 35 0 12 0;
#X connect 36 0 25 0;
#X connect 37 0 23 0;
#X connect 38 0 21 0;
#X connect 39 0 9 0;
#X connect 40 0 4 0;
#X connect 41 0 17 0;
#X connect 42 0 7 0;
#X connect 43 0 2 0;
#X connect 44 0 15 0;
#X connect 48 0 81 0;
#X connect 49 0 46 0;
#X connect 50 0 49 0;
#X connect 51 0 72 0;
#X connect 52 0 51 0;
#X connect 53 0 68 0;
#X connect 54 0 53 0;
#X connect 55 0 73 0;
#X connect 56 0 55 0;
#X connect 57 0 69 0;
#X connect 58 0 57 0;
#X connect 59 0 82 0;
#X connect 60 0 70 0;
#X connect 61 0 60 0;
#X connect 62 0 76 0;
#X connect 63 0 62 0;
#X connect 64 0 75 0;
#X connect 65 0 64 0;
#X connect 66 0 77 0;
#X connect 67 0 66 0;
#X connect 79 0 78 0;
#X connect 80 0 79 0;
#X connect 81 0 71 0;
#X connect 82 0 74 0;
#X connect 88 0 47 0;
