#N canvas 0 23 762 548 12;
#X obj 45 32 bng 30 250 50 0 empty empty empty 17 7 0 10 -262144 -1
-1;
#X obj 246 23 bng 15 250 50 0 empty empty empty 17 7 0 10 -262144 -1
-1;
#X obj 246 260 bng 15 250 50 0 empty empty empty 17 7 0 10 -262144
-1 -1;
#X obj 367 260 bng 15 250 50 0 empty empty empty 17 7 0 10 -262144
-1 -1;
#X obj 36 363 osc~;
#X obj 35 459 dac~;
#X obj 37 315 r f;
#X msg 40 155 \; f 441;
#X obj 269 400 ui.scope~ @size 150 100 @fontname "Helvetica" @fontweight
"normal" @fontslant "roman" @fontsize 11 @receive "(null)" @send "(null)"
@pinned 0 @background_color 0.93 0.93 0.93 1 @border_color 0.6 0.6
0.6 1 @yscale 1;
#X msg 165 289 \; f 400;
#X msg 249 292 \; f 500;
#X msg 366 285 \; f 599.95;
#X obj 39 411 *~;
#X obj 86 360 r a;
#X msg 60 217 \; a 1;
#X obj 681 75 bng 15 250 50 0 empty empty empty 17 7 0 10 -262144 -1
-1;
#X msg 682 234 \; a 0;
#X obj 107 78 delay 3000;
#X obj 206 167 random 3;
#X obj 165 261 bng 15 250 50 0 empty empty empty 17 7 0 10 -262144
-1 -1;
#X obj 422 74 f;
#X obj 462 77 + 1;
#X msg 449 33 0;
#X obj 244 77 metro 1000;
#X obj 283 115 random.int 500 1500;
#X obj 206 196 select 0 1 2;
#X msg 244 52 1;
#X obj 479 123 select 11;
#X msg 480 155 0;
#X connect 0 0 7 0;
#X connect 0 0 14 0;
#X connect 0 0 17 0;
#X connect 0 0 22 0;
#X connect 1 0 26 0;
#X connect 2 0 10 0;
#X connect 3 0 11 0;
#X connect 4 0 12 0;
#X connect 6 0 4 0;
#X connect 12 0 5 1;
#X connect 12 0 5 0;
#X connect 13 0 12 1;
#X connect 15 0 16 0;
#X connect 17 0 1 0;
#X connect 18 0 25 0;
#X connect 19 0 9 0;
#X connect 20 0 21 0;
#X connect 20 0 27 0;
#X connect 21 0 20 1;
#X connect 22 0 20 1;
#X connect 23 0 24 0;
#X connect 23 0 18 0;
#X connect 23 0 20 0;
#X connect 24 0 23 1;
#X connect 25 0 19 0;
#X connect 25 1 2 0;
#X connect 25 2 3 0;
#X connect 26 0 23 0;
#X connect 27 0 28 0;
#X connect 27 0 15 0;
#X connect 28 0 23 0;
