#N canvas 0 23 800 551 12;
#X obj 54 41 notein;
#X obj 669 70 ctlin;
#X floatatom 51 86 5 0 0 0 - - -, f 5;
#X floatatom 65 127 5 0 0 0 - - -, f 5;
#X floatatom 654 107 5 0 0 0 - - -, f 5;
#X floatatom 674 149 5 0 0 0 - - -, f 5;
#X obj 116 162 pack 0 0 0;
#X obj 115 194 route 1 2 3 4;
#X obj 57 274 mtof;
#X obj 91 443 *~ 0.25;
#X obj 87 482 dac~;
#X obj 57 242 unpack 0 0;
#X obj 103 276 / 127;
#X obj 61 336 *~;
#X obj 153 273 mtof;
#X obj 153 241 unpack 0 0;
#X obj 199 275 / 127;
#X obj 157 335 *~;
#X obj 256 274 mtof;
#X obj 256 242 unpack 0 0;
#X obj 302 276 / 127;
#X obj 260 336 *~;
#X obj 358 274 mtof;
#X obj 358 242 unpack 0 0;
#X obj 404 276 / 127;
#X obj 362 336 *~;
#X obj 117 125 poly 4 1;
#X floatatom 441 85 5 0 0 0 - - -, f 5;
#X obj 58 306 osc.saw~;
#X obj 154 305 osc.saw~;
#X obj 257 306 osc.saw~;
#X obj 359 306 osc.saw~;
#X obj 93 406 flt.lpf24~;
#X obj 445 43 ctlin 17;
#X floatatom 447 174 5 0 0 0 - - -, f 5;
#X obj 451 132 ctlin 13;
#X floatatom 523 174 5 0 0 0 - - -, f 5;
#X obj 527 132 ctlin 14;
#X obj 487 84 lin->lin 0 127 0 1;
#X obj 462 214 lin->lin 0 127 200 5000;
#X obj 543 240 lin->lin 0 127 0 3;
#X msg 463 249 freq \$1;
#X msg 541 281 q \$1;
#X connect 0 0 2 0;
#X connect 0 0 26 0;
#X connect 0 1 3 0;
#X connect 0 1 26 1;
#X connect 1 0 4 0;
#X connect 1 1 5 0;
#X connect 6 0 7 0;
#X connect 7 0 11 0;
#X connect 7 1 15 0;
#X connect 7 2 19 0;
#X connect 7 3 23 0;
#X connect 8 0 28 0;
#X connect 9 0 10 0;
#X connect 9 0 10 1;
#X connect 11 0 8 0;
#X connect 11 1 12 0;
#X connect 12 0 13 1;
#X connect 13 0 32 0;
#X connect 14 0 29 0;
#X connect 15 0 14 0;
#X connect 15 1 16 0;
#X connect 16 0 17 1;
#X connect 17 0 32 0;
#X connect 18 0 30 0;
#X connect 19 0 18 0;
#X connect 19 1 20 0;
#X connect 20 0 21 1;
#X connect 21 0 32 0;
#X connect 22 0 31 0;
#X connect 23 0 22 0;
#X connect 23 1 24 0;
#X connect 24 0 25 1;
#X connect 25 0 32 0;
#X connect 26 0 6 0;
#X connect 26 1 6 1;
#X connect 26 2 6 2;
#X connect 28 0 13 0;
#X connect 29 0 17 0;
#X connect 30 0 21 0;
#X connect 31 0 25 0;
#X connect 32 0 9 0;
#X connect 33 0 27 0;
#X connect 33 0 38 0;
#X connect 35 0 34 0;
#X connect 35 0 39 0;
#X connect 37 0 36 0;
#X connect 37 0 40 0;
#X connect 38 0 9 1;
#X connect 39 0 41 0;
#X connect 40 0 42 0;
#X connect 41 0 32 0;
#X connect 42 0 32 0;
