#N canvas 147 149 858 512 10;
#X obj 216 137 vline~;
#X obj 153 181 *~;
#X obj 122 120 osc~ 200;
#X obj 152 358 dac~;
#X obj 152 226 +~ 500;
#X obj 152 271 osc~;
#X obj 287 237 vline~;
#X obj 153 315 *~;
#X obj 213 38 bng 15 250 50 0 empty empty empty 17 7 0 10 -262144 -1
-1;
#X obj 248 37 bng 15 250 50 0 empty empty empty 17 7 0 10 -262144 -1
-1;
#X obj 310 357 print;
#X msg 309 321 1 2 \, 3;
#X msg 376 321 1 2 3;
#X msg 201 183 300;
#X text 307 292 сообщения;
#X msg 218 72 0 10 \, 10000 1500 10;
#X obj 50 94 vline~;
#X msg 52 29 0 10 \, 10000 1500 10;
#X msg 107 63 200 1;
#X msg 234 184 500;
#X msg 500 200 \$1 10;
#X obj 496 171 tgl 15 0 empty empty empty 17 7 0 10 -262144 -1 -1 0
1;
#X msg 506 230 1 10;
#X msg 338 106 0 10 \, 200 50 10 \, 0 200 60;
#X msg 287 195 0 10 0 \, 1 700 10 \, 0 1500 710;
#X text 446 48 envelope - огибающая;
#X connect 0 0 1 1;
#X connect 1 0 4 0;
#X connect 2 0 1 0;
#X connect 4 0 5 0;
#X connect 5 0 7 0;
#X connect 6 0 7 1;
#X connect 7 0 3 1;
#X connect 7 0 3 0;
#X connect 8 0 15 0;
#X connect 8 0 24 0;
#X connect 8 0 13 0;
#X connect 8 0 17 0;
#X connect 9 0 24 0;
#X connect 9 0 23 0;
#X connect 9 0 13 0;
#X connect 9 0 18 0;
#X connect 9 0 19 0;
#X connect 11 0 10 0;
#X connect 12 0 10 0;
#X connect 13 0 4 1;
#X connect 15 0 0 0;
#X connect 16 0 2 0;
#X connect 17 0 16 0;
#X connect 18 0 16 0;
#X connect 19 0 4 1;
#X connect 20 0 6 0;
#X connect 21 0 20 0;
#X connect 22 0 6 0;
#X connect 23 0 0 0;
#X connect 24 0 6 0;
