#N canvas 484 226 477 402 10;
#X obj 206 127 vline~;
#X obj 143 171 *~;
#X obj 112 110 osc~ 200;
#X obj 142 348 dac~;
#X obj 142 216 +~ 500;
#X obj 142 261 osc~;
#X obj 277 212 vline~;
#X obj 143 305 *~;
#X obj 203 28 bng 15 250 50 0 empty empty empty 17 7 0 10 -262144 -1
-1;
#X obj 330 26 bng 15 250 50 0 empty empty empty 17 7 0 10 -262144 -1
-1;
#X msg 233 95 0 10 \, 200 50 10 \, 0 200 60;
#X msg 230 173 3000;
#X obj 300 347 print;
#X msg 299 311 1 2 \, 3;
#X msg 366 311 1 2 3;
#X msg 191 173 300;
#X msg 279 179 0 10 0 \, 1 500 10 \, 0 200 510;
#X msg 208 62 3000 10 \, 0 200 10;
#X text 297 282 сообщения;
#X connect 0 0 1 1;
#X connect 1 0 4 0;
#X connect 2 0 1 0;
#X connect 4 0 5 0;
#X connect 5 0 7 0;
#X connect 6 0 7 1;
#X connect 7 0 3 1;
#X connect 7 0 3 0;
#X connect 8 0 17 0;
#X connect 8 0 16 0;
#X connect 8 0 15 0;
#X connect 9 0 16 0;
#X connect 9 0 10 0;
#X connect 9 0 11 0;
#X connect 10 0 0 0;
#X connect 11 0 4 1;
#X connect 13 0 12 0;
#X connect 14 0 12 0;
#X connect 15 0 4 1;
#X connect 16 0 6 0;
#X connect 17 0 0 0;
