#N canvas 322 116 646 534 12;
#X obj 153 91 cursor;
#X obj 153 58 tgl 15 0 empty empty empty 17 7 0 10 -262144 -1 -1 0
1;
#X obj 153 129 route motion;
#X obj 153 167 route x y;
#X obj 153 205 maxlib/scale 0 1024 200 5000;
#X obj 390 209 maxlib/scale 0 768 0 1;
#X obj 147 321 osc~;
#X obj 151 356 *~;
#X obj 105 434 dac~;
#X obj 105 396 spigot~;
#X obj 401 174 tgl 15 0 empty empty empty 17 7 0 10 -262144 -1 -1 1
1;
#X obj 321 58 keyname;
#X obj 321 96 pack 0 s;
#X msg 321 134 \$2 \$1;
#X obj 321 172 tgl 15 0 empty empty empty 17 7 0 10 -262144 -1 -1 0
1;
#X obj 93 242 osc~;
#X obj 114 284 *~;
#X obj -38 203 maxlib/scale 0 768 0 5000;
#X obj 134 242 sig~;
#X obj 321 315 * 2000;
#X obj 324 139 route Shift_L Control_L;
#X connect 0 0 2 0;
#X connect 1 0 0 0;
#X connect 2 0 3 0;
#X connect 3 0 4 0;
#X connect 3 1 5 0;
#X connect 3 1 17 0;
#X connect 4 0 18 0;
#X connect 5 0 7 1;
#X connect 6 0 7 0;
#X connect 7 0 9 0;
#X connect 9 0 8 0;
#X connect 9 0 8 1;
#X connect 10 0 9 1;
#X connect 11 0 12 0;
#X connect 11 1 12 1;
#X connect 12 0 13 0;
#X connect 13 0 20 0;
#X connect 14 0 19 0;
#X connect 15 0 16 0;
#X connect 16 0 6 0;
#X connect 17 0 15 0;
#X connect 18 0 6 0;
#X connect 19 0 16 1;
#X connect 20 0 14 0;
#X connect 20 1 10 0;
