#N canvas 35 60 670 439 10;
#X obj 27 314 osc~;
#X obj 27 358 dac~;
#X obj 44 194 random 1000;
#X obj 40 161 bng 15 250 50 0 empty empty empty 17 7 0 10 -262144 -1
-1;
#X floatatom 41 219 5 0 0 0 - - -, f 5;
#X obj 45 248 + 100;
#X obj 645 68 + 100;
#X floatatom 634 37 5 0 0 0 - - -, f 5;
#X floatatom 641 96 5 0 0 0 - - -, f 5;
#X obj 40 132 metro 1000;
#X obj 27 19 tgl 62 0 empty empty empty 17 7 0 10 -262144 -1 -1 1 1
;
#X obj 124 66 hsl 128 15 0 127 0 0 empty empty empty -2 -8 0 10 -262144
-1 -1 7600 1;
#X obj 128 138 hsl 128 15 0 127 0 0 empty empty empty -2 -8 0 10 -262144
-1 -1 7800 1;
#X obj 123 93 * 10;
#X obj 128 164 * 10;
#X obj 246 273 bng 15 250 50 0 empty empty empty 17 7 0 10 -262144
-1 -1;
#X obj 246 244 metro 1000;
#X obj 330 178 hsl 128 15 0 127 0 0 empty empty empty -2 -8 0 10 -262144
-1 -1 2600 1;
#X obj 329 205 * 10;
#X obj 250 306 random 127;
#X obj 360 297 bng 15 250 50 0 empty empty empty 17 7 0 10 -262144
-1 -1;
#X obj 360 268 metro 1000;
#X obj 444 202 hsl 128 15 0 127 0 0 empty empty empty -2 -8 0 10 -262144
-1 -1 0 1;
#X obj 443 229 * 10;
#X obj 364 330 random 127;
#X obj 41 680 osc~;
#X obj 41 724 dac~;
#X obj 58 560 random 1000;
#X obj 54 527 bng 15 250 50 0 empty empty empty 17 7 0 10 -262144 -1
-1;
#X floatatom 55 585 5 0 0 0 - - -, f 5;
#X obj 59 614 + 100;
#X obj 54 498 metro 1000;
#X obj 138 432 hsl 128 15 0 127 0 0 empty empty empty -2 -8 0 10 -262144
-1 -1 8000 1;
#X obj 142 504 hsl 128 15 0 127 0 0 empty empty empty -2 -8 0 10 -262144
-1 -1 12500 1;
#X obj 137 459 * 10;
#X obj 142 530 * 10;
#X obj 260 639 bng 15 250 50 0 empty empty empty 17 7 0 10 -262144
-1 -1;
#X obj 260 610 metro 1000;
#X obj 344 544 hsl 128 15 0 127 0 0 empty empty empty -2 -8 0 10 -262144
-1 -1 0 1;
#X obj 343 571 * 10;
#X obj 264 672 random 127;
#X obj 374 663 bng 15 250 50 0 empty empty empty 17 7 0 10 -262144
-1 -1;
#X obj 374 634 metro 1000;
#X obj 458 568 hsl 128 15 0 127 0 0 empty empty empty -2 -8 0 10 -262144
-1 -1 0 1;
#X obj 457 595 * 10;
#X obj 378 696 random 127;
#X connect 0 0 1 0;
#X connect 0 0 1 1;
#X connect 2 0 4 0;
#X connect 3 0 2 0;
#X connect 4 0 5 0;
#X connect 5 0 0 0;
#X connect 6 0 8 0;
#X connect 7 0 6 0;
#X connect 9 0 3 0;
#X connect 10 0 9 0;
#X connect 10 0 16 0;
#X connect 10 0 21 0;
#X connect 10 0 31 0;
#X connect 10 0 37 0;
#X connect 10 0 42 0;
#X connect 11 0 13 0;
#X connect 12 0 14 0;
#X connect 13 0 9 1;
#X connect 14 0 2 1;
#X connect 15 0 19 0;
#X connect 16 0 15 0;
#X connect 17 0 18 0;
#X connect 18 0 16 1;
#X connect 19 0 11 0;
#X connect 20 0 24 0;
#X connect 21 0 20 0;
#X connect 22 0 23 0;
#X connect 23 0 21 1;
#X connect 24 0 12 0;
#X connect 25 0 26 0;
#X connect 25 0 26 1;
#X connect 27 0 29 0;
#X connect 28 0 27 0;
#X connect 29 0 30 0;
#X connect 30 0 25 0;
#X connect 31 0 28 0;
#X connect 32 0 34 0;
#X connect 33 0 35 0;
#X connect 34 0 31 1;
#X connect 35 0 27 1;
#X connect 36 0 40 0;
#X connect 37 0 36 0;
#X connect 38 0 39 0;
#X connect 39 0 37 1;
#X connect 40 0 32 0;
#X connect 41 0 45 0;
#X connect 42 0 41 0;
#X connect 43 0 44 0;
#X connect 44 0 42 1;
#X connect 45 0 33 0;
