#N canvas 41 95 618 400 10;
#X obj 27 314 osc~;
#X obj 27 358 dac~;
#X obj 64 176 random 1000;
#X obj 60 143 bng 15 250 50 0 empty empty empty 17 7 0 10 -262144 -1
-1;
#X floatatom 61 201 5 0 0 0 - - -, f 5;
#X obj 65 230 + 100;
#X obj 490 107 + 100;
#X floatatom 479 76 5 0 0 0 - - -, f 5;
#X floatatom 486 135 5 0 0 0 - - -, f 5;
#X obj 60 114 metro 1000;
#X obj 60 72 tgl 15 0 empty empty empty 17 7 0 10 -262144 -1 -1 0 1
;
#X obj 144 48 hsl 128 15 0 127 0 0 empty empty empty -2 -8 0 10 -262144
-1 -1 200 1;
#X obj 148 120 hsl 128 15 0 127 0 0 empty empty empty -2 -8 0 10 -262144
-1 -1 0 1;
#X obj 143 75 * 10;
#X obj 148 146 * 10;
#X connect 0 0 1 0;
#X connect 0 0 1 1;
#X connect 2 0 4 0;
#X connect 3 0 2 0;
#X connect 4 0 5 0;
#X connect 5 0 0 0;
#X connect 6 0 8 0;
#X connect 7 0 6 0;
#X connect 9 0 3 0;
#X connect 10 0 9 0;
#X connect 11 0 13 0;
#X connect 12 0 14 0;
#X connect 13 0 9 1;
#X connect 14 0 2 1;
