#N canvas 525 219 1089 377 12;
#X obj -1 -490 cnv 15 1050 360 empty empty empty 20 12 0 14 -162280
-66577 0;
#X obj 13 -407 vradio 22 1 0 8 recall rrec recall -5 -8 0 12 -99865
-260097 -1 0;
#X obj 13 -227 bng 22 250 50 0 store empty store -5 32 0 12 -260097
-257985 -1;
#X obj 54 -408 grandma l1 r1;
#X obj 374 -389 grid grid1 200 0 199 200 0 199 0 1 1 10 10 415 -278
;
#X obj 54 -293 s pres1;
#X obj 54 -156 s pres2;
#X obj 583 -293 s pres3;
#X obj 583 -156 s pres4;
#N canvas 766 214 560 555 storage 0;
#X obj 126 152 preset presets.coll;
#X msg 256 122 presets.coll;
#X obj 53 -72 r pres1;
#X obj 160 -92 r pres2;
#X obj 219 -93 r pres3;
#X obj 276 -93 r pres4;
#X obj 108 14 l2s;
#X obj 218 17 l2s;
#X obj 126 85 l2s;
#X obj 126 113 s2l;
#X obj 276 18 l2s;
#X obj 336 12 l2s;
#X obj 126 60 pack s s s s;
#X obj 277 -55 t b l;
#X obj 217 -49 t b l;
#X obj 159 -50 t b l;
#X obj 211 111 t b b;
#X obj 126 219 zl slice 9;
#X obj 215 218 zl slice 9;
#X obj 126 183 zl slice 18;
#X obj 125 255 s p1;
#X obj 192 254 s p2;
#X obj 242 253 s p3;
#X obj 309 252 s p4;
#X obj 163 86 r recall;
#X obj 250 71 r store;
#X connect 0 0 19 0;
#X connect 1 0 0 3;
#X connect 2 0 6 0;
#X connect 3 0 15 0;
#X connect 4 0 14 0;
#X connect 5 0 13 0;
#X connect 6 0 12 0;
#X connect 7 0 12 1;
#X connect 8 0 9 0;
#X connect 9 0 0 0;
#X connect 10 0 12 2;
#X connect 11 0 12 3;
#X connect 12 0 8 0;
#X connect 13 0 6 0;
#X connect 13 1 11 0;
#X connect 14 0 6 0;
#X connect 14 1 10 0;
#X connect 15 0 6 0;
#X connect 15 1 7 0;
#X connect 16 0 1 0;
#X connect 16 1 0 2;
#X connect 17 0 20 0;
#X connect 17 1 21 0;
#X connect 18 0 22 0;
#X connect 18 1 23 0;
#X connect 19 0 17 0;
#X connect 19 1 18 0;
#X connect 24 0 0 1;
#X connect 25 0 16 0;
#X restore 898 -276 pd storage;
#X obj 54 -434 r p1;
#X obj 111 -293 r p2;
#X obj 583 -431 r p3;
#X obj 639 -293 r p4;
#X obj 374 -183 s xpos;
#X obj 528 -182 s ypos;
#X obj 331 -201 cnv 15 25 25 empty empty 2 6 13 0 22 -66577 -262144
0;
#X obj 859 -337 cnv 15 25 25 empty empty 3 6 13 0 22 -66577 -262144
0;
#X obj 858 -199 cnv 15 25 25 empty empty 4 6 13 0 22 -66577 -262144
0;
#X obj 225 -489 comment 0 40 Verdana ? 0 0 0 0 G-synth;
#X obj 424 -455 tgl 32 0 \$0-stst asddsad bounce 2 -8 0 10 -260097
-1 -1 0 1;
#X floatatom 474 -452 5 10 50 2 x_speed #0-xspr #0-xsp;
#X floatatom 535 -452 5 10 50 2 y_speed #0-yspr #0-ysp;
#N canvas 608 173 785 395 xy_control 0;
#X msg 73 40 goto \$1 \$2;
#X obj 73 -4 pack f f;
#X obj 12 -53 s start;
#X obj 73 -43 counter 2 0 199;
#X obj 206 -43 counter 2 0 199;
#X obj 373 -46 t b f;
#X obj 326 -13 pack f f;
#X obj 72 -95 r \$0-stst;
#X obj 73 -68 metro 25;
#X obj 206 -68 metro 30;
#X obj 152 -117 r \$0-xsp;
#X obj 259 -154 r \$0-ysp;
#X obj 346 -113 r \$0-xpos;
#X obj 420 -113 r \$0-ypos;
#X obj 299 99 prepend set;
#X msg 299 124 29;
#X obj 391 99 prepend set;
#X msg 391 124 50;
#X obj 488 99 prepend set;
#X msg 488 124 27;
#X obj 580 99 prepend set;
#X msg 580 124 24;
#X obj 299 149 s \$0-xspr;
#X obj 489 153 s \$0-xposr;
#X obj 580 150 s \$0-yposr;
#X obj 391 152 s \$0-yspr;
#X obj 585 -8 loadbang;
#X msg 611 53 color 20 20 20;
#X obj 610 21 s lb;
#X obj 73 65 outlet;
#X obj 681 132 s rrec;
#X msg 681 107 0;
#X connect 0 0 29 0;
#X connect 1 0 0 0;
#X connect 3 0 1 0;
#X connect 4 0 1 1;
#X connect 5 0 6 0;
#X connect 5 1 6 1;
#X connect 6 0 0 0;
#X connect 7 0 8 0;
#X connect 7 0 9 0;
#X connect 7 0 2 0;
#X connect 8 0 3 0;
#X connect 9 0 4 0;
#X connect 10 0 8 1;
#X connect 10 0 14 0;
#X connect 11 0 9 1;
#X connect 11 0 16 0;
#X connect 12 0 6 0;
#X connect 12 0 3 2;
#X connect 12 0 18 0;
#X connect 13 0 5 0;
#X connect 13 0 4 2;
#X connect 13 0 20 0;
#X connect 14 0 15 0;
#X connect 15 0 22 0;
#X connect 16 0 17 0;
#X connect 17 0 25 0;
#X connect 18 0 19 0;
#X connect 19 0 23 0;
#X connect 20 0 21 0;
#X connect 21 0 24 0;
#X connect 26 0 15 0;
#X connect 26 0 17 0;
#X connect 26 0 19 0;
#X connect 26 0 21 0;
#X connect 26 0 27 0;
#X connect 26 0 28 0;
#X connect 26 0 31 0;
#X connect 27 0 29 0;
#X connect 31 0 30 0;
#X restore 374 -413 pd xy_control;
#X floatatom 535 -412 5 0 199 2 ypos #0-yposr #0-ypos;
#X floatatom 474 -412 5 0 199 2 xpos #0-xposr #0-xpos;
#X obj 54 -271 grandma l2 r2;
#X obj 583 -408 grandma l3 r3;
#X obj 583 -271 grandma l4 r4;
#N canvas 920 142 622 432 loadfile 0;
#X obj 313 93 openpanel;
#X obj 313 121 prepend set;
#X obj 437 214 r lb;
#X obj 160 268 splitfilename /;
#X symbolatom 123 103 14 0 0 0 - - -;
#X obj 309 239 outlet;
#X obj 367 239 outlet;
#X obj 103 104 bng 15 250 50 0 empty empty empty 17 7 0 10 -4034 -1
-1;
#X obj 313 148 t b a;
#X obj 251 207 symbol;
#X msg 313 180;
#X connect 0 0 1 0;
#X connect 1 0 8 0;
#X connect 2 0 10 0;
#X connect 3 1 4 0;
#X connect 7 0 0 0;
#X connect 8 0 10 0;
#X connect 8 1 10 0;
#X connect 9 0 3 0;
#X connect 10 0 6 0;
#X connect 10 0 9 0;
#X coords 0 -1 1 1 125 25 2 100 100;
#X restore 768 -436 pd loadfile;
#N canvas 920 142 778 432 loadfile 0;
#X obj 313 93 openpanel;
#X obj 313 121 prepend set;
#X obj 437 214 r lb;
#X obj 160 268 splitfilename /;
#X symbolatom 123 103 14 0 0 0 - - -;
#X obj 309 239 outlet;
#X obj 367 239 outlet;
#X obj 103 104 bng 15 250 50 0 empty empty empty 17 7 0 10 -4034 -1
-1;
#X obj 313 148 t b a;
#X obj 251 207 symbol;
#X msg 313 180;
#X connect 0 0 1 0;
#X connect 1 0 8 0;
#X connect 2 0 10 0;
#X connect 3 1 4 0;
#X connect 7 0 0 0;
#X connect 8 0 10 0;
#X connect 8 1 10 0;
#X connect 9 0 3 0;
#X connect 10 0 6 0;
#X connect 10 0 9 0;
#X coords 0 -1 1 1 125 25 2 100 100;
#X restore 768 -296 pd loadfile;
#N canvas 920 142 622 432 loadfile 0;
#X obj 313 93 openpanel;
#X obj 313 121 prepend set;
#X obj 437 214 r lb;
#X obj 160 268 splitfilename /;
#X symbolatom 123 103 14 0 0 0 - - -;
#X obj 309 239 outlet;
#X obj 367 239 outlet;
#X obj 103 104 bng 15 250 50 0 empty empty empty 17 7 0 10 -4034 -1
-1;
#X obj 313 148 t b a;
#X obj 251 207 symbol;
#X msg 313 180;
#X connect 0 0 1 0;
#X connect 1 0 8 0;
#X connect 2 0 10 0;
#X connect 3 1 4 0;
#X connect 7 0 0 0;
#X connect 8 0 10 0;
#X connect 8 1 10 0;
#X connect 9 0 3 0;
#X connect 10 0 6 0;
#X connect 10 0 9 0;
#X coords 0 -1 1 1 125 25 2 100 100;
#X restore 238 -436 pd loadfile;
#N canvas 920 142 622 432 loadfile 0;
#X obj 313 93 openpanel;
#X obj 313 121 prepend set;
#X obj 437 214 r lb;
#X obj 160 268 splitfilename /;
#X symbolatom 123 103 14 0 0 0 - - -;
#X obj 309 239 outlet;
#X obj 367 239 outlet;
#X obj 103 104 bng 15 250 50 0 empty empty empty 17 7 0 10 -4034 -1
-1;
#X obj 313 148 t b a;
#X obj 251 207 symbol;
#X msg 313 180;
#X connect 0 0 1 0;
#X connect 1 0 8 0;
#X connect 2 0 10 0;
#X connect 3 1 4 0;
#X connect 7 0 0 0;
#X connect 8 0 10 0;
#X connect 8 1 10 0;
#X connect 9 0 3 0;
#X connect 10 0 6 0;
#X connect 10 0 9 0;
#X coords 0 -1 1 1 125 25 2 100 100;
#X restore 238 -296 pd loadfile;
#X obj 897 -405 vsl 22 120 0 2 0 0 \$0-mlvl \$0-mlvlr empty 0 -9 0
10 -260097 -1 -1 4000 1;
#X obj 923 -405 vu 22 120 \$0-ml empty -1 -8 0 10 -66577 -1 0 0;
#X obj 949 -405 vu 22 120 \$0-mr empty -1 -8 0 10 -66577 -1 1 0;
#N canvas 568 223 1279 606 4crossfade--dac 0;
#X obj 160 366 r~ l1;
#X obj 205 367 r~ r1;
#X obj 390 123 cartopol;
#X obj 161 444 *~;
#X obj 206 443 *~;
#X obj 265 443 *~;
#X obj 310 442 *~;
#X obj 367 443 *~;
#X obj 412 442 *~;
#X obj 468 444 *~;
#X obj 513 443 *~;
#X obj 264 365 r~ l2;
#X obj 309 366 r~ r2;
#X obj 366 365 r~ l3;
#X obj 411 366 r~ r3;
#X obj 467 366 r~ l4;
#X obj 512 367 r~ r4;
#X obj 390 38 r xpos;
#X obj 478 39 r ypos;
#X obj 569 137 cartopol;
#X obj 561 17 r xpos;
#X obj 617 41 r ypos;
#X obj 621 83 - 199;
#X obj 621 108 abs;
#X obj 159 133 cartopol;
#X obj 151 13 r xpos;
#X obj 207 37 r ypos;
#X obj 211 79 - 199;
#X obj 211 104 abs;
#X obj 153 60 - 199;
#X obj 153 85 abs;
#X obj 277 126 cartopol;
#X obj 270 7 r xpos;
#X obj 309 87 r ypos;
#X obj 271 53 - 199;
#X obj 271 78 abs;
#X obj 159 158 / 281;
#X obj 277 155 / 281;
#X obj 390 172 / 281;
#X obj 570 167 / 281;
#X obj 159 183 maximum 0;
#X obj 278 184 maximum 0;
#X obj 392 198 maximum 0;
#X obj 568 196 maximum 0;
#X obj 308 273 pack 0 20;
#X obj 308 302 line~;
#X obj 381 274 pack 0 20;
#X obj 381 303 line~;
#X obj 459 270 pack 0 20;
#X obj 459 299 line~;
#X obj 532 271 pack 0 20;
#X obj 532 300 line~;
#X obj 270 535 *~;
#X obj 331 535 *~;
#X obj 573 463 line~;
#X obj 573 395 r \$0-mlvl;
#X obj 573 427 pack 0 20;
#X obj 839 370 r lb;
#X obj 740 398 prepend set;
#X msg 740 426 0.672269;
#X obj 740 455 s \$0-mlvlr;
#X obj 449 581 s \$0-ml;
#X obj 518 580 s \$0-mr;
#X obj 452 522 env~;
#X obj 452 551 - 100;
#X obj 503 519 env~;
#X obj 503 548 - 100;
#X obj 270 566 dac~;
#X connect 0 0 3 0;
#X connect 1 0 4 0;
#X connect 2 0 38 0;
#X connect 3 0 52 0;
#X connect 4 0 53 0;
#X connect 5 0 52 0;
#X connect 6 0 53 0;
#X connect 7 0 52 0;
#X connect 8 0 53 0;
#X connect 9 0 52 0;
#X connect 10 0 53 0;
#X connect 11 0 5 0;
#X connect 12 0 6 0;
#X connect 13 0 7 0;
#X connect 14 0 8 0;
#X connect 15 0 9 0;
#X connect 16 0 10 0;
#X connect 17 0 2 0;
#X connect 18 0 2 1;
#X connect 19 0 39 0;
#X connect 20 0 19 0;
#X connect 21 0 22 0;
#X connect 22 0 23 0;
#X connect 23 0 19 1;
#X connect 24 0 36 0;
#X connect 25 0 29 0;
#X connect 26 0 27 0;
#X connect 27 0 28 0;
#X connect 28 0 24 1;
#X connect 29 0 30 0;
#X connect 30 0 24 0;
#X connect 31 0 37 0;
#X connect 32 0 34 0;
#X connect 33 0 31 1;
#X connect 34 0 35 0;
#X connect 35 0 31 0;
#X connect 36 0 40 0;
#X connect 37 0 41 0;
#X connect 38 0 42 0;
#X connect 39 0 43 0;
#X connect 40 0 46 0;
#X connect 41 0 44 0;
#X connect 42 0 48 0;
#X connect 43 0 50 0;
#X connect 44 0 45 0;
#X connect 45 0 3 1;
#X connect 45 0 4 1;
#X connect 46 0 47 0;
#X connect 47 0 5 1;
#X connect 47 0 6 1;
#X connect 48 0 49 0;
#X connect 49 0 7 1;
#X connect 49 0 8 1;
#X connect 50 0 51 0;
#X connect 51 0 9 1;
#X connect 51 0 10 1;
#X connect 52 0 63 0;
#X connect 52 0 67 0;
#X connect 53 0 65 0;
#X connect 53 0 67 1;
#X connect 54 0 52 1;
#X connect 54 0 53 1;
#X connect 55 0 56 0;
#X connect 55 0 58 0;
#X connect 56 0 54 0;
#X connect 57 0 59 0;
#X connect 58 0 59 0;
#X connect 59 0 60 0;
#X connect 63 0 64 0;
#X connect 64 0 61 0;
#X connect 65 0 66 0;
#X connect 66 0 62 0;
#X restore 898 -250 pd 4crossfade--dac;
#X obj 763 -485 pddplink https://www.facebook.com/Nottgoodenough;
#X connect 3 0 5 0;
#X connect 4 0 14 0;
#X connect 4 1 15 0;
#X connect 10 0 3 0;
#X connect 11 0 26 0;
#X connect 12 0 27 0;
#X connect 13 0 28 0;
#X connect 23 0 4 0;
#X connect 26 0 6 0;
#X connect 27 0 7 0;
#X connect 28 0 8 0;
#X connect 29 1 27 1;
#X connect 30 1 28 1;
#X connect 31 1 3 1;
#X connect 32 1 26 1;
