#N canvas 255 47 1297 693 12;
#X obj 1008 141 table \$0-buff;
#X obj 930 147 pack s \$0;
#X obj 930 112 route open;
#X msg 930 172 read -resize \$1 \$2-buff;
#X obj 930 197 soundfiler;
#X obj 930 81 prepend open;
#X obj 930 48 inlet;
#N canvas 0 0 1916 998 guts 0;
#X obj 137 234 metro 100;
#X obj 197 204 /;
#X msg 197 175 1000 \$1;
#X obj 353 909 outlet~;
#X obj 415 910 outlet~;
#X obj 137 198 r \$0-st;
#X obj 197 147 r \$0-dens;
#X obj 296 17 r \$0-pos;
#X obj 306 140 r \$0-posj;
#X obj 137 357 route 0 1 2 3 4 5 6 7 8 9 10 11 12 13 14 15 16 17 18
19 20 21 22 23 24 25 26 27 28 29;
#X obj 137 261 counter 0 0 29;
#X obj 296 89 maxlib/scale 0 1000 0 1000;
#X obj 439 61 r \$0-len;
#X obj 629 11 r \$0-sz;
#X obj 629 98 expr pow(2 \, $f1 * -1 / 12) * $f2;
#X obj 629 44 t b f;
#X obj 703 36 r \$0-pit;
#X obj 661 253 expr pow(2 \, $f1 * -1 / 12) * $f2;
#X obj 661 199 t b f;
#X obj 781 161 / 50;
#X obj 629 158 t f f;
#X obj 629 365 -;
#X obj 629 123 f;
#X obj 781 190 t b f;
#X obj 629 392 * 100;
#X obj 629 418 i;
#X obj 781 134 r \$0-pitj;
#X obj 929 79 r \$0-pan;
#X obj 1000 78 r \$0-panj;
#X obj 1000 103 / 2;
#X obj 137 332 pack f f f f f f f f;
#X obj 929 107 / 100;
#X obj 757 482 grain \$0-buff;
#X obj 457 482 grain \$0-buff;
#X obj 137 482 grain \$0-buff;
#X obj 137 512 grain \$0-buff;
#X obj 137 542 grain \$0-buff;
#X obj 137 572 grain \$0-buff;
#X obj 137 602 grain \$0-buff;
#X obj 137 632 grain \$0-buff;
#X obj 137 662 grain \$0-buff;
#X obj 137 692 grain \$0-buff;
#X obj 137 722 grain \$0-buff;
#X obj 137 752 grain \$0-buff;
#X obj 457 512 grain \$0-buff;
#X obj 457 542 grain \$0-buff;
#X obj 457 572 grain \$0-buff;
#X obj 457 602 grain \$0-buff;
#X obj 457 632 grain \$0-buff;
#X obj 457 662 grain \$0-buff;
#X obj 457 692 grain \$0-buff;
#X obj 457 720 grain \$0-buff;
#X obj 456 748 grain \$0-buff;
#X obj 757 512 grain \$0-buff;
#X obj 757 542 grain \$0-buff;
#X obj 757 572 grain \$0-buff;
#X obj 757 602 grain \$0-buff;
#X obj 757 632 grain \$0-buff;
#X obj 757 662 grain \$0-buff;
#X obj 757 692 grain \$0-buff;
#X obj 757 720 grain \$0-buff;
#X obj 756 748 grain \$0-buff;
#X obj 950 559 outlet;
#X obj 849 375 t b f;
#X obj 899 375 t b f;
#X obj 949 375 t b f;
#X obj 999 375 t b f;
#X obj 1049 375 t b f;
#X obj 1099 375 t b f;
#X obj 1149 375 t b f;
#X obj 950 525 pack f f f f f f f f f;
#X obj 1201 376 t b f;
#X obj 1201 343 r \$0-lvl;
#X connect 0 0 10 0;
#X connect 1 0 0 1;
#X connect 2 0 1 0;
#X connect 5 0 0 0;
#X connect 6 0 2 0;
#X connect 6 0 70 0;
#X connect 7 0 11 0;
#X connect 7 0 65 0;
#X connect 8 0 30 4;
#X connect 8 0 66 0;
#X connect 9 0 34 0;
#X connect 9 1 35 0;
#X connect 9 2 36 0;
#X connect 9 3 37 0;
#X connect 9 4 38 0;
#X connect 9 5 39 0;
#X connect 9 6 40 0;
#X connect 9 7 41 0;
#X connect 9 8 42 0;
#X connect 9 9 43 0;
#X connect 9 10 33 0;
#X connect 9 11 44 0;
#X connect 9 12 45 0;
#X connect 9 13 46 0;
#X connect 9 14 47 0;
#X connect 9 15 48 0;
#X connect 9 16 49 0;
#X connect 9 17 50 0;
#X connect 9 18 51 0;
#X connect 9 19 52 0;
#X connect 9 20 32 0;
#X connect 9 21 53 0;
#X connect 9 22 54 0;
#X connect 9 23 55 0;
#X connect 9 24 56 0;
#X connect 9 25 57 0;
#X connect 9 26 58 0;
#X connect 9 27 59 0;
#X connect 9 28 60 0;
#X connect 9 29 61 0;
#X connect 10 0 30 0;
#X connect 11 0 30 3;
#X connect 12 0 11 4;
#X connect 13 0 15 0;
#X connect 13 0 30 1;
#X connect 13 0 63 0;
#X connect 14 0 22 0;
#X connect 14 0 30 2;
#X connect 15 0 14 0;
#X connect 15 1 14 1;
#X connect 16 0 14 0;
#X connect 16 0 64 0;
#X connect 17 0 21 1;
#X connect 18 0 17 0;
#X connect 18 1 17 1;
#X connect 19 0 23 0;
#X connect 20 0 21 0;
#X connect 20 1 18 0;
#X connect 21 0 24 0;
#X connect 22 0 20 0;
#X connect 23 0 22 0;
#X connect 23 1 17 0;
#X connect 24 0 25 0;
#X connect 25 0 30 5;
#X connect 26 0 19 0;
#X connect 26 0 67 0;
#X connect 27 0 31 0;
#X connect 27 0 68 0;
#X connect 28 0 29 0;
#X connect 28 0 69 0;
#X connect 29 0 30 7;
#X connect 30 0 9 0;
#X connect 31 0 30 6;
#X connect 32 0 3 0;
#X connect 32 1 4 0;
#X connect 33 0 3 0;
#X connect 33 1 4 0;
#X connect 34 0 3 0;
#X connect 34 1 4 0;
#X connect 35 0 3 0;
#X connect 35 1 4 0;
#X connect 36 0 3 0;
#X connect 36 1 4 0;
#X connect 37 0 3 0;
#X connect 37 1 4 0;
#X connect 38 0 3 0;
#X connect 38 1 4 0;
#X connect 39 0 3 0;
#X connect 39 1 4 0;
#X connect 40 0 3 0;
#X connect 40 1 4 0;
#X connect 41 0 3 0;
#X connect 41 1 4 0;
#X connect 42 0 3 0;
#X connect 42 1 4 0;
#X connect 43 0 3 0;
#X connect 43 1 4 0;
#X connect 44 0 3 0;
#X connect 44 1 4 0;
#X connect 45 0 3 0;
#X connect 45 1 4 0;
#X connect 46 0 3 0;
#X connect 46 1 4 0;
#X connect 47 0 3 0;
#X connect 47 1 4 0;
#X connect 48 0 3 0;
#X connect 48 1 4 0;
#X connect 49 0 3 0;
#X connect 49 1 4 0;
#X connect 50 0 3 0;
#X connect 50 1 4 0;
#X connect 51 0 3 0;
#X connect 51 1 4 0;
#X connect 52 0 3 0;
#X connect 52 1 4 0;
#X connect 53 0 3 0;
#X connect 53 1 4 0;
#X connect 54 0 3 0;
#X connect 54 1 4 0;
#X connect 55 0 3 0;
#X connect 55 1 4 0;
#X connect 56 0 3 0;
#X connect 56 1 4 0;
#X connect 57 0 3 0;
#X connect 57 1 4 0;
#X connect 58 0 3 0;
#X connect 58 1 4 0;
#X connect 59 0 3 0;
#X connect 59 1 4 0;
#X connect 60 0 3 0;
#X connect 60 1 4 0;
#X connect 61 0 3 0;
#X connect 61 1 4 0;
#X connect 63 0 70 0;
#X connect 63 1 70 1;
#X connect 64 0 70 0;
#X connect 64 1 70 2;
#X connect 65 0 70 0;
#X connect 65 1 70 3;
#X connect 66 0 70 0;
#X connect 66 1 70 4;
#X connect 67 0 70 0;
#X connect 67 1 70 5;
#X connect 68 0 70 0;
#X connect 68 1 70 6;
#X connect 69 0 70 0;
#X connect 69 1 70 7;
#X connect 70 0 62 0;
#X connect 71 0 70 0;
#X connect 71 1 70 8;
#X connect 72 0 71 0;
#X restore 637 362 pd guts;
#X obj 930 222 / 44.1;
#X obj 930 247 s \$0-len;
#X obj 553 289 r \$0-lvl;
#X obj 553 314 pack f 20;
#X obj 553 339 line~;
#X obj 504 493 env~;
#X obj 504 518 - 100;
#X obj 556 494 env~;
#X obj 556 519 - 100;
#X obj 504 543 s \$0-lft;
#X obj 556 571 s \$0-rt;
#X obj 615 423 *~;
#X obj 660 425 *~;
#X obj 445 142 s \$0-rdens;
#X obj 460 166 s \$0-rsz;
#X obj 472 190 s \$0-rpit;
#X obj 580 199 s \$0-rpitj;
#X obj 529 143 s \$0-rpos;
#X obj 553 174 s \$0-rposj;
#X obj 607 142 s \$0-rpan;
#X obj 663 186 s \$0-rpanj;
#X obj 743 187 s \$0-rlvl;
#X obj 445 59 inlet;
#X obj 102 102 cnv 15 306 106 empty empty empty 20 12 0 14 -162280
-66577 0;
#X obj 371 112 tgl 32 0 \$0-st \$0-rst empty 17 7 0 10 -260097 -1 -1
0 1;
#X floatatom 108 110 5 1 100 1 density #0-rdens #0-dens;
#X floatatom 108 133 5 5 50 1 size #0-rsz #0-sz;
#X floatatom 108 157 5 -36 36 1 pitch #0-rpit #0-pit;
#X floatatom 219 110 5 0 1000 1 pos #0-rpos #0-pos;
#X floatatom 218 133 5 1 500 1 pos_j #0-rposj #0-posj;
#X floatatom 108 180 5 0 100 1 pitch_j #0-rpitj #0-pitj;
#X floatatom 218 157 5 0 100 1 pan #0-rpan #0-pan;
#X floatatom 218 180 5 0 100 1 pan_j #0-rpanj #0-panj;
#X obj 301 114 vsl 20 80 0 2 0 0 \$0-lvl \$0-rlvl empty 0 -9 0 10 -260097
-1 -1 5500 1;
#X obj 329 114 vu 15 80 \$0-lft empty -1 -8 0 10 -66577 -1 0 0;
#X obj 349 114 vu 15 80 \$0-rt empty -1 -8 0 10 -66577 -1 0 0;
#X obj 615 490 send~ \$1;
#X obj 660 458 send~ \$2;
#X obj 683 394 outlet;
#X obj 371 38 r start;
#X obj 445 90 unpack 0 0 0 0 0 0 0 0 0;
#X obj 1010 255 pack \$0;
#X msg 1010 288 \; \$1-buff normalize 1;
#X obj 1010 228 t b;
#X connect 1 0 3 0;
#X connect 2 0 1 0;
#X connect 3 0 4 0;
#X connect 4 0 8 0;
#X connect 4 0 51 0;
#X connect 5 0 2 0;
#X connect 6 0 5 0;
#X connect 7 0 19 0;
#X connect 7 1 20 0;
#X connect 7 2 46 0;
#X connect 8 0 9 0;
#X connect 10 0 11 0;
#X connect 11 0 12 0;
#X connect 12 0 19 1;
#X connect 12 0 20 1;
#X connect 13 0 14 0;
#X connect 14 0 17 0;
#X connect 15 0 16 0;
#X connect 16 0 18 0;
#X connect 19 0 13 0;
#X connect 19 0 44 0;
#X connect 20 0 15 0;
#X connect 20 0 45 0;
#X connect 30 0 48 0;
#X connect 47 0 32 0;
#X connect 48 0 21 0;
#X connect 48 1 22 0;
#X connect 48 2 23 0;
#X connect 48 3 25 0;
#X connect 48 4 26 0;
#X connect 48 5 24 0;
#X connect 48 6 27 0;
#X connect 48 7 28 0;
#X connect 48 8 29 0;
#X connect 49 0 50 0;
#X connect 51 0 49 0;
#X coords 0 -1 1 1 310 110 2 100 100;
