#N canvas 0 23 799 551 12;
#X obj 25 55 tgl 15 0 empty empty empty 17 7 0 10 -262144 -1 -1 0 1
;
#X floatatom 111 55 5 0 0 0 - - -, f 5;
#X obj 25 84 metro 100;
#X msg 25 113 2 2 -10 4 7 9 36;
#X obj 25 142 list.choice;
#X obj 25 171 + 60;
#X obj 25 199 mtof;
#X obj 25 228 osc.pulse~;
#X obj 25 257 *~ 0.2;
#X obj 121 257 tgl 15 0 empty empty empty 17 7 0 10 -262144 -1 -1 0
1;
#X obj 25 286 *~;
#X obj 25 315 dac~;
#X text 64 26 1;
#X obj 246 59 tgl 15 0 empty empty empty 17 7 0 10 -262144 -1 -1 0
1;
#X obj 476 59 tgl 15 0 empty empty empty 17 7 0 10 -262144 -1 -1 0
1;
#X obj 246 88 metro 100;
#X msg 361 88 1 6 9 11;
#X msg 466 88 @direction \$1;
#X msg 380 117 @clip;
#X msg 486 117 @single;
#X msg 582 117 @loop;
#X msg 658 117 @fold;
#X msg 284 146 -1;
#X msg 409 146 1;
#X msg 678 146 prev;
#X msg 745 146 next;
#X obj 246 175 list.walk 1 3 6 8 @fold;
#X obj 246 203 + 60;
#X obj 246 232 mtof;
#X obj 246 261 osc~;
#X obj 246 290 *~ 0.1;
#X obj 246 319 dac~;
#X text 251 20 2, f 3;
#X obj 324 253 tgl 15 0 empty empty empty 17 7 0 10 -262144 -1 -1 0
1;
#X connect 0 0 2 0;
#X connect 1 0 2 1;
#X connect 2 0 3 0;
#X connect 3 0 4 0;
#X connect 4 0 5 0;
#X connect 5 0 6 0;
#X connect 6 0 7 0;
#X connect 7 0 8 0;
#X connect 8 0 10 0;
#X connect 9 0 10 1;
#X connect 10 0 11 0;
#X connect 10 0 11 1;
#X connect 13 0 15 0;
#X connect 14 0 17 0;
#X connect 15 0 26 0;
#X connect 16 0 26 0;
#X connect 17 0 26 0;
#X connect 18 0 26 0;
#X connect 19 0 26 0;
#X connect 20 0 26 0;
#X connect 21 0 26 0;
#X connect 22 0 26 0;
#X connect 23 0 26 0;
#X connect 24 0 26 0;
#X connect 25 0 26 0;
#X connect 26 0 27 0;
#X connect 27 0 28 0;
#X connect 28 0 29 0;
#X connect 29 0 30 0;
#X connect 30 0 31 0;
#X connect 30 0 31 1;
#X connect 33 0 30 1;
