#N canvas 55 31 745 500 12;
#X msg 26 104 60 63 65 67 70;
#X obj 67 316 mtof;
#X obj 67 345 osc~;
#X obj 67 374 *~ 0.1;
#X obj 67 418 dac~;
#X obj 123 339 tgl 15 0 empty empty empty 17 7 0 10 -262144 -1 -1 1
1;
#X floatatom 134 305 5 0 0 0 - - -, f 5;
#X msg 258 126 1;
#X msg 299 126 -1;
#X obj 67 259 list.walk 0 @loop;
#X obj 416 47 tgl 15 0 empty empty empty 17 7 0 10 -262144 -1 -1 0
1;
#X obj 415 75 metro 100;
#X obj 26 173 list.each;
#X obj 129 175 +;
#X floatatom 149 141 5 0 0 0 - - -, f 5;
#X obj 26 36 bng 15 250 50 0 empty empty empty 17 7 0 10 -262144 -1
-1;
#X obj 489 147 bng 15 250 50 0 empty empty empty 17 7 0 10 -262144
-1 -1;
#X obj 543 210 select 10;
#X msg 543 242 0;
#X floatatom 467 231 5 0 0 0 - - -, f 5;
#X obj 488 172 +;
#X obj 576 171 + 1;
#X obj 400 271 select 10;
#X obj 400 302 random.int -12 12;
#X obj 286 276 select 3;
#X obj 286 341 random.int 50 150;
#X obj 249 183 f;
#X obj 267 31 random 2;
#X obj 267 74 select 0 1;
#X obj 568 8 bng 15 250 50 0 empty empty empty 17 7 0 10 -262144 -1
-1;
#X obj 622 71 select 10;
#X msg 622 103 0;
#X floatatom 546 92 5 0 0 0 - - -, f 5;
#X obj 567 33 +;
#X obj 655 32 + 1;
#X connect 0 0 12 0;
#X connect 1 0 2 0;
#X connect 2 0 3 0;
#X connect 3 0 4 0;
#X connect 5 0 3 1;
#X connect 7 0 26 1;
#X connect 8 0 26 1;
#X connect 9 0 1 0;
#X connect 9 0 6 0;
#X connect 10 0 11 0;
#X connect 11 0 16 0;
#X connect 11 0 26 0;
#X connect 12 0 9 0;
#X connect 12 1 13 0;
#X connect 13 0 12 1;
#X connect 14 0 13 1;
#X connect 14 0 15 0;
#X connect 15 0 0 0;
#X connect 16 0 20 0;
#X connect 17 0 18 0;
#X connect 18 0 20 1;
#X connect 20 0 21 0;
#X connect 20 0 17 0;
#X connect 20 0 19 0;
#X connect 20 0 22 0;
#X connect 20 0 24 0;
#X connect 21 0 20 1;
#X connect 22 0 23 0;
#X connect 22 0 27 0;
#X connect 23 0 14 0;
#X connect 24 0 25 0;
#X connect 25 0 11 1;
#X connect 26 0 9 0;
#X connect 27 0 28 0;
#X connect 28 0 7 0;
#X connect 28 1 8 0;
#X connect 29 0 33 0;
#X connect 30 0 31 0;
#X connect 31 0 33 1;
#X connect 33 0 34 0;
#X connect 33 0 30 0;
#X connect 33 0 32 0;
#X connect 34 0 33 1;
