#N canvas 361 233 535 409 10;
#X declare -lib sigpack;
#X obj 261 30 import sigpack;
#X obj 145 156 * 44.1;
#X obj 148 130 hsl 128 15 0 127 0 0 empty empty empty -2 -8 0 10 -262144
-1 -1 0 1;
#X floatatom 207 185 5 0 0 0 - - -;
#X obj 145 63 ctlin 1;
#X obj 76 336 dac~;
#X obj 76 242 delay~ 44100;
#X obj 288 86 openpanel;
#X obj 288 62 bng 15 250 50 0 empty empty empty 17 7 0 10 -262144 -1
-1;
#X obj 288 183 readsf~ 2;
#X msg 288 111 open \$1;
#X msg 315 150 start;
#X msg 368 150 stop;
#X connect 1 0 3 0;
#X connect 1 0 6 1;
#X connect 2 0 1 0;
#X connect 4 0 2 0;
#X connect 6 0 5 0;
#X connect 7 0 10 0;
#X connect 8 0 7 0;
#X connect 9 0 6 0;
#X connect 9 0 5 0;
#X connect 10 0 9 0;
#X connect 11 0 9 0;
#X connect 12 0 9 0;
