#N canvas 226 75 711 462 10;
#X declare -lib sigpack;
#X obj 79 145 osc~;
#X obj 79 57 ctlin 1;
#X obj 179 57 ctlin 2;
#X obj 79 98 maxlib/scale 0 127 100 10000;
#X floatatom 31 69 5 0 0 0 - - -;
#X obj 228 316 dac~;
#X msg 502 256 wet \$1;
#X obj 505 229 hsl 128 15 0 1 0 0 empty empty empty -2 -8 0 10 -262144
-1 -1 0 1;
#X obj 509 169 hsl 128 15 0 1 0 0 empty empty empty -2 -8 0 10 -262144
-1 -1 10900 1;
#X msg 506 196 dry \$1;
#X obj 433 42 import sigpack;
#X obj 393 138 random 100;
#X obj 393 164 / 50;
#X obj 392 113 bng 15 250 50 0 empty empty empty 17 7 0 10 -262144
-1 -1;
#X obj 331 44 tgl 15 0 empty empty empty 17 7 0 10 -262144 -1 -1 0
1;
#X obj 331 70 metro 200;
#X obj 171 148 cursor;
#X obj 329 211 impulse~ 1;
#X obj 44 235 samplerate~;
#X floatatom 41 271 5 0 0 0 - - -;
#X obj 47 205 bng 15 250 50 0 empty empty empty 17 7 0 10 -262144 -1
-1;
#X obj 303 238 ms2sample;
#X floatatom 303 208 5 0 0 0 - - -;
#X obj 228 215 adc~ 1;
#X obj 228 267 delay~ 441000;
#X connect 1 0 3 0;
#X connect 3 0 0 0;
#X connect 4 0 3 0;
#X connect 7 0 6 0;
#X connect 8 0 9 0;
#X connect 11 0 12 0;
#X connect 12 0 17 1;
#X connect 13 0 11 0;
#X connect 14 0 15 0;
#X connect 15 0 13 0;
#X connect 17 0 24 0;
#X connect 18 0 19 0;
#X connect 20 0 18 0;
#X connect 21 0 24 1;
#X connect 22 0 21 0;
#X connect 24 0 5 0;
