#N canvas 159 133 624 403 10;
#X floatatom 49 104 5 0 0 0 - - -;
#X obj 318 84 gparams;
#X obj 50 48 hsl 128 15 0 127 0 0 empty empty empty -2 -8 0 10 -262144
-1 -1 7200 1;
#X obj 198 47 zparam sl;
#X obj 97 104 zparam nmb;
#X floatatom 69 235 5 0 0 0 - - -;
#X floatatom 221 236 5 0 0 0 - - -;
#X obj 221 177 change;
#X connect 0 0 4 0;
#X connect 2 0 3 0;
#X connect 3 0 2 0;
#X connect 4 0 0 0;
#X connect 5 0 7 0;
#X connect 6 0 5 0;
#X connect 7 0 6 0;
