#N canvas 20 53 938 579 36;
#X obj 39 53 bng 30 250 50 0 empty empty empty 17 7 0 10 -262144 -1
-1;
#X obj 39 95 openpanel;
#X obj 39 229 soundfiler;
#X msg 39 163 read -resize \$1 snd1;
#N canvas 0 22 450 278 (subpatch) 0;
#X array snd1 84672 float 2;
#X coords 0 1 84672 -1 200 140 1;
#X restore 553 112 graph;
#X floatatom 39 305 10 0 0 0 - - -;
#X obj 389 363 tabplay~ snd1;
#X obj 389 452 dac~;
#X msg 389 279 bang;
#X msg 508 280 stop;
#X msg 634 281 1000 22000;
#X msg 702 422 \$1 \$2;
#X obj 702 365 pack f f;
#X floatatom 777 219 5 0 0 0 - - -;
#X floatatom 806 138 5 0 0 0 - - -;
#X connect 0 0 1 0;
#X connect 1 0 3 0;
#X connect 2 0 5 0;
#X connect 3 0 2 0;
#X connect 6 0 7 0;
#X connect 6 0 7 1;
#X connect 6 1 12 0;
#X connect 8 0 6 0;
#X connect 9 0 6 0;
#X connect 10 0 6 0;
#X connect 11 0 6 0;
#X connect 12 0 11 0;
#X connect 13 0 12 0;
#X connect 14 0 12 1;
