#N canvas 383 222 450 300 24;
#N canvas 360 239 450 300 test 0;
#X obj 54 47 inlet;
#X obj 54 86 * 4;
#X obj 54 123 outlet;
#X connect 0 0 1 0;
#X connect 1 0 2 0;
#X restore 90 49 pd test;
#X floatatom 90 16 5 0 0 0 - - -;
#X floatatom 90 81 5 0 0 0 - - -;
#N canvas 476 222 450 300 test 0;
#X obj 54 47 inlet;
#X obj 54 123 outlet;
#X obj 54 86 * 10;
#X connect 0 0 2 0;
#X connect 2 0 1 0;
#X restore 190 49 pd test;
#X floatatom 190 16 5 0 0 0 - - -;
#X floatatom 190 81 5 0 0 0 - - -;
#X floatatom 90 136 5 0 0 0 - - -;
#X floatatom 90 201 5 0 0 0 - - -;
#X floatatom 250 136 5 0 0 0 - - -;
#X floatatom 250 201 5 0 0 0 - - -;
#X obj 90 169 abstraction1 2;
#X obj 250 169 abstraction1 5;
#X connect 0 0 2 0;
#X connect 1 0 0 0;
#X connect 3 0 5 0;
#X connect 4 0 3 0;
#X connect 6 0 10 0;
#X connect 8 0 11 0;
#X connect 10 0 7 0;
#X connect 11 0 9 0;
