#N canvas 171 31 721 497 36;
#X declare -lib tof;
#X obj 46 378 tof/param file;
#X obj 463 36 import tof;
#X obj 101 101 cnv 15 118 38 empty empty empty 20 12 0 14 -99865 -66577
0;
#X obj 109 120 hradio 10 1 0 8 empty empty presets 0 -8 0 10 -262144
-260097 -262144 0;
#X obj 200 107 bng 10 250 50 0 empty empty empty 17 7 0 10 -4034 -1
-1;
#X obj 200 120 bng 10 250 50 0 empty empty empty 17 7 0 10 -260097
-1 -1;
#X obj 46 207 f;
#X obj 200 205 f;
#X connect 3 0 6 1;
#X connect 3 0 7 1;
#X connect 4 0 7 0;
#X connect 5 0 6 0;
#X connect 6 0 0 0;
#X connect 7 0 0 1;
#X coords 0 -1 1 1 120 40 1 100 100;
