#N canvas 0 23 450 300 24;
#X obj 104 163 ztabosc~ 1;
#X obj 104 216 dac~;
#X obj 96 84 openpanel;
#X obj 239 86 hsl 128 15 0 1 0 0 empty empty empty -2 -8 0 10 -262144
-1 -1 0 1;
#X obj 249 116 hsl 128 15 0 1 0 0 empty empty empty -2 -8 0 10 -262144
-1 -1 12700 1;
#X obj 95 54 bng 15 250 50 0 empty empty empty 17 7 0 10 -262144 -1
-1;
#X obj 209 46 hsl 128 15 0 5 0 0 empty empty empty -2 -8 0 10 -262144
-1 -1 4300 1;
#X connect 0 0 1 0;
#X connect 0 0 1 1;
#X connect 2 0 0 0;
#X connect 3 0 0 2;
#X connect 4 0 0 3;
#X connect 5 0 2 0;
#X connect 6 0 0 1;
