#N canvas 30 28 883 650 24;
#X obj 30 32 inlet filename;
#X obj 30 208 soundfiler;
#N canvas 0 22 450 278 (subpatch) 0;
#X array \$0-snd1 162831 float 2;
#X coords 0 1 162831 -1 200 140 1 0 0;
#X restore 603 477 graph;
#X msg 30 152 read -resize \$1 \$2-snd1;
#X obj 30 90 pack s \$0;
#X obj 197 590 outlet~;
#X obj 197 532 tabread~ \$0-snd1;
#X obj 197 403 phasor~;
#X obj 197 250 expr 44100/$f1;
#X obj 30 264 s \$0-size;
#X obj 361 33 inlet speed;
#X obj 361 276 t b f;
#X obj 197 362 * \$1;
#X obj 527 33 inlet start;
#X obj 675 33 inlet end;
#X text 548 74 [0 \, 1];
#X text 718 72 [0 \, 1];
#X obj 527 113 t b f;
#X obj 412 169 *;
#X obj 412 113 r \$0-size;
#X floatatom 412 209 5 0 0 0 - - -;
#X obj 718 113 t b f;
#X obj 603 169 *;
#X obj 603 113 r \$0-size;
#X floatatom 603 209 5 0 0 0 - - -;
#X obj 490 306 -;
#X obj 490 345 * -1;
#X obj 490 253 t b f;
#X obj 197 445 *~;
#X obj 490 381 sig~;
#X obj 490 419 lop~ 10;
#X obj 375 350 sig~;
#X obj 375 387 lop~ 10;
#X obj 197 489 +~;
#X connect 0 0 4 0;
#X connect 1 0 9 0;
#X connect 3 0 1 0;
#X connect 4 0 3 0;
#X connect 6 0 5 0;
#X connect 7 0 28 0;
#X connect 8 0 12 0;
#X connect 10 0 11 0;
#X connect 11 0 12 0;
#X connect 11 1 12 1;
#X connect 12 0 7 0;
#X connect 13 0 17 0;
#X connect 14 0 21 0;
#X connect 17 0 18 0;
#X connect 17 1 18 1;
#X connect 18 0 20 0;
#X connect 19 0 18 0;
#X connect 20 0 25 0;
#X connect 20 0 31 0;
#X connect 21 0 22 0;
#X connect 21 1 22 1;
#X connect 22 0 24 0;
#X connect 23 0 22 0;
#X connect 24 0 27 0;
#X connect 25 0 26 0;
#X connect 26 0 8 0;
#X connect 26 0 29 0;
#X connect 27 0 25 0;
#X connect 27 1 25 1;
#X connect 28 0 33 0;
#X connect 29 0 30 0;
#X connect 30 0 28 1;
#X connect 31 0 32 0;
#X connect 32 0 33 1;
#X connect 33 0 6 0;
