#N canvas 228 23 786 658 24;
#X obj 30 32 inlet filename;
#X obj 30 208 soundfiler;
#N canvas 0 22 450 278 (subpatch) 0;
#X array \$0-snd1 162831 float 2;
#X coords 0 1 162831 -1 200 140 1 0 0;
#X restore 523 269 graph;
#X msg 30 152 read -resize \$1 \$2-snd1;
#X obj 30 90 pack s \$0;
#X obj 197 590 outlet~;
#X obj 197 532 tabread~ \$0-snd1;
#X obj 197 403 phasor~;
#X obj 197 465 *~ 0;
#X obj 197 250 expr 44100/$f1;
#X obj 30 264 s \$0-size;
#X obj 385 439 r \$0-size;
#X obj 197 208 r \$0-size;
#X obj 361 33 inlet speed;
#X obj 361 276 t b f;
#X obj 197 362 * \$1;
#X obj 545 34 inlet control;
#X msg 382 355 0;
#X obj 545 79 route stop start;
#X msg 220 297 bang;
#X connect 0 0 4 0;
#X connect 1 0 10 0;
#X connect 3 0 1 0;
#X connect 4 0 3 0;
#X connect 6 0 5 0;
#X connect 7 0 8 0;
#X connect 8 0 6 0;
#X connect 9 0 15 0;
#X connect 11 0 8 1;
#X connect 12 0 9 0;
#X connect 13 0 14 0;
#X connect 14 0 15 0;
#X connect 14 1 15 1;
#X connect 15 0 7 0;
#X connect 16 0 18 0;
#X connect 17 0 7 0;
#X connect 18 0 17 0;
#X connect 18 1 19 0;
#X connect 19 0 15 0;
