#N canvas 82 117 1157 574 36;
#X obj 151 342 pan~;
#X obj 151 431 output~;
#X obj 369 290 metro 100;
#X obj 369 268 tgl 15 0 empty empty empty 17 7 0 10 -262144 -1 -1 1
1;
#X obj 369 354 random 90;
#X obj 369 416 - 45;
#X obj 151 233 osc~;
#X obj 492 72 random 30;
#X obj 493 141 + 60;
#X obj 494 206 mtof;
#X obj 746 285 expr 1 - $f1;
#X obj 683 433 *~;
#X obj 792 433 *~;
#X obj 681 196 f;
#X obj 659 129 osc~ 100;
#X text 751 58 manual pan;
#X connect 0 0 1 0;
#X connect 0 1 1 1;
#X connect 2 0 4 0;
#X connect 2 0 7 0;
#X connect 3 0 2 0;
#X connect 4 0 5 0;
#X connect 6 0 0 0;
#X connect 7 0 8 0;
#X connect 8 0 9 0;
#X connect 9 0 6 0;
#X connect 10 0 11 1;
#X connect 13 0 10 0;
#X connect 13 0 12 1;
#X connect 14 0 11 0;
#X connect 14 0 12 0;
